<svg width="521" height="610" viewBox="0 0 521 610" fill="none" xmlns="http://www.w3.org/2000/svg">
<rect width="521" height="610" rx="11" fill="white"/>
<rect width="521" height="610" rx="11" fill="#CFCED6"/>
<path d="M211.557 111V96.7812H209.848V102.895H204.018V96.7812H202.318V111H204.018V104.428H209.848V111H211.557ZM214.145 105.619V105.834C214.145 106.596 214.255 107.302 214.477 107.953C214.698 108.604 215.017 109.171 215.434 109.652C215.844 110.134 216.345 110.512 216.938 110.785C217.536 111.059 218.21 111.195 218.959 111.195C219.701 111.195 220.368 111.059 220.961 110.785C221.553 110.512 222.058 110.134 222.475 109.652C222.885 109.171 223.201 108.604 223.422 107.953C223.643 107.302 223.754 106.596 223.754 105.834V105.619C223.754 104.857 223.643 104.151 223.422 103.5C223.201 102.842 222.885 102.273 222.475 101.791C222.058 101.309 221.55 100.932 220.951 100.658C220.359 100.378 219.688 100.238 218.939 100.238C218.197 100.238 217.53 100.378 216.938 100.658C216.345 100.932 215.844 101.309 215.434 101.791C215.017 102.273 214.698 102.842 214.477 103.5C214.255 104.151 214.145 104.857 214.145 105.619ZM215.951 105.834V105.619C215.951 105.105 216.013 104.613 216.137 104.145C216.26 103.669 216.449 103.253 216.703 102.895C216.951 102.536 217.26 102.253 217.631 102.045C218.002 101.83 218.438 101.723 218.939 101.723C219.441 101.723 219.877 101.83 220.248 102.045C220.626 102.253 220.941 102.536 221.195 102.895C221.443 103.253 221.628 103.669 221.752 104.145C221.882 104.613 221.947 105.105 221.947 105.619V105.834C221.947 106.355 221.885 106.853 221.762 107.328C221.638 107.797 221.452 108.21 221.205 108.568C220.951 108.926 220.635 109.21 220.258 109.418C219.887 109.626 219.454 109.73 218.959 109.73C218.458 109.73 218.018 109.626 217.641 109.418C217.263 109.21 216.951 108.926 216.703 108.568C216.449 108.21 216.26 107.797 216.137 107.328C216.013 106.853 215.951 106.355 215.951 105.834ZM230.268 111H231.645L235.951 100.434H234.105L231.146 108.402L230.971 109.057L230.805 108.402L227.777 100.434H225.922L230.268 111ZM243.344 111.195C244.372 111.195 245.235 110.99 245.932 110.58C246.635 110.163 247.162 109.688 247.514 109.154L246.41 108.295C246.078 108.725 245.661 109.07 245.16 109.33C244.659 109.59 244.086 109.721 243.441 109.721C242.953 109.721 242.507 109.63 242.104 109.447C241.7 109.265 241.355 109.014 241.068 108.695C240.788 108.396 240.567 108.051 240.404 107.66C240.248 107.27 240.147 106.817 240.102 106.303V106.234H247.65V105.424C247.65 104.688 247.556 104.005 247.367 103.373C247.185 102.742 246.905 102.191 246.527 101.723C246.15 101.26 245.674 100.899 245.102 100.639C244.535 100.372 243.871 100.238 243.109 100.238C242.504 100.238 241.911 100.362 241.332 100.609C240.759 100.857 240.248 101.212 239.799 101.674C239.343 102.143 238.979 102.715 238.705 103.393C238.432 104.063 238.295 104.825 238.295 105.678V106.088C238.295 106.824 238.419 107.504 238.666 108.129C238.913 108.754 239.258 109.294 239.701 109.75C240.144 110.206 240.674 110.561 241.293 110.814C241.918 111.068 242.602 111.195 243.344 111.195ZM243.109 101.723C243.572 101.723 243.969 101.807 244.301 101.977C244.639 102.146 244.919 102.367 245.141 102.641C245.362 102.914 245.535 103.24 245.658 103.617C245.782 103.988 245.844 104.337 245.844 104.662V104.75H240.16C240.232 104.262 240.355 103.832 240.531 103.461C240.714 103.083 240.935 102.764 241.195 102.504C241.456 102.25 241.749 102.058 242.074 101.928C242.4 101.791 242.745 101.723 243.109 101.723ZM257.611 100.238C256.843 100.238 256.156 100.408 255.551 100.746C254.952 101.078 254.438 101.534 254.008 102.113L253.998 101.85L253.92 100.434H252.201V111H254.018V104.223C254.135 103.897 254.281 103.604 254.457 103.344C254.639 103.077 254.851 102.852 255.092 102.67C255.359 102.462 255.671 102.305 256.029 102.201C256.387 102.09 256.788 102.035 257.23 102.035C257.576 102.035 257.904 102.055 258.217 102.094C258.536 102.126 258.871 102.182 259.223 102.26L259.467 100.492C259.285 100.414 259.011 100.352 258.646 100.307C258.288 100.261 257.943 100.238 257.611 100.238ZM274.203 105.619V105.834C274.203 106.596 274.314 107.302 274.535 107.953C274.757 108.604 275.076 109.171 275.492 109.652C275.902 110.134 276.404 110.512 276.996 110.785C277.595 111.059 278.269 111.195 279.018 111.195C279.76 111.195 280.427 111.059 281.02 110.785C281.612 110.512 282.117 110.134 282.533 109.652C282.943 109.171 283.259 108.604 283.48 107.953C283.702 107.302 283.812 106.596 283.812 105.834V105.619C283.812 104.857 283.702 104.151 283.48 103.5C283.259 102.842 282.943 102.273 282.533 101.791C282.117 101.309 281.609 100.932 281.01 100.658C280.417 100.378 279.747 100.238 278.998 100.238C278.256 100.238 277.589 100.378 276.996 100.658C276.404 100.932 275.902 101.309 275.492 101.791C275.076 102.273 274.757 102.842 274.535 103.5C274.314 104.151 274.203 104.857 274.203 105.619ZM276.01 105.834V105.619C276.01 105.105 276.072 104.613 276.195 104.145C276.319 103.669 276.508 103.253 276.762 102.895C277.009 102.536 277.318 102.253 277.689 102.045C278.061 101.83 278.497 101.723 278.998 101.723C279.499 101.723 279.936 101.83 280.307 102.045C280.684 102.253 281 102.536 281.254 102.895C281.501 103.253 281.687 103.669 281.811 104.145C281.941 104.613 282.006 105.105 282.006 105.619V105.834C282.006 106.355 281.944 106.853 281.82 107.328C281.697 107.797 281.511 108.21 281.264 108.568C281.01 108.926 280.694 109.21 280.316 109.418C279.945 109.626 279.512 109.73 279.018 109.73C278.516 109.73 278.077 109.626 277.699 109.418C277.322 109.21 277.009 108.926 276.762 108.568C276.508 108.21 276.319 107.797 276.195 107.328C276.072 106.853 276.01 106.355 276.01 105.834ZM290.326 111H291.703L296.01 100.434H294.164L291.205 108.402L291.029 109.057L290.863 108.402L287.836 100.434H285.98L290.326 111ZM303.402 111.195C304.431 111.195 305.294 110.99 305.99 110.58C306.693 110.163 307.221 109.688 307.572 109.154L306.469 108.295C306.137 108.725 305.72 109.07 305.219 109.33C304.717 109.59 304.145 109.721 303.5 109.721C303.012 109.721 302.566 109.63 302.162 109.447C301.758 109.265 301.413 109.014 301.127 108.695C300.847 108.396 300.626 108.051 300.463 107.66C300.307 107.27 300.206 106.817 300.16 106.303V106.234H307.709V105.424C307.709 104.688 307.615 104.005 307.426 103.373C307.243 102.742 306.964 102.191 306.586 101.723C306.208 101.26 305.733 100.899 305.16 100.639C304.594 100.372 303.93 100.238 303.168 100.238C302.562 100.238 301.97 100.362 301.391 100.609C300.818 100.857 300.307 101.212 299.857 101.674C299.402 102.143 299.037 102.715 298.764 103.393C298.49 104.063 298.354 104.825 298.354 105.678V106.088C298.354 106.824 298.477 107.504 298.725 108.129C298.972 108.754 299.317 109.294 299.76 109.75C300.202 110.206 300.733 110.561 301.352 110.814C301.977 111.068 302.66 111.195 303.402 111.195ZM303.168 101.723C303.63 101.723 304.027 101.807 304.359 101.977C304.698 102.146 304.978 102.367 305.199 102.641C305.421 102.914 305.593 103.24 305.717 103.617C305.84 103.988 305.902 104.337 305.902 104.662V104.75H300.219C300.29 104.262 300.414 103.832 300.59 103.461C300.772 103.083 300.993 102.764 301.254 102.504C301.514 102.25 301.807 102.058 302.133 101.928C302.458 101.791 302.803 101.723 303.168 101.723ZM317.67 100.238C316.902 100.238 316.215 100.408 315.609 100.746C315.01 101.078 314.496 101.534 314.066 102.113L314.057 101.85L313.979 100.434H312.26V111H314.076V104.223C314.193 103.897 314.34 103.604 314.516 103.344C314.698 103.077 314.91 102.852 315.15 102.67C315.417 102.462 315.73 102.305 316.088 102.201C316.446 102.09 316.846 102.035 317.289 102.035C317.634 102.035 317.963 102.055 318.275 102.094C318.594 102.126 318.93 102.182 319.281 102.26L319.525 100.492C319.343 100.414 319.07 100.352 318.705 100.307C318.347 100.261 318.002 100.238 317.67 100.238ZM188.9 123.875H187.084V126.434H184.311V127.83H187.084V133.572C187.084 134.223 187.169 134.78 187.338 135.242C187.514 135.698 187.751 136.069 188.051 136.355C188.35 136.648 188.702 136.863 189.105 137C189.516 137.13 189.955 137.195 190.424 137.195C190.704 137.195 190.984 137.182 191.264 137.156C191.55 137.13 191.82 137.091 192.074 137.039C192.328 136.993 192.562 136.938 192.777 136.873C192.992 136.801 193.174 136.72 193.324 136.629L193.07 135.35C192.96 135.376 192.816 135.408 192.641 135.447C192.471 135.48 192.289 135.512 192.094 135.545C191.892 135.577 191.687 135.607 191.479 135.633C191.27 135.652 191.068 135.662 190.873 135.662C190.606 135.662 190.352 135.63 190.111 135.564C189.877 135.499 189.669 135.385 189.486 135.223C189.304 135.066 189.161 134.855 189.057 134.588C188.952 134.321 188.9 133.982 188.9 133.572V127.83H192.924V126.434H188.9V123.875ZM198.441 128.006V122H196.635V137H198.441V129.324C198.572 129.116 198.718 128.927 198.881 128.758C199.05 128.582 199.232 128.429 199.428 128.299C199.675 128.13 199.945 127.999 200.238 127.908C200.531 127.817 200.84 127.771 201.166 127.771C201.563 127.765 201.915 127.82 202.221 127.938C202.527 128.048 202.781 128.217 202.982 128.445C203.171 128.654 203.314 128.917 203.412 129.236C203.51 129.549 203.559 129.913 203.559 130.33V137H205.365V130.35C205.365 129.64 205.277 129.028 205.102 128.514C204.932 127.993 204.688 127.563 204.369 127.225C204.05 126.886 203.663 126.639 203.207 126.482C202.758 126.32 202.257 126.238 201.703 126.238C201.28 126.245 200.88 126.307 200.502 126.424C200.131 126.541 199.789 126.714 199.477 126.941C199.281 127.078 199.096 127.238 198.92 127.42C198.744 127.596 198.585 127.791 198.441 128.006ZM213.314 137.195C214.343 137.195 215.206 136.99 215.902 136.58C216.605 136.163 217.133 135.688 217.484 135.154L216.381 134.295C216.049 134.725 215.632 135.07 215.131 135.33C214.63 135.59 214.057 135.721 213.412 135.721C212.924 135.721 212.478 135.63 212.074 135.447C211.671 135.265 211.326 135.014 211.039 134.695C210.759 134.396 210.538 134.051 210.375 133.66C210.219 133.27 210.118 132.817 210.072 132.303V132.234H217.621V131.424C217.621 130.688 217.527 130.005 217.338 129.373C217.156 128.742 216.876 128.191 216.498 127.723C216.12 127.26 215.645 126.899 215.072 126.639C214.506 126.372 213.842 126.238 213.08 126.238C212.475 126.238 211.882 126.362 211.303 126.609C210.73 126.857 210.219 127.212 209.77 127.674C209.314 128.143 208.949 128.715 208.676 129.393C208.402 130.063 208.266 130.825 208.266 131.678V132.088C208.266 132.824 208.389 133.504 208.637 134.129C208.884 134.754 209.229 135.294 209.672 135.75C210.115 136.206 210.645 136.561 211.264 136.814C211.889 137.068 212.572 137.195 213.314 137.195ZM213.08 127.723C213.542 127.723 213.939 127.807 214.271 127.977C214.61 128.146 214.89 128.367 215.111 128.641C215.333 128.914 215.505 129.24 215.629 129.617C215.753 129.988 215.814 130.337 215.814 130.662V130.75H210.131C210.202 130.262 210.326 129.832 210.502 129.461C210.684 129.083 210.906 128.764 211.166 128.504C211.426 128.25 211.719 128.058 212.045 127.928C212.37 127.791 212.715 127.723 213.08 127.723ZM232.66 141.062H234.467V135.984C234.597 136.128 234.737 136.261 234.887 136.385C235.036 136.502 235.196 136.609 235.365 136.707C235.645 136.863 235.958 136.984 236.303 137.068C236.654 137.153 237.032 137.195 237.436 137.195C238.1 137.195 238.689 137.059 239.203 136.785C239.724 136.512 240.16 136.134 240.512 135.652C240.863 135.171 241.13 134.604 241.312 133.953C241.495 133.296 241.586 132.589 241.586 131.834V131.629C241.586 130.841 241.495 130.118 241.312 129.461C241.13 128.797 240.863 128.227 240.512 127.752C240.16 127.277 239.724 126.906 239.203 126.639C238.682 126.372 238.083 126.238 237.406 126.238C237.022 126.238 236.661 126.281 236.322 126.365C235.99 126.443 235.688 126.561 235.414 126.717C235.219 126.821 235.036 126.948 234.867 127.098C234.698 127.241 234.542 127.404 234.398 127.586L234.311 126.434H232.66V141.062ZM239.779 131.629V131.834C239.779 132.348 239.721 132.84 239.604 133.309C239.493 133.777 239.32 134.191 239.086 134.549C238.852 134.907 238.552 135.193 238.188 135.408C237.823 135.617 237.39 135.721 236.889 135.721C236.576 135.721 236.29 135.682 236.029 135.604C235.775 135.525 235.544 135.418 235.336 135.281C235.154 135.164 234.991 135.021 234.848 134.852C234.704 134.682 234.577 134.5 234.467 134.305V129.217C234.59 128.995 234.734 128.794 234.896 128.611C235.059 128.429 235.245 128.276 235.453 128.152C235.642 128.029 235.854 127.934 236.088 127.869C236.329 127.804 236.589 127.771 236.869 127.771C237.377 127.771 237.813 127.876 238.178 128.084C238.542 128.292 238.845 128.572 239.086 128.924C239.32 129.282 239.493 129.695 239.604 130.164C239.721 130.626 239.779 131.115 239.779 131.629ZM251.605 126.238C250.837 126.238 250.15 126.408 249.545 126.746C248.946 127.078 248.432 127.534 248.002 128.113L247.992 127.85L247.914 126.434H246.195V137H248.012V130.223C248.129 129.897 248.275 129.604 248.451 129.344C248.633 129.077 248.845 128.852 249.086 128.67C249.353 128.462 249.665 128.305 250.023 128.201C250.382 128.09 250.782 128.035 251.225 128.035C251.57 128.035 251.898 128.055 252.211 128.094C252.53 128.126 252.865 128.182 253.217 128.26L253.461 126.492C253.279 126.414 253.005 126.352 252.641 126.307C252.283 126.261 251.938 126.238 251.605 126.238ZM256.186 131.619V131.834C256.186 132.596 256.296 133.302 256.518 133.953C256.739 134.604 257.058 135.171 257.475 135.652C257.885 136.134 258.386 136.512 258.979 136.785C259.577 137.059 260.251 137.195 261 137.195C261.742 137.195 262.41 137.059 263.002 136.785C263.594 136.512 264.099 136.134 264.516 135.652C264.926 135.171 265.242 134.604 265.463 133.953C265.684 133.302 265.795 132.596 265.795 131.834V131.619C265.795 130.857 265.684 130.151 265.463 129.5C265.242 128.842 264.926 128.273 264.516 127.791C264.099 127.309 263.591 126.932 262.992 126.658C262.4 126.378 261.729 126.238 260.98 126.238C260.238 126.238 259.571 126.378 258.979 126.658C258.386 126.932 257.885 127.309 257.475 127.791C257.058 128.273 256.739 128.842 256.518 129.5C256.296 130.151 256.186 130.857 256.186 131.619ZM257.992 131.834V131.619C257.992 131.105 258.054 130.613 258.178 130.145C258.301 129.669 258.49 129.253 258.744 128.895C258.992 128.536 259.301 128.253 259.672 128.045C260.043 127.83 260.479 127.723 260.98 127.723C261.482 127.723 261.918 127.83 262.289 128.045C262.667 128.253 262.982 128.536 263.236 128.895C263.484 129.253 263.669 129.669 263.793 130.145C263.923 130.613 263.988 131.105 263.988 131.619V131.834C263.988 132.355 263.926 132.853 263.803 133.328C263.679 133.797 263.493 134.21 263.246 134.568C262.992 134.926 262.676 135.21 262.299 135.418C261.928 135.626 261.495 135.73 261 135.73C260.499 135.73 260.059 135.626 259.682 135.418C259.304 135.21 258.992 134.926 258.744 134.568C258.49 134.21 258.301 133.797 258.178 133.328C258.054 132.853 257.992 132.355 257.992 131.834ZM269.926 126.434V128.006H273.451V137.068C273.451 137.57 273.386 137.99 273.256 138.328C273.132 138.673 272.96 138.95 272.738 139.158C272.517 139.367 272.257 139.513 271.957 139.598C271.658 139.689 271.339 139.734 271 139.734C270.909 139.734 270.782 139.731 270.619 139.725C270.463 139.725 270.3 139.718 270.131 139.705C269.955 139.699 269.783 139.686 269.613 139.666C269.444 139.653 269.304 139.637 269.193 139.617L269.066 141.102C269.229 141.128 269.385 141.15 269.535 141.17C269.685 141.196 269.835 141.215 269.984 141.229C270.167 141.242 270.352 141.251 270.541 141.258C270.73 141.264 270.925 141.268 271.127 141.268C271.778 141.268 272.357 141.173 272.865 140.984C273.38 140.802 273.816 140.532 274.174 140.174C274.525 139.822 274.792 139.386 274.975 138.865C275.163 138.344 275.258 137.745 275.258 137.068V126.434H269.926ZM273.197 123.65C273.197 123.943 273.285 124.191 273.461 124.393C273.637 124.588 273.907 124.686 274.271 124.686C274.636 124.686 274.91 124.588 275.092 124.393C275.274 124.191 275.365 123.943 275.365 123.65C275.365 123.357 275.274 123.11 275.092 122.908C274.91 122.7 274.636 122.596 274.271 122.596C273.907 122.596 273.637 122.7 273.461 122.908C273.285 123.11 273.197 123.357 273.197 123.65ZM285.385 137.195C286.413 137.195 287.276 136.99 287.973 136.58C288.676 136.163 289.203 135.688 289.555 135.154L288.451 134.295C288.119 134.725 287.702 135.07 287.201 135.33C286.7 135.59 286.127 135.721 285.482 135.721C284.994 135.721 284.548 135.63 284.145 135.447C283.741 135.265 283.396 135.014 283.109 134.695C282.829 134.396 282.608 134.051 282.445 133.66C282.289 133.27 282.188 132.817 282.143 132.303V132.234H289.691V131.424C289.691 130.688 289.597 130.005 289.408 129.373C289.226 128.742 288.946 128.191 288.568 127.723C288.191 127.26 287.715 126.899 287.143 126.639C286.576 126.372 285.912 126.238 285.15 126.238C284.545 126.238 283.952 126.362 283.373 126.609C282.8 126.857 282.289 127.212 281.84 127.674C281.384 128.143 281.02 128.715 280.746 129.393C280.473 130.063 280.336 130.825 280.336 131.678V132.088C280.336 132.824 280.46 133.504 280.707 134.129C280.954 134.754 281.299 135.294 281.742 135.75C282.185 136.206 282.715 136.561 283.334 136.814C283.959 137.068 284.643 137.195 285.385 137.195ZM285.15 127.723C285.613 127.723 286.01 127.807 286.342 127.977C286.68 128.146 286.96 128.367 287.182 128.641C287.403 128.914 287.576 129.24 287.699 129.617C287.823 129.988 287.885 130.337 287.885 130.662V130.75H282.201C282.273 130.262 282.396 129.832 282.572 129.461C282.755 129.083 282.976 128.764 283.236 128.504C283.497 128.25 283.79 128.058 284.115 127.928C284.441 127.791 284.786 127.723 285.15 127.723ZM297.23 135.73C296.664 135.73 296.189 135.62 295.805 135.398C295.427 135.171 295.124 134.874 294.896 134.51C294.662 134.152 294.493 133.748 294.389 133.299C294.291 132.843 294.242 132.384 294.242 131.922V131.512C294.242 131.056 294.291 130.604 294.389 130.154C294.493 129.705 294.662 129.298 294.896 128.934C295.131 128.576 295.437 128.286 295.814 128.064C296.199 127.837 296.671 127.723 297.23 127.723C297.595 127.723 297.934 127.785 298.246 127.908C298.565 128.032 298.839 128.201 299.066 128.416C299.294 128.631 299.473 128.882 299.604 129.168C299.74 129.448 299.812 129.747 299.818 130.066H301.527C301.527 129.533 301.42 129.031 301.205 128.562C300.99 128.094 300.694 127.687 300.316 127.342C299.932 127.003 299.477 126.736 298.949 126.541C298.428 126.339 297.855 126.238 297.23 126.238C296.43 126.238 295.73 126.382 295.131 126.668C294.532 126.954 294.034 127.339 293.637 127.82C293.233 128.309 292.93 128.872 292.729 129.51C292.527 130.148 292.426 130.815 292.426 131.512V131.922C292.426 132.625 292.527 133.296 292.729 133.934C292.93 134.565 293.233 135.122 293.637 135.604C294.034 136.092 294.532 136.479 295.131 136.766C295.73 137.052 296.43 137.195 297.23 137.195C297.79 137.195 298.327 137.101 298.842 136.912C299.356 136.717 299.812 136.456 300.209 136.131C300.606 135.812 300.922 135.441 301.156 135.018C301.397 134.588 301.521 134.139 301.527 133.67H299.818C299.812 133.963 299.734 134.236 299.584 134.49C299.441 134.738 299.249 134.952 299.008 135.135C298.767 135.324 298.49 135.47 298.178 135.574C297.872 135.678 297.556 135.73 297.23 135.73ZM309.018 123.875H307.201V126.434H304.428V127.83H307.201V133.572C307.201 134.223 307.286 134.78 307.455 135.242C307.631 135.698 307.868 136.069 308.168 136.355C308.467 136.648 308.819 136.863 309.223 137C309.633 137.13 310.072 137.195 310.541 137.195C310.821 137.195 311.101 137.182 311.381 137.156C311.667 137.13 311.938 137.091 312.191 137.039C312.445 136.993 312.68 136.938 312.895 136.873C313.109 136.801 313.292 136.72 313.441 136.629L313.188 135.35C313.077 135.376 312.934 135.408 312.758 135.447C312.589 135.48 312.406 135.512 312.211 135.545C312.009 135.577 311.804 135.607 311.596 135.633C311.387 135.652 311.186 135.662 310.99 135.662C310.723 135.662 310.469 135.63 310.229 135.564C309.994 135.499 309.786 135.385 309.604 135.223C309.421 135.066 309.278 134.855 309.174 134.588C309.07 134.321 309.018 133.982 309.018 133.572V127.83H313.041V126.434H309.018V123.875ZM323.773 134.197C323.773 134.367 323.741 134.526 323.676 134.676C323.611 134.826 323.516 134.962 323.393 135.086C323.191 135.288 322.911 135.447 322.553 135.564C322.195 135.675 321.775 135.73 321.293 135.73C320.987 135.73 320.678 135.698 320.365 135.633C320.053 135.568 319.77 135.457 319.516 135.301C319.255 135.145 319.037 134.939 318.861 134.686C318.692 134.432 318.594 134.119 318.568 133.748H316.762C316.762 134.197 316.863 134.63 317.064 135.047C317.273 135.464 317.572 135.828 317.963 136.141C318.347 136.46 318.819 136.717 319.379 136.912C319.939 137.101 320.577 137.195 321.293 137.195C321.918 137.195 322.494 137.12 323.021 136.971C323.549 136.821 324.001 136.609 324.379 136.336C324.757 136.062 325.049 135.734 325.258 135.35C325.473 134.965 325.58 134.539 325.58 134.07C325.58 133.634 325.486 133.25 325.297 132.918C325.115 132.586 324.848 132.293 324.496 132.039C324.145 131.792 323.712 131.58 323.197 131.404C322.683 131.222 322.1 131.062 321.449 130.926C320.954 130.828 320.544 130.727 320.219 130.623C319.9 130.519 319.646 130.402 319.457 130.271C319.262 130.141 319.125 129.995 319.047 129.832C318.969 129.669 318.93 129.484 318.93 129.275C318.93 129.074 318.979 128.878 319.076 128.689C319.174 128.501 319.32 128.335 319.516 128.191C319.704 128.048 319.942 127.934 320.229 127.85C320.521 127.765 320.86 127.723 321.244 127.723C321.615 127.723 321.947 127.775 322.24 127.879C322.54 127.983 322.794 128.12 323.002 128.289C323.21 128.458 323.373 128.654 323.49 128.875C323.607 129.09 323.666 129.311 323.666 129.539H325.473C325.473 129.077 325.372 128.647 325.17 128.25C324.975 127.846 324.695 127.495 324.33 127.195C323.965 126.896 323.523 126.661 323.002 126.492C322.481 126.323 321.895 126.238 321.244 126.238C320.639 126.238 320.082 126.32 319.574 126.482C319.073 126.645 318.64 126.867 318.275 127.146C317.911 127.426 317.628 127.755 317.426 128.133C317.224 128.504 317.123 128.904 317.123 129.334C317.123 129.77 317.221 130.154 317.416 130.486C317.611 130.812 317.888 131.095 318.246 131.336C318.598 131.583 319.021 131.795 319.516 131.971C320.017 132.146 320.57 132.296 321.176 132.42C321.671 132.518 322.084 132.628 322.416 132.752C322.748 132.869 323.015 132.999 323.217 133.143C323.419 133.286 323.562 133.445 323.646 133.621C323.731 133.79 323.773 133.982 323.773 134.197ZM331.146 138.221L337.074 122.781H335.463L329.525 138.221H331.146ZM209.584 163H211.469V162.844C211.352 162.551 211.26 162.209 211.195 161.818C211.13 161.421 211.098 161.047 211.098 160.695V155.783C211.098 155.191 210.99 154.673 210.775 154.23C210.561 153.788 210.268 153.417 209.896 153.117C209.519 152.824 209.073 152.606 208.559 152.463C208.044 152.313 207.488 152.238 206.889 152.238C206.231 152.238 205.642 152.329 205.121 152.512C204.607 152.694 204.171 152.932 203.812 153.225C203.448 153.524 203.168 153.859 202.973 154.23C202.784 154.602 202.686 154.979 202.68 155.363H204.496C204.496 155.142 204.548 154.93 204.652 154.729C204.763 154.52 204.916 154.341 205.111 154.191C205.307 154.042 205.544 153.921 205.824 153.83C206.111 153.739 206.433 153.693 206.791 153.693C207.175 153.693 207.52 153.742 207.826 153.84C208.139 153.938 208.402 154.074 208.617 154.25C208.832 154.432 208.998 154.65 209.115 154.904C209.232 155.158 209.291 155.445 209.291 155.764V156.594H207.318C206.583 156.594 205.915 156.665 205.316 156.809C204.724 156.952 204.216 157.167 203.793 157.453C203.37 157.746 203.041 158.111 202.807 158.547C202.579 158.983 202.465 159.491 202.465 160.07C202.465 160.513 202.549 160.926 202.719 161.311C202.895 161.688 203.142 162.014 203.461 162.287C203.773 162.567 204.154 162.788 204.604 162.951C205.059 163.114 205.567 163.195 206.127 163.195C206.472 163.195 206.798 163.16 207.104 163.088C207.41 163.016 207.699 162.919 207.973 162.795C208.24 162.671 208.484 162.528 208.705 162.365C208.933 162.202 209.138 162.03 209.32 161.848C209.34 162.069 209.369 162.284 209.408 162.492C209.454 162.694 209.512 162.863 209.584 163ZM206.391 161.623C206.039 161.623 205.73 161.577 205.463 161.486C205.196 161.395 204.975 161.268 204.799 161.105C204.623 160.949 204.49 160.76 204.398 160.539C204.314 160.318 204.271 160.077 204.271 159.816C204.271 159.543 204.32 159.299 204.418 159.084C204.522 158.869 204.672 158.684 204.867 158.527C205.141 158.306 205.508 158.143 205.971 158.039C206.439 157.928 206.986 157.873 207.611 157.873H209.291V160.012C209.187 160.22 209.044 160.422 208.861 160.617C208.679 160.806 208.464 160.975 208.217 161.125C207.963 161.275 207.683 161.395 207.377 161.486C207.071 161.577 206.742 161.623 206.391 161.623ZM219.154 161.73C218.588 161.73 218.113 161.62 217.729 161.398C217.351 161.171 217.048 160.874 216.82 160.51C216.586 160.152 216.417 159.748 216.312 159.299C216.215 158.843 216.166 158.384 216.166 157.922V157.512C216.166 157.056 216.215 156.604 216.312 156.154C216.417 155.705 216.586 155.298 216.82 154.934C217.055 154.576 217.361 154.286 217.738 154.064C218.122 153.837 218.594 153.723 219.154 153.723C219.519 153.723 219.857 153.785 220.17 153.908C220.489 154.032 220.762 154.201 220.99 154.416C221.218 154.631 221.397 154.882 221.527 155.168C221.664 155.448 221.736 155.747 221.742 156.066H223.451C223.451 155.533 223.344 155.031 223.129 154.562C222.914 154.094 222.618 153.687 222.24 153.342C221.856 153.003 221.4 152.736 220.873 152.541C220.352 152.339 219.779 152.238 219.154 152.238C218.354 152.238 217.654 152.382 217.055 152.668C216.456 152.954 215.958 153.339 215.561 153.82C215.157 154.309 214.854 154.872 214.652 155.51C214.451 156.148 214.35 156.815 214.35 157.512V157.922C214.35 158.625 214.451 159.296 214.652 159.934C214.854 160.565 215.157 161.122 215.561 161.604C215.958 162.092 216.456 162.479 217.055 162.766C217.654 163.052 218.354 163.195 219.154 163.195C219.714 163.195 220.251 163.101 220.766 162.912C221.28 162.717 221.736 162.456 222.133 162.131C222.53 161.812 222.846 161.441 223.08 161.018C223.321 160.588 223.445 160.139 223.451 159.67H221.742C221.736 159.963 221.658 160.236 221.508 160.49C221.365 160.738 221.173 160.952 220.932 161.135C220.691 161.324 220.414 161.47 220.102 161.574C219.796 161.678 219.48 161.73 219.154 161.73ZM230.941 149.875H229.125V152.434H226.352V153.83H229.125V159.572C229.125 160.223 229.21 160.78 229.379 161.242C229.555 161.698 229.792 162.069 230.092 162.355C230.391 162.648 230.743 162.863 231.146 163C231.557 163.13 231.996 163.195 232.465 163.195C232.745 163.195 233.025 163.182 233.305 163.156C233.591 163.13 233.861 163.091 234.115 163.039C234.369 162.993 234.604 162.938 234.818 162.873C235.033 162.801 235.215 162.72 235.365 162.629L235.111 161.35C235.001 161.376 234.857 161.408 234.682 161.447C234.512 161.48 234.33 161.512 234.135 161.545C233.933 161.577 233.728 161.607 233.52 161.633C233.311 161.652 233.109 161.662 232.914 161.662C232.647 161.662 232.393 161.63 232.152 161.564C231.918 161.499 231.71 161.385 231.527 161.223C231.345 161.066 231.202 160.855 231.098 160.588C230.993 160.321 230.941 159.982 230.941 159.572V153.83H234.965V152.434H230.941V149.875ZM238.959 152.434V154.006H242.553V161.438H238.959V163H247.807V161.438H244.359V152.434H238.959ZM242.318 149.66C242.318 149.953 242.406 150.197 242.582 150.393C242.764 150.588 243.038 150.686 243.402 150.686C243.76 150.686 244.031 150.588 244.213 150.393C244.395 150.197 244.486 149.953 244.486 149.66C244.486 149.497 244.46 149.348 244.408 149.211C244.356 149.074 244.278 148.96 244.174 148.869C244.089 148.785 243.982 148.719 243.852 148.674C243.721 148.622 243.572 148.596 243.402 148.596C243.233 148.596 243.08 148.622 242.943 148.674C242.813 148.719 242.706 148.785 242.621 148.869C242.517 148.967 242.439 149.084 242.387 149.221C242.341 149.357 242.318 149.504 242.318 149.66ZM254.291 163H255.668L259.975 152.434H258.129L255.17 160.402L254.994 161.057L254.828 160.402L251.801 152.434H249.945L254.291 163ZM262.982 152.434V154.006H266.576V161.438H262.982V163H271.83V161.438H268.383V152.434H262.982ZM266.342 149.66C266.342 149.953 266.43 150.197 266.605 150.393C266.788 150.588 267.061 150.686 267.426 150.686C267.784 150.686 268.054 150.588 268.236 150.393C268.419 150.197 268.51 149.953 268.51 149.66C268.51 149.497 268.484 149.348 268.432 149.211C268.38 149.074 268.301 148.96 268.197 148.869C268.113 148.785 268.005 148.719 267.875 148.674C267.745 148.622 267.595 148.596 267.426 148.596C267.257 148.596 267.104 148.622 266.967 148.674C266.837 148.719 266.729 148.785 266.645 148.869C266.54 148.967 266.462 149.084 266.41 149.221C266.365 149.357 266.342 149.504 266.342 149.66ZM278.988 149.875H277.172V152.434H274.398V153.83H277.172V159.572C277.172 160.223 277.257 160.78 277.426 161.242C277.602 161.698 277.839 162.069 278.139 162.355C278.438 162.648 278.79 162.863 279.193 163C279.604 163.13 280.043 163.195 280.512 163.195C280.792 163.195 281.072 163.182 281.352 163.156C281.638 163.13 281.908 163.091 282.162 163.039C282.416 162.993 282.65 162.938 282.865 162.873C283.08 162.801 283.262 162.72 283.412 162.629L283.158 161.35C283.048 161.376 282.904 161.408 282.729 161.447C282.559 161.48 282.377 161.512 282.182 161.545C281.98 161.577 281.775 161.607 281.566 161.633C281.358 161.652 281.156 161.662 280.961 161.662C280.694 161.662 280.44 161.63 280.199 161.564C279.965 161.499 279.757 161.385 279.574 161.223C279.392 161.066 279.249 160.855 279.145 160.588C279.04 160.321 278.988 159.982 278.988 159.572V153.83H283.012V152.434H278.988V149.875ZM287.006 152.434V154.006H290.6V161.438H287.006V163H295.854V161.438H292.406V152.434H287.006ZM290.365 149.66C290.365 149.953 290.453 150.197 290.629 150.393C290.811 150.588 291.085 150.686 291.449 150.686C291.807 150.686 292.077 150.588 292.26 150.393C292.442 150.197 292.533 149.953 292.533 149.66C292.533 149.497 292.507 149.348 292.455 149.211C292.403 149.074 292.325 148.96 292.221 148.869C292.136 148.785 292.029 148.719 291.898 148.674C291.768 148.622 291.618 148.596 291.449 148.596C291.28 148.596 291.127 148.622 290.99 148.674C290.86 148.719 290.753 148.785 290.668 148.869C290.564 148.967 290.486 149.084 290.434 149.221C290.388 149.357 290.365 149.504 290.365 149.66ZM303.402 163.195C304.431 163.195 305.294 162.99 305.99 162.58C306.693 162.163 307.221 161.688 307.572 161.154L306.469 160.295C306.137 160.725 305.72 161.07 305.219 161.33C304.717 161.59 304.145 161.721 303.5 161.721C303.012 161.721 302.566 161.63 302.162 161.447C301.758 161.265 301.413 161.014 301.127 160.695C300.847 160.396 300.626 160.051 300.463 159.66C300.307 159.27 300.206 158.817 300.16 158.303V158.234H307.709V157.424C307.709 156.688 307.615 156.005 307.426 155.373C307.243 154.742 306.964 154.191 306.586 153.723C306.208 153.26 305.733 152.899 305.16 152.639C304.594 152.372 303.93 152.238 303.168 152.238C302.562 152.238 301.97 152.362 301.391 152.609C300.818 152.857 300.307 153.212 299.857 153.674C299.402 154.143 299.037 154.715 298.764 155.393C298.49 156.063 298.354 156.825 298.354 157.678V158.088C298.354 158.824 298.477 159.504 298.725 160.129C298.972 160.754 299.317 161.294 299.76 161.75C300.202 162.206 300.733 162.561 301.352 162.814C301.977 163.068 302.66 163.195 303.402 163.195ZM303.168 153.723C303.63 153.723 304.027 153.807 304.359 153.977C304.698 154.146 304.978 154.367 305.199 154.641C305.421 154.914 305.593 155.24 305.717 155.617C305.84 155.988 305.902 156.337 305.902 156.662V156.75H300.219C300.29 156.262 300.414 155.832 300.59 155.461C300.772 155.083 300.993 154.764 301.254 154.504C301.514 154.25 301.807 154.058 302.133 153.928C302.458 153.791 302.803 153.723 303.168 153.723ZM317.768 160.197C317.768 160.367 317.735 160.526 317.67 160.676C317.605 160.826 317.51 160.962 317.387 161.086C317.185 161.288 316.905 161.447 316.547 161.564C316.189 161.675 315.769 161.73 315.287 161.73C314.981 161.73 314.672 161.698 314.359 161.633C314.047 161.568 313.764 161.457 313.51 161.301C313.249 161.145 313.031 160.939 312.855 160.686C312.686 160.432 312.589 160.119 312.562 159.748H310.756C310.756 160.197 310.857 160.63 311.059 161.047C311.267 161.464 311.566 161.828 311.957 162.141C312.341 162.46 312.813 162.717 313.373 162.912C313.933 163.101 314.571 163.195 315.287 163.195C315.912 163.195 316.488 163.12 317.016 162.971C317.543 162.821 317.995 162.609 318.373 162.336C318.751 162.062 319.044 161.734 319.252 161.35C319.467 160.965 319.574 160.539 319.574 160.07C319.574 159.634 319.48 159.25 319.291 158.918C319.109 158.586 318.842 158.293 318.49 158.039C318.139 157.792 317.706 157.58 317.191 157.404C316.677 157.222 316.094 157.062 315.443 156.926C314.949 156.828 314.538 156.727 314.213 156.623C313.894 156.519 313.64 156.402 313.451 156.271C313.256 156.141 313.119 155.995 313.041 155.832C312.963 155.669 312.924 155.484 312.924 155.275C312.924 155.074 312.973 154.878 313.07 154.689C313.168 154.501 313.314 154.335 313.51 154.191C313.699 154.048 313.936 153.934 314.223 153.85C314.516 153.765 314.854 153.723 315.238 153.723C315.609 153.723 315.941 153.775 316.234 153.879C316.534 153.983 316.788 154.12 316.996 154.289C317.204 154.458 317.367 154.654 317.484 154.875C317.602 155.09 317.66 155.311 317.66 155.539H319.467C319.467 155.077 319.366 154.647 319.164 154.25C318.969 153.846 318.689 153.495 318.324 153.195C317.96 152.896 317.517 152.661 316.996 152.492C316.475 152.323 315.889 152.238 315.238 152.238C314.633 152.238 314.076 152.32 313.568 152.482C313.067 152.645 312.634 152.867 312.27 153.146C311.905 153.426 311.622 153.755 311.42 154.133C311.218 154.504 311.117 154.904 311.117 155.334C311.117 155.77 311.215 156.154 311.41 156.486C311.605 156.812 311.882 157.095 312.24 157.336C312.592 157.583 313.015 157.795 313.51 157.971C314.011 158.146 314.564 158.296 315.17 158.42C315.665 158.518 316.078 158.628 316.41 158.752C316.742 158.869 317.009 158.999 317.211 159.143C317.413 159.286 317.556 159.445 317.641 159.621C317.725 159.79 317.768 159.982 317.768 160.197ZM211.342 189H213.158V179.83H217.23V178.434H213.158V177.691C213.158 177.249 213.214 176.861 213.324 176.529C213.441 176.197 213.611 175.927 213.832 175.719C214.04 175.517 214.301 175.367 214.613 175.27C214.932 175.165 215.297 175.113 215.707 175.113C216.111 175.113 216.488 175.149 216.84 175.221C217.198 175.286 217.51 175.364 217.777 175.455L217.992 173.961C217.823 173.915 217.657 173.876 217.494 173.844C217.331 173.805 217.169 173.769 217.006 173.736C216.758 173.691 216.508 173.655 216.254 173.629C216 173.596 215.743 173.58 215.482 173.58C214.857 173.58 214.291 173.668 213.783 173.844C213.275 174.02 212.842 174.28 212.484 174.625C212.12 174.97 211.837 175.4 211.635 175.914C211.439 176.422 211.342 177.014 211.342 177.691V178.434H208.432V179.83H211.342V189ZM220.15 183.619V183.834C220.15 184.596 220.261 185.302 220.482 185.953C220.704 186.604 221.023 187.171 221.439 187.652C221.85 188.134 222.351 188.512 222.943 188.785C223.542 189.059 224.216 189.195 224.965 189.195C225.707 189.195 226.374 189.059 226.967 188.785C227.559 188.512 228.064 188.134 228.48 187.652C228.891 187.171 229.206 186.604 229.428 185.953C229.649 185.302 229.76 184.596 229.76 183.834V183.619C229.76 182.857 229.649 182.151 229.428 181.5C229.206 180.842 228.891 180.273 228.48 179.791C228.064 179.309 227.556 178.932 226.957 178.658C226.365 178.378 225.694 178.238 224.945 178.238C224.203 178.238 223.536 178.378 222.943 178.658C222.351 178.932 221.85 179.309 221.439 179.791C221.023 180.273 220.704 180.842 220.482 181.5C220.261 182.151 220.15 182.857 220.15 183.619ZM221.957 183.834V183.619C221.957 183.105 222.019 182.613 222.143 182.145C222.266 181.669 222.455 181.253 222.709 180.895C222.956 180.536 223.266 180.253 223.637 180.045C224.008 179.83 224.444 179.723 224.945 179.723C225.447 179.723 225.883 179.83 226.254 180.045C226.632 180.253 226.947 180.536 227.201 180.895C227.449 181.253 227.634 181.669 227.758 182.145C227.888 182.613 227.953 183.105 227.953 183.619V183.834C227.953 184.355 227.891 184.853 227.768 185.328C227.644 185.797 227.458 186.21 227.211 186.568C226.957 186.926 226.641 187.21 226.264 187.418C225.893 187.626 225.46 187.73 224.965 187.73C224.464 187.73 224.024 187.626 223.646 187.418C223.269 187.21 222.956 186.926 222.709 186.568C222.455 186.21 222.266 185.797 222.143 185.328C222.019 184.853 221.957 184.355 221.957 183.834ZM239.594 178.238C238.826 178.238 238.139 178.408 237.533 178.746C236.934 179.078 236.42 179.534 235.99 180.113L235.98 179.85L235.902 178.434H234.184V189H236V182.223C236.117 181.897 236.264 181.604 236.439 181.344C236.622 181.077 236.833 180.852 237.074 180.67C237.341 180.462 237.654 180.305 238.012 180.201C238.37 180.09 238.77 180.035 239.213 180.035C239.558 180.035 239.887 180.055 240.199 180.094C240.518 180.126 240.854 180.182 241.205 180.26L241.449 178.492C241.267 178.414 240.993 178.352 240.629 178.307C240.271 178.261 239.926 178.238 239.594 178.238ZM263.715 186.197C263.715 186.367 263.682 186.526 263.617 186.676C263.552 186.826 263.458 186.962 263.334 187.086C263.132 187.288 262.852 187.447 262.494 187.564C262.136 187.675 261.716 187.73 261.234 187.73C260.928 187.73 260.619 187.698 260.307 187.633C259.994 187.568 259.711 187.457 259.457 187.301C259.197 187.145 258.979 186.939 258.803 186.686C258.633 186.432 258.536 186.119 258.51 185.748H256.703C256.703 186.197 256.804 186.63 257.006 187.047C257.214 187.464 257.514 187.828 257.904 188.141C258.288 188.46 258.76 188.717 259.32 188.912C259.88 189.101 260.518 189.195 261.234 189.195C261.859 189.195 262.436 189.12 262.963 188.971C263.49 188.821 263.943 188.609 264.32 188.336C264.698 188.062 264.991 187.734 265.199 187.35C265.414 186.965 265.521 186.539 265.521 186.07C265.521 185.634 265.427 185.25 265.238 184.918C265.056 184.586 264.789 184.293 264.438 184.039C264.086 183.792 263.653 183.58 263.139 183.404C262.624 183.222 262.042 183.062 261.391 182.926C260.896 182.828 260.486 182.727 260.16 182.623C259.841 182.519 259.587 182.402 259.398 182.271C259.203 182.141 259.066 181.995 258.988 181.832C258.91 181.669 258.871 181.484 258.871 181.275C258.871 181.074 258.92 180.878 259.018 180.689C259.115 180.501 259.262 180.335 259.457 180.191C259.646 180.048 259.883 179.934 260.17 179.85C260.463 179.765 260.801 179.723 261.186 179.723C261.557 179.723 261.889 179.775 262.182 179.879C262.481 179.983 262.735 180.12 262.943 180.289C263.152 180.458 263.314 180.654 263.432 180.875C263.549 181.09 263.607 181.311 263.607 181.539H265.414C265.414 181.077 265.313 180.647 265.111 180.25C264.916 179.846 264.636 179.495 264.271 179.195C263.907 178.896 263.464 178.661 262.943 178.492C262.423 178.323 261.837 178.238 261.186 178.238C260.58 178.238 260.023 178.32 259.516 178.482C259.014 178.645 258.581 178.867 258.217 179.146C257.852 179.426 257.569 179.755 257.367 180.133C257.165 180.504 257.064 180.904 257.064 181.334C257.064 181.77 257.162 182.154 257.357 182.486C257.553 182.812 257.829 183.095 258.188 183.336C258.539 183.583 258.962 183.795 259.457 183.971C259.958 184.146 260.512 184.296 261.117 184.42C261.612 184.518 262.025 184.628 262.357 184.752C262.689 184.869 262.956 184.999 263.158 185.143C263.36 185.286 263.503 185.445 263.588 185.621C263.673 185.79 263.715 185.982 263.715 186.197ZM268.705 189H270.512V181.422C270.635 181.194 270.779 180.986 270.941 180.797C271.111 180.608 271.293 180.442 271.488 180.299C271.729 180.136 271.993 180.009 272.279 179.918C272.566 179.82 272.875 179.771 273.207 179.771C273.591 179.771 273.93 179.817 274.223 179.908C274.522 179.999 274.776 180.146 274.984 180.348C275.186 180.549 275.339 180.813 275.443 181.139C275.548 181.464 275.6 181.861 275.6 182.33V189H277.406V182.291C277.406 181.588 277.318 180.982 277.143 180.475C276.973 179.96 276.729 179.537 276.41 179.205C276.091 178.873 275.704 178.629 275.248 178.473C274.799 178.316 274.298 178.238 273.744 178.238C273.334 178.245 272.943 178.307 272.572 178.424C272.208 178.535 271.869 178.694 271.557 178.902C271.348 179.039 271.15 179.202 270.961 179.391C270.779 179.573 270.609 179.775 270.453 179.996L270.326 178.434H268.705V189ZM285.385 189.195C286.413 189.195 287.276 188.99 287.973 188.58C288.676 188.163 289.203 187.688 289.555 187.154L288.451 186.295C288.119 186.725 287.702 187.07 287.201 187.33C286.7 187.59 286.127 187.721 285.482 187.721C284.994 187.721 284.548 187.63 284.145 187.447C283.741 187.265 283.396 187.014 283.109 186.695C282.829 186.396 282.608 186.051 282.445 185.66C282.289 185.27 282.188 184.817 282.143 184.303V184.234H289.691V183.424C289.691 182.688 289.597 182.005 289.408 181.373C289.226 180.742 288.946 180.191 288.568 179.723C288.191 179.26 287.715 178.899 287.143 178.639C286.576 178.372 285.912 178.238 285.15 178.238C284.545 178.238 283.952 178.362 283.373 178.609C282.8 178.857 282.289 179.212 281.84 179.674C281.384 180.143 281.02 180.715 280.746 181.393C280.473 182.063 280.336 182.825 280.336 183.678V184.088C280.336 184.824 280.46 185.504 280.707 186.129C280.954 186.754 281.299 187.294 281.742 187.75C282.185 188.206 282.715 188.561 283.334 188.814C283.959 189.068 284.643 189.195 285.385 189.195ZM285.15 179.723C285.613 179.723 286.01 179.807 286.342 179.977C286.68 180.146 286.96 180.367 287.182 180.641C287.403 180.914 287.576 181.24 287.699 181.617C287.823 181.988 287.885 182.337 287.885 182.662V182.75H282.201C282.273 182.262 282.396 181.832 282.572 181.461C282.755 181.083 282.976 180.764 283.236 180.504C283.497 180.25 283.79 180.058 284.115 179.928C284.441 179.791 284.786 179.723 285.15 179.723ZM299.672 189H301.557V188.844C301.439 188.551 301.348 188.209 301.283 187.818C301.218 187.421 301.186 187.047 301.186 186.695V181.783C301.186 181.191 301.078 180.673 300.863 180.23C300.648 179.788 300.355 179.417 299.984 179.117C299.607 178.824 299.161 178.606 298.646 178.463C298.132 178.313 297.576 178.238 296.977 178.238C296.319 178.238 295.73 178.329 295.209 178.512C294.695 178.694 294.258 178.932 293.9 179.225C293.536 179.524 293.256 179.859 293.061 180.23C292.872 180.602 292.774 180.979 292.768 181.363H294.584C294.584 181.142 294.636 180.93 294.74 180.729C294.851 180.52 295.004 180.341 295.199 180.191C295.395 180.042 295.632 179.921 295.912 179.83C296.199 179.739 296.521 179.693 296.879 179.693C297.263 179.693 297.608 179.742 297.914 179.84C298.227 179.938 298.49 180.074 298.705 180.25C298.92 180.432 299.086 180.65 299.203 180.904C299.32 181.158 299.379 181.445 299.379 181.764V182.594H297.406C296.671 182.594 296.003 182.665 295.404 182.809C294.812 182.952 294.304 183.167 293.881 183.453C293.458 183.746 293.129 184.111 292.895 184.547C292.667 184.983 292.553 185.491 292.553 186.07C292.553 186.513 292.637 186.926 292.807 187.311C292.982 187.688 293.23 188.014 293.549 188.287C293.861 188.567 294.242 188.788 294.691 188.951C295.147 189.114 295.655 189.195 296.215 189.195C296.56 189.195 296.885 189.16 297.191 189.088C297.497 189.016 297.787 188.919 298.061 188.795C298.327 188.671 298.572 188.528 298.793 188.365C299.021 188.202 299.226 188.03 299.408 187.848C299.428 188.069 299.457 188.284 299.496 188.492C299.542 188.694 299.6 188.863 299.672 189ZM296.479 187.623C296.127 187.623 295.818 187.577 295.551 187.486C295.284 187.395 295.062 187.268 294.887 187.105C294.711 186.949 294.577 186.76 294.486 186.539C294.402 186.318 294.359 186.077 294.359 185.816C294.359 185.543 294.408 185.299 294.506 185.084C294.61 184.869 294.76 184.684 294.955 184.527C295.229 184.306 295.596 184.143 296.059 184.039C296.527 183.928 297.074 183.873 297.699 183.873H299.379V186.012C299.275 186.22 299.132 186.422 298.949 186.617C298.767 186.806 298.552 186.975 298.305 187.125C298.051 187.275 297.771 187.395 297.465 187.486C297.159 187.577 296.83 187.623 296.479 187.623ZM307.904 184.068L311.781 189H314.076L309.145 182.838L313.422 178.434H311.225L307.758 181.91L306.576 183.18V174H304.76V189H306.576V185.348L307.904 184.068ZM232.66 219.062H234.467V213.984C234.597 214.128 234.737 214.261 234.887 214.385C235.036 214.502 235.196 214.609 235.365 214.707C235.645 214.863 235.958 214.984 236.303 215.068C236.654 215.153 237.032 215.195 237.436 215.195C238.1 215.195 238.689 215.059 239.203 214.785C239.724 214.512 240.16 214.134 240.512 213.652C240.863 213.171 241.13 212.604 241.312 211.953C241.495 211.296 241.586 210.589 241.586 209.834V209.629C241.586 208.841 241.495 208.118 241.312 207.461C241.13 206.797 240.863 206.227 240.512 205.752C240.16 205.277 239.724 204.906 239.203 204.639C238.682 204.372 238.083 204.238 237.406 204.238C237.022 204.238 236.661 204.281 236.322 204.365C235.99 204.443 235.688 204.561 235.414 204.717C235.219 204.821 235.036 204.948 234.867 205.098C234.698 205.241 234.542 205.404 234.398 205.586L234.311 204.434H232.66V219.062ZM239.779 209.629V209.834C239.779 210.348 239.721 210.84 239.604 211.309C239.493 211.777 239.32 212.191 239.086 212.549C238.852 212.907 238.552 213.193 238.188 213.408C237.823 213.617 237.39 213.721 236.889 213.721C236.576 213.721 236.29 213.682 236.029 213.604C235.775 213.525 235.544 213.418 235.336 213.281C235.154 213.164 234.991 213.021 234.848 212.852C234.704 212.682 234.577 212.5 234.467 212.305V207.217C234.59 206.995 234.734 206.794 234.896 206.611C235.059 206.429 235.245 206.276 235.453 206.152C235.642 206.029 235.854 205.934 236.088 205.869C236.329 205.804 236.589 205.771 236.869 205.771C237.377 205.771 237.813 205.876 238.178 206.084C238.542 206.292 238.845 206.572 239.086 206.924C239.32 207.282 239.493 207.695 239.604 208.164C239.721 208.626 239.779 209.115 239.779 209.629ZM249.35 215.195C250.378 215.195 251.241 214.99 251.938 214.58C252.641 214.163 253.168 213.688 253.52 213.154L252.416 212.295C252.084 212.725 251.667 213.07 251.166 213.33C250.665 213.59 250.092 213.721 249.447 213.721C248.959 213.721 248.513 213.63 248.109 213.447C247.706 213.265 247.361 213.014 247.074 212.695C246.794 212.396 246.573 212.051 246.41 211.66C246.254 211.27 246.153 210.817 246.107 210.303V210.234H253.656V209.424C253.656 208.688 253.562 208.005 253.373 207.373C253.191 206.742 252.911 206.191 252.533 205.723C252.156 205.26 251.68 204.899 251.107 204.639C250.541 204.372 249.877 204.238 249.115 204.238C248.51 204.238 247.917 204.362 247.338 204.609C246.765 204.857 246.254 205.212 245.805 205.674C245.349 206.143 244.984 206.715 244.711 207.393C244.438 208.063 244.301 208.825 244.301 209.678V210.088C244.301 210.824 244.424 211.504 244.672 212.129C244.919 212.754 245.264 213.294 245.707 213.75C246.15 214.206 246.68 214.561 247.299 214.814C247.924 215.068 248.607 215.195 249.35 215.195ZM249.115 205.723C249.577 205.723 249.975 205.807 250.307 205.977C250.645 206.146 250.925 206.367 251.146 206.641C251.368 206.914 251.54 207.24 251.664 207.617C251.788 207.988 251.85 208.337 251.85 208.662V208.75H246.166C246.238 208.262 246.361 207.832 246.537 207.461C246.719 207.083 246.941 206.764 247.201 206.504C247.462 206.25 247.755 206.058 248.08 205.928C248.406 205.791 248.751 205.723 249.115 205.723ZM261.361 215.195C262.39 215.195 263.253 214.99 263.949 214.58C264.652 214.163 265.18 213.688 265.531 213.154L264.428 212.295C264.096 212.725 263.679 213.07 263.178 213.33C262.676 213.59 262.104 213.721 261.459 213.721C260.971 213.721 260.525 213.63 260.121 213.447C259.717 213.265 259.372 213.014 259.086 212.695C258.806 212.396 258.585 212.051 258.422 211.66C258.266 211.27 258.165 210.817 258.119 210.303V210.234H265.668V209.424C265.668 208.688 265.574 208.005 265.385 207.373C265.202 206.742 264.923 206.191 264.545 205.723C264.167 205.26 263.692 204.899 263.119 204.639C262.553 204.372 261.889 204.238 261.127 204.238C260.521 204.238 259.929 204.362 259.35 204.609C258.777 204.857 258.266 205.212 257.816 205.674C257.361 206.143 256.996 206.715 256.723 207.393C256.449 208.063 256.312 208.825 256.312 209.678V210.088C256.312 210.824 256.436 211.504 256.684 212.129C256.931 212.754 257.276 213.294 257.719 213.75C258.161 214.206 258.692 214.561 259.311 214.814C259.936 215.068 260.619 215.195 261.361 215.195ZM261.127 205.723C261.589 205.723 261.986 205.807 262.318 205.977C262.657 206.146 262.937 206.367 263.158 206.641C263.38 206.914 263.552 207.24 263.676 207.617C263.799 207.988 263.861 208.337 263.861 208.662V208.75H258.178C258.249 208.262 258.373 207.832 258.549 207.461C258.731 207.083 258.952 206.764 259.213 206.504C259.473 206.25 259.766 206.058 260.092 205.928C260.417 205.791 260.762 205.723 261.127 205.723ZM271.869 210.068L275.746 215H278.041L273.109 208.838L277.387 204.434H275.189L271.723 207.91L270.541 209.18V200H268.725V215H270.541V211.348L271.869 210.068ZM287.738 212.197C287.738 212.367 287.706 212.526 287.641 212.676C287.576 212.826 287.481 212.962 287.357 213.086C287.156 213.288 286.876 213.447 286.518 213.564C286.16 213.675 285.74 213.73 285.258 213.73C284.952 213.73 284.643 213.698 284.33 213.633C284.018 213.568 283.734 213.457 283.48 213.301C283.22 213.145 283.002 212.939 282.826 212.686C282.657 212.432 282.559 212.119 282.533 211.748H280.727C280.727 212.197 280.827 212.63 281.029 213.047C281.238 213.464 281.537 213.828 281.928 214.141C282.312 214.46 282.784 214.717 283.344 214.912C283.904 215.101 284.542 215.195 285.258 215.195C285.883 215.195 286.459 215.12 286.986 214.971C287.514 214.821 287.966 214.609 288.344 214.336C288.721 214.062 289.014 213.734 289.223 213.35C289.438 212.965 289.545 212.539 289.545 212.07C289.545 211.634 289.451 211.25 289.262 210.918C289.079 210.586 288.812 210.293 288.461 210.039C288.109 209.792 287.676 209.58 287.162 209.404C286.648 209.222 286.065 209.062 285.414 208.926C284.919 208.828 284.509 208.727 284.184 208.623C283.865 208.519 283.611 208.402 283.422 208.271C283.227 208.141 283.09 207.995 283.012 207.832C282.934 207.669 282.895 207.484 282.895 207.275C282.895 207.074 282.943 206.878 283.041 206.689C283.139 206.501 283.285 206.335 283.48 206.191C283.669 206.048 283.907 205.934 284.193 205.85C284.486 205.765 284.825 205.723 285.209 205.723C285.58 205.723 285.912 205.775 286.205 205.879C286.505 205.983 286.758 206.12 286.967 206.289C287.175 206.458 287.338 206.654 287.455 206.875C287.572 207.09 287.631 207.311 287.631 207.539H289.438C289.438 207.077 289.337 206.647 289.135 206.25C288.939 205.846 288.66 205.495 288.295 205.195C287.93 204.896 287.488 204.661 286.967 204.492C286.446 204.323 285.86 204.238 285.209 204.238C284.604 204.238 284.047 204.32 283.539 204.482C283.038 204.645 282.605 204.867 282.24 205.146C281.876 205.426 281.592 205.755 281.391 206.133C281.189 206.504 281.088 206.904 281.088 207.334C281.088 207.77 281.186 208.154 281.381 208.486C281.576 208.812 281.853 209.095 282.211 209.336C282.562 209.583 282.986 209.795 283.48 209.971C283.982 210.146 284.535 210.296 285.141 210.42C285.635 210.518 286.049 210.628 286.381 210.752C286.713 210.869 286.98 210.999 287.182 211.143C287.383 211.286 287.527 211.445 287.611 211.621C287.696 211.79 287.738 211.982 287.738 212.197Z" fill="#8A0000" fill-opacity="0.65"/>
</svg>
