<svg width="247" height="328" viewBox="0 0 247 328" fill="none" xmlns="http://www.w3.org/2000/svg">
<rect width="247" height="328" rx="8" fill="white"/>
<rect width="247" height="328" rx="8" fill="#CFCED6"/>
<path d="M74.5566 110V95.7812H72.8477V101.895H67.0176V95.7812H65.3184V110H67.0176V103.428H72.8477V110H74.5566ZM77.1445 104.619V104.834C77.1445 105.596 77.2552 106.302 77.4766 106.953C77.6979 107.604 78.0169 108.171 78.4336 108.652C78.8438 109.134 79.3451 109.512 79.9375 109.785C80.5365 110.059 81.2103 110.195 81.959 110.195C82.7012 110.195 83.3685 110.059 83.9609 109.785C84.5534 109.512 85.0579 109.134 85.4746 108.652C85.8848 108.171 86.2005 107.604 86.4219 106.953C86.6432 106.302 86.7539 105.596 86.7539 104.834V104.619C86.7539 103.857 86.6432 103.151 86.4219 102.5C86.2005 101.842 85.8848 101.273 85.4746 100.791C85.0579 100.309 84.5501 99.9316 83.9512 99.6582C83.3587 99.3783 82.6882 99.2383 81.9395 99.2383C81.1973 99.2383 80.5299 99.3783 79.9375 99.6582C79.3451 99.9316 78.8438 100.309 78.4336 100.791C78.0169 101.273 77.6979 101.842 77.4766 102.5C77.2552 103.151 77.1445 103.857 77.1445 104.619ZM78.9512 104.834V104.619C78.9512 104.105 79.013 103.613 79.1367 103.145C79.2604 102.669 79.4492 102.253 79.7031 101.895C79.9505 101.536 80.2598 101.253 80.6309 101.045C81.002 100.83 81.4382 100.723 81.9395 100.723C82.4408 100.723 82.877 100.83 83.248 101.045C83.6257 101.253 83.9414 101.536 84.1953 101.895C84.4427 102.253 84.6283 102.669 84.752 103.145C84.8822 103.613 84.9473 104.105 84.9473 104.619V104.834C84.9473 105.355 84.8854 105.853 84.7617 106.328C84.638 106.797 84.4525 107.21 84.2051 107.568C83.9512 107.926 83.6354 108.21 83.2578 108.418C82.8867 108.626 82.4538 108.73 81.959 108.73C81.4577 108.73 81.0182 108.626 80.6406 108.418C80.263 108.21 79.9505 107.926 79.7031 107.568C79.4492 107.21 79.2604 106.797 79.1367 106.328C79.013 105.853 78.9512 105.355 78.9512 104.834ZM93.2676 110H94.6445L98.9512 99.4336H97.1055L94.1465 107.402L93.9707 108.057L93.8047 107.402L90.7773 99.4336H88.9219L93.2676 110ZM106.344 110.195C107.372 110.195 108.235 109.99 108.932 109.58C109.635 109.163 110.162 108.688 110.514 108.154L109.41 107.295C109.078 107.725 108.661 108.07 108.16 108.33C107.659 108.59 107.086 108.721 106.441 108.721C105.953 108.721 105.507 108.63 105.104 108.447C104.7 108.265 104.355 108.014 104.068 107.695C103.788 107.396 103.567 107.051 103.404 106.66C103.248 106.27 103.147 105.817 103.102 105.303V105.234H110.65V104.424C110.65 103.688 110.556 103.005 110.367 102.373C110.185 101.742 109.905 101.191 109.527 100.723C109.15 100.26 108.674 99.8991 108.102 99.6387C107.535 99.3717 106.871 99.2383 106.109 99.2383C105.504 99.2383 104.911 99.362 104.332 99.6094C103.759 99.8568 103.248 100.212 102.799 100.674C102.343 101.143 101.979 101.715 101.705 102.393C101.432 103.063 101.295 103.825 101.295 104.678V105.088C101.295 105.824 101.419 106.504 101.666 107.129C101.913 107.754 102.258 108.294 102.701 108.75C103.144 109.206 103.674 109.561 104.293 109.814C104.918 110.068 105.602 110.195 106.344 110.195ZM106.109 100.723C106.572 100.723 106.969 100.807 107.301 100.977C107.639 101.146 107.919 101.367 108.141 101.641C108.362 101.914 108.535 102.24 108.658 102.617C108.782 102.988 108.844 103.337 108.844 103.662V103.75H103.16C103.232 103.262 103.355 102.832 103.531 102.461C103.714 102.083 103.935 101.764 104.195 101.504C104.456 101.25 104.749 101.058 105.074 100.928C105.4 100.791 105.745 100.723 106.109 100.723ZM120.611 99.2383C119.843 99.2383 119.156 99.4076 118.551 99.7461C117.952 100.078 117.438 100.534 117.008 101.113L116.998 100.85L116.92 99.4336H115.201V110H117.018V103.223C117.135 102.897 117.281 102.604 117.457 102.344C117.639 102.077 117.851 101.852 118.092 101.67C118.359 101.462 118.671 101.305 119.029 101.201C119.387 101.09 119.788 101.035 120.23 101.035C120.576 101.035 120.904 101.055 121.217 101.094C121.536 101.126 121.871 101.182 122.223 101.26L122.467 99.4922C122.285 99.4141 122.011 99.3522 121.646 99.3066C121.288 99.2611 120.943 99.2383 120.611 99.2383ZM137.203 104.619V104.834C137.203 105.596 137.314 106.302 137.535 106.953C137.757 107.604 138.076 108.171 138.492 108.652C138.902 109.134 139.404 109.512 139.996 109.785C140.595 110.059 141.269 110.195 142.018 110.195C142.76 110.195 143.427 110.059 144.02 109.785C144.612 109.512 145.117 109.134 145.533 108.652C145.943 108.171 146.259 107.604 146.48 106.953C146.702 106.302 146.812 105.596 146.812 104.834V104.619C146.812 103.857 146.702 103.151 146.48 102.5C146.259 101.842 145.943 101.273 145.533 100.791C145.117 100.309 144.609 99.9316 144.01 99.6582C143.417 99.3783 142.747 99.2383 141.998 99.2383C141.256 99.2383 140.589 99.3783 139.996 99.6582C139.404 99.9316 138.902 100.309 138.492 100.791C138.076 101.273 137.757 101.842 137.535 102.5C137.314 103.151 137.203 103.857 137.203 104.619ZM139.01 104.834V104.619C139.01 104.105 139.072 103.613 139.195 103.145C139.319 102.669 139.508 102.253 139.762 101.895C140.009 101.536 140.318 101.253 140.689 101.045C141.061 100.83 141.497 100.723 141.998 100.723C142.499 100.723 142.936 100.83 143.307 101.045C143.684 101.253 144 101.536 144.254 101.895C144.501 102.253 144.687 102.669 144.811 103.145C144.941 103.613 145.006 104.105 145.006 104.619V104.834C145.006 105.355 144.944 105.853 144.82 106.328C144.697 106.797 144.511 107.21 144.264 107.568C144.01 107.926 143.694 108.21 143.316 108.418C142.945 108.626 142.512 108.73 142.018 108.73C141.516 108.73 141.077 108.626 140.699 108.418C140.322 108.21 140.009 107.926 139.762 107.568C139.508 107.21 139.319 106.797 139.195 106.328C139.072 105.853 139.01 105.355 139.01 104.834ZM153.326 110H154.703L159.01 99.4336H157.164L154.205 107.402L154.029 108.057L153.863 107.402L150.836 99.4336H148.98L153.326 110ZM166.402 110.195C167.431 110.195 168.294 109.99 168.99 109.58C169.693 109.163 170.221 108.688 170.572 108.154L169.469 107.295C169.137 107.725 168.72 108.07 168.219 108.33C167.717 108.59 167.145 108.721 166.5 108.721C166.012 108.721 165.566 108.63 165.162 108.447C164.758 108.265 164.413 108.014 164.127 107.695C163.847 107.396 163.626 107.051 163.463 106.66C163.307 106.27 163.206 105.817 163.16 105.303V105.234H170.709V104.424C170.709 103.688 170.615 103.005 170.426 102.373C170.243 101.742 169.964 101.191 169.586 100.723C169.208 100.26 168.733 99.8991 168.16 99.6387C167.594 99.3717 166.93 99.2383 166.168 99.2383C165.562 99.2383 164.97 99.362 164.391 99.6094C163.818 99.8568 163.307 100.212 162.857 100.674C162.402 101.143 162.037 101.715 161.764 102.393C161.49 103.063 161.354 103.825 161.354 104.678V105.088C161.354 105.824 161.477 106.504 161.725 107.129C161.972 107.754 162.317 108.294 162.76 108.75C163.202 109.206 163.733 109.561 164.352 109.814C164.977 110.068 165.66 110.195 166.402 110.195ZM166.168 100.723C166.63 100.723 167.027 100.807 167.359 100.977C167.698 101.146 167.978 101.367 168.199 101.641C168.421 101.914 168.593 102.24 168.717 102.617C168.84 102.988 168.902 103.337 168.902 103.662V103.75H163.219C163.29 103.262 163.414 102.832 163.59 102.461C163.772 102.083 163.993 101.764 164.254 101.504C164.514 101.25 164.807 101.058 165.133 100.928C165.458 100.791 165.803 100.723 166.168 100.723ZM180.67 99.2383C179.902 99.2383 179.215 99.4076 178.609 99.7461C178.01 100.078 177.496 100.534 177.066 101.113L177.057 100.85L176.979 99.4336H175.26V110H177.076V103.223C177.193 102.897 177.34 102.604 177.516 102.344C177.698 102.077 177.91 101.852 178.15 101.67C178.417 101.462 178.73 101.305 179.088 101.201C179.446 101.09 179.846 101.035 180.289 101.035C180.634 101.035 180.963 101.055 181.275 101.094C181.594 101.126 181.93 101.182 182.281 101.26L182.525 99.4922C182.343 99.4141 182.07 99.3522 181.705 99.3066C181.347 99.2611 181.002 99.2383 180.67 99.2383ZM51.9004 122.875H50.084V125.434H47.3105V126.83H50.084V132.572C50.084 133.223 50.1686 133.78 50.3379 134.242C50.5137 134.698 50.7513 135.069 51.0508 135.355C51.3503 135.648 51.7018 135.863 52.1055 136C52.5156 136.13 52.9551 136.195 53.4238 136.195C53.7038 136.195 53.9837 136.182 54.2637 136.156C54.5501 136.13 54.8203 136.091 55.0742 136.039C55.3281 135.993 55.5625 135.938 55.7773 135.873C55.9922 135.801 56.1745 135.72 56.3242 135.629L56.0703 134.35C55.9596 134.376 55.8164 134.408 55.6406 134.447C55.4714 134.48 55.2891 134.512 55.0938 134.545C54.8919 134.577 54.6868 134.607 54.4785 134.633C54.2702 134.652 54.0684 134.662 53.873 134.662C53.6061 134.662 53.3522 134.63 53.1113 134.564C52.877 134.499 52.6686 134.385 52.4863 134.223C52.304 134.066 52.1608 133.855 52.0566 133.588C51.9525 133.321 51.9004 132.982 51.9004 132.572V126.83H55.9238V125.434H51.9004V122.875ZM61.4414 127.006V121H59.6348V136H61.4414V128.324C61.5716 128.116 61.7181 127.927 61.8809 127.758C62.0501 127.582 62.2324 127.429 62.4277 127.299C62.6751 127.13 62.9453 126.999 63.2383 126.908C63.5312 126.817 63.8405 126.771 64.166 126.771C64.5632 126.765 64.9147 126.82 65.2207 126.938C65.5267 127.048 65.7806 127.217 65.9824 127.445C66.1712 127.654 66.3145 127.917 66.4121 128.236C66.5098 128.549 66.5586 128.913 66.5586 129.33V136H68.3652V129.35C68.3652 128.64 68.2773 128.028 68.1016 127.514C67.9323 126.993 67.6882 126.563 67.3691 126.225C67.0501 125.886 66.6628 125.639 66.207 125.482C65.7578 125.32 65.2565 125.238 64.7031 125.238C64.2799 125.245 63.8796 125.307 63.502 125.424C63.1309 125.541 62.7891 125.714 62.4766 125.941C62.2812 126.078 62.0957 126.238 61.9199 126.42C61.7441 126.596 61.5846 126.791 61.4414 127.006ZM76.3145 136.195C77.3431 136.195 78.2057 135.99 78.9023 135.58C79.6055 135.163 80.1328 134.688 80.4844 134.154L79.3809 133.295C79.0488 133.725 78.6322 134.07 78.1309 134.33C77.6296 134.59 77.0566 134.721 76.4121 134.721C75.9238 134.721 75.4779 134.63 75.0742 134.447C74.6706 134.265 74.3255 134.014 74.0391 133.695C73.7591 133.396 73.5378 133.051 73.375 132.66C73.2188 132.27 73.1178 131.817 73.0723 131.303V131.234H80.6211V130.424C80.6211 129.688 80.5267 129.005 80.3379 128.373C80.1556 127.742 79.8757 127.191 79.498 126.723C79.1204 126.26 78.6452 125.899 78.0723 125.639C77.5059 125.372 76.8418 125.238 76.0801 125.238C75.4746 125.238 74.8822 125.362 74.3027 125.609C73.7298 125.857 73.2188 126.212 72.7695 126.674C72.3138 127.143 71.9492 127.715 71.6758 128.393C71.4023 129.063 71.2656 129.825 71.2656 130.678V131.088C71.2656 131.824 71.3893 132.504 71.6367 133.129C71.8841 133.754 72.2292 134.294 72.6719 134.75C73.1146 135.206 73.6452 135.561 74.2637 135.814C74.8887 136.068 75.5723 136.195 76.3145 136.195ZM76.0801 126.723C76.5423 126.723 76.9395 126.807 77.2715 126.977C77.61 127.146 77.89 127.367 78.1113 127.641C78.3327 127.914 78.5052 128.24 78.6289 128.617C78.7526 128.988 78.8145 129.337 78.8145 129.662V129.75H73.1309C73.2025 129.262 73.3262 128.832 73.502 128.461C73.6842 128.083 73.9056 127.764 74.166 127.504C74.4264 127.25 74.7194 127.058 75.0449 126.928C75.3704 126.791 75.7155 126.723 76.0801 126.723ZM95.6602 140.062H97.4668V134.984C97.597 135.128 97.737 135.261 97.8867 135.385C98.0365 135.502 98.196 135.609 98.3652 135.707C98.6452 135.863 98.9577 135.984 99.3027 136.068C99.6543 136.153 100.032 136.195 100.436 136.195C101.1 136.195 101.689 136.059 102.203 135.785C102.724 135.512 103.16 135.134 103.512 134.652C103.863 134.171 104.13 133.604 104.312 132.953C104.495 132.296 104.586 131.589 104.586 130.834V130.629C104.586 129.841 104.495 129.118 104.312 128.461C104.13 127.797 103.863 127.227 103.512 126.752C103.16 126.277 102.724 125.906 102.203 125.639C101.682 125.372 101.083 125.238 100.406 125.238C100.022 125.238 99.6608 125.281 99.3223 125.365C98.9902 125.443 98.6875 125.561 98.4141 125.717C98.2188 125.821 98.0365 125.948 97.8672 126.098C97.6979 126.241 97.5417 126.404 97.3984 126.586L97.3105 125.434H95.6602V140.062ZM102.779 130.629V130.834C102.779 131.348 102.721 131.84 102.604 132.309C102.493 132.777 102.32 133.191 102.086 133.549C101.852 133.907 101.552 134.193 101.188 134.408C100.823 134.617 100.39 134.721 99.8887 134.721C99.5762 134.721 99.2897 134.682 99.0293 134.604C98.7754 134.525 98.5443 134.418 98.3359 134.281C98.1536 134.164 97.9909 134.021 97.8477 133.852C97.7044 133.682 97.5775 133.5 97.4668 133.305V128.217C97.5905 127.995 97.7337 127.794 97.8965 127.611C98.0592 127.429 98.2448 127.276 98.4531 127.152C98.6419 127.029 98.8535 126.934 99.0879 126.869C99.3288 126.804 99.5892 126.771 99.8691 126.771C100.377 126.771 100.813 126.876 101.178 127.084C101.542 127.292 101.845 127.572 102.086 127.924C102.32 128.282 102.493 128.695 102.604 129.164C102.721 129.626 102.779 130.115 102.779 130.629ZM114.605 125.238C113.837 125.238 113.15 125.408 112.545 125.746C111.946 126.078 111.432 126.534 111.002 127.113L110.992 126.85L110.914 125.434H109.195V136H111.012V129.223C111.129 128.897 111.275 128.604 111.451 128.344C111.633 128.077 111.845 127.852 112.086 127.67C112.353 127.462 112.665 127.305 113.023 127.201C113.382 127.09 113.782 127.035 114.225 127.035C114.57 127.035 114.898 127.055 115.211 127.094C115.53 127.126 115.865 127.182 116.217 127.26L116.461 125.492C116.279 125.414 116.005 125.352 115.641 125.307C115.283 125.261 114.938 125.238 114.605 125.238ZM119.186 130.619V130.834C119.186 131.596 119.296 132.302 119.518 132.953C119.739 133.604 120.058 134.171 120.475 134.652C120.885 135.134 121.386 135.512 121.979 135.785C122.577 136.059 123.251 136.195 124 136.195C124.742 136.195 125.41 136.059 126.002 135.785C126.594 135.512 127.099 135.134 127.516 134.652C127.926 134.171 128.242 133.604 128.463 132.953C128.684 132.302 128.795 131.596 128.795 130.834V130.619C128.795 129.857 128.684 129.151 128.463 128.5C128.242 127.842 127.926 127.273 127.516 126.791C127.099 126.309 126.591 125.932 125.992 125.658C125.4 125.378 124.729 125.238 123.98 125.238C123.238 125.238 122.571 125.378 121.979 125.658C121.386 125.932 120.885 126.309 120.475 126.791C120.058 127.273 119.739 127.842 119.518 128.5C119.296 129.151 119.186 129.857 119.186 130.619ZM120.992 130.834V130.619C120.992 130.105 121.054 129.613 121.178 129.145C121.301 128.669 121.49 128.253 121.744 127.895C121.992 127.536 122.301 127.253 122.672 127.045C123.043 126.83 123.479 126.723 123.98 126.723C124.482 126.723 124.918 126.83 125.289 127.045C125.667 127.253 125.982 127.536 126.236 127.895C126.484 128.253 126.669 128.669 126.793 129.145C126.923 129.613 126.988 130.105 126.988 130.619V130.834C126.988 131.355 126.926 131.853 126.803 132.328C126.679 132.797 126.493 133.21 126.246 133.568C125.992 133.926 125.676 134.21 125.299 134.418C124.928 134.626 124.495 134.73 124 134.73C123.499 134.73 123.059 134.626 122.682 134.418C122.304 134.21 121.992 133.926 121.744 133.568C121.49 133.21 121.301 132.797 121.178 132.328C121.054 131.853 120.992 131.355 120.992 130.834ZM132.926 125.434V127.006H136.451V136.068C136.451 136.57 136.386 136.99 136.256 137.328C136.132 137.673 135.96 137.95 135.738 138.158C135.517 138.367 135.257 138.513 134.957 138.598C134.658 138.689 134.339 138.734 134 138.734C133.909 138.734 133.782 138.731 133.619 138.725C133.463 138.725 133.3 138.718 133.131 138.705C132.955 138.699 132.783 138.686 132.613 138.666C132.444 138.653 132.304 138.637 132.193 138.617L132.066 140.102C132.229 140.128 132.385 140.15 132.535 140.17C132.685 140.196 132.835 140.215 132.984 140.229C133.167 140.242 133.352 140.251 133.541 140.258C133.73 140.264 133.925 140.268 134.127 140.268C134.778 140.268 135.357 140.173 135.865 139.984C136.38 139.802 136.816 139.532 137.174 139.174C137.525 138.822 137.792 138.386 137.975 137.865C138.163 137.344 138.258 136.745 138.258 136.068V125.434H132.926ZM136.197 122.65C136.197 122.943 136.285 123.191 136.461 123.393C136.637 123.588 136.907 123.686 137.271 123.686C137.636 123.686 137.91 123.588 138.092 123.393C138.274 123.191 138.365 122.943 138.365 122.65C138.365 122.357 138.274 122.11 138.092 121.908C137.91 121.7 137.636 121.596 137.271 121.596C136.907 121.596 136.637 121.7 136.461 121.908C136.285 122.11 136.197 122.357 136.197 122.65ZM148.385 136.195C149.413 136.195 150.276 135.99 150.973 135.58C151.676 135.163 152.203 134.688 152.555 134.154L151.451 133.295C151.119 133.725 150.702 134.07 150.201 134.33C149.7 134.59 149.127 134.721 148.482 134.721C147.994 134.721 147.548 134.63 147.145 134.447C146.741 134.265 146.396 134.014 146.109 133.695C145.829 133.396 145.608 133.051 145.445 132.66C145.289 132.27 145.188 131.817 145.143 131.303V131.234H152.691V130.424C152.691 129.688 152.597 129.005 152.408 128.373C152.226 127.742 151.946 127.191 151.568 126.723C151.191 126.26 150.715 125.899 150.143 125.639C149.576 125.372 148.912 125.238 148.15 125.238C147.545 125.238 146.952 125.362 146.373 125.609C145.8 125.857 145.289 126.212 144.84 126.674C144.384 127.143 144.02 127.715 143.746 128.393C143.473 129.063 143.336 129.825 143.336 130.678V131.088C143.336 131.824 143.46 132.504 143.707 133.129C143.954 133.754 144.299 134.294 144.742 134.75C145.185 135.206 145.715 135.561 146.334 135.814C146.959 136.068 147.643 136.195 148.385 136.195ZM148.15 126.723C148.613 126.723 149.01 126.807 149.342 126.977C149.68 127.146 149.96 127.367 150.182 127.641C150.403 127.914 150.576 128.24 150.699 128.617C150.823 128.988 150.885 129.337 150.885 129.662V129.75H145.201C145.273 129.262 145.396 128.832 145.572 128.461C145.755 128.083 145.976 127.764 146.236 127.504C146.497 127.25 146.79 127.058 147.115 126.928C147.441 126.791 147.786 126.723 148.15 126.723ZM160.23 134.73C159.664 134.73 159.189 134.62 158.805 134.398C158.427 134.171 158.124 133.874 157.896 133.51C157.662 133.152 157.493 132.748 157.389 132.299C157.291 131.843 157.242 131.384 157.242 130.922V130.512C157.242 130.056 157.291 129.604 157.389 129.154C157.493 128.705 157.662 128.298 157.896 127.934C158.131 127.576 158.437 127.286 158.814 127.064C159.199 126.837 159.671 126.723 160.23 126.723C160.595 126.723 160.934 126.785 161.246 126.908C161.565 127.032 161.839 127.201 162.066 127.416C162.294 127.631 162.473 127.882 162.604 128.168C162.74 128.448 162.812 128.747 162.818 129.066H164.527C164.527 128.533 164.42 128.031 164.205 127.562C163.99 127.094 163.694 126.687 163.316 126.342C162.932 126.003 162.477 125.736 161.949 125.541C161.428 125.339 160.855 125.238 160.23 125.238C159.43 125.238 158.73 125.382 158.131 125.668C157.532 125.954 157.034 126.339 156.637 126.82C156.233 127.309 155.93 127.872 155.729 128.51C155.527 129.148 155.426 129.815 155.426 130.512V130.922C155.426 131.625 155.527 132.296 155.729 132.934C155.93 133.565 156.233 134.122 156.637 134.604C157.034 135.092 157.532 135.479 158.131 135.766C158.73 136.052 159.43 136.195 160.23 136.195C160.79 136.195 161.327 136.101 161.842 135.912C162.356 135.717 162.812 135.456 163.209 135.131C163.606 134.812 163.922 134.441 164.156 134.018C164.397 133.588 164.521 133.139 164.527 132.67H162.818C162.812 132.963 162.734 133.236 162.584 133.49C162.441 133.738 162.249 133.952 162.008 134.135C161.767 134.324 161.49 134.47 161.178 134.574C160.872 134.678 160.556 134.73 160.23 134.73ZM172.018 122.875H170.201V125.434H167.428V126.83H170.201V132.572C170.201 133.223 170.286 133.78 170.455 134.242C170.631 134.698 170.868 135.069 171.168 135.355C171.467 135.648 171.819 135.863 172.223 136C172.633 136.13 173.072 136.195 173.541 136.195C173.821 136.195 174.101 136.182 174.381 136.156C174.667 136.13 174.938 136.091 175.191 136.039C175.445 135.993 175.68 135.938 175.895 135.873C176.109 135.801 176.292 135.72 176.441 135.629L176.188 134.35C176.077 134.376 175.934 134.408 175.758 134.447C175.589 134.48 175.406 134.512 175.211 134.545C175.009 134.577 174.804 134.607 174.596 134.633C174.387 134.652 174.186 134.662 173.99 134.662C173.723 134.662 173.469 134.63 173.229 134.564C172.994 134.499 172.786 134.385 172.604 134.223C172.421 134.066 172.278 133.855 172.174 133.588C172.07 133.321 172.018 132.982 172.018 132.572V126.83H176.041V125.434H172.018V122.875ZM186.773 133.197C186.773 133.367 186.741 133.526 186.676 133.676C186.611 133.826 186.516 133.962 186.393 134.086C186.191 134.288 185.911 134.447 185.553 134.564C185.195 134.675 184.775 134.73 184.293 134.73C183.987 134.73 183.678 134.698 183.365 134.633C183.053 134.568 182.77 134.457 182.516 134.301C182.255 134.145 182.037 133.939 181.861 133.686C181.692 133.432 181.594 133.119 181.568 132.748H179.762C179.762 133.197 179.863 133.63 180.064 134.047C180.273 134.464 180.572 134.828 180.963 135.141C181.347 135.46 181.819 135.717 182.379 135.912C182.939 136.101 183.577 136.195 184.293 136.195C184.918 136.195 185.494 136.12 186.021 135.971C186.549 135.821 187.001 135.609 187.379 135.336C187.757 135.062 188.049 134.734 188.258 134.35C188.473 133.965 188.58 133.539 188.58 133.07C188.58 132.634 188.486 132.25 188.297 131.918C188.115 131.586 187.848 131.293 187.496 131.039C187.145 130.792 186.712 130.58 186.197 130.404C185.683 130.222 185.1 130.062 184.449 129.926C183.954 129.828 183.544 129.727 183.219 129.623C182.9 129.519 182.646 129.402 182.457 129.271C182.262 129.141 182.125 128.995 182.047 128.832C181.969 128.669 181.93 128.484 181.93 128.275C181.93 128.074 181.979 127.878 182.076 127.689C182.174 127.501 182.32 127.335 182.516 127.191C182.704 127.048 182.942 126.934 183.229 126.85C183.521 126.765 183.86 126.723 184.244 126.723C184.615 126.723 184.947 126.775 185.24 126.879C185.54 126.983 185.794 127.12 186.002 127.289C186.21 127.458 186.373 127.654 186.49 127.875C186.607 128.09 186.666 128.311 186.666 128.539H188.473C188.473 128.077 188.372 127.647 188.17 127.25C187.975 126.846 187.695 126.495 187.33 126.195C186.965 125.896 186.523 125.661 186.002 125.492C185.481 125.323 184.895 125.238 184.244 125.238C183.639 125.238 183.082 125.32 182.574 125.482C182.073 125.645 181.64 125.867 181.275 126.146C180.911 126.426 180.628 126.755 180.426 127.133C180.224 127.504 180.123 127.904 180.123 128.334C180.123 128.77 180.221 129.154 180.416 129.486C180.611 129.812 180.888 130.095 181.246 130.336C181.598 130.583 182.021 130.795 182.516 130.971C183.017 131.146 183.57 131.296 184.176 131.42C184.671 131.518 185.084 131.628 185.416 131.752C185.748 131.869 186.015 131.999 186.217 132.143C186.419 132.286 186.562 132.445 186.646 132.621C186.731 132.79 186.773 132.982 186.773 133.197ZM194.146 137.221L200.074 121.781H198.463L192.525 137.221H194.146ZM72.584 162H74.4688V161.844C74.3516 161.551 74.2604 161.209 74.1953 160.818C74.1302 160.421 74.0977 160.047 74.0977 159.695V154.783C74.0977 154.191 73.9902 153.673 73.7754 153.23C73.5605 152.788 73.2676 152.417 72.8965 152.117C72.5189 151.824 72.0729 151.606 71.5586 151.463C71.0443 151.313 70.4876 151.238 69.8887 151.238C69.2311 151.238 68.6419 151.329 68.1211 151.512C67.6068 151.694 67.1706 151.932 66.8125 152.225C66.4479 152.524 66.168 152.859 65.9727 153.23C65.7839 153.602 65.6862 153.979 65.6797 154.363H67.4961C67.4961 154.142 67.5482 153.93 67.6523 153.729C67.763 153.52 67.916 153.341 68.1113 153.191C68.3066 153.042 68.5443 152.921 68.8242 152.83C69.1107 152.739 69.4329 152.693 69.791 152.693C70.1751 152.693 70.5202 152.742 70.8262 152.84C71.1387 152.938 71.4023 153.074 71.6172 153.25C71.832 153.432 71.998 153.65 72.1152 153.904C72.2324 154.158 72.291 154.445 72.291 154.764V155.594H70.3184C69.5827 155.594 68.9154 155.665 68.3164 155.809C67.724 155.952 67.2161 156.167 66.793 156.453C66.3698 156.746 66.041 157.111 65.8066 157.547C65.5788 157.983 65.4648 158.491 65.4648 159.07C65.4648 159.513 65.5495 159.926 65.7188 160.311C65.8945 160.688 66.1419 161.014 66.4609 161.287C66.7734 161.567 67.1543 161.788 67.6035 161.951C68.0592 162.114 68.5671 162.195 69.127 162.195C69.472 162.195 69.7975 162.16 70.1035 162.088C70.4095 162.016 70.6992 161.919 70.9727 161.795C71.2396 161.671 71.4837 161.528 71.7051 161.365C71.9329 161.202 72.138 161.03 72.3203 160.848C72.3398 161.069 72.3691 161.284 72.4082 161.492C72.4538 161.694 72.5124 161.863 72.584 162ZM69.3906 160.623C69.0391 160.623 68.7298 160.577 68.4629 160.486C68.196 160.395 67.9746 160.268 67.7988 160.105C67.623 159.949 67.4896 159.76 67.3984 159.539C67.3138 159.318 67.2715 159.077 67.2715 158.816C67.2715 158.543 67.3203 158.299 67.418 158.084C67.5221 157.869 67.6719 157.684 67.8672 157.527C68.1406 157.306 68.5085 157.143 68.9707 157.039C69.4395 156.928 69.9863 156.873 70.6113 156.873H72.291V159.012C72.1868 159.22 72.0436 159.422 71.8613 159.617C71.679 159.806 71.4642 159.975 71.2168 160.125C70.9629 160.275 70.6829 160.395 70.377 160.486C70.071 160.577 69.7422 160.623 69.3906 160.623ZM82.1543 160.73C81.5879 160.73 81.1126 160.62 80.7285 160.398C80.3509 160.171 80.0482 159.874 79.8203 159.51C79.5859 159.152 79.4167 158.748 79.3125 158.299C79.2148 157.843 79.166 157.384 79.166 156.922V156.512C79.166 156.056 79.2148 155.604 79.3125 155.154C79.4167 154.705 79.5859 154.298 79.8203 153.934C80.0547 153.576 80.3607 153.286 80.7383 153.064C81.1224 152.837 81.5944 152.723 82.1543 152.723C82.5189 152.723 82.8574 152.785 83.1699 152.908C83.4889 153.032 83.7624 153.201 83.9902 153.416C84.2181 153.631 84.3971 153.882 84.5273 154.168C84.6641 154.448 84.7357 154.747 84.7422 155.066H86.4512C86.4512 154.533 86.3438 154.031 86.1289 153.562C85.9141 153.094 85.6178 152.687 85.2402 152.342C84.8561 152.003 84.4004 151.736 83.873 151.541C83.3522 151.339 82.7793 151.238 82.1543 151.238C81.3535 151.238 80.6536 151.382 80.0547 151.668C79.4557 151.954 78.9577 152.339 78.5605 152.82C78.1569 153.309 77.8542 153.872 77.6523 154.51C77.4505 155.148 77.3496 155.815 77.3496 156.512V156.922C77.3496 157.625 77.4505 158.296 77.6523 158.934C77.8542 159.565 78.1569 160.122 78.5605 160.604C78.9577 161.092 79.4557 161.479 80.0547 161.766C80.6536 162.052 81.3535 162.195 82.1543 162.195C82.7142 162.195 83.2513 162.101 83.7656 161.912C84.2799 161.717 84.7357 161.456 85.1328 161.131C85.5299 160.812 85.8457 160.441 86.0801 160.018C86.321 159.588 86.4447 159.139 86.4512 158.67H84.7422C84.7357 158.963 84.6576 159.236 84.5078 159.49C84.3646 159.738 84.1725 159.952 83.9316 160.135C83.6908 160.324 83.4141 160.47 83.1016 160.574C82.7956 160.678 82.4798 160.73 82.1543 160.73ZM93.9414 148.875H92.125V151.434H89.3516V152.83H92.125V158.572C92.125 159.223 92.2096 159.78 92.3789 160.242C92.5547 160.698 92.7923 161.069 93.0918 161.355C93.3913 161.648 93.7428 161.863 94.1465 162C94.5566 162.13 94.9961 162.195 95.4648 162.195C95.7448 162.195 96.0247 162.182 96.3047 162.156C96.5911 162.13 96.8613 162.091 97.1152 162.039C97.3691 161.993 97.6035 161.938 97.8184 161.873C98.0332 161.801 98.2155 161.72 98.3652 161.629L98.1113 160.35C98.0007 160.376 97.8574 160.408 97.6816 160.447C97.5124 160.48 97.3301 160.512 97.1348 160.545C96.9329 160.577 96.7279 160.607 96.5195 160.633C96.3112 160.652 96.1094 160.662 95.9141 160.662C95.6471 160.662 95.3932 160.63 95.1523 160.564C94.918 160.499 94.7096 160.385 94.5273 160.223C94.3451 160.066 94.2018 159.855 94.0977 159.588C93.9935 159.321 93.9414 158.982 93.9414 158.572V152.83H97.9648V151.434H93.9414V148.875ZM101.959 151.434V153.006H105.553V160.438H101.959V162H110.807V160.438H107.359V151.434H101.959ZM105.318 148.66C105.318 148.953 105.406 149.197 105.582 149.393C105.764 149.588 106.038 149.686 106.402 149.686C106.76 149.686 107.031 149.588 107.213 149.393C107.395 149.197 107.486 148.953 107.486 148.66C107.486 148.497 107.46 148.348 107.408 148.211C107.356 148.074 107.278 147.96 107.174 147.869C107.089 147.785 106.982 147.719 106.852 147.674C106.721 147.622 106.572 147.596 106.402 147.596C106.233 147.596 106.08 147.622 105.943 147.674C105.813 147.719 105.706 147.785 105.621 147.869C105.517 147.967 105.439 148.084 105.387 148.221C105.341 148.357 105.318 148.504 105.318 148.66ZM117.291 162H118.668L122.975 151.434H121.129L118.17 159.402L117.994 160.057L117.828 159.402L114.801 151.434H112.945L117.291 162ZM125.982 151.434V153.006H129.576V160.438H125.982V162H134.83V160.438H131.383V151.434H125.982ZM129.342 148.66C129.342 148.953 129.43 149.197 129.605 149.393C129.788 149.588 130.061 149.686 130.426 149.686C130.784 149.686 131.054 149.588 131.236 149.393C131.419 149.197 131.51 148.953 131.51 148.66C131.51 148.497 131.484 148.348 131.432 148.211C131.38 148.074 131.301 147.96 131.197 147.869C131.113 147.785 131.005 147.719 130.875 147.674C130.745 147.622 130.595 147.596 130.426 147.596C130.257 147.596 130.104 147.622 129.967 147.674C129.837 147.719 129.729 147.785 129.645 147.869C129.54 147.967 129.462 148.084 129.41 148.221C129.365 148.357 129.342 148.504 129.342 148.66ZM141.988 148.875H140.172V151.434H137.398V152.83H140.172V158.572C140.172 159.223 140.257 159.78 140.426 160.242C140.602 160.698 140.839 161.069 141.139 161.355C141.438 161.648 141.79 161.863 142.193 162C142.604 162.13 143.043 162.195 143.512 162.195C143.792 162.195 144.072 162.182 144.352 162.156C144.638 162.13 144.908 162.091 145.162 162.039C145.416 161.993 145.65 161.938 145.865 161.873C146.08 161.801 146.262 161.72 146.412 161.629L146.158 160.35C146.048 160.376 145.904 160.408 145.729 160.447C145.559 160.48 145.377 160.512 145.182 160.545C144.98 160.577 144.775 160.607 144.566 160.633C144.358 160.652 144.156 160.662 143.961 160.662C143.694 160.662 143.44 160.63 143.199 160.564C142.965 160.499 142.757 160.385 142.574 160.223C142.392 160.066 142.249 159.855 142.145 159.588C142.04 159.321 141.988 158.982 141.988 158.572V152.83H146.012V151.434H141.988V148.875ZM150.006 151.434V153.006H153.6V160.438H150.006V162H158.854V160.438H155.406V151.434H150.006ZM153.365 148.66C153.365 148.953 153.453 149.197 153.629 149.393C153.811 149.588 154.085 149.686 154.449 149.686C154.807 149.686 155.077 149.588 155.26 149.393C155.442 149.197 155.533 148.953 155.533 148.66C155.533 148.497 155.507 148.348 155.455 148.211C155.403 148.074 155.325 147.96 155.221 147.869C155.136 147.785 155.029 147.719 154.898 147.674C154.768 147.622 154.618 147.596 154.449 147.596C154.28 147.596 154.127 147.622 153.99 147.674C153.86 147.719 153.753 147.785 153.668 147.869C153.564 147.967 153.486 148.084 153.434 148.221C153.388 148.357 153.365 148.504 153.365 148.66ZM166.402 162.195C167.431 162.195 168.294 161.99 168.99 161.58C169.693 161.163 170.221 160.688 170.572 160.154L169.469 159.295C169.137 159.725 168.72 160.07 168.219 160.33C167.717 160.59 167.145 160.721 166.5 160.721C166.012 160.721 165.566 160.63 165.162 160.447C164.758 160.265 164.413 160.014 164.127 159.695C163.847 159.396 163.626 159.051 163.463 158.66C163.307 158.27 163.206 157.817 163.16 157.303V157.234H170.709V156.424C170.709 155.688 170.615 155.005 170.426 154.373C170.243 153.742 169.964 153.191 169.586 152.723C169.208 152.26 168.733 151.899 168.16 151.639C167.594 151.372 166.93 151.238 166.168 151.238C165.562 151.238 164.97 151.362 164.391 151.609C163.818 151.857 163.307 152.212 162.857 152.674C162.402 153.143 162.037 153.715 161.764 154.393C161.49 155.063 161.354 155.825 161.354 156.678V157.088C161.354 157.824 161.477 158.504 161.725 159.129C161.972 159.754 162.317 160.294 162.76 160.75C163.202 161.206 163.733 161.561 164.352 161.814C164.977 162.068 165.66 162.195 166.402 162.195ZM166.168 152.723C166.63 152.723 167.027 152.807 167.359 152.977C167.698 153.146 167.978 153.367 168.199 153.641C168.421 153.914 168.593 154.24 168.717 154.617C168.84 154.988 168.902 155.337 168.902 155.662V155.75H163.219C163.29 155.262 163.414 154.832 163.59 154.461C163.772 154.083 163.993 153.764 164.254 153.504C164.514 153.25 164.807 153.058 165.133 152.928C165.458 152.791 165.803 152.723 166.168 152.723ZM180.768 159.197C180.768 159.367 180.735 159.526 180.67 159.676C180.605 159.826 180.51 159.962 180.387 160.086C180.185 160.288 179.905 160.447 179.547 160.564C179.189 160.675 178.769 160.73 178.287 160.73C177.981 160.73 177.672 160.698 177.359 160.633C177.047 160.568 176.764 160.457 176.51 160.301C176.249 160.145 176.031 159.939 175.855 159.686C175.686 159.432 175.589 159.119 175.562 158.748H173.756C173.756 159.197 173.857 159.63 174.059 160.047C174.267 160.464 174.566 160.828 174.957 161.141C175.341 161.46 175.813 161.717 176.373 161.912C176.933 162.101 177.571 162.195 178.287 162.195C178.912 162.195 179.488 162.12 180.016 161.971C180.543 161.821 180.995 161.609 181.373 161.336C181.751 161.062 182.044 160.734 182.252 160.35C182.467 159.965 182.574 159.539 182.574 159.07C182.574 158.634 182.48 158.25 182.291 157.918C182.109 157.586 181.842 157.293 181.49 157.039C181.139 156.792 180.706 156.58 180.191 156.404C179.677 156.222 179.094 156.062 178.443 155.926C177.949 155.828 177.538 155.727 177.213 155.623C176.894 155.519 176.64 155.402 176.451 155.271C176.256 155.141 176.119 154.995 176.041 154.832C175.963 154.669 175.924 154.484 175.924 154.275C175.924 154.074 175.973 153.878 176.07 153.689C176.168 153.501 176.314 153.335 176.51 153.191C176.699 153.048 176.936 152.934 177.223 152.85C177.516 152.765 177.854 152.723 178.238 152.723C178.609 152.723 178.941 152.775 179.234 152.879C179.534 152.983 179.788 153.12 179.996 153.289C180.204 153.458 180.367 153.654 180.484 153.875C180.602 154.09 180.66 154.311 180.66 154.539H182.467C182.467 154.077 182.366 153.647 182.164 153.25C181.969 152.846 181.689 152.495 181.324 152.195C180.96 151.896 180.517 151.661 179.996 151.492C179.475 151.323 178.889 151.238 178.238 151.238C177.633 151.238 177.076 151.32 176.568 151.482C176.067 151.645 175.634 151.867 175.27 152.146C174.905 152.426 174.622 152.755 174.42 153.133C174.218 153.504 174.117 153.904 174.117 154.334C174.117 154.77 174.215 155.154 174.41 155.486C174.605 155.812 174.882 156.095 175.24 156.336C175.592 156.583 176.015 156.795 176.51 156.971C177.011 157.146 177.564 157.296 178.17 157.42C178.665 157.518 179.078 157.628 179.41 157.752C179.742 157.869 180.009 157.999 180.211 158.143C180.413 158.286 180.556 158.445 180.641 158.621C180.725 158.79 180.768 158.982 180.768 159.197ZM80.3477 188H82.1641V178.83H86.2363V177.434H82.1641V176.691C82.1641 176.249 82.2194 175.861 82.3301 175.529C82.4473 175.197 82.6165 174.927 82.8379 174.719C83.0462 174.517 83.3066 174.367 83.6191 174.27C83.9382 174.165 84.3027 174.113 84.7129 174.113C85.1165 174.113 85.4941 174.149 85.8457 174.221C86.2038 174.286 86.5163 174.364 86.7832 174.455L86.998 172.961C86.8288 172.915 86.6628 172.876 86.5 172.844C86.3372 172.805 86.1745 172.769 86.0117 172.736C85.7643 172.691 85.5137 172.655 85.2598 172.629C85.0059 172.596 84.7487 172.58 84.4883 172.58C83.8633 172.58 83.2969 172.668 82.7891 172.844C82.2812 173.02 81.8483 173.28 81.4902 173.625C81.1257 173.97 80.8424 174.4 80.6406 174.914C80.4453 175.422 80.3477 176.014 80.3477 176.691V177.434H77.4375V178.83H80.3477V188ZM89.1562 182.619V182.834C89.1562 183.596 89.2669 184.302 89.4883 184.953C89.7096 185.604 90.0286 186.171 90.4453 186.652C90.8555 187.134 91.3568 187.512 91.9492 187.785C92.5482 188.059 93.222 188.195 93.9707 188.195C94.7129 188.195 95.3802 188.059 95.9727 187.785C96.5651 187.512 97.0697 187.134 97.4863 186.652C97.8965 186.171 98.2122 185.604 98.4336 184.953C98.6549 184.302 98.7656 183.596 98.7656 182.834V182.619C98.7656 181.857 98.6549 181.151 98.4336 180.5C98.2122 179.842 97.8965 179.273 97.4863 178.791C97.0697 178.309 96.5618 177.932 95.9629 177.658C95.3704 177.378 94.6999 177.238 93.9512 177.238C93.209 177.238 92.5417 177.378 91.9492 177.658C91.3568 177.932 90.8555 178.309 90.4453 178.791C90.0286 179.273 89.7096 179.842 89.4883 180.5C89.2669 181.151 89.1562 181.857 89.1562 182.619ZM90.9629 182.834V182.619C90.9629 182.105 91.0247 181.613 91.1484 181.145C91.2721 180.669 91.4609 180.253 91.7148 179.895C91.9622 179.536 92.2715 179.253 92.6426 179.045C93.0137 178.83 93.4499 178.723 93.9512 178.723C94.4525 178.723 94.8887 178.83 95.2598 179.045C95.6374 179.253 95.9531 179.536 96.207 179.895C96.4544 180.253 96.64 180.669 96.7637 181.145C96.8939 181.613 96.959 182.105 96.959 182.619V182.834C96.959 183.355 96.8971 183.853 96.7734 184.328C96.6497 184.797 96.4642 185.21 96.2168 185.568C95.9629 185.926 95.6471 186.21 95.2695 186.418C94.8984 186.626 94.4655 186.73 93.9707 186.73C93.4694 186.73 93.0299 186.626 92.6523 186.418C92.2747 186.21 91.9622 185.926 91.7148 185.568C91.4609 185.21 91.2721 184.797 91.1484 184.328C91.0247 183.853 90.9629 183.355 90.9629 182.834ZM108.6 177.238C107.831 177.238 107.145 177.408 106.539 177.746C105.94 178.078 105.426 178.534 104.996 179.113L104.986 178.85L104.908 177.434H103.189V188H105.006V181.223C105.123 180.897 105.27 180.604 105.445 180.344C105.628 180.077 105.839 179.852 106.08 179.67C106.347 179.462 106.66 179.305 107.018 179.201C107.376 179.09 107.776 179.035 108.219 179.035C108.564 179.035 108.893 179.055 109.205 179.094C109.524 179.126 109.859 179.182 110.211 179.26L110.455 177.492C110.273 177.414 109.999 177.352 109.635 177.307C109.277 177.261 108.932 177.238 108.6 177.238ZM125.982 177.434V179.006H129.576V186.438H125.982V188H134.83V186.438H131.383V177.434H125.982ZM129.342 174.66C129.342 174.953 129.43 175.197 129.605 175.393C129.788 175.588 130.061 175.686 130.426 175.686C130.784 175.686 131.054 175.588 131.236 175.393C131.419 175.197 131.51 174.953 131.51 174.66C131.51 174.497 131.484 174.348 131.432 174.211C131.38 174.074 131.301 173.96 131.197 173.869C131.113 173.785 131.005 173.719 130.875 173.674C130.745 173.622 130.595 173.596 130.426 173.596C130.257 173.596 130.104 173.622 129.967 173.674C129.837 173.719 129.729 173.785 129.645 173.869C129.54 173.967 129.462 174.084 129.41 174.221C129.365 174.357 129.342 174.504 129.342 174.66ZM137.711 188H139.518V180.422C139.641 180.194 139.785 179.986 139.947 179.797C140.117 179.608 140.299 179.442 140.494 179.299C140.735 179.136 140.999 179.009 141.285 178.918C141.572 178.82 141.881 178.771 142.213 178.771C142.597 178.771 142.936 178.817 143.229 178.908C143.528 178.999 143.782 179.146 143.99 179.348C144.192 179.549 144.345 179.813 144.449 180.139C144.553 180.464 144.605 180.861 144.605 181.33V188H146.412V181.291C146.412 180.588 146.324 179.982 146.148 179.475C145.979 178.96 145.735 178.537 145.416 178.205C145.097 177.873 144.71 177.629 144.254 177.473C143.805 177.316 143.303 177.238 142.75 177.238C142.34 177.245 141.949 177.307 141.578 177.424C141.214 177.535 140.875 177.694 140.562 177.902C140.354 178.039 140.156 178.202 139.967 178.391C139.785 178.573 139.615 178.775 139.459 178.996L139.332 177.434H137.711V188ZM152.418 188H154.234V178.83H158.307V177.434H154.234V176.691C154.234 176.249 154.29 175.861 154.4 175.529C154.518 175.197 154.687 174.927 154.908 174.719C155.117 174.517 155.377 174.367 155.689 174.27C156.008 174.165 156.373 174.113 156.783 174.113C157.187 174.113 157.564 174.149 157.916 174.221C158.274 174.286 158.587 174.364 158.854 174.455L159.068 172.961C158.899 172.915 158.733 172.876 158.57 172.844C158.408 172.805 158.245 172.769 158.082 172.736C157.835 172.691 157.584 172.655 157.33 172.629C157.076 172.596 156.819 172.58 156.559 172.58C155.934 172.58 155.367 172.668 154.859 172.844C154.352 173.02 153.919 173.28 153.561 173.625C153.196 173.97 152.913 174.4 152.711 174.914C152.516 175.422 152.418 176.014 152.418 176.691V177.434H149.508V178.83H152.418V188ZM161.227 182.619V182.834C161.227 183.596 161.337 184.302 161.559 184.953C161.78 185.604 162.099 186.171 162.516 186.652C162.926 187.134 163.427 187.512 164.02 187.785C164.618 188.059 165.292 188.195 166.041 188.195C166.783 188.195 167.451 188.059 168.043 187.785C168.635 187.512 169.14 187.134 169.557 186.652C169.967 186.171 170.283 185.604 170.504 184.953C170.725 184.302 170.836 183.596 170.836 182.834V182.619C170.836 181.857 170.725 181.151 170.504 180.5C170.283 179.842 169.967 179.273 169.557 178.791C169.14 178.309 168.632 177.932 168.033 177.658C167.441 177.378 166.77 177.238 166.021 177.238C165.279 177.238 164.612 177.378 164.02 177.658C163.427 177.932 162.926 178.309 162.516 178.791C162.099 179.273 161.78 179.842 161.559 180.5C161.337 181.151 161.227 181.857 161.227 182.619ZM163.033 182.834V182.619C163.033 182.105 163.095 181.613 163.219 181.145C163.342 180.669 163.531 180.253 163.785 179.895C164.033 179.536 164.342 179.253 164.713 179.045C165.084 178.83 165.52 178.723 166.021 178.723C166.523 178.723 166.959 178.83 167.33 179.045C167.708 179.253 168.023 179.536 168.277 179.895C168.525 180.253 168.71 180.669 168.834 181.145C168.964 181.613 169.029 182.105 169.029 182.619V182.834C169.029 183.355 168.967 183.853 168.844 184.328C168.72 184.797 168.535 185.21 168.287 185.568C168.033 185.926 167.717 186.21 167.34 186.418C166.969 186.626 166.536 186.73 166.041 186.73C165.54 186.73 165.1 186.626 164.723 186.418C164.345 186.21 164.033 185.926 163.785 185.568C163.531 185.21 163.342 184.797 163.219 184.328C163.095 183.853 163.033 183.355 163.033 182.834Z" fill="#8A0000" fill-opacity="0.65"/>
</svg>
