<svg width="247" height="328" viewBox="0 0 247 328" fill="none" xmlns="http://www.w3.org/2000/svg">
<rect width="247" height="328" rx="8" fill="url(#paint0_linear)"/>
<rect width="247" height="328" rx="8" fill="url(#paint1_linear)"/>
<path d="M14.8921 43H19.0059C19.8604 42.9919 20.6538 42.8901 21.3862 42.6948C22.1268 42.4995 22.79 42.2188 23.376 41.8525C23.9294 41.5026 24.4299 41.0794 24.8774 40.583C25.325 40.0866 25.6953 39.5332 25.9883 38.9229C26.2731 38.3369 26.4888 37.694 26.6353 36.9941C26.7899 36.2943 26.8672 35.5537 26.8672 34.7725V33.4663C26.859 32.6525 26.7736 31.8875 26.6108 31.1714C26.4562 30.4552 26.2284 29.7961 25.9272 29.1938C25.5936 28.4858 25.146 27.8633 24.5845 27.3262C24.0311 26.7809 23.3923 26.3415 22.668 26.0078C22.1471 25.7637 21.5775 25.5765 20.959 25.4463C20.3486 25.3079 19.6976 25.2347 19.0059 25.2266H14.8921V43ZM17.187 27.082H19.0059C19.5674 27.0902 20.0841 27.1553 20.5562 27.2773C21.0282 27.3913 21.4554 27.554 21.8379 27.7656C22.375 28.0505 22.8267 28.4248 23.1929 28.8887C23.5672 29.3444 23.8643 29.8571 24.084 30.4268C24.2549 30.8662 24.381 31.3423 24.4624 31.855C24.5519 32.3595 24.6007 32.8885 24.6089 33.4419V34.7725C24.6007 35.3177 24.556 35.8426 24.4746 36.3472C24.3932 36.8436 24.2712 37.3075 24.1084 37.7388C23.9212 38.2677 23.6649 38.7479 23.3394 39.1792C23.022 39.6024 22.6436 39.9604 22.2041 40.2534C21.7891 40.5382 21.313 40.758 20.7759 40.9126C20.2469 41.0672 19.6569 41.1486 19.0059 41.1567H17.187V27.082ZM39.4404 38.5078C39.4404 38.9961 39.3346 39.4193 39.123 39.7773C38.9115 40.1273 38.6388 40.4162 38.3052 40.644C37.9715 40.88 37.589 41.055 37.1577 41.1689C36.7345 41.2747 36.3032 41.3276 35.8638 41.3276C35.3104 41.3276 34.7977 41.2544 34.3257 41.1079C33.8618 40.9533 33.4508 40.7254 33.0928 40.4243C32.7347 40.1313 32.4417 39.7733 32.2139 39.3501C31.986 38.9188 31.8354 38.4264 31.7622 37.873H29.4551C29.4795 38.638 29.6463 39.3338 29.9556 39.9604C30.2729 40.5789 30.7002 41.1201 31.2373 41.584C31.8395 42.1211 32.5475 42.5321 33.3613 42.8169C34.1833 43.1017 35.0174 43.2441 35.8638 43.2441C36.5718 43.2441 37.2798 43.1465 37.9878 42.9512C38.6958 42.7477 39.3306 42.4466 39.8921 42.0479C40.4536 41.6572 40.9093 41.1649 41.2593 40.5708C41.6174 39.9767 41.7964 39.2809 41.7964 38.4834C41.7964 37.694 41.6296 36.9982 41.2959 36.396C40.9704 35.7938 40.5391 35.2852 40.002 34.8701C39.4567 34.4225 38.8545 34.0563 38.1953 33.7715C37.5361 33.4785 36.877 33.2303 36.2178 33.0269C35.819 32.9048 35.3918 32.7624 34.936 32.5996C34.4884 32.4368 34.0734 32.2334 33.6909 31.9893C33.3003 31.7451 32.9788 31.4481 32.7266 31.0981C32.4743 30.7401 32.3441 30.3047 32.3359 29.792C32.3359 29.32 32.4295 28.9049 32.6167 28.5469C32.812 28.1888 33.0724 27.8877 33.3979 27.6436C33.7153 27.3994 34.0775 27.2163 34.4844 27.0942C34.8994 26.9722 35.3226 26.9111 35.7539 26.9111C36.291 26.9111 36.7712 26.9966 37.1943 27.1675C37.6257 27.3302 37.9959 27.5622 38.3052 27.8633C38.6144 28.1644 38.8626 28.5265 39.0498 28.9497C39.237 29.3647 39.3631 29.8286 39.4282 30.3413H41.7476C41.7313 29.5275 41.5563 28.791 41.2227 28.1318C40.889 27.4727 40.4455 26.9111 39.8921 26.4473C39.3387 25.9834 38.7039 25.6253 37.9878 25.373C37.2716 25.1126 36.527 24.9824 35.7539 24.9824C35.054 24.9824 34.3582 25.0923 33.6665 25.312C32.9748 25.5236 32.3563 25.8369 31.811 26.252C31.2658 26.667 30.8223 27.1756 30.4805 27.7778C30.1468 28.38 29.98 29.0636 29.98 29.8286C29.98 30.5936 30.1468 31.2609 30.4805 31.8306C30.8223 32.3921 31.2617 32.8804 31.7988 33.2954C32.3278 33.7023 32.9137 34.0522 33.5566 34.3452C34.2077 34.63 34.8465 34.8742 35.4731 35.0776C35.9045 35.216 36.3521 35.3706 36.8159 35.5415C37.2879 35.7124 37.7192 35.924 38.1099 36.1763C38.5005 36.4367 38.8179 36.7541 39.062 37.1284C39.3143 37.5028 39.4404 37.9626 39.4404 38.5078ZM56.6523 40.6685L56.6157 34.1499H50.854V36.0542H54.4673L54.4429 40.0459C54.2557 40.3145 54.0238 40.5342 53.7471 40.7051C53.4704 40.8678 53.1733 40.998 52.856 41.0957C52.5386 41.1934 52.209 41.2585 51.8672 41.291C51.5335 41.3236 51.2121 41.3358 50.9028 41.3276C50.3657 41.3195 49.8856 41.2259 49.4624 41.0469C49.0392 40.8597 48.6689 40.6115 48.3516 40.3022C48.026 39.993 47.7493 39.6349 47.5215 39.228C47.2936 38.8211 47.1064 38.3898 46.96 37.9341C46.8135 37.4784 46.7036 37.0145 46.6304 36.5425C46.5653 36.0623 46.5286 35.5985 46.5205 35.1509V33.0635C46.5205 32.624 46.549 32.1683 46.606 31.6963C46.6629 31.2243 46.7565 30.7604 46.8867 30.3047C47.0169 29.849 47.1838 29.4176 47.3872 29.0107C47.5907 28.5957 47.847 28.2336 48.1562 27.9243C48.4655 27.6151 48.8276 27.3709 49.2427 27.1919C49.6577 27.0047 50.1338 26.9111 50.6709 26.9111C51.2324 26.9111 51.7248 27.0007 52.1479 27.1797C52.5711 27.3506 52.9373 27.5907 53.2466 27.8999C53.5477 28.2091 53.7918 28.5835 53.979 29.0229C54.1662 29.4543 54.3045 29.9263 54.394 30.439H56.6279C56.5547 29.6089 56.3594 28.8602 56.042 28.1929C55.7246 27.5174 55.3055 26.9396 54.7847 26.4595C54.2638 25.9875 53.6535 25.6253 52.9536 25.373C52.2537 25.1126 51.4888 24.9824 50.6587 24.9824C49.91 24.9824 49.2345 25.0923 48.6323 25.312C48.0301 25.5317 47.493 25.8288 47.021 26.2031C46.5409 26.5856 46.1299 27.0373 45.7881 27.5581C45.4463 28.0708 45.1615 28.6283 44.9336 29.2305C44.7057 29.8327 44.5348 30.4634 44.4209 31.1226C44.3151 31.7736 44.2581 32.4287 44.25 33.0879V35.1509C44.2581 35.8182 44.3232 36.4814 44.4453 37.1406C44.5755 37.7917 44.7668 38.4142 45.019 39.0083C45.2632 39.6105 45.5684 40.168 45.9346 40.6807C46.3008 41.1934 46.728 41.6369 47.2163 42.0112C47.7046 42.3937 48.2539 42.6948 48.8643 42.9146C49.4827 43.1261 50.1582 43.236 50.8906 43.2441C51.6149 43.2523 52.3066 43.1709 52.9658 43C53.625 42.8372 54.2394 42.585 54.8091 42.2432C55.1427 42.0479 55.4642 41.82 55.7734 41.5596C56.0827 41.291 56.3757 40.994 56.6523 40.6685ZM71.3008 43V25.2266H69.0181L68.9814 38.4834L62.0845 25.2266H59.7896V43H62.0723L62.1089 29.7188L69.0059 43H71.3008ZM101.098 43V41.1567H92.1748L96.9478 35.981C97.3953 35.4927 97.8185 35.0044 98.2173 34.5161C98.6242 34.0197 98.9823 33.5192 99.2915 33.0146C99.5926 32.5101 99.8327 32.0015 100.012 31.4888C100.191 30.9679 100.28 30.443 100.28 29.9141C100.28 29.2061 100.154 28.5509 99.9019 27.9487C99.6577 27.3465 99.3037 26.8257 98.8398 26.3862C98.376 25.9468 97.8063 25.605 97.1309 25.3608C96.4635 25.1086 95.7108 24.9824 94.8726 24.9824C93.9611 24.9824 93.1473 25.1289 92.4312 25.4219C91.7231 25.7148 91.125 26.1095 90.6367 26.606C90.1403 27.1024 89.7619 27.6842 89.5015 28.3516C89.241 29.0107 89.1108 29.7147 89.1108 30.4634H91.3813C91.3813 29.91 91.4505 29.4095 91.5889 28.9619C91.7354 28.5143 91.9551 28.1318 92.248 27.8145C92.5329 27.5052 92.891 27.2651 93.3223 27.0942C93.7617 26.9233 94.2785 26.8379 94.8726 26.8379C95.3608 26.8379 95.7962 26.9233 96.1787 27.0942C96.5693 27.257 96.903 27.4808 97.1797 27.7656C97.4482 28.0505 97.6517 28.3882 97.79 28.7788C97.9365 29.1613 98.0098 29.5723 98.0098 30.0117C98.0098 30.3698 97.965 30.7197 97.8755 31.0615C97.786 31.3952 97.6354 31.7492 97.4238 32.1235C97.2122 32.506 96.9315 32.9211 96.5815 33.3687C96.2316 33.8162 95.7962 34.3289 95.2754 34.9067L89.4526 41.3765V43H101.098ZM107.849 33.0269V34.8579H109.46C110.021 34.8579 110.534 34.923 110.998 35.0532C111.47 35.1834 111.873 35.3828 112.207 35.6514C112.532 35.9199 112.784 36.2576 112.963 36.6646C113.151 37.0633 113.244 37.5394 113.244 38.0928C113.244 38.6543 113.163 39.1426 113 39.5576C112.845 39.9645 112.622 40.3063 112.329 40.583C112.036 40.8597 111.682 41.0672 111.267 41.2056C110.852 41.3358 110.388 41.4009 109.875 41.4009C109.362 41.4009 108.894 41.3276 108.471 41.1812C108.056 41.0347 107.702 40.8271 107.409 40.5586C107.116 40.29 106.888 39.9645 106.726 39.582C106.571 39.1995 106.494 38.7764 106.494 38.3125H104.235C104.235 39.0938 104.382 39.7896 104.675 40.3999C104.976 41.0103 105.379 41.527 105.883 41.9502C106.388 42.3734 106.982 42.6948 107.666 42.9146C108.357 43.1343 109.094 43.2441 109.875 43.2441C110.673 43.2441 111.413 43.1302 112.097 42.9023C112.788 42.6663 113.387 42.3245 113.891 41.877C114.396 41.4375 114.79 40.8963 115.075 40.2534C115.36 39.6105 115.502 38.874 115.502 38.0439C115.502 37.637 115.454 37.2261 115.356 36.811C115.266 36.396 115.108 36.0013 114.88 35.627C114.644 35.2526 114.331 34.9149 113.94 34.6138C113.557 34.3127 113.077 34.0685 112.5 33.8813C112.98 33.6779 113.391 33.4256 113.732 33.1245C114.082 32.8153 114.367 32.4857 114.587 32.1357C114.807 31.7939 114.969 31.4399 115.075 31.0737C115.181 30.7075 115.234 30.3535 115.234 30.0117C115.234 29.1898 115.104 28.4655 114.843 27.8389C114.583 27.2122 114.217 26.6873 113.745 26.2642C113.273 25.841 112.707 25.5236 112.048 25.312C111.389 25.0923 110.66 24.9824 109.863 24.9824C109.041 24.9824 108.292 25.1126 107.617 25.373C106.949 25.6253 106.376 25.9712 105.896 26.4106C105.415 26.8582 105.041 27.3831 104.772 27.9854C104.512 28.5794 104.382 29.2142 104.382 29.8896H106.652C106.652 29.4258 106.73 29.0067 106.884 28.6323C107.039 28.258 107.259 27.9365 107.543 27.668C107.82 27.3994 108.154 27.196 108.544 27.0576C108.943 26.9111 109.383 26.8379 109.863 26.8379C110.359 26.8379 110.799 26.903 111.181 27.0332C111.572 27.1553 111.897 27.3424 112.158 27.5947C112.426 27.8551 112.63 28.1847 112.768 28.5835C112.906 28.9741 112.976 29.4339 112.976 29.9629C112.976 30.4105 112.898 30.8215 112.744 31.1958C112.589 31.5701 112.365 31.8916 112.072 32.1602C111.771 32.4287 111.401 32.6403 110.961 32.7949C110.53 32.9495 110.03 33.0269 109.46 33.0269H107.849ZM129.382 37.0308V25.2266H126.977L119.018 37.5435V38.874H127.124V43H129.382V38.874H131.86V37.0308H129.382ZM121.521 37.0308L126.757 28.9131L127.124 28.2295V37.0308H121.521Z" fill="#DF5013"/>
<path d="M23.9082 107.723H22.1016C22.043 108.152 21.9421 108.553 21.7988 108.924C21.6556 109.288 21.4635 109.604 21.2227 109.871C20.9818 110.145 20.6855 110.356 20.334 110.506C19.9889 110.656 19.5788 110.73 19.1035 110.73C18.6673 110.73 18.2865 110.662 17.9609 110.525C17.6354 110.382 17.3522 110.187 17.1113 109.939C16.8704 109.699 16.6719 109.419 16.5156 109.1C16.3594 108.781 16.2324 108.439 16.1348 108.074C16.0371 107.716 15.9655 107.352 15.9199 106.98C15.8809 106.603 15.8613 106.238 15.8613 105.887V103.885C15.8613 103.533 15.8809 103.172 15.9199 102.801C15.9655 102.423 16.0371 102.055 16.1348 101.697C16.2324 101.339 16.3594 101.001 16.5156 100.682C16.6784 100.363 16.8802 100.083 17.1211 99.8418C17.3555 99.6009 17.6354 99.4121 17.9609 99.2754C18.293 99.1322 18.6738 99.0605 19.1035 99.0605C19.5788 99.0605 19.9889 99.1419 20.334 99.3047C20.6855 99.4609 20.9818 99.679 21.2227 99.959C21.4635 100.239 21.6556 100.564 21.7988 100.936C21.9421 101.307 22.043 101.707 22.1016 102.137H23.9082C23.8301 101.46 23.6673 100.841 23.4199 100.281C23.179 99.7214 22.8568 99.2396 22.4531 98.8359C22.0495 98.4388 21.5677 98.1328 21.0078 97.918C20.4479 97.6966 19.8132 97.5859 19.1035 97.5859C18.5111 97.5859 17.9772 97.6706 17.502 97.8398C17.0267 98.0026 16.6035 98.2305 16.2324 98.5234C15.8548 98.8164 15.5293 99.1647 15.2559 99.5684C14.9889 99.9655 14.7676 100.398 14.5918 100.867C14.4095 101.336 14.2728 101.827 14.1816 102.342C14.097 102.856 14.0514 103.377 14.0449 103.904V105.887C14.0514 106.414 14.097 106.935 14.1816 107.449C14.2728 107.964 14.4095 108.455 14.5918 108.924C14.7676 109.393 14.9889 109.826 15.2559 110.223C15.5293 110.62 15.8548 110.965 16.2324 111.258C16.6035 111.551 17.0267 111.782 17.502 111.951C17.9837 112.114 18.5176 112.195 19.1035 112.195C19.7871 112.195 20.4056 112.088 20.959 111.873C21.5189 111.652 22.0039 111.342 22.4141 110.945C22.8177 110.555 23.1465 110.086 23.4004 109.539C23.6543 108.986 23.8236 108.38 23.9082 107.723ZM26.2031 106.619V106.834C26.2031 107.596 26.3138 108.302 26.5352 108.953C26.7565 109.604 27.0755 110.171 27.4922 110.652C27.9023 111.134 28.4036 111.512 28.9961 111.785C29.5951 112.059 30.2689 112.195 31.0176 112.195C31.7598 112.195 32.4271 112.059 33.0195 111.785C33.612 111.512 34.1165 111.134 34.5332 110.652C34.9434 110.171 35.2591 109.604 35.4805 108.953C35.7018 108.302 35.8125 107.596 35.8125 106.834V106.619C35.8125 105.857 35.7018 105.151 35.4805 104.5C35.2591 103.842 34.9434 103.273 34.5332 102.791C34.1165 102.309 33.6087 101.932 33.0098 101.658C32.4173 101.378 31.7467 101.238 30.998 101.238C30.2559 101.238 29.5885 101.378 28.9961 101.658C28.4036 101.932 27.9023 102.309 27.4922 102.791C27.0755 103.273 26.7565 103.842 26.5352 104.5C26.3138 105.151 26.2031 105.857 26.2031 106.619ZM28.0098 106.834V106.619C28.0098 106.105 28.0716 105.613 28.1953 105.145C28.319 104.669 28.5078 104.253 28.7617 103.895C29.0091 103.536 29.3184 103.253 29.6895 103.045C30.0605 102.83 30.4967 102.723 30.998 102.723C31.4993 102.723 31.9355 102.83 32.3066 103.045C32.6842 103.253 33 103.536 33.2539 103.895C33.5013 104.253 33.6868 104.669 33.8105 105.145C33.9408 105.613 34.0059 106.105 34.0059 106.619V106.834C34.0059 107.355 33.944 107.853 33.8203 108.328C33.6966 108.797 33.5111 109.21 33.2637 109.568C33.0098 109.926 32.694 110.21 32.3164 110.418C31.9453 110.626 31.5124 110.73 31.0176 110.73C30.5163 110.73 30.0768 110.626 29.6992 110.418C29.3216 110.21 29.0091 109.926 28.7617 109.568C28.5078 109.21 28.319 108.797 28.1953 108.328C28.0716 107.853 28.0098 107.355 28.0098 106.834ZM45.6855 112H47.3262V101.434H45.5098V109.012C45.4121 109.24 45.2884 109.451 45.1387 109.646C44.9954 109.835 44.8262 109.998 44.6309 110.135C44.3965 110.304 44.1198 110.438 43.8008 110.535C43.4818 110.626 43.1204 110.672 42.7168 110.672C42.3717 110.672 42.0658 110.626 41.7988 110.535C41.5384 110.444 41.3171 110.285 41.1348 110.057C40.9525 109.835 40.8158 109.536 40.7246 109.158C40.6335 108.781 40.5879 108.305 40.5879 107.732V101.434H38.7812V107.713C38.7812 108.501 38.8659 109.178 39.0352 109.744C39.2109 110.304 39.4583 110.766 39.7773 111.131C40.0964 111.495 40.4805 111.766 40.9297 111.941C41.3789 112.111 41.8802 112.195 42.4336 112.195C43.1237 112.195 43.7324 112.052 44.2598 111.766C44.7871 111.473 45.2266 111.066 45.5781 110.545L45.6855 112ZM57.6582 101.238C56.89 101.238 56.2031 101.408 55.5977 101.746C54.9987 102.078 54.4844 102.534 54.0547 103.113L54.0449 102.85L53.9668 101.434H52.248V112H54.0645V105.223C54.1816 104.897 54.3281 104.604 54.5039 104.344C54.6862 104.077 54.8978 103.852 55.1387 103.67C55.4056 103.462 55.7181 103.305 56.0762 103.201C56.4342 103.09 56.8346 103.035 57.2773 103.035C57.6224 103.035 57.9512 103.055 58.2637 103.094C58.5827 103.126 58.918 103.182 59.2695 103.26L59.5137 101.492C59.3314 101.414 59.0579 101.352 58.6934 101.307C58.3353 101.261 57.9902 101.238 57.6582 101.238ZM69.7676 109.197C69.7676 109.367 69.735 109.526 69.6699 109.676C69.6048 109.826 69.5104 109.962 69.3867 110.086C69.1849 110.288 68.9049 110.447 68.5469 110.564C68.1888 110.675 67.7689 110.73 67.2871 110.73C66.9811 110.73 66.6719 110.698 66.3594 110.633C66.0469 110.568 65.7637 110.457 65.5098 110.301C65.2493 110.145 65.0312 109.939 64.8555 109.686C64.6862 109.432 64.5885 109.119 64.5625 108.748H62.7559C62.7559 109.197 62.8568 109.63 63.0586 110.047C63.2669 110.464 63.5664 110.828 63.957 111.141C64.3411 111.46 64.8132 111.717 65.373 111.912C65.9329 112.101 66.571 112.195 67.2871 112.195C67.9121 112.195 68.4883 112.12 69.0156 111.971C69.543 111.821 69.9954 111.609 70.373 111.336C70.7507 111.062 71.0436 110.734 71.252 110.35C71.4668 109.965 71.5742 109.539 71.5742 109.07C71.5742 108.634 71.4798 108.25 71.291 107.918C71.1087 107.586 70.8418 107.293 70.4902 107.039C70.1387 106.792 69.7057 106.58 69.1914 106.404C68.6771 106.222 68.0944 106.062 67.4434 105.926C66.9486 105.828 66.5384 105.727 66.2129 105.623C65.8939 105.519 65.64 105.402 65.4512 105.271C65.2559 105.141 65.1191 104.995 65.041 104.832C64.9629 104.669 64.9238 104.484 64.9238 104.275C64.9238 104.074 64.9727 103.878 65.0703 103.689C65.168 103.501 65.3145 103.335 65.5098 103.191C65.6986 103.048 65.9362 102.934 66.2227 102.85C66.5156 102.765 66.8542 102.723 67.2383 102.723C67.6094 102.723 67.9414 102.775 68.2344 102.879C68.5339 102.983 68.7878 103.12 68.9961 103.289C69.2044 103.458 69.3672 103.654 69.4844 103.875C69.6016 104.09 69.6602 104.311 69.6602 104.539H71.4668C71.4668 104.077 71.3659 103.647 71.1641 103.25C70.9688 102.846 70.6888 102.495 70.3242 102.195C69.9596 101.896 69.5169 101.661 68.9961 101.492C68.4753 101.323 67.8893 101.238 67.2383 101.238C66.6328 101.238 66.0762 101.32 65.5684 101.482C65.0671 101.645 64.6341 101.867 64.2695 102.146C63.9049 102.426 63.6217 102.755 63.4199 103.133C63.2181 103.504 63.1172 103.904 63.1172 104.334C63.1172 104.77 63.2148 105.154 63.4102 105.486C63.6055 105.812 63.8822 106.095 64.2402 106.336C64.5918 106.583 65.015 106.795 65.5098 106.971C66.0111 107.146 66.5645 107.296 67.1699 107.42C67.6647 107.518 68.0781 107.628 68.4102 107.752C68.7422 107.869 69.0091 107.999 69.2109 108.143C69.4128 108.286 69.556 108.445 69.6406 108.621C69.7253 108.79 69.7676 108.982 69.7676 109.197ZM79.4258 112.195C80.4544 112.195 81.3171 111.99 82.0137 111.58C82.7168 111.163 83.2441 110.688 83.5957 110.154L82.4922 109.295C82.1602 109.725 81.7435 110.07 81.2422 110.33C80.7409 110.59 80.168 110.721 79.5234 110.721C79.0352 110.721 78.5892 110.63 78.1855 110.447C77.7819 110.265 77.4368 110.014 77.1504 109.695C76.8704 109.396 76.6491 109.051 76.4863 108.66C76.3301 108.27 76.2292 107.817 76.1836 107.303V107.234H83.7324V106.424C83.7324 105.688 83.638 105.005 83.4492 104.373C83.2669 103.742 82.987 103.191 82.6094 102.723C82.2318 102.26 81.7565 101.899 81.1836 101.639C80.6172 101.372 79.9531 101.238 79.1914 101.238C78.5859 101.238 77.9935 101.362 77.4141 101.609C76.8411 101.857 76.3301 102.212 75.8809 102.674C75.4251 103.143 75.0605 103.715 74.7871 104.393C74.5137 105.063 74.377 105.825 74.377 106.678V107.088C74.377 107.824 74.5007 108.504 74.748 109.129C74.9954 109.754 75.3405 110.294 75.7832 110.75C76.2259 111.206 76.7565 111.561 77.375 111.814C78 112.068 78.6836 112.195 79.4258 112.195ZM79.1914 102.723C79.6536 102.723 80.0508 102.807 80.3828 102.977C80.7214 103.146 81.0013 103.367 81.2227 103.641C81.444 103.914 81.6165 104.24 81.7402 104.617C81.8639 104.988 81.9258 105.337 81.9258 105.662V105.75H76.2422C76.3138 105.262 76.4375 104.832 76.6133 104.461C76.7956 104.083 77.0169 103.764 77.2773 103.504C77.5378 103.25 77.8307 103.058 78.1562 102.928C78.4818 102.791 78.8268 102.723 79.1914 102.723ZM103.059 98.875H101.242V101.434H98.4688V102.83H101.242V108.572C101.242 109.223 101.327 109.78 101.496 110.242C101.672 110.698 101.91 111.069 102.209 111.355C102.508 111.648 102.86 111.863 103.264 112C103.674 112.13 104.113 112.195 104.582 112.195C104.862 112.195 105.142 112.182 105.422 112.156C105.708 112.13 105.979 112.091 106.232 112.039C106.486 111.993 106.721 111.938 106.936 111.873C107.15 111.801 107.333 111.72 107.482 111.629L107.229 110.35C107.118 110.376 106.975 110.408 106.799 110.447C106.63 110.48 106.447 110.512 106.252 110.545C106.05 110.577 105.845 110.607 105.637 110.633C105.428 110.652 105.227 110.662 105.031 110.662C104.764 110.662 104.51 110.63 104.27 110.564C104.035 110.499 103.827 110.385 103.645 110.223C103.462 110.066 103.319 109.855 103.215 109.588C103.111 109.321 103.059 108.982 103.059 108.572V102.83H107.082V101.434H103.059V98.875ZM117.736 112H119.621V111.844C119.504 111.551 119.413 111.209 119.348 110.818C119.283 110.421 119.25 110.047 119.25 109.695V104.783C119.25 104.191 119.143 103.673 118.928 103.23C118.713 102.788 118.42 102.417 118.049 102.117C117.671 101.824 117.225 101.606 116.711 101.463C116.197 101.313 115.64 101.238 115.041 101.238C114.383 101.238 113.794 101.329 113.273 101.512C112.759 101.694 112.323 101.932 111.965 102.225C111.6 102.524 111.32 102.859 111.125 103.23C110.936 103.602 110.839 103.979 110.832 104.363H112.648C112.648 104.142 112.701 103.93 112.805 103.729C112.915 103.52 113.068 103.341 113.264 103.191C113.459 103.042 113.697 102.921 113.977 102.83C114.263 102.739 114.585 102.693 114.943 102.693C115.327 102.693 115.673 102.742 115.979 102.84C116.291 102.938 116.555 103.074 116.77 103.25C116.984 103.432 117.15 103.65 117.268 103.904C117.385 104.158 117.443 104.445 117.443 104.764V105.594H115.471C114.735 105.594 114.068 105.665 113.469 105.809C112.876 105.952 112.368 106.167 111.945 106.453C111.522 106.746 111.193 107.111 110.959 107.547C110.731 107.983 110.617 108.491 110.617 109.07C110.617 109.513 110.702 109.926 110.871 110.311C111.047 110.688 111.294 111.014 111.613 111.287C111.926 111.567 112.307 111.788 112.756 111.951C113.212 112.114 113.719 112.195 114.279 112.195C114.624 112.195 114.95 112.16 115.256 112.088C115.562 112.016 115.852 111.919 116.125 111.795C116.392 111.671 116.636 111.528 116.857 111.365C117.085 111.202 117.29 111.03 117.473 110.848C117.492 111.069 117.521 111.284 117.561 111.492C117.606 111.694 117.665 111.863 117.736 112ZM114.543 110.623C114.191 110.623 113.882 110.577 113.615 110.486C113.348 110.395 113.127 110.268 112.951 110.105C112.775 109.949 112.642 109.76 112.551 109.539C112.466 109.318 112.424 109.077 112.424 108.816C112.424 108.543 112.473 108.299 112.57 108.084C112.674 107.869 112.824 107.684 113.02 107.527C113.293 107.306 113.661 107.143 114.123 107.039C114.592 106.928 115.139 106.873 115.764 106.873H117.443V109.012C117.339 109.22 117.196 109.422 117.014 109.617C116.831 109.806 116.617 109.975 116.369 110.125C116.115 110.275 115.835 110.395 115.529 110.486C115.223 110.577 114.895 110.623 114.543 110.623ZM125.969 107.068L129.846 112H132.141L127.209 105.838L131.486 101.434H129.289L125.822 104.91L124.641 106.18V97H122.824V112H124.641V108.348L125.969 107.068ZM139.484 112.195C140.513 112.195 141.376 111.99 142.072 111.58C142.775 111.163 143.303 110.688 143.654 110.154L142.551 109.295C142.219 109.725 141.802 110.07 141.301 110.33C140.799 110.59 140.227 110.721 139.582 110.721C139.094 110.721 138.648 110.63 138.244 110.447C137.84 110.265 137.495 110.014 137.209 109.695C136.929 109.396 136.708 109.051 136.545 108.66C136.389 108.27 136.288 107.817 136.242 107.303V107.234H143.791V106.424C143.791 105.688 143.697 105.005 143.508 104.373C143.326 103.742 143.046 103.191 142.668 102.723C142.29 102.26 141.815 101.899 141.242 101.639C140.676 101.372 140.012 101.238 139.25 101.238C138.645 101.238 138.052 101.362 137.473 101.609C136.9 101.857 136.389 102.212 135.939 102.674C135.484 103.143 135.119 103.715 134.846 104.393C134.572 105.063 134.436 105.825 134.436 106.678V107.088C134.436 107.824 134.559 108.504 134.807 109.129C135.054 109.754 135.399 110.294 135.842 110.75C136.285 111.206 136.815 111.561 137.434 111.814C138.059 112.068 138.742 112.195 139.484 112.195ZM139.25 102.723C139.712 102.723 140.109 102.807 140.441 102.977C140.78 103.146 141.06 103.367 141.281 103.641C141.503 103.914 141.675 104.24 141.799 104.617C141.923 104.988 141.984 105.337 141.984 105.662V105.75H136.301C136.372 105.262 136.496 104.832 136.672 104.461C136.854 104.083 137.076 103.764 137.336 103.504C137.596 103.25 137.889 103.058 138.215 102.928C138.54 102.791 138.885 102.723 139.25 102.723ZM146.828 112H148.635V104.422C148.758 104.194 148.902 103.986 149.064 103.797C149.234 103.608 149.416 103.442 149.611 103.299C149.852 103.136 150.116 103.009 150.402 102.918C150.689 102.82 150.998 102.771 151.33 102.771C151.714 102.771 152.053 102.817 152.346 102.908C152.645 102.999 152.899 103.146 153.107 103.348C153.309 103.549 153.462 103.813 153.566 104.139C153.671 104.464 153.723 104.861 153.723 105.33V112H155.529V105.291C155.529 104.588 155.441 103.982 155.266 103.475C155.096 102.96 154.852 102.537 154.533 102.205C154.214 101.873 153.827 101.629 153.371 101.473C152.922 101.316 152.421 101.238 151.867 101.238C151.457 101.245 151.066 101.307 150.695 101.424C150.331 101.535 149.992 101.694 149.68 101.902C149.471 102.039 149.273 102.202 149.084 102.391C148.902 102.573 148.732 102.775 148.576 102.996L148.449 101.434H146.828V112ZM171.135 101.434V103.006H174.729V110.438H171.135V112H179.982V110.438H176.535V101.434H171.135ZM174.494 98.6602C174.494 98.9531 174.582 99.1973 174.758 99.3926C174.94 99.5879 175.214 99.6855 175.578 99.6855C175.936 99.6855 176.206 99.5879 176.389 99.3926C176.571 99.1973 176.662 98.9531 176.662 98.6602C176.662 98.4974 176.636 98.3477 176.584 98.2109C176.532 98.0742 176.454 97.9603 176.35 97.8691C176.265 97.7845 176.158 97.7194 176.027 97.6738C175.897 97.6217 175.747 97.5957 175.578 97.5957C175.409 97.5957 175.256 97.6217 175.119 97.6738C174.989 97.7194 174.882 97.7845 174.797 97.8691C174.693 97.9668 174.615 98.084 174.562 98.2207C174.517 98.3574 174.494 98.5039 174.494 98.6602ZM182.863 112H184.67V104.422C184.794 104.194 184.937 103.986 185.1 103.797C185.269 103.608 185.451 103.442 185.646 103.299C185.887 103.136 186.151 103.009 186.438 102.918C186.724 102.82 187.033 102.771 187.365 102.771C187.749 102.771 188.088 102.817 188.381 102.908C188.68 102.999 188.934 103.146 189.143 103.348C189.344 103.549 189.497 103.813 189.602 104.139C189.706 104.464 189.758 104.861 189.758 105.33V112H191.564V105.291C191.564 104.588 191.477 103.982 191.301 103.475C191.132 102.96 190.887 102.537 190.568 102.205C190.249 101.873 189.862 101.629 189.406 101.473C188.957 101.316 188.456 101.238 187.902 101.238C187.492 101.245 187.102 101.307 186.73 101.424C186.366 101.535 186.027 101.694 185.715 101.902C185.507 102.039 185.308 102.202 185.119 102.391C184.937 102.573 184.768 102.775 184.611 102.996L184.484 101.434H182.863V112ZM22.6094 131.721V130.188H16.6914V125.324H23.5957V123.781H14.8652V138H16.6914V131.721H22.6094ZM33.6543 138H35.5391V137.844C35.4219 137.551 35.3307 137.209 35.2656 136.818C35.2005 136.421 35.168 136.047 35.168 135.695V130.783C35.168 130.191 35.0605 129.673 34.8457 129.23C34.6309 128.788 34.3379 128.417 33.9668 128.117C33.5892 127.824 33.1432 127.606 32.6289 127.463C32.1146 127.313 31.5579 127.238 30.959 127.238C30.3014 127.238 29.7122 127.329 29.1914 127.512C28.6771 127.694 28.2409 127.932 27.8828 128.225C27.5182 128.524 27.2383 128.859 27.043 129.23C26.8542 129.602 26.7565 129.979 26.75 130.363H28.5664C28.5664 130.142 28.6185 129.93 28.7227 129.729C28.8333 129.52 28.9863 129.341 29.1816 129.191C29.377 129.042 29.6146 128.921 29.8945 128.83C30.181 128.739 30.5033 128.693 30.8613 128.693C31.2454 128.693 31.5905 128.742 31.8965 128.84C32.209 128.938 32.4727 129.074 32.6875 129.25C32.9023 129.432 33.0684 129.65 33.1855 129.904C33.3027 130.158 33.3613 130.445 33.3613 130.764V131.594H31.3887C30.653 131.594 29.9857 131.665 29.3867 131.809C28.7943 131.952 28.2865 132.167 27.8633 132.453C27.4401 132.746 27.1113 133.111 26.877 133.547C26.6491 133.983 26.5352 134.491 26.5352 135.07C26.5352 135.513 26.6198 135.926 26.7891 136.311C26.9648 136.688 27.2122 137.014 27.5312 137.287C27.8438 137.567 28.2246 137.788 28.6738 137.951C29.1296 138.114 29.6374 138.195 30.1973 138.195C30.5423 138.195 30.8678 138.16 31.1738 138.088C31.4798 138.016 31.7695 137.919 32.043 137.795C32.3099 137.671 32.554 137.528 32.7754 137.365C33.0033 137.202 33.2083 137.03 33.3906 136.848C33.4102 137.069 33.4395 137.284 33.4785 137.492C33.5241 137.694 33.5827 137.863 33.6543 138ZM30.4609 136.623C30.1094 136.623 29.8001 136.577 29.5332 136.486C29.2663 136.395 29.0449 136.268 28.8691 136.105C28.6934 135.949 28.5599 135.76 28.4688 135.539C28.3841 135.318 28.3418 135.077 28.3418 134.816C28.3418 134.543 28.3906 134.299 28.4883 134.084C28.5924 133.869 28.7422 133.684 28.9375 133.527C29.2109 133.306 29.5788 133.143 30.041 133.039C30.5098 132.928 31.0566 132.873 31.6816 132.873H33.3613V135.012C33.2572 135.22 33.1139 135.422 32.9316 135.617C32.7493 135.806 32.5345 135.975 32.2871 136.125C32.0332 136.275 31.7533 136.395 31.4473 136.486C31.1413 136.577 30.8125 136.623 30.4609 136.623ZM39.0059 123V124.572H42.5996V136.438H39.0059V138H47.8535V136.438H44.4062V123H39.0059ZM51.0176 123V124.572H54.6113V136.438H51.0176V138H59.8652V136.438H56.418V123H51.0176ZM83.4785 138V136.525H76.3398L80.1582 132.385C80.5163 131.994 80.8548 131.604 81.1738 131.213C81.4993 130.816 81.7858 130.415 82.0332 130.012C82.2741 129.608 82.4661 129.201 82.6094 128.791C82.7526 128.374 82.8242 127.954 82.8242 127.531C82.8242 126.965 82.7233 126.441 82.5215 125.959C82.3262 125.477 82.043 125.061 81.6719 124.709C81.3008 124.357 80.8451 124.084 80.3047 123.889C79.7708 123.687 79.1686 123.586 78.498 123.586C77.7689 123.586 77.1178 123.703 76.5449 123.938C75.9785 124.172 75.5 124.488 75.1094 124.885C74.7122 125.282 74.4095 125.747 74.2012 126.281C73.9928 126.809 73.8887 127.372 73.8887 127.971H75.7051C75.7051 127.528 75.7604 127.128 75.8711 126.77C75.9883 126.411 76.1641 126.105 76.3984 125.852C76.6263 125.604 76.9128 125.412 77.2578 125.275C77.6094 125.139 78.0228 125.07 78.498 125.07C78.8887 125.07 79.237 125.139 79.543 125.275C79.8555 125.406 80.1224 125.585 80.3438 125.812C80.5586 126.04 80.7214 126.311 80.832 126.623C80.9492 126.929 81.0078 127.258 81.0078 127.609C81.0078 127.896 80.972 128.176 80.9004 128.449C80.8288 128.716 80.7083 128.999 80.5391 129.299C80.3698 129.605 80.1452 129.937 79.8652 130.295C79.5853 130.653 79.237 131.063 78.8203 131.525L74.1621 136.701V138H83.4785ZM95.6953 132.561V129.23C95.6953 128.326 95.5911 127.525 95.3828 126.828C95.1745 126.125 94.875 125.533 94.4844 125.051C94.0872 124.569 93.6022 124.204 93.0293 123.957C92.4629 123.703 91.8151 123.576 91.0859 123.576C90.3633 123.576 89.7155 123.703 89.1426 123.957C88.5762 124.204 88.0977 124.569 87.707 125.051C87.3099 125.533 87.0072 126.125 86.7988 126.828C86.5905 127.525 86.4863 128.326 86.4863 129.23V132.561C86.4863 133.465 86.5905 134.27 86.7988 134.973C87.0072 135.669 87.3099 136.255 87.707 136.73C88.1042 137.219 88.5892 137.587 89.1621 137.834C89.735 138.075 90.3828 138.195 91.1055 138.195C91.8346 138.195 92.4824 138.072 93.0488 137.824C93.6152 137.577 94.0938 137.212 94.4844 136.73C94.875 136.255 95.1745 135.669 95.3828 134.973C95.5911 134.27 95.6953 133.465 95.6953 132.561ZM88.3027 132.199C88.3027 132.03 88.3027 131.864 88.3027 131.701C88.3027 131.538 88.3027 131.376 88.3027 131.213V128.83C88.3027 128.166 88.3678 127.583 88.498 127.082C88.6348 126.574 88.8398 126.161 89.1133 125.842C89.3411 125.588 89.6178 125.396 89.9434 125.266C90.2754 125.129 90.6562 125.061 91.0859 125.061C91.5091 125.061 91.8802 125.122 92.1992 125.246C92.5247 125.37 92.7982 125.555 93.0195 125.803C93.2474 126.044 93.4264 126.346 93.5566 126.711C93.6934 127.069 93.7878 127.482 93.8398 127.951L88.3027 132.199ZM93.8789 132.941C93.8789 133.638 93.8073 134.243 93.6641 134.758C93.5273 135.272 93.3092 135.689 93.0098 136.008C92.7884 136.242 92.5182 136.421 92.1992 136.545C91.8802 136.669 91.5156 136.73 91.1055 136.73C90.7148 136.73 90.3633 136.675 90.0508 136.564C89.7383 136.447 89.4714 136.278 89.25 136.057C89.0091 135.822 88.8138 135.526 88.6641 135.168C88.5143 134.803 88.4102 134.383 88.3516 133.908L93.8789 129.68C93.8789 129.862 93.8789 130.093 93.8789 130.373C93.8789 130.646 93.8789 130.832 93.8789 130.93V132.941ZM107.502 138V136.525H100.363L104.182 132.385C104.54 131.994 104.878 131.604 105.197 131.213C105.523 130.816 105.809 130.415 106.057 130.012C106.298 129.608 106.49 129.201 106.633 128.791C106.776 128.374 106.848 127.954 106.848 127.531C106.848 126.965 106.747 126.441 106.545 125.959C106.35 125.477 106.066 125.061 105.695 124.709C105.324 124.357 104.868 124.084 104.328 123.889C103.794 123.687 103.192 123.586 102.521 123.586C101.792 123.586 101.141 123.703 100.568 123.938C100.002 124.172 99.5234 124.488 99.1328 124.885C98.7357 125.282 98.4329 125.747 98.2246 126.281C98.0163 126.809 97.9121 127.372 97.9121 127.971H99.7285C99.7285 127.528 99.7839 127.128 99.8945 126.77C100.012 126.411 100.188 126.105 100.422 125.852C100.65 125.604 100.936 125.412 101.281 125.275C101.633 125.139 102.046 125.07 102.521 125.07C102.912 125.07 103.26 125.139 103.566 125.275C103.879 125.406 104.146 125.585 104.367 125.812C104.582 126.04 104.745 126.311 104.855 126.623C104.973 126.929 105.031 127.258 105.031 127.609C105.031 127.896 104.995 128.176 104.924 128.449C104.852 128.716 104.732 128.999 104.562 129.299C104.393 129.605 104.169 129.937 103.889 130.295C103.609 130.653 103.26 131.063 102.844 131.525L98.1855 136.701V138H107.502ZM119.719 132.561V129.23C119.719 128.326 119.615 127.525 119.406 126.828C119.198 126.125 118.898 125.533 118.508 125.051C118.111 124.569 117.626 124.204 117.053 123.957C116.486 123.703 115.839 123.576 115.109 123.576C114.387 123.576 113.739 123.703 113.166 123.957C112.6 124.204 112.121 124.569 111.73 125.051C111.333 125.533 111.031 126.125 110.822 126.828C110.614 127.525 110.51 128.326 110.51 129.23V132.561C110.51 133.465 110.614 134.27 110.822 134.973C111.031 135.669 111.333 136.255 111.73 136.73C112.128 137.219 112.613 137.587 113.186 137.834C113.758 138.075 114.406 138.195 115.129 138.195C115.858 138.195 116.506 138.072 117.072 137.824C117.639 137.577 118.117 137.212 118.508 136.73C118.898 136.255 119.198 135.669 119.406 134.973C119.615 134.27 119.719 133.465 119.719 132.561ZM112.326 132.199C112.326 132.03 112.326 131.864 112.326 131.701C112.326 131.538 112.326 131.376 112.326 131.213V128.83C112.326 128.166 112.391 127.583 112.521 127.082C112.658 126.574 112.863 126.161 113.137 125.842C113.365 125.588 113.641 125.396 113.967 125.266C114.299 125.129 114.68 125.061 115.109 125.061C115.533 125.061 115.904 125.122 116.223 125.246C116.548 125.37 116.822 125.555 117.043 125.803C117.271 126.044 117.45 126.346 117.58 126.711C117.717 127.069 117.811 127.482 117.863 127.951L112.326 132.199ZM117.902 132.941C117.902 133.638 117.831 134.243 117.688 134.758C117.551 135.272 117.333 135.689 117.033 136.008C116.812 136.242 116.542 136.421 116.223 136.545C115.904 136.669 115.539 136.73 115.129 136.73C114.738 136.73 114.387 136.675 114.074 136.564C113.762 136.447 113.495 136.278 113.273 136.057C113.033 135.822 112.837 135.526 112.688 135.168C112.538 134.803 112.434 134.383 112.375 133.908L117.902 129.68C117.902 129.862 117.902 130.093 117.902 130.373C117.902 130.646 117.902 130.832 117.902 130.93V132.941ZM127.385 137.58V135.861H125.422V137.609C125.422 138.163 125.357 138.697 125.227 139.211C125.096 139.725 124.875 140.21 124.562 140.666L125.686 141.281C126.206 140.819 126.62 140.249 126.926 139.572C127.232 138.895 127.385 138.231 127.385 137.58ZM151.105 124.875H149.289V127.434H146.516V128.83H149.289V134.572C149.289 135.223 149.374 135.78 149.543 136.242C149.719 136.698 149.956 137.069 150.256 137.355C150.555 137.648 150.907 137.863 151.311 138C151.721 138.13 152.16 138.195 152.629 138.195C152.909 138.195 153.189 138.182 153.469 138.156C153.755 138.13 154.025 138.091 154.279 138.039C154.533 137.993 154.768 137.938 154.982 137.873C155.197 137.801 155.38 137.72 155.529 137.629L155.275 136.35C155.165 136.376 155.021 136.408 154.846 136.447C154.676 136.48 154.494 136.512 154.299 136.545C154.097 136.577 153.892 136.607 153.684 136.633C153.475 136.652 153.273 136.662 153.078 136.662C152.811 136.662 152.557 136.63 152.316 136.564C152.082 136.499 151.874 136.385 151.691 136.223C151.509 136.066 151.366 135.855 151.262 135.588C151.158 135.321 151.105 134.982 151.105 134.572V128.83H155.129V127.434H151.105V124.875ZM165.783 138H167.668V137.844C167.551 137.551 167.46 137.209 167.395 136.818C167.329 136.421 167.297 136.047 167.297 135.695V130.783C167.297 130.191 167.189 129.673 166.975 129.23C166.76 128.788 166.467 128.417 166.096 128.117C165.718 127.824 165.272 127.606 164.758 127.463C164.243 127.313 163.687 127.238 163.088 127.238C162.43 127.238 161.841 127.329 161.32 127.512C160.806 127.694 160.37 127.932 160.012 128.225C159.647 128.524 159.367 128.859 159.172 129.23C158.983 129.602 158.885 129.979 158.879 130.363H160.695C160.695 130.142 160.747 129.93 160.852 129.729C160.962 129.52 161.115 129.341 161.311 129.191C161.506 129.042 161.743 128.921 162.023 128.83C162.31 128.739 162.632 128.693 162.99 128.693C163.374 128.693 163.719 128.742 164.025 128.84C164.338 128.938 164.602 129.074 164.816 129.25C165.031 129.432 165.197 129.65 165.314 129.904C165.432 130.158 165.49 130.445 165.49 130.764V131.594H163.518C162.782 131.594 162.115 131.665 161.516 131.809C160.923 131.952 160.415 132.167 159.992 132.453C159.569 132.746 159.24 133.111 159.006 133.547C158.778 133.983 158.664 134.491 158.664 135.07C158.664 135.513 158.749 135.926 158.918 136.311C159.094 136.688 159.341 137.014 159.66 137.287C159.973 137.567 160.354 137.788 160.803 137.951C161.258 138.114 161.766 138.195 162.326 138.195C162.671 138.195 162.997 138.16 163.303 138.088C163.609 138.016 163.898 137.919 164.172 137.795C164.439 137.671 164.683 137.528 164.904 137.365C165.132 137.202 165.337 137.03 165.52 136.848C165.539 137.069 165.568 137.284 165.607 137.492C165.653 137.694 165.712 137.863 165.783 138ZM162.59 136.623C162.238 136.623 161.929 136.577 161.662 136.486C161.395 136.395 161.174 136.268 160.998 136.105C160.822 135.949 160.689 135.76 160.598 135.539C160.513 135.318 160.471 135.077 160.471 134.816C160.471 134.543 160.52 134.299 160.617 134.084C160.721 133.869 160.871 133.684 161.066 133.527C161.34 133.306 161.708 133.143 162.17 133.039C162.639 132.928 163.186 132.873 163.811 132.873H165.49V135.012C165.386 135.22 165.243 135.422 165.061 135.617C164.878 135.806 164.663 135.975 164.416 136.125C164.162 136.275 163.882 136.395 163.576 136.486C163.27 136.577 162.941 136.623 162.59 136.623ZM177.814 138H179.455V127.434H177.639V135.012C177.541 135.24 177.417 135.451 177.268 135.646C177.124 135.835 176.955 135.998 176.76 136.135C176.525 136.304 176.249 136.438 175.93 136.535C175.611 136.626 175.249 136.672 174.846 136.672C174.501 136.672 174.195 136.626 173.928 136.535C173.667 136.444 173.446 136.285 173.264 136.057C173.081 135.835 172.945 135.536 172.854 135.158C172.762 134.781 172.717 134.305 172.717 133.732V127.434H170.91V133.713C170.91 134.501 170.995 135.178 171.164 135.744C171.34 136.304 171.587 136.766 171.906 137.131C172.225 137.495 172.609 137.766 173.059 137.941C173.508 138.111 174.009 138.195 174.562 138.195C175.253 138.195 175.861 138.052 176.389 137.766C176.916 137.473 177.355 137.066 177.707 136.545L177.814 138ZM182.531 132.629V132.834C182.531 133.589 182.629 134.296 182.824 134.953C183.02 135.604 183.299 136.171 183.664 136.652C184.022 137.134 184.462 137.512 184.982 137.785C185.503 138.059 186.086 138.195 186.73 138.195C187.115 138.195 187.473 138.153 187.805 138.068C188.137 137.99 188.439 137.876 188.713 137.727C188.889 137.629 189.051 137.515 189.201 137.385C189.357 137.255 189.504 137.111 189.641 136.955V137.863C189.641 138.319 189.576 138.723 189.445 139.074C189.315 139.426 189.13 139.719 188.889 139.953C188.641 140.194 188.345 140.376 188 140.5C187.655 140.624 187.268 140.686 186.838 140.686C186.597 140.686 186.356 140.66 186.115 140.607C185.874 140.562 185.633 140.484 185.393 140.373C185.152 140.262 184.914 140.113 184.68 139.924C184.445 139.742 184.217 139.517 183.996 139.25L183.059 140.334C183.299 140.679 183.586 140.969 183.918 141.203C184.257 141.438 184.608 141.623 184.973 141.76C185.331 141.903 185.686 142.004 186.037 142.062C186.389 142.128 186.701 142.16 186.975 142.16C187.639 142.16 188.244 142.062 188.791 141.867C189.338 141.672 189.81 141.385 190.207 141.008C190.598 140.63 190.9 140.171 191.115 139.631C191.337 139.09 191.447 138.472 191.447 137.775V127.434H189.807L189.719 128.586C189.595 128.43 189.462 128.286 189.318 128.156C189.182 128.026 189.035 127.912 188.879 127.814C188.592 127.626 188.27 127.482 187.912 127.385C187.561 127.287 187.173 127.238 186.75 127.238C186.092 127.238 185.503 127.372 184.982 127.639C184.462 127.906 184.019 128.277 183.654 128.752C183.29 129.227 183.01 129.797 182.814 130.461C182.626 131.118 182.531 131.841 182.531 132.629ZM184.338 132.834V132.629C184.338 132.115 184.39 131.626 184.494 131.164C184.605 130.695 184.777 130.282 185.012 129.924C185.24 129.572 185.533 129.292 185.891 129.084C186.255 128.876 186.691 128.771 187.199 128.771C187.499 128.771 187.772 128.811 188.02 128.889C188.267 128.96 188.492 129.061 188.693 129.191C188.895 129.328 189.074 129.488 189.23 129.67C189.387 129.852 189.523 130.054 189.641 130.275V135.119C189.523 135.347 189.387 135.555 189.23 135.744C189.074 135.933 188.898 136.096 188.703 136.232C188.501 136.369 188.273 136.477 188.02 136.555C187.772 136.626 187.492 136.662 187.18 136.662C186.678 136.662 186.249 136.561 185.891 136.359C185.533 136.151 185.24 135.871 185.012 135.52C184.777 135.168 184.605 134.761 184.494 134.299C184.39 133.837 184.338 133.348 184.338 132.834ZM196.682 129.006V123H194.875V138H196.682V130.324C196.812 130.116 196.958 129.927 197.121 129.758C197.29 129.582 197.473 129.429 197.668 129.299C197.915 129.13 198.186 128.999 198.479 128.908C198.771 128.817 199.081 128.771 199.406 128.771C199.803 128.765 200.155 128.82 200.461 128.938C200.767 129.048 201.021 129.217 201.223 129.445C201.411 129.654 201.555 129.917 201.652 130.236C201.75 130.549 201.799 130.913 201.799 131.33V138H203.605V131.35C203.605 130.64 203.518 130.028 203.342 129.514C203.173 128.993 202.928 128.563 202.609 128.225C202.29 127.886 201.903 127.639 201.447 127.482C200.998 127.32 200.497 127.238 199.943 127.238C199.52 127.245 199.12 127.307 198.742 127.424C198.371 127.541 198.029 127.714 197.717 127.941C197.521 128.078 197.336 128.238 197.16 128.42C196.984 128.596 196.825 128.791 196.682 129.006ZM211.164 124.875H209.348V127.434H206.574V128.83H209.348V134.572C209.348 135.223 209.432 135.78 209.602 136.242C209.777 136.698 210.015 137.069 210.314 137.355C210.614 137.648 210.965 137.863 211.369 138C211.779 138.13 212.219 138.195 212.688 138.195C212.967 138.195 213.247 138.182 213.527 138.156C213.814 138.13 214.084 138.091 214.338 138.039C214.592 137.993 214.826 137.938 215.041 137.873C215.256 137.801 215.438 137.72 215.588 137.629L215.334 136.35C215.223 136.376 215.08 136.408 214.904 136.447C214.735 136.48 214.553 136.512 214.357 136.545C214.156 136.577 213.951 136.607 213.742 136.633C213.534 136.652 213.332 136.662 213.137 136.662C212.87 136.662 212.616 136.63 212.375 136.564C212.141 136.499 211.932 136.385 211.75 136.223C211.568 136.066 211.424 135.855 211.32 135.588C211.216 135.321 211.164 134.982 211.164 134.572V128.83H215.188V127.434H211.164V124.875ZM23.6543 158.834V158.629C23.6543 158.076 23.6087 157.551 23.5176 157.057C23.4264 156.555 23.293 156.1 23.1172 155.689C22.9479 155.325 22.7526 154.996 22.5312 154.703C22.3099 154.404 22.0592 154.15 21.7793 153.941C21.4668 153.72 21.1185 153.548 20.7344 153.424C20.3503 153.3 19.9303 153.238 19.4746 153.238C19.11 153.238 18.7715 153.274 18.459 153.346C18.1465 153.417 17.86 153.521 17.5996 153.658C17.3913 153.769 17.196 153.902 17.0137 154.059C16.8314 154.208 16.6654 154.378 16.5156 154.566V149H14.709V164H16.3691L16.457 162.799C16.5742 162.949 16.6979 163.085 16.8281 163.209C16.9583 163.333 17.0951 163.447 17.2383 163.551C17.5378 163.759 17.873 163.919 18.2441 164.029C18.6217 164.14 19.0384 164.195 19.4941 164.195C19.8913 164.195 20.2591 164.146 20.5977 164.049C20.9427 163.951 21.2585 163.814 21.5449 163.639C21.9421 163.385 22.2806 163.066 22.5605 162.682C22.847 162.291 23.0781 161.852 23.2539 161.363C23.3841 160.992 23.4818 160.595 23.5469 160.172C23.6185 159.742 23.6543 159.296 23.6543 158.834ZM21.8477 158.629V158.834C21.8477 159.146 21.8281 159.452 21.7891 159.752C21.75 160.051 21.6882 160.331 21.6035 160.592C21.4993 160.937 21.3594 161.249 21.1836 161.529C21.0078 161.809 20.7897 162.04 20.5293 162.223C20.334 162.366 20.1126 162.477 19.8652 162.555C19.6178 162.626 19.3444 162.662 19.0449 162.662C18.7324 162.662 18.446 162.623 18.1855 162.545C17.9251 162.46 17.6908 162.343 17.4824 162.193C17.2741 162.044 17.0885 161.871 16.9258 161.676C16.7695 161.474 16.6328 161.256 16.5156 161.021V156.402C16.6263 156.168 16.7598 155.953 16.916 155.758C17.0788 155.556 17.2643 155.38 17.4727 155.23C17.6745 155.087 17.9056 154.977 18.166 154.898C18.4264 154.814 18.7129 154.771 19.0254 154.771C19.3118 154.771 19.5723 154.804 19.8066 154.869C20.041 154.934 20.2526 155.025 20.4414 155.143C20.7148 155.305 20.946 155.53 21.1348 155.816C21.3236 156.103 21.4766 156.419 21.5938 156.764C21.6784 157.044 21.7402 157.343 21.7793 157.662C21.8249 157.975 21.8477 158.297 21.8477 158.629ZM27.5605 168.268C28.0358 168.268 28.4557 168.18 28.8203 168.004C29.1849 167.828 29.5039 167.61 29.7773 167.35C30.0508 167.089 30.2819 166.806 30.4707 166.5C30.666 166.194 30.8255 165.904 30.9492 165.631L36.3105 153.434H34.2891L31.5645 160.289L31.0664 161.529L30.5977 160.25L27.6973 153.434H25.6758L30.2266 163.502L29.5039 164.908C29.4388 165.038 29.3477 165.204 29.2305 165.406C29.1198 165.608 28.9863 165.803 28.8301 165.992C28.6673 166.181 28.4818 166.344 28.2734 166.48C28.0716 166.617 27.847 166.686 27.5996 166.686C27.5085 166.686 27.3815 166.679 27.2188 166.666C27.0625 166.66 26.903 166.65 26.7402 166.637L26.4473 168.111C26.5645 168.137 26.737 168.17 26.9648 168.209C27.1927 168.248 27.3913 168.268 27.5605 168.268ZM59.6406 164V149.781H57.8145L57.7852 160.387L52.2676 149.781H50.4316V164H52.2578L52.2871 153.375L57.8047 164H59.6406ZM63.0293 153.434V155.006H66.623V162.438H63.0293V164H71.877V162.438H68.4297V153.434H63.0293ZM66.3887 150.66C66.3887 150.953 66.4766 151.197 66.6523 151.393C66.8346 151.588 67.1081 151.686 67.4727 151.686C67.8307 151.686 68.1009 151.588 68.2832 151.393C68.4655 151.197 68.5566 150.953 68.5566 150.66C68.5566 150.497 68.5306 150.348 68.4785 150.211C68.4264 150.074 68.3483 149.96 68.2441 149.869C68.1595 149.785 68.0521 149.719 67.9219 149.674C67.7917 149.622 67.6419 149.596 67.4727 149.596C67.3034 149.596 67.1504 149.622 67.0137 149.674C66.8835 149.719 66.776 149.785 66.6914 149.869C66.5872 149.967 66.5091 150.084 66.457 150.221C66.4115 150.357 66.3887 150.504 66.3887 150.66ZM77.9219 159.068L81.7988 164H84.0938L79.1621 157.838L83.4395 153.434H81.2422L77.7754 156.91L76.5938 158.18V149H74.7773V164H76.5938V160.348L77.9219 159.068ZM93.7129 164H95.5977V163.844C95.4805 163.551 95.3893 163.209 95.3242 162.818C95.2591 162.421 95.2266 162.047 95.2266 161.695V156.783C95.2266 156.191 95.1191 155.673 94.9043 155.23C94.6895 154.788 94.3965 154.417 94.0254 154.117C93.6478 153.824 93.2018 153.606 92.6875 153.463C92.1732 153.313 91.6165 153.238 91.0176 153.238C90.36 153.238 89.7708 153.329 89.25 153.512C88.7357 153.694 88.2995 153.932 87.9414 154.225C87.5768 154.524 87.2969 154.859 87.1016 155.23C86.9128 155.602 86.8151 155.979 86.8086 156.363H88.625C88.625 156.142 88.6771 155.93 88.7812 155.729C88.8919 155.52 89.0449 155.341 89.2402 155.191C89.4355 155.042 89.6732 154.921 89.9531 154.83C90.2396 154.739 90.5618 154.693 90.9199 154.693C91.304 154.693 91.6491 154.742 91.9551 154.84C92.2676 154.938 92.5312 155.074 92.7461 155.25C92.9609 155.432 93.127 155.65 93.2441 155.904C93.3613 156.158 93.4199 156.445 93.4199 156.764V157.594H91.4473C90.7116 157.594 90.0443 157.665 89.4453 157.809C88.8529 157.952 88.3451 158.167 87.9219 158.453C87.4987 158.746 87.1699 159.111 86.9355 159.547C86.7077 159.983 86.5938 160.491 86.5938 161.07C86.5938 161.513 86.6784 161.926 86.8477 162.311C87.0234 162.688 87.2708 163.014 87.5898 163.287C87.9023 163.567 88.2832 163.788 88.7324 163.951C89.1882 164.114 89.696 164.195 90.2559 164.195C90.6009 164.195 90.9264 164.16 91.2324 164.088C91.5384 164.016 91.8281 163.919 92.1016 163.795C92.3685 163.671 92.6126 163.528 92.834 163.365C93.0618 163.202 93.2669 163.03 93.4492 162.848C93.4688 163.069 93.498 163.284 93.5371 163.492C93.5827 163.694 93.6413 163.863 93.7129 164ZM90.5195 162.623C90.168 162.623 89.8587 162.577 89.5918 162.486C89.3249 162.395 89.1035 162.268 88.9277 162.105C88.752 161.949 88.6185 161.76 88.5273 161.539C88.4427 161.318 88.4004 161.077 88.4004 160.816C88.4004 160.543 88.4492 160.299 88.5469 160.084C88.651 159.869 88.8008 159.684 88.9961 159.527C89.2695 159.306 89.6374 159.143 90.0996 159.039C90.5684 158.928 91.1152 158.873 91.7402 158.873H93.4199V161.012C93.3158 161.22 93.1725 161.422 92.9902 161.617C92.8079 161.806 92.5931 161.975 92.3457 162.125C92.0918 162.275 91.8118 162.395 91.5059 162.486C91.1999 162.577 90.8711 162.623 90.5195 162.623ZM118.234 160.406C118.234 160.797 118.15 161.135 117.98 161.422C117.811 161.702 117.593 161.933 117.326 162.115C117.059 162.304 116.753 162.444 116.408 162.535C116.07 162.62 115.725 162.662 115.373 162.662C114.93 162.662 114.52 162.604 114.143 162.486C113.771 162.363 113.443 162.18 113.156 161.939C112.87 161.705 112.635 161.419 112.453 161.08C112.271 160.735 112.15 160.341 112.092 159.898H110.246C110.266 160.51 110.399 161.067 110.646 161.568C110.9 162.063 111.242 162.496 111.672 162.867C112.154 163.297 112.72 163.626 113.371 163.854C114.029 164.081 114.696 164.195 115.373 164.195C115.939 164.195 116.506 164.117 117.072 163.961C117.639 163.798 118.146 163.557 118.596 163.238C119.045 162.926 119.41 162.532 119.689 162.057C119.976 161.581 120.119 161.025 120.119 160.387C120.119 159.755 119.986 159.199 119.719 158.717C119.458 158.235 119.113 157.828 118.684 157.496C118.247 157.138 117.766 156.845 117.238 156.617C116.711 156.383 116.184 156.184 115.656 156.021C115.337 155.924 114.995 155.81 114.631 155.68C114.273 155.549 113.941 155.387 113.635 155.191C113.322 154.996 113.065 154.758 112.863 154.479C112.661 154.192 112.557 153.844 112.551 153.434C112.551 153.056 112.626 152.724 112.775 152.438C112.932 152.151 113.14 151.91 113.4 151.715C113.654 151.52 113.944 151.373 114.27 151.275C114.602 151.178 114.94 151.129 115.285 151.129C115.715 151.129 116.099 151.197 116.438 151.334C116.783 151.464 117.079 151.65 117.326 151.891C117.574 152.132 117.772 152.421 117.922 152.76C118.072 153.092 118.173 153.463 118.225 153.873H120.08C120.067 153.222 119.927 152.633 119.66 152.105C119.393 151.578 119.038 151.129 118.596 150.758C118.153 150.387 117.645 150.1 117.072 149.898C116.499 149.69 115.904 149.586 115.285 149.586C114.725 149.586 114.169 149.674 113.615 149.85C113.062 150.019 112.567 150.27 112.131 150.602C111.695 150.934 111.34 151.34 111.066 151.822C110.799 152.304 110.666 152.851 110.666 153.463C110.666 154.075 110.799 154.609 111.066 155.064C111.34 155.514 111.691 155.904 112.121 156.236C112.544 156.562 113.013 156.842 113.527 157.076C114.048 157.304 114.559 157.499 115.061 157.662C115.406 157.773 115.764 157.896 116.135 158.033C116.512 158.17 116.857 158.339 117.17 158.541C117.482 158.749 117.736 159.003 117.932 159.303C118.133 159.602 118.234 159.97 118.234 160.406ZM123.088 153.434V155.006H126.682V162.438H123.088V164H131.936V162.438H128.488V153.434H123.088ZM126.447 150.66C126.447 150.953 126.535 151.197 126.711 151.393C126.893 151.588 127.167 151.686 127.531 151.686C127.889 151.686 128.16 151.588 128.342 151.393C128.524 151.197 128.615 150.953 128.615 150.66C128.615 150.497 128.589 150.348 128.537 150.211C128.485 150.074 128.407 149.96 128.303 149.869C128.218 149.785 128.111 149.719 127.98 149.674C127.85 149.622 127.701 149.596 127.531 149.596C127.362 149.596 127.209 149.622 127.072 149.674C126.942 149.719 126.835 149.785 126.75 149.869C126.646 149.967 126.568 150.084 126.516 150.221C126.47 150.357 126.447 150.504 126.447 150.66ZM135.646 153.434H134.025V164H135.744V155.592C135.783 155.488 135.832 155.39 135.891 155.299C135.956 155.208 136.031 155.126 136.115 155.055C136.226 154.964 136.359 154.895 136.516 154.85C136.678 154.798 136.867 154.771 137.082 154.771C137.277 154.771 137.447 154.798 137.59 154.85C137.74 154.895 137.863 154.97 137.961 155.074C138.065 155.185 138.14 155.325 138.186 155.494C138.238 155.663 138.264 155.859 138.264 156.08V164H139.982V156.09C139.982 156.051 139.982 156.018 139.982 155.992C139.982 155.96 139.982 155.927 139.982 155.895C140.002 155.732 140.041 155.585 140.1 155.455C140.158 155.318 140.24 155.198 140.344 155.094C140.448 154.996 140.578 154.918 140.734 154.859C140.891 154.801 141.076 154.771 141.291 154.771C141.493 154.771 141.669 154.798 141.818 154.85C141.975 154.902 142.105 154.98 142.209 155.084C142.307 155.195 142.382 155.335 142.434 155.504C142.486 155.673 142.512 155.868 142.512 156.09V164H144.23V156.109C144.23 155.602 144.172 155.162 144.055 154.791C143.938 154.413 143.768 154.107 143.547 153.873C143.345 153.665 143.098 153.508 142.805 153.404C142.512 153.294 142.183 153.238 141.818 153.238C141.551 153.245 141.304 153.281 141.076 153.346C140.855 153.411 140.653 153.499 140.471 153.609C140.327 153.707 140.194 153.821 140.07 153.951C139.947 154.081 139.839 154.221 139.748 154.371C139.676 154.208 139.589 154.062 139.484 153.932C139.387 153.801 139.276 153.691 139.152 153.6C138.983 153.482 138.785 153.395 138.557 153.336C138.335 153.271 138.085 153.238 137.805 153.238C137.31 153.245 136.887 153.352 136.535 153.561C136.19 153.769 135.91 154.059 135.695 154.43L135.646 153.434ZM146.32 158.619V158.834C146.32 159.596 146.431 160.302 146.652 160.953C146.874 161.604 147.193 162.171 147.609 162.652C148.02 163.134 148.521 163.512 149.113 163.785C149.712 164.059 150.386 164.195 151.135 164.195C151.877 164.195 152.544 164.059 153.137 163.785C153.729 163.512 154.234 163.134 154.65 162.652C155.061 162.171 155.376 161.604 155.598 160.953C155.819 160.302 155.93 159.596 155.93 158.834V158.619C155.93 157.857 155.819 157.151 155.598 156.5C155.376 155.842 155.061 155.273 154.65 154.791C154.234 154.309 153.726 153.932 153.127 153.658C152.535 153.378 151.864 153.238 151.115 153.238C150.373 153.238 149.706 153.378 149.113 153.658C148.521 153.932 148.02 154.309 147.609 154.791C147.193 155.273 146.874 155.842 146.652 156.5C146.431 157.151 146.32 157.857 146.32 158.619ZM148.127 158.834V158.619C148.127 158.105 148.189 157.613 148.312 157.145C148.436 156.669 148.625 156.253 148.879 155.895C149.126 155.536 149.436 155.253 149.807 155.045C150.178 154.83 150.614 154.723 151.115 154.723C151.617 154.723 152.053 154.83 152.424 155.045C152.801 155.253 153.117 155.536 153.371 155.895C153.618 156.253 153.804 156.669 153.928 157.145C154.058 157.613 154.123 158.105 154.123 158.619V158.834C154.123 159.355 154.061 159.853 153.938 160.328C153.814 160.797 153.628 161.21 153.381 161.568C153.127 161.926 152.811 162.21 152.434 162.418C152.062 162.626 151.63 162.73 151.135 162.73C150.633 162.73 150.194 162.626 149.816 162.418C149.439 162.21 149.126 161.926 148.879 161.568C148.625 161.21 148.436 160.797 148.312 160.328C148.189 159.853 148.127 159.355 148.127 158.834ZM162.443 164H163.82L168.127 153.434H166.281L163.322 161.402L163.146 162.057L162.98 161.402L159.953 153.434H158.098L162.443 164ZM171.135 153.434V155.006H174.729V162.438H171.135V164H179.982V162.438H176.535V153.434H171.135ZM174.494 150.66C174.494 150.953 174.582 151.197 174.758 151.393C174.94 151.588 175.214 151.686 175.578 151.686C175.936 151.686 176.206 151.588 176.389 151.393C176.571 151.197 176.662 150.953 176.662 150.66C176.662 150.497 176.636 150.348 176.584 150.211C176.532 150.074 176.454 149.96 176.35 149.869C176.265 149.785 176.158 149.719 176.027 149.674C175.897 149.622 175.747 149.596 175.578 149.596C175.409 149.596 175.256 149.622 175.119 149.674C174.989 149.719 174.882 149.785 174.797 149.869C174.693 149.967 174.615 150.084 174.562 150.221C174.517 150.357 174.494 150.504 174.494 150.66ZM187.365 162.73C186.799 162.73 186.324 162.62 185.939 162.398C185.562 162.171 185.259 161.874 185.031 161.51C184.797 161.152 184.628 160.748 184.523 160.299C184.426 159.843 184.377 159.384 184.377 158.922V158.512C184.377 158.056 184.426 157.604 184.523 157.154C184.628 156.705 184.797 156.298 185.031 155.934C185.266 155.576 185.572 155.286 185.949 155.064C186.333 154.837 186.805 154.723 187.365 154.723C187.73 154.723 188.068 154.785 188.381 154.908C188.7 155.032 188.973 155.201 189.201 155.416C189.429 155.631 189.608 155.882 189.738 156.168C189.875 156.448 189.947 156.747 189.953 157.066H191.662C191.662 156.533 191.555 156.031 191.34 155.562C191.125 155.094 190.829 154.687 190.451 154.342C190.067 154.003 189.611 153.736 189.084 153.541C188.563 153.339 187.99 153.238 187.365 153.238C186.564 153.238 185.865 153.382 185.266 153.668C184.667 153.954 184.169 154.339 183.771 154.82C183.368 155.309 183.065 155.872 182.863 156.51C182.661 157.148 182.561 157.815 182.561 158.512V158.922C182.561 159.625 182.661 160.296 182.863 160.934C183.065 161.565 183.368 162.122 183.771 162.604C184.169 163.092 184.667 163.479 185.266 163.766C185.865 164.052 186.564 164.195 187.365 164.195C187.925 164.195 188.462 164.101 188.977 163.912C189.491 163.717 189.947 163.456 190.344 163.131C190.741 162.812 191.057 162.441 191.291 162.018C191.532 161.588 191.656 161.139 191.662 160.67H189.953C189.947 160.963 189.868 161.236 189.719 161.49C189.576 161.738 189.383 161.952 189.143 162.135C188.902 162.324 188.625 162.47 188.312 162.574C188.007 162.678 187.691 162.73 187.365 162.73ZM196.682 155.006V149H194.875V164H196.682V156.324C196.812 156.116 196.958 155.927 197.121 155.758C197.29 155.582 197.473 155.429 197.668 155.299C197.915 155.13 198.186 154.999 198.479 154.908C198.771 154.817 199.081 154.771 199.406 154.771C199.803 154.765 200.155 154.82 200.461 154.938C200.767 155.048 201.021 155.217 201.223 155.445C201.411 155.654 201.555 155.917 201.652 156.236C201.75 156.549 201.799 156.913 201.799 157.33V164H203.605V157.35C203.605 156.64 203.518 156.028 203.342 155.514C203.173 154.993 202.928 154.563 202.609 154.225C202.29 153.886 201.903 153.639 201.447 153.482C200.998 153.32 200.497 153.238 199.943 153.238C199.52 153.245 199.12 153.307 198.742 153.424C198.371 153.541 198.029 153.714 197.717 153.941C197.521 154.078 197.336 154.238 197.16 154.42C196.984 154.596 196.825 154.791 196.682 155.006ZM22.6094 183.721V182.188H16.6914V177.324H23.5957V175.781H14.8652V190H16.6914V183.721H22.6094ZM26.9941 179.434V181.006H30.5879V188.438H26.9941V190H35.8418V188.438H32.3945V179.434H26.9941ZM30.3535 176.66C30.3535 176.953 30.4414 177.197 30.6172 177.393C30.7995 177.588 31.0729 177.686 31.4375 177.686C31.7956 177.686 32.0658 177.588 32.248 177.393C32.4303 177.197 32.5215 176.953 32.5215 176.66C32.5215 176.497 32.4954 176.348 32.4434 176.211C32.3913 176.074 32.3132 175.96 32.209 175.869C32.1243 175.785 32.0169 175.719 31.8867 175.674C31.7565 175.622 31.6068 175.596 31.4375 175.596C31.2682 175.596 31.1152 175.622 30.9785 175.674C30.8483 175.719 30.7409 175.785 30.6562 175.869C30.5521 175.967 30.474 176.084 30.4219 176.221C30.3763 176.357 30.3535 176.504 30.3535 176.66ZM45.7441 187.197C45.7441 187.367 45.7116 187.526 45.6465 187.676C45.5814 187.826 45.487 187.962 45.3633 188.086C45.1615 188.288 44.8815 188.447 44.5234 188.564C44.1654 188.675 43.7454 188.73 43.2637 188.73C42.9577 188.73 42.6484 188.698 42.3359 188.633C42.0234 188.568 41.7402 188.457 41.4863 188.301C41.2259 188.145 41.0078 187.939 40.832 187.686C40.6628 187.432 40.5651 187.119 40.5391 186.748H38.7324C38.7324 187.197 38.8333 187.63 39.0352 188.047C39.2435 188.464 39.543 188.828 39.9336 189.141C40.3177 189.46 40.7897 189.717 41.3496 189.912C41.9095 190.101 42.5475 190.195 43.2637 190.195C43.8887 190.195 44.4648 190.12 44.9922 189.971C45.5195 189.821 45.972 189.609 46.3496 189.336C46.7272 189.062 47.0202 188.734 47.2285 188.35C47.4434 187.965 47.5508 187.539 47.5508 187.07C47.5508 186.634 47.4564 186.25 47.2676 185.918C47.0853 185.586 46.8184 185.293 46.4668 185.039C46.1152 184.792 45.6823 184.58 45.168 184.404C44.6536 184.222 44.071 184.062 43.4199 183.926C42.9251 183.828 42.515 183.727 42.1895 183.623C41.8704 183.519 41.6165 183.402 41.4277 183.271C41.2324 183.141 41.0957 182.995 41.0176 182.832C40.9395 182.669 40.9004 182.484 40.9004 182.275C40.9004 182.074 40.9492 181.878 41.0469 181.689C41.1445 181.501 41.291 181.335 41.4863 181.191C41.6751 181.048 41.9128 180.934 42.1992 180.85C42.4922 180.765 42.8307 180.723 43.2148 180.723C43.5859 180.723 43.918 180.775 44.2109 180.879C44.5104 180.983 44.7643 181.12 44.9727 181.289C45.181 181.458 45.3438 181.654 45.4609 181.875C45.5781 182.09 45.6367 182.311 45.6367 182.539H47.4434C47.4434 182.077 47.3424 181.647 47.1406 181.25C46.9453 180.846 46.6654 180.495 46.3008 180.195C45.9362 179.896 45.4935 179.661 44.9727 179.492C44.4518 179.323 43.8659 179.238 43.2148 179.238C42.6094 179.238 42.0527 179.32 41.5449 179.482C41.0436 179.645 40.6107 179.867 40.2461 180.146C39.8815 180.426 39.5983 180.755 39.3965 181.133C39.1947 181.504 39.0938 181.904 39.0938 182.334C39.0938 182.77 39.1914 183.154 39.3867 183.486C39.582 183.812 39.8587 184.095 40.2168 184.336C40.5684 184.583 40.9915 184.795 41.4863 184.971C41.9876 185.146 42.541 185.296 43.1465 185.42C43.6413 185.518 44.0547 185.628 44.3867 185.752C44.7188 185.869 44.9857 185.999 45.1875 186.143C45.3893 186.286 45.5326 186.445 45.6172 186.621C45.7018 186.79 45.7441 186.982 45.7441 187.197ZM52.541 181.006V175H50.7344V190H52.541V182.324C52.6712 182.116 52.8177 181.927 52.9805 181.758C53.1497 181.582 53.332 181.429 53.5273 181.299C53.7747 181.13 54.0449 180.999 54.3379 180.908C54.6309 180.817 54.9401 180.771 55.2656 180.771C55.6628 180.765 56.0143 180.82 56.3203 180.938C56.6263 181.048 56.8802 181.217 57.082 181.445C57.2708 181.654 57.4141 181.917 57.5117 182.236C57.6094 182.549 57.6582 182.913 57.6582 183.33V190H59.4648V183.35C59.4648 182.64 59.377 182.028 59.2012 181.514C59.0319 180.993 58.7878 180.563 58.4688 180.225C58.1497 179.886 57.7624 179.639 57.3066 179.482C56.8574 179.32 56.3561 179.238 55.8027 179.238C55.3796 179.245 54.9792 179.307 54.6016 179.424C54.2305 179.541 53.8887 179.714 53.5762 179.941C53.3809 180.078 53.1953 180.238 53.0195 180.42C52.8438 180.596 52.6842 180.791 52.541 181.006ZM67.4141 190.195C68.4427 190.195 69.3053 189.99 70.002 189.58C70.7051 189.163 71.2324 188.688 71.584 188.154L70.4805 187.295C70.1484 187.725 69.7318 188.07 69.2305 188.33C68.7292 188.59 68.1562 188.721 67.5117 188.721C67.0234 188.721 66.5775 188.63 66.1738 188.447C65.7702 188.265 65.4251 188.014 65.1387 187.695C64.8587 187.396 64.6374 187.051 64.4746 186.66C64.3184 186.27 64.2174 185.817 64.1719 185.303V185.234H71.7207V184.424C71.7207 183.688 71.6263 183.005 71.4375 182.373C71.2552 181.742 70.9753 181.191 70.5977 180.723C70.2201 180.26 69.7448 179.899 69.1719 179.639C68.6055 179.372 67.9414 179.238 67.1797 179.238C66.5742 179.238 65.9818 179.362 65.4023 179.609C64.8294 179.857 64.3184 180.212 63.8691 180.674C63.4134 181.143 63.0488 181.715 62.7754 182.393C62.502 183.063 62.3652 183.825 62.3652 184.678V185.088C62.3652 185.824 62.4889 186.504 62.7363 187.129C62.9837 187.754 63.3288 188.294 63.7715 188.75C64.2142 189.206 64.7448 189.561 65.3633 189.814C65.9883 190.068 66.6719 190.195 67.4141 190.195ZM67.1797 180.723C67.6419 180.723 68.0391 180.807 68.3711 180.977C68.7096 181.146 68.9896 181.367 69.2109 181.641C69.4323 181.914 69.6048 182.24 69.7285 182.617C69.8522 182.988 69.9141 183.337 69.9141 183.662V183.75H64.2305C64.3021 183.262 64.4258 182.832 64.6016 182.461C64.7839 182.083 65.0052 181.764 65.2656 181.504C65.526 181.25 65.819 181.058 66.1445 180.928C66.4701 180.791 66.8151 180.723 67.1797 180.723ZM81.6816 179.238C80.9134 179.238 80.2266 179.408 79.6211 179.746C79.0221 180.078 78.5078 180.534 78.0781 181.113L78.0684 180.85L77.9902 179.434H76.2715V190H78.0879V183.223C78.2051 182.897 78.3516 182.604 78.5273 182.344C78.7096 182.077 78.9212 181.852 79.1621 181.67C79.429 181.462 79.7415 181.305 80.0996 181.201C80.4577 181.09 80.8581 181.035 81.3008 181.035C81.6458 181.035 81.9746 181.055 82.2871 181.094C82.6061 181.126 82.9414 181.182 83.293 181.26L83.5371 179.492C83.3548 179.414 83.0814 179.352 82.7168 179.307C82.3587 179.261 82.0137 179.238 81.6816 179.238ZM89.9141 188.828C89.9141 189.206 90.0312 189.528 90.2656 189.795C90.5065 190.055 90.8613 190.186 91.3301 190.186C91.7923 190.186 92.1471 190.055 92.3945 189.795C92.6419 189.535 92.7656 189.212 92.7656 188.828C92.7656 188.438 92.6419 188.109 92.3945 187.842C92.1536 187.568 91.7988 187.432 91.3301 187.432C90.8548 187.432 90.5 187.568 90.2656 187.842C90.0312 188.115 89.9141 188.444 89.9141 188.828Z" fill="black"/>
<defs>
<linearGradient id="paint0_linear" x1="123.5" y1="0" x2="123.5" y2="328" gradientUnits="userSpaceOnUse">
<stop stop-color="#9D1A1A"/>
<stop offset="1" stop-color="white" stop-opacity="0"/>
</linearGradient>
<linearGradient id="paint1_linear" x1="123.5" y1="0" x2="123.5" y2="328" gradientUnits="userSpaceOnUse">
<stop stop-color="#CFCED6"/>
<stop offset="1" stop-color="#B7C0F2"/>
</linearGradient>
</defs>
</svg>
