<svg width="247" height="328" viewBox="0 0 247 328" fill="none" xmlns="http://www.w3.org/2000/svg">
<rect width="247" height="328" rx="8" fill="url(#paint0_linear)"/>
<rect width="247" height="328" rx="8" fill="url(#paint1_linear)"/>
<path d="M27.1113 27.1553V25.2266H13.9277V27.1553H19.4209V43H21.6182V27.1553H27.1113ZM31.2007 48.3345C31.7948 48.3345 32.3197 48.2246 32.7754 48.0049C33.2311 47.7852 33.6299 47.5125 33.9717 47.187C34.3135 46.8615 34.6024 46.5075 34.8384 46.125C35.0825 45.7425 35.2819 45.3804 35.4365 45.0386L42.1382 29.792H39.6113L36.2056 38.3613L35.583 39.9116L34.9971 38.3125L31.3716 29.792H28.8447L34.5332 42.3774L33.6299 44.1353C33.5485 44.298 33.4346 44.5055 33.2881 44.7578C33.1497 45.0101 32.9829 45.2542 32.7876 45.4902C32.5841 45.7262 32.3522 45.9297 32.0918 46.1006C31.8395 46.2715 31.5588 46.3569 31.2495 46.3569C31.1356 46.3569 30.9769 46.3488 30.7734 46.3325C30.5781 46.3244 30.3787 46.3122 30.1753 46.2959L29.8091 48.1392C29.9556 48.1717 30.1712 48.2124 30.4561 48.2612C30.7409 48.3101 30.9891 48.3345 31.2007 48.3345ZM45.1411 48.0781H47.3994V41.7305C47.5622 41.9095 47.7371 42.0763 47.9243 42.231C48.1115 42.3774 48.3109 42.5117 48.5225 42.6338C48.8724 42.8291 49.263 42.9797 49.6943 43.0854C50.1338 43.1912 50.6058 43.2441 51.1104 43.2441C51.9404 43.2441 52.6769 43.0732 53.3198 42.7314C53.9709 42.3896 54.5161 41.9176 54.9556 41.3154C55.395 40.7132 55.7287 40.0052 55.9565 39.1914C56.1844 38.3695 56.2983 37.4865 56.2983 36.5425V36.2861C56.2983 35.3014 56.1844 34.3981 55.9565 33.5762C55.7287 32.7461 55.395 32.034 54.9556 31.4399C54.5161 30.8459 53.9709 30.382 53.3198 30.0483C52.6688 29.7147 51.9201 29.5479 51.0737 29.5479C50.5936 29.5479 50.1419 29.6007 49.7188 29.7065C49.3037 29.8042 48.9253 29.9507 48.5835 30.146C48.3394 30.2762 48.1115 30.4349 47.8999 30.6221C47.6883 30.8011 47.493 31.0046 47.314 31.2324L47.2041 29.792H45.1411V48.0781ZM54.04 36.2861V36.5425C54.04 37.1854 53.9668 37.7998 53.8203 38.3857C53.682 38.9717 53.4663 39.4884 53.1733 39.936C52.8804 40.3836 52.506 40.7417 52.0503 41.0103C51.5946 41.2707 51.0534 41.4009 50.4268 41.4009C50.0361 41.4009 49.6781 41.3521 49.3525 41.2544C49.0352 41.1567 48.7463 41.0225 48.4858 40.8516C48.258 40.7051 48.0545 40.526 47.8755 40.3145C47.6965 40.1029 47.5378 39.875 47.3994 39.6309V33.271C47.554 32.9943 47.7331 32.742 47.9365 32.5142C48.14 32.2863 48.3719 32.0951 48.6323 31.9404C48.8683 31.7858 49.1328 31.6678 49.4258 31.5864C49.7269 31.505 50.0524 31.4644 50.4023 31.4644C51.0371 31.4644 51.5824 31.5946 52.0381 31.855C52.4938 32.1154 52.8722 32.4653 53.1733 32.9048C53.4663 33.3524 53.682 33.8691 53.8203 34.4551C53.9668 35.0329 54.04 35.6432 54.04 36.2861ZM59.5332 36.2739V36.5425C59.5332 37.4946 59.6715 38.3776 59.9482 39.1914C60.2249 40.0052 60.6237 40.7132 61.1445 41.3154C61.6572 41.9176 62.2839 42.3896 63.0244 42.7314C63.7731 43.0732 64.6154 43.2441 65.5513 43.2441C66.479 43.2441 67.3132 43.0732 68.0537 42.7314C68.7943 42.3896 69.425 41.9176 69.9458 41.3154C70.4585 40.7132 70.8532 40.0052 71.1299 39.1914C71.4066 38.3776 71.5449 37.4946 71.5449 36.5425V36.2739C71.5449 35.3218 71.4066 34.4388 71.1299 33.625C70.8532 32.8031 70.4585 32.091 69.9458 31.4888C69.425 30.8866 68.7902 30.4146 68.0415 30.0728C67.3009 29.7228 66.4627 29.5479 65.5269 29.5479C64.5991 29.5479 63.765 29.7228 63.0244 30.0728C62.2839 30.4146 61.6572 30.8866 61.1445 31.4888C60.6237 32.091 60.2249 32.8031 59.9482 33.625C59.6715 34.4388 59.5332 35.3218 59.5332 36.2739ZM61.7915 36.5425V36.2739C61.7915 35.631 61.8688 35.0166 62.0234 34.4307C62.1781 33.8366 62.4141 33.3158 62.7314 32.8682C63.0407 32.4206 63.4272 32.0666 63.8911 31.8062C64.355 31.5376 64.9002 31.4033 65.5269 31.4033C66.1535 31.4033 66.6987 31.5376 67.1626 31.8062C67.6346 32.0666 68.0293 32.4206 68.3467 32.8682C68.6559 33.3158 68.8879 33.8366 69.0425 34.4307C69.2052 35.0166 69.2866 35.631 69.2866 36.2739V36.5425C69.2866 37.1935 69.2093 37.8161 69.0547 38.4102C68.9001 38.9961 68.6681 39.5129 68.3589 39.9604C68.0415 40.408 67.6468 40.762 67.1748 41.0225C66.7109 41.2829 66.1698 41.4131 65.5513 41.4131C64.9246 41.4131 64.3753 41.2829 63.9033 41.0225C63.4313 40.762 63.0407 40.408 62.7314 39.9604C62.4141 39.5129 62.1781 38.9961 62.0234 38.4102C61.8688 37.8161 61.7915 37.1935 61.7915 36.5425ZM74.7676 36.2861V36.5425C74.7676 37.4865 74.8896 38.3695 75.1338 39.1914C75.3779 40.0052 75.7279 40.7132 76.1836 41.3154C76.6312 41.9176 77.1805 42.3896 77.8315 42.7314C78.4826 43.0732 79.2109 43.2441 80.0166 43.2441C80.4967 43.2441 80.9443 43.1912 81.3594 43.0854C81.7744 42.9878 82.1528 42.8454 82.4946 42.6582C82.7144 42.5361 82.9178 42.3937 83.105 42.231C83.3003 42.0682 83.4834 41.8892 83.6543 41.6938V42.8291C83.6543 43.3988 83.5729 43.9033 83.4102 44.3428C83.2474 44.7822 83.0155 45.1484 82.7144 45.4414C82.4051 45.7425 82.0348 45.9704 81.6035 46.125C81.1722 46.2796 80.688 46.3569 80.1509 46.3569C79.8498 46.3569 79.5487 46.3244 79.2476 46.2593C78.9465 46.2023 78.6453 46.1047 78.3442 45.9663C78.0431 45.828 77.7461 45.6408 77.4531 45.4048C77.1602 45.1769 76.8753 44.8962 76.5986 44.5625L75.4268 45.9175C75.7279 46.3488 76.0859 46.7109 76.501 47.0039C76.9242 47.2969 77.3636 47.5288 77.8193 47.6997C78.2669 47.8787 78.7104 48.0049 79.1499 48.0781C79.5894 48.1595 79.98 48.2002 80.3218 48.2002C81.1519 48.2002 81.9087 48.0781 82.5923 47.834C83.2759 47.5898 83.8659 47.2318 84.3623 46.7598C84.8506 46.2878 85.229 45.714 85.4976 45.0386C85.7743 44.3631 85.9126 43.59 85.9126 42.7192V29.792H83.8618L83.752 31.2324C83.5973 31.0371 83.4305 30.8581 83.2515 30.6953C83.0806 30.5326 82.8975 30.3901 82.7021 30.2681C82.3441 30.0321 81.9412 29.853 81.4937 29.731C81.0542 29.6089 80.57 29.5479 80.041 29.5479C79.2191 29.5479 78.4826 29.7147 77.8315 30.0483C77.1805 30.382 76.6271 30.8459 76.1714 31.4399C75.7157 32.034 75.3657 32.7461 75.1216 33.5762C74.8856 34.3981 74.7676 35.3014 74.7676 36.2861ZM77.0259 36.5425V36.2861C77.0259 35.6432 77.091 35.0329 77.2212 34.4551C77.3595 33.8691 77.5752 33.3524 77.8682 32.9048C78.153 32.4653 78.5192 32.1154 78.9668 31.855C79.4225 31.5946 79.9678 31.4644 80.6025 31.4644C80.9769 31.4644 81.3187 31.5132 81.6279 31.6108C81.9372 31.7004 82.2179 31.8265 82.4702 31.9893C82.7225 32.1602 82.9463 32.3595 83.1416 32.5874C83.3369 32.8153 83.5078 33.0675 83.6543 33.3442V39.3989C83.5078 39.6838 83.3369 39.9442 83.1416 40.1802C82.9463 40.4162 82.7266 40.6196 82.4824 40.7905C82.2301 40.9614 81.9453 41.0957 81.6279 41.1934C81.3187 41.2829 80.9688 41.3276 80.5781 41.3276C79.9515 41.3276 79.4144 41.2015 78.9668 40.9492C78.5192 40.6888 78.153 40.3389 77.8682 39.8994C77.5752 39.46 77.3595 38.9513 77.2212 38.3735C77.091 37.7957 77.0259 37.1854 77.0259 36.5425ZM98.8521 29.5479C97.8918 29.5479 97.0332 29.7594 96.2764 30.1826C95.5277 30.5977 94.8848 31.1673 94.3477 31.8916L94.3354 31.562L94.2378 29.792H92.0894V43H94.3599V34.5283C94.5063 34.1214 94.6895 33.7552 94.9092 33.4297C95.137 33.096 95.4015 32.8153 95.7026 32.5874C96.0363 32.327 96.4269 32.1317 96.8745 32.0015C97.3221 31.8631 97.8226 31.7939 98.376 31.7939C98.8073 31.7939 99.2183 31.8184 99.6089 31.8672C100.008 31.9079 100.427 31.9771 100.866 32.0747L101.171 29.8652C100.944 29.7676 100.602 29.6903 100.146 29.6333C99.6984 29.5763 99.2671 29.5479 98.8521 29.5479ZM113.891 43H116.247V42.8047C116.101 42.4385 115.987 42.0112 115.905 41.5229C115.824 41.0265 115.783 40.5586 115.783 40.1191V33.979C115.783 33.2384 115.649 32.5915 115.38 32.0381C115.112 31.4847 114.746 31.0208 114.282 30.6465C113.81 30.2803 113.252 30.0076 112.609 29.8286C111.966 29.6414 111.271 29.5479 110.522 29.5479C109.7 29.5479 108.964 29.6618 108.312 29.8896C107.67 30.1175 107.124 30.4146 106.677 30.7808C106.221 31.1551 105.871 31.5742 105.627 32.0381C105.391 32.502 105.269 32.974 105.261 33.4541H107.531C107.531 33.1774 107.596 32.9129 107.727 32.6606C107.865 32.4002 108.056 32.1764 108.3 31.9893C108.544 31.8021 108.841 31.6515 109.191 31.5376C109.549 31.4237 109.952 31.3667 110.4 31.3667C110.88 31.3667 111.311 31.4277 111.694 31.5498C112.084 31.6719 112.414 31.8428 112.683 32.0625C112.951 32.2904 113.159 32.563 113.305 32.8804C113.452 33.1978 113.525 33.5558 113.525 33.9546V34.9922H111.059C110.139 34.9922 109.305 35.0817 108.557 35.2607C107.816 35.4398 107.181 35.7083 106.652 36.0664C106.123 36.4326 105.712 36.8883 105.419 37.4336C105.135 37.9788 104.992 38.6136 104.992 39.3379C104.992 39.8913 105.098 40.408 105.31 40.8882C105.529 41.3602 105.839 41.7671 106.237 42.1089C106.628 42.4588 107.104 42.7355 107.666 42.939C108.235 43.1424 108.87 43.2441 109.57 43.2441C110.001 43.2441 110.408 43.1994 110.791 43.1099C111.173 43.0203 111.535 42.8983 111.877 42.7437C112.211 42.589 112.516 42.41 112.792 42.2065C113.077 42.0031 113.334 41.7874 113.562 41.5596C113.586 41.8363 113.623 42.1048 113.671 42.3652C113.728 42.6175 113.802 42.8291 113.891 43ZM109.899 41.2788C109.46 41.2788 109.073 41.2218 108.74 41.1079C108.406 40.994 108.129 40.8353 107.91 40.6318C107.69 40.4365 107.523 40.2005 107.409 39.9238C107.303 39.6471 107.25 39.346 107.25 39.0205C107.25 38.6787 107.312 38.3735 107.434 38.105C107.564 37.8364 107.751 37.6045 107.995 37.4092C108.337 37.1325 108.797 36.929 109.375 36.7988C109.96 36.6605 110.644 36.5913 111.425 36.5913H113.525V39.2646C113.395 39.5251 113.216 39.7773 112.988 40.0215C112.76 40.2575 112.491 40.4691 112.182 40.6562C111.865 40.8434 111.515 40.994 111.132 41.1079C110.75 41.2218 110.339 41.2788 109.899 41.2788ZM120.214 48.0781H122.473V41.7305C122.635 41.9095 122.81 42.0763 122.998 42.231C123.185 42.3774 123.384 42.5117 123.596 42.6338C123.946 42.8291 124.336 42.9797 124.768 43.0854C125.207 43.1912 125.679 43.2441 126.184 43.2441C127.014 43.2441 127.75 43.0732 128.393 42.7314C129.044 42.3896 129.589 41.9176 130.029 41.3154C130.468 40.7132 130.802 40.0052 131.03 39.1914C131.258 38.3695 131.372 37.4865 131.372 36.5425V36.2861C131.372 35.3014 131.258 34.3981 131.03 33.5762C130.802 32.7461 130.468 32.034 130.029 31.4399C129.589 30.8459 129.044 30.382 128.393 30.0483C127.742 29.7147 126.993 29.5479 126.147 29.5479C125.667 29.5479 125.215 29.6007 124.792 29.7065C124.377 29.8042 123.999 29.9507 123.657 30.146C123.413 30.2762 123.185 30.4349 122.973 30.6221C122.762 30.8011 122.566 31.0046 122.387 31.2324L122.277 29.792H120.214V48.0781ZM129.113 36.2861V36.5425C129.113 37.1854 129.04 37.7998 128.894 38.3857C128.755 38.9717 128.54 39.4884 128.247 39.936C127.954 40.3836 127.579 40.7417 127.124 41.0103C126.668 41.2707 126.127 41.4009 125.5 41.4009C125.109 41.4009 124.751 41.3521 124.426 41.2544C124.108 41.1567 123.819 41.0225 123.559 40.8516C123.331 40.7051 123.128 40.526 122.949 40.3145C122.77 40.1029 122.611 39.875 122.473 39.6309V33.271C122.627 32.9943 122.806 32.742 123.01 32.5142C123.213 32.2863 123.445 32.0951 123.706 31.9404C123.942 31.7858 124.206 31.6678 124.499 31.5864C124.8 31.505 125.126 31.4644 125.476 31.4644C126.11 31.4644 126.656 31.5946 127.111 31.855C127.567 32.1154 127.945 32.4653 128.247 32.9048C128.54 33.3524 128.755 33.8691 128.894 34.4551C129.04 35.0329 129.113 35.6432 129.113 36.2861ZM137.5 31.7573V24.25H135.241V43H137.5V33.4053C137.662 33.1449 137.845 32.9089 138.049 32.6973C138.26 32.4775 138.488 32.2863 138.732 32.1235C139.042 31.9119 139.379 31.7492 139.746 31.6353C140.112 31.5213 140.498 31.4644 140.905 31.4644C141.402 31.4562 141.841 31.5254 142.224 31.6719C142.606 31.8102 142.924 32.0218 143.176 32.3066C143.412 32.5671 143.591 32.8966 143.713 33.2954C143.835 33.686 143.896 34.1418 143.896 34.6626V43H146.154V34.687C146.154 33.8 146.044 33.035 145.825 32.3921C145.613 31.741 145.308 31.2039 144.909 30.7808C144.51 30.3576 144.026 30.0483 143.457 29.853C142.895 29.6496 142.268 29.5479 141.577 29.5479C141.048 29.556 140.547 29.6333 140.075 29.7798C139.611 29.9263 139.184 30.1419 138.793 30.4268C138.549 30.5977 138.317 30.797 138.098 31.0249C137.878 31.2446 137.679 31.4888 137.5 31.7573ZM151.318 48.3345C151.912 48.3345 152.437 48.2246 152.893 48.0049C153.348 47.7852 153.747 47.5125 154.089 47.187C154.431 46.8615 154.72 46.5075 154.956 46.125C155.2 45.7425 155.399 45.3804 155.554 45.0386L162.255 29.792H159.729L156.323 38.3613L155.7 39.9116L155.114 38.3125L151.489 29.792H148.962L154.65 42.3774L153.747 44.1353C153.666 44.298 153.552 44.5055 153.405 44.7578C153.267 45.0101 153.1 45.2542 152.905 45.4902C152.701 45.7262 152.469 45.9297 152.209 46.1006C151.957 46.2715 151.676 46.3569 151.367 46.3569C151.253 46.3569 151.094 46.3488 150.891 46.3325C150.695 46.3244 150.496 46.3122 150.292 46.2959L149.926 48.1392C150.073 48.1717 150.288 48.2124 150.573 48.2612C150.858 48.3101 151.106 48.3345 151.318 48.3345ZM179.65 36.2739V36.5425C179.65 37.4946 179.789 38.3776 180.065 39.1914C180.342 40.0052 180.741 40.7132 181.262 41.3154C181.774 41.9176 182.401 42.3896 183.142 42.7314C183.89 43.0732 184.733 43.2441 185.668 43.2441C186.596 43.2441 187.43 43.0732 188.171 42.7314C188.911 42.3896 189.542 41.9176 190.063 41.3154C190.576 40.7132 190.97 40.0052 191.247 39.1914C191.524 38.3776 191.662 37.4946 191.662 36.5425V36.2739C191.662 35.3218 191.524 34.4388 191.247 33.625C190.97 32.8031 190.576 32.091 190.063 31.4888C189.542 30.8866 188.907 30.4146 188.159 30.0728C187.418 29.7228 186.58 29.5479 185.644 29.5479C184.716 29.5479 183.882 29.7228 183.142 30.0728C182.401 30.4146 181.774 30.8866 181.262 31.4888C180.741 32.091 180.342 32.8031 180.065 33.625C179.789 34.4388 179.65 35.3218 179.65 36.2739ZM181.909 36.5425V36.2739C181.909 35.631 181.986 35.0166 182.141 34.4307C182.295 33.8366 182.531 33.3158 182.849 32.8682C183.158 32.4206 183.544 32.0666 184.008 31.8062C184.472 31.5376 185.017 31.4033 185.644 31.4033C186.271 31.4033 186.816 31.5376 187.28 31.8062C187.752 32.0666 188.146 32.4206 188.464 32.8682C188.773 33.3158 189.005 33.8366 189.16 34.4307C189.322 35.0166 189.404 35.631 189.404 36.2739V36.5425C189.404 37.1935 189.326 37.8161 189.172 38.4102C189.017 38.9961 188.785 39.5129 188.476 39.9604C188.159 40.408 187.764 40.762 187.292 41.0225C186.828 41.2829 186.287 41.4131 185.668 41.4131C185.042 41.4131 184.493 41.2829 184.021 41.0225C183.549 40.762 183.158 40.408 182.849 39.9604C182.531 39.5129 182.295 38.9961 182.141 38.4102C181.986 37.8161 181.909 37.1935 181.909 36.5425ZM195.3 43H197.558V33.5273C197.713 33.2425 197.892 32.9821 198.095 32.7461C198.307 32.5101 198.535 32.3026 198.779 32.1235C199.08 31.9201 199.41 31.7614 199.768 31.6475C200.126 31.5254 200.512 31.4644 200.927 31.4644C201.407 31.4644 201.831 31.5213 202.197 31.6353C202.571 31.7492 202.889 31.9323 203.149 32.1846C203.401 32.4368 203.592 32.7664 203.723 33.1733C203.853 33.5802 203.918 34.0767 203.918 34.6626V43H206.176V34.6138C206.176 33.7349 206.066 32.978 205.847 32.3433C205.635 31.7004 205.33 31.1714 204.931 30.7563C204.532 30.3413 204.048 30.0361 203.479 29.8408C202.917 29.6455 202.29 29.5479 201.599 29.5479C201.086 29.556 200.598 29.6333 200.134 29.7798C199.678 29.9181 199.255 30.1175 198.864 30.3779C198.604 30.5488 198.356 30.7523 198.12 30.9883C197.892 31.2161 197.68 31.4684 197.485 31.7451L197.326 29.792H195.3V43ZM17.6021 58.2266H14.8066V76H17.0039V68.9077L16.8208 61.7422L19.8359 71.0562H21.1299L24.4136 61.4858L24.2305 68.9077V76H26.4277V58.2266H23.6201L20.4951 67.1133L17.6021 58.2266ZM29.5039 69.2739V69.5425C29.5039 70.4946 29.6423 71.3776 29.9189 72.1914C30.1956 73.0052 30.5944 73.7132 31.1152 74.3154C31.6279 74.9176 32.2546 75.3896 32.9951 75.7314C33.7438 76.0732 34.5861 76.2441 35.522 76.2441C36.4497 76.2441 37.2839 76.0732 38.0244 75.7314C38.765 75.3896 39.3957 74.9176 39.9165 74.3154C40.4292 73.7132 40.8239 73.0052 41.1006 72.1914C41.3773 71.3776 41.5156 70.4946 41.5156 69.5425V69.2739C41.5156 68.3218 41.3773 67.4388 41.1006 66.625C40.8239 65.8031 40.4292 65.091 39.9165 64.4888C39.3957 63.8866 38.7609 63.4146 38.0122 63.0728C37.2716 62.7228 36.4334 62.5479 35.4976 62.5479C34.5698 62.5479 33.7357 62.7228 32.9951 63.0728C32.2546 63.4146 31.6279 63.8866 31.1152 64.4888C30.5944 65.091 30.1956 65.8031 29.9189 66.625C29.6423 67.4388 29.5039 68.3218 29.5039 69.2739ZM31.7622 69.5425V69.2739C31.7622 68.631 31.8395 68.0166 31.9941 67.4307C32.1488 66.8366 32.3848 66.3158 32.7021 65.8682C33.0114 65.4206 33.3979 65.0666 33.8618 64.8062C34.3257 64.5376 34.8709 64.4033 35.4976 64.4033C36.1242 64.4033 36.6694 64.5376 37.1333 64.8062C37.6053 65.0666 38 65.4206 38.3174 65.8682C38.6266 66.3158 38.8586 66.8366 39.0132 67.4307C39.1759 68.0166 39.2573 68.631 39.2573 69.2739V69.5425C39.2573 70.1935 39.18 70.8161 39.0254 71.4102C38.8708 71.9961 38.6388 72.5129 38.3296 72.9604C38.0122 73.408 37.6175 73.762 37.1455 74.0225C36.6816 74.2829 36.1405 74.4131 35.522 74.4131C34.8953 74.4131 34.346 74.2829 33.874 74.0225C33.402 73.762 33.0114 73.408 32.7021 72.9604C32.3848 72.5129 32.1488 71.9961 31.9941 71.4102C31.8395 70.8161 31.7622 70.1935 31.7622 69.5425ZM56.3472 69.5425V69.2861C56.3472 68.5944 56.2902 67.9393 56.1763 67.3208C56.0623 66.6942 55.8955 66.1245 55.6758 65.6118C55.4642 65.1561 55.2201 64.7451 54.9434 64.3789C54.6667 64.0046 54.3534 63.6872 54.0034 63.4268C53.6128 63.1501 53.1774 62.9344 52.6973 62.7798C52.2171 62.6252 51.6922 62.5479 51.1226 62.5479C50.6668 62.5479 50.2437 62.5926 49.853 62.6821C49.4624 62.7716 49.1043 62.9019 48.7788 63.0728C48.5184 63.2111 48.2743 63.3779 48.0464 63.5732C47.8185 63.7604 47.611 63.972 47.4238 64.208V57.25H45.1655V76H47.2407L47.3506 74.4985C47.4971 74.6857 47.6517 74.8566 47.8145 75.0112C47.9772 75.1659 48.1481 75.3083 48.3271 75.4385C48.7015 75.6989 49.1206 75.8983 49.5845 76.0366C50.0565 76.175 50.5773 76.2441 51.147 76.2441C51.6434 76.2441 52.1032 76.1831 52.5264 76.061C52.9577 75.939 53.3524 75.7681 53.7104 75.5483C54.2069 75.231 54.63 74.8322 54.98 74.3521C55.3381 73.8638 55.627 73.3145 55.8467 72.7041C56.0094 72.2402 56.1315 71.7438 56.2129 71.2148C56.3024 70.6777 56.3472 70.1203 56.3472 69.5425ZM54.0889 69.2861V69.5425C54.0889 69.9331 54.0645 70.3156 54.0156 70.6899C53.9668 71.0643 53.8895 71.4142 53.7837 71.7397C53.6535 72.1711 53.4785 72.5617 53.2588 72.9116C53.0391 73.2616 52.7664 73.5505 52.4409 73.7783C52.1968 73.9574 51.9201 74.0957 51.6108 74.1934C51.3016 74.2829 50.9598 74.3276 50.5854 74.3276C50.1948 74.3276 49.8368 74.2788 49.5112 74.1812C49.1857 74.0754 48.8927 73.9289 48.6323 73.7417C48.3719 73.5545 48.14 73.3389 47.9365 73.0947C47.7412 72.8424 47.5703 72.5698 47.4238 72.2769V66.5029C47.5622 66.21 47.729 65.9414 47.9243 65.6973C48.1278 65.445 48.3597 65.2253 48.6201 65.0381C48.8724 64.859 49.1613 64.7207 49.4868 64.623C49.8123 64.5173 50.1704 64.4644 50.561 64.4644C50.9191 64.4644 51.2446 64.505 51.5376 64.5864C51.8306 64.6678 52.0951 64.7817 52.3311 64.9282C52.6729 65.1317 52.9618 65.4124 53.1978 65.7705C53.4338 66.1286 53.625 66.5233 53.7715 66.9546C53.8773 67.3045 53.9546 67.6789 54.0034 68.0776C54.0604 68.4683 54.0889 68.8711 54.0889 69.2861ZM60.522 62.792V64.7573H65.0142V74.0469H60.522V76H71.5815V74.0469H67.2725V62.792H60.522ZM64.7212 59.3252C64.7212 59.6914 64.8311 59.9966 65.0508 60.2407C65.2786 60.4849 65.6204 60.6069 66.0762 60.6069C66.5238 60.6069 66.8615 60.4849 67.0894 60.2407C67.3172 59.9966 67.4312 59.6914 67.4312 59.3252C67.4312 59.1217 67.3986 58.9346 67.3335 58.7637C67.2684 58.5928 67.1707 58.4504 67.0405 58.3364C66.9347 58.2306 66.8005 58.1493 66.6377 58.0923C66.4749 58.0272 66.2878 57.9946 66.0762 57.9946C65.8646 57.9946 65.6733 58.0272 65.5024 58.0923C65.3397 58.1493 65.2054 58.2306 65.0996 58.3364C64.9694 58.4585 64.8717 58.605 64.8066 58.7759C64.7497 58.9468 64.7212 59.1299 64.7212 59.3252ZM75.5366 57.25V59.2153H80.0288V74.0469H75.5366V76H86.5962V74.0469H82.2871V57.25H75.5366ZM96.0322 76.2441C97.318 76.2441 98.3963 75.9878 99.2671 75.4751C100.146 74.9543 100.805 74.3602 101.245 73.6929L99.8652 72.6187C99.4502 73.1558 98.9294 73.5871 98.3027 73.9126C97.6761 74.2381 96.96 74.4009 96.1543 74.4009C95.5439 74.4009 94.9865 74.2869 94.4819 74.0591C93.9774 73.8312 93.5461 73.5179 93.188 73.1191C92.8381 72.7448 92.5614 72.3135 92.3579 71.8252C92.1626 71.3369 92.0365 70.7713 91.9795 70.1284V70.043H101.416V69.0298C101.416 68.1102 101.298 67.2557 101.062 66.4663C100.834 65.6769 100.484 64.9893 100.012 64.4033C99.5397 63.8255 98.9456 63.3739 98.2295 63.0483C97.5215 62.7147 96.6914 62.5479 95.7393 62.5479C94.9824 62.5479 94.2419 62.7025 93.5176 63.0117C92.8014 63.321 92.1626 63.7645 91.6011 64.3423C91.0314 64.9282 90.5757 65.6444 90.2339 66.4907C89.8921 67.3289 89.7212 68.2811 89.7212 69.3472V69.8599C89.7212 70.7795 89.8758 71.6299 90.1851 72.4111C90.4943 73.1924 90.9256 73.8678 91.479 74.4375C92.0324 75.0072 92.6956 75.4507 93.4688 75.7681C94.25 76.0854 95.1045 76.2441 96.0322 76.2441ZM95.7393 64.4033C96.3171 64.4033 96.8135 64.5091 97.2285 64.7207C97.6517 64.9323 98.0016 65.209 98.2783 65.5508C98.555 65.8926 98.7707 66.2995 98.9253 66.7715C99.0799 67.2354 99.1572 67.6707 99.1572 68.0776V68.1875H92.0527C92.1423 67.5771 92.2969 67.04 92.5166 66.5762C92.7445 66.1042 93.0212 65.7054 93.3467 65.3799C93.6722 65.0625 94.0384 64.8224 94.4453 64.6597C94.8522 64.4888 95.2835 64.4033 95.7393 64.4033Z" fill="#DF5013"/>
<path d="M16.6719 130.297H19.4746C20.1126 130.29 20.7148 130.193 21.2812 130.004C21.8542 129.815 22.3555 129.542 22.7852 129.184C23.2148 128.826 23.5534 128.386 23.8008 127.865C24.0547 127.338 24.1816 126.732 24.1816 126.049C24.1816 125.365 24.0547 124.76 23.8008 124.232C23.5534 123.705 23.2148 123.262 22.7852 122.904C22.3555 122.546 21.8542 122.273 21.2812 122.084C20.7148 121.895 20.1126 121.794 19.4746 121.781H14.8652V136H16.6719V130.297ZM16.6719 128.812V123.266H19.4746C19.8913 123.272 20.2754 123.34 20.627 123.471C20.985 123.601 21.2943 123.786 21.5547 124.027C21.8086 124.268 22.0072 124.561 22.1504 124.906C22.3001 125.251 22.375 125.639 22.375 126.068C22.375 126.498 22.3001 126.882 22.1504 127.221C22.0072 127.553 21.8053 127.836 21.5449 128.07C21.2845 128.305 20.9785 128.487 20.627 128.617C20.2754 128.741 19.8913 128.806 19.4746 128.812H16.6719ZM33.6348 125.238C32.8665 125.238 32.1797 125.408 31.5742 125.746C30.9753 126.078 30.4609 126.534 30.0312 127.113L30.0215 126.85L29.9434 125.434H28.2246V136H30.041V129.223C30.1582 128.897 30.3047 128.604 30.4805 128.344C30.6628 128.077 30.8743 127.852 31.1152 127.67C31.3822 127.462 31.6947 127.305 32.0527 127.201C32.4108 127.09 32.8112 127.035 33.2539 127.035C33.599 127.035 33.9277 127.055 34.2402 127.094C34.5592 127.126 34.8945 127.182 35.2461 127.26L35.4902 125.492C35.3079 125.414 35.0345 125.352 34.6699 125.307C34.3118 125.261 33.9668 125.238 33.6348 125.238ZM45.666 136H47.5508V135.844C47.4336 135.551 47.3424 135.209 47.2773 134.818C47.2122 134.421 47.1797 134.047 47.1797 133.695V128.783C47.1797 128.191 47.0723 127.673 46.8574 127.23C46.6426 126.788 46.3496 126.417 45.9785 126.117C45.6009 125.824 45.1549 125.606 44.6406 125.463C44.1263 125.313 43.5697 125.238 42.9707 125.238C42.3132 125.238 41.724 125.329 41.2031 125.512C40.6888 125.694 40.2526 125.932 39.8945 126.225C39.5299 126.524 39.25 126.859 39.0547 127.23C38.8659 127.602 38.7682 127.979 38.7617 128.363H40.5781C40.5781 128.142 40.6302 127.93 40.7344 127.729C40.8451 127.52 40.998 127.341 41.1934 127.191C41.3887 127.042 41.6263 126.921 41.9062 126.83C42.1927 126.739 42.515 126.693 42.873 126.693C43.2572 126.693 43.6022 126.742 43.9082 126.84C44.2207 126.938 44.4844 127.074 44.6992 127.25C44.9141 127.432 45.0801 127.65 45.1973 127.904C45.3145 128.158 45.373 128.445 45.373 128.764V129.594H43.4004C42.6647 129.594 41.9974 129.665 41.3984 129.809C40.806 129.952 40.2982 130.167 39.875 130.453C39.4518 130.746 39.123 131.111 38.8887 131.547C38.6608 131.983 38.5469 132.491 38.5469 133.07C38.5469 133.513 38.6315 133.926 38.8008 134.311C38.9766 134.688 39.224 135.014 39.543 135.287C39.8555 135.567 40.2363 135.788 40.6855 135.951C41.1413 136.114 41.6491 136.195 42.209 136.195C42.554 136.195 42.8796 136.16 43.1855 136.088C43.4915 136.016 43.7812 135.919 44.0547 135.795C44.3216 135.671 44.5658 135.528 44.7871 135.365C45.015 135.202 45.2201 135.03 45.4023 134.848C45.4219 135.069 45.4512 135.284 45.4902 135.492C45.5358 135.694 45.5944 135.863 45.666 136ZM42.4727 134.623C42.1211 134.623 41.8118 134.577 41.5449 134.486C41.278 134.395 41.0566 134.268 40.8809 134.105C40.7051 133.949 40.5716 133.76 40.4805 133.539C40.3958 133.318 40.3535 133.077 40.3535 132.816C40.3535 132.543 40.4023 132.299 40.5 132.084C40.6042 131.869 40.7539 131.684 40.9492 131.527C41.2227 131.306 41.5905 131.143 42.0527 131.039C42.5215 130.928 43.0684 130.873 43.6934 130.873H45.373V133.012C45.2689 133.22 45.1257 133.422 44.9434 133.617C44.7611 133.806 44.5462 133.975 44.2988 134.125C44.0449 134.275 43.765 134.395 43.459 134.486C43.153 134.577 42.8242 134.623 42.4727 134.623ZM55.2363 134.73C54.6699 134.73 54.1947 134.62 53.8105 134.398C53.4329 134.171 53.1302 133.874 52.9023 133.51C52.668 133.152 52.4987 132.748 52.3945 132.299C52.2969 131.843 52.248 131.384 52.248 130.922V130.512C52.248 130.056 52.2969 129.604 52.3945 129.154C52.4987 128.705 52.668 128.298 52.9023 127.934C53.1367 127.576 53.4427 127.286 53.8203 127.064C54.2044 126.837 54.6764 126.723 55.2363 126.723C55.6009 126.723 55.9395 126.785 56.252 126.908C56.571 127.032 56.8444 127.201 57.0723 127.416C57.3001 127.631 57.4792 127.882 57.6094 128.168C57.7461 128.448 57.8177 128.747 57.8242 129.066H59.5332C59.5332 128.533 59.4258 128.031 59.2109 127.562C58.9961 127.094 58.6999 126.687 58.3223 126.342C57.9382 126.003 57.4824 125.736 56.9551 125.541C56.4342 125.339 55.8613 125.238 55.2363 125.238C54.4355 125.238 53.7357 125.382 53.1367 125.668C52.5378 125.954 52.0397 126.339 51.6426 126.82C51.2389 127.309 50.9362 127.872 50.7344 128.51C50.5326 129.148 50.4316 129.815 50.4316 130.512V130.922C50.4316 131.625 50.5326 132.296 50.7344 132.934C50.9362 133.565 51.2389 134.122 51.6426 134.604C52.0397 135.092 52.5378 135.479 53.1367 135.766C53.7357 136.052 54.4355 136.195 55.2363 136.195C55.7962 136.195 56.3333 136.101 56.8477 135.912C57.362 135.717 57.8177 135.456 58.2148 135.131C58.612 134.812 58.9277 134.441 59.1621 134.018C59.403 133.588 59.5267 133.139 59.5332 132.67H57.8242C57.8177 132.963 57.7396 133.236 57.5898 133.49C57.4466 133.738 57.2546 133.952 57.0137 134.135C56.7728 134.324 56.4961 134.47 56.1836 134.574C55.8776 134.678 55.5618 134.73 55.2363 134.73ZM67.0234 122.875H65.207V125.434H62.4336V126.83H65.207V132.572C65.207 133.223 65.2917 133.78 65.4609 134.242C65.6367 134.698 65.8743 135.069 66.1738 135.355C66.4733 135.648 66.8249 135.863 67.2285 136C67.6387 136.13 68.0781 136.195 68.5469 136.195C68.8268 136.195 69.1068 136.182 69.3867 136.156C69.6732 136.13 69.9434 136.091 70.1973 136.039C70.4512 135.993 70.6855 135.938 70.9004 135.873C71.1152 135.801 71.2975 135.72 71.4473 135.629L71.1934 134.35C71.0827 134.376 70.9395 134.408 70.7637 134.447C70.5944 134.48 70.4121 134.512 70.2168 134.545C70.015 134.577 69.8099 134.607 69.6016 134.633C69.3932 134.652 69.1914 134.662 68.9961 134.662C68.7292 134.662 68.4753 134.63 68.2344 134.564C68 134.499 67.7917 134.385 67.6094 134.223C67.4271 134.066 67.2839 133.855 67.1797 133.588C67.0755 133.321 67.0234 132.982 67.0234 132.572V126.83H71.0469V125.434H67.0234V122.875ZM75.041 125.434V127.006H78.6348V134.438H75.041V136H83.8887V134.438H80.4414V125.434H75.041ZM78.4004 122.66C78.4004 122.953 78.4883 123.197 78.6641 123.393C78.8464 123.588 79.1198 123.686 79.4844 123.686C79.8424 123.686 80.1126 123.588 80.2949 123.393C80.4772 123.197 80.5684 122.953 80.5684 122.66C80.5684 122.497 80.5423 122.348 80.4902 122.211C80.4382 122.074 80.36 121.96 80.2559 121.869C80.1712 121.785 80.0638 121.719 79.9336 121.674C79.8034 121.622 79.6536 121.596 79.4844 121.596C79.3151 121.596 79.1621 121.622 79.0254 121.674C78.8952 121.719 78.7878 121.785 78.7031 121.869C78.599 121.967 78.5208 122.084 78.4688 122.221C78.4232 122.357 78.4004 122.504 78.4004 122.66ZM91.2715 134.73C90.7051 134.73 90.2298 134.62 89.8457 134.398C89.4681 134.171 89.1654 133.874 88.9375 133.51C88.7031 133.152 88.5339 132.748 88.4297 132.299C88.332 131.843 88.2832 131.384 88.2832 130.922V130.512C88.2832 130.056 88.332 129.604 88.4297 129.154C88.5339 128.705 88.7031 128.298 88.9375 127.934C89.1719 127.576 89.4779 127.286 89.8555 127.064C90.2396 126.837 90.7116 126.723 91.2715 126.723C91.6361 126.723 91.9746 126.785 92.2871 126.908C92.6061 127.032 92.8796 127.201 93.1074 127.416C93.3353 127.631 93.5143 127.882 93.6445 128.168C93.7812 128.448 93.8529 128.747 93.8594 129.066H95.5684C95.5684 128.533 95.4609 128.031 95.2461 127.562C95.0312 127.094 94.735 126.687 94.3574 126.342C93.9733 126.003 93.5176 125.736 92.9902 125.541C92.4694 125.339 91.8965 125.238 91.2715 125.238C90.4707 125.238 89.7708 125.382 89.1719 125.668C88.5729 125.954 88.0749 126.339 87.6777 126.82C87.2741 127.309 86.9714 127.872 86.7695 128.51C86.5677 129.148 86.4668 129.815 86.4668 130.512V130.922C86.4668 131.625 86.5677 132.296 86.7695 132.934C86.9714 133.565 87.2741 134.122 87.6777 134.604C88.0749 135.092 88.5729 135.479 89.1719 135.766C89.7708 136.052 90.4707 136.195 91.2715 136.195C91.8314 136.195 92.3685 136.101 92.8828 135.912C93.3971 135.717 93.8529 135.456 94.25 135.131C94.6471 134.812 94.9629 134.441 95.1973 134.018C95.4382 133.588 95.5618 133.139 95.5684 132.67H93.8594C93.8529 132.963 93.7747 133.236 93.625 133.49C93.4818 133.738 93.2897 133.952 93.0488 134.135C92.8079 134.324 92.5312 134.47 92.2188 134.574C91.9128 134.678 91.597 134.73 91.2715 134.73ZM103.449 136.195C104.478 136.195 105.34 135.99 106.037 135.58C106.74 135.163 107.268 134.688 107.619 134.154L106.516 133.295C106.184 133.725 105.767 134.07 105.266 134.33C104.764 134.59 104.191 134.721 103.547 134.721C103.059 134.721 102.613 134.63 102.209 134.447C101.805 134.265 101.46 134.014 101.174 133.695C100.894 133.396 100.673 133.051 100.51 132.66C100.354 132.27 100.253 131.817 100.207 131.303V131.234H107.756V130.424C107.756 129.688 107.661 129.005 107.473 128.373C107.29 127.742 107.01 127.191 106.633 126.723C106.255 126.26 105.78 125.899 105.207 125.639C104.641 125.372 103.977 125.238 103.215 125.238C102.609 125.238 102.017 125.362 101.438 125.609C100.865 125.857 100.354 126.212 99.9043 126.674C99.4486 127.143 99.084 127.715 98.8105 128.393C98.5371 129.063 98.4004 129.825 98.4004 130.678V131.088C98.4004 131.824 98.5241 132.504 98.7715 133.129C99.0189 133.754 99.3639 134.294 99.8066 134.75C100.249 135.206 100.78 135.561 101.398 135.814C102.023 136.068 102.707 136.195 103.449 136.195ZM103.215 126.723C103.677 126.723 104.074 126.807 104.406 126.977C104.745 127.146 105.025 127.367 105.246 127.641C105.467 127.914 105.64 128.24 105.764 128.617C105.887 128.988 105.949 129.337 105.949 129.662V129.75H100.266C100.337 129.262 100.461 128.832 100.637 128.461C100.819 128.083 101.04 127.764 101.301 127.504C101.561 127.25 101.854 127.058 102.18 126.928C102.505 126.791 102.85 126.723 103.215 126.723ZM123.82 136H125.246L126.877 129.525L127.141 127.885L127.414 129.525L129.064 136H130.49L132.736 125.434H131.135L129.963 132.172L129.699 133.832L129.416 132.172L127.736 125.434H126.574L124.885 132.172L124.621 133.686L124.406 132.172L123.176 125.434H121.574L123.82 136ZM135.1 125.434V127.006H138.693V134.438H135.1V136H143.947V134.438H140.5V125.434H135.1ZM138.459 122.66C138.459 122.953 138.547 123.197 138.723 123.393C138.905 123.588 139.178 123.686 139.543 123.686C139.901 123.686 140.171 123.588 140.354 123.393C140.536 123.197 140.627 122.953 140.627 122.66C140.627 122.497 140.601 122.348 140.549 122.211C140.497 122.074 140.419 121.96 140.314 121.869C140.23 121.785 140.122 121.719 139.992 121.674C139.862 121.622 139.712 121.596 139.543 121.596C139.374 121.596 139.221 121.622 139.084 121.674C138.954 121.719 138.846 121.785 138.762 121.869C138.658 121.967 138.579 122.084 138.527 122.221C138.482 122.357 138.459 122.504 138.459 122.66ZM151.105 122.875H149.289V125.434H146.516V126.83H149.289V132.572C149.289 133.223 149.374 133.78 149.543 134.242C149.719 134.698 149.956 135.069 150.256 135.355C150.555 135.648 150.907 135.863 151.311 136C151.721 136.13 152.16 136.195 152.629 136.195C152.909 136.195 153.189 136.182 153.469 136.156C153.755 136.13 154.025 136.091 154.279 136.039C154.533 135.993 154.768 135.938 154.982 135.873C155.197 135.801 155.38 135.72 155.529 135.629L155.275 134.35C155.165 134.376 155.021 134.408 154.846 134.447C154.676 134.48 154.494 134.512 154.299 134.545C154.097 134.577 153.892 134.607 153.684 134.633C153.475 134.652 153.273 134.662 153.078 134.662C152.811 134.662 152.557 134.63 152.316 134.564C152.082 134.499 151.874 134.385 151.691 134.223C151.509 134.066 151.366 133.855 151.262 133.588C151.158 133.321 151.105 132.982 151.105 132.572V126.83H155.129V125.434H151.105V122.875ZM160.646 127.006V121H158.84V136H160.646V128.324C160.777 128.116 160.923 127.927 161.086 127.758C161.255 127.582 161.438 127.429 161.633 127.299C161.88 127.13 162.15 126.999 162.443 126.908C162.736 126.817 163.046 126.771 163.371 126.771C163.768 126.765 164.12 126.82 164.426 126.938C164.732 127.048 164.986 127.217 165.188 127.445C165.376 127.654 165.52 127.917 165.617 128.236C165.715 128.549 165.764 128.913 165.764 129.33V136H167.57V129.35C167.57 128.64 167.482 128.028 167.307 127.514C167.137 126.993 166.893 126.563 166.574 126.225C166.255 125.886 165.868 125.639 165.412 125.482C164.963 125.32 164.462 125.238 163.908 125.238C163.485 125.245 163.085 125.307 162.707 125.424C162.336 125.541 161.994 125.714 161.682 125.941C161.486 126.078 161.301 126.238 161.125 126.42C160.949 126.596 160.79 126.791 160.646 127.006ZM171.135 125.434V127.006H174.729V134.438H171.135V136H179.982V134.438H176.535V125.434H171.135ZM174.494 122.66C174.494 122.953 174.582 123.197 174.758 123.393C174.94 123.588 175.214 123.686 175.578 123.686C175.936 123.686 176.206 123.588 176.389 123.393C176.571 123.197 176.662 122.953 176.662 122.66C176.662 122.497 176.636 122.348 176.584 122.211C176.532 122.074 176.454 121.96 176.35 121.869C176.265 121.785 176.158 121.719 176.027 121.674C175.897 121.622 175.747 121.596 175.578 121.596C175.409 121.596 175.256 121.622 175.119 121.674C174.989 121.719 174.882 121.785 174.797 121.869C174.693 121.967 174.615 122.084 174.562 122.221C174.517 122.357 174.494 122.504 174.494 122.66ZM182.863 136H184.67V128.422C184.794 128.194 184.937 127.986 185.1 127.797C185.269 127.608 185.451 127.442 185.646 127.299C185.887 127.136 186.151 127.009 186.438 126.918C186.724 126.82 187.033 126.771 187.365 126.771C187.749 126.771 188.088 126.817 188.381 126.908C188.68 126.999 188.934 127.146 189.143 127.348C189.344 127.549 189.497 127.813 189.602 128.139C189.706 128.464 189.758 128.861 189.758 129.33V136H191.564V129.291C191.564 128.588 191.477 127.982 191.301 127.475C191.132 126.96 190.887 126.537 190.568 126.205C190.249 125.873 189.862 125.629 189.406 125.473C188.957 125.316 188.456 125.238 187.902 125.238C187.492 125.245 187.102 125.307 186.73 125.424C186.366 125.535 186.027 125.694 185.715 125.902C185.507 126.039 185.308 126.202 185.119 126.391C184.937 126.573 184.768 126.775 184.611 126.996L184.484 125.434H182.863V136ZM22.6094 155.721V154.188H16.6914V149.324H23.5957V147.781H14.8652V162H16.6914V155.721H22.6094ZM26.9941 151.434V153.006H30.5879V160.438H26.9941V162H35.8418V160.438H32.3945V151.434H26.9941ZM30.3535 148.66C30.3535 148.953 30.4414 149.197 30.6172 149.393C30.7995 149.588 31.0729 149.686 31.4375 149.686C31.7956 149.686 32.0658 149.588 32.248 149.393C32.4303 149.197 32.5215 148.953 32.5215 148.66C32.5215 148.497 32.4954 148.348 32.4434 148.211C32.3913 148.074 32.3132 147.96 32.209 147.869C32.1243 147.785 32.0169 147.719 31.8867 147.674C31.7565 147.622 31.6068 147.596 31.4375 147.596C31.2682 147.596 31.1152 147.622 30.9785 147.674C30.8483 147.719 30.7409 147.785 30.6562 147.869C30.5521 147.967 30.474 148.084 30.4219 148.221C30.3763 148.357 30.3535 148.504 30.3535 148.66ZM38.3906 156.629V156.834C38.3906 157.589 38.4883 158.296 38.6836 158.953C38.8789 159.604 39.1589 160.171 39.5234 160.652C39.8815 161.134 40.321 161.512 40.8418 161.785C41.3626 162.059 41.9453 162.195 42.5898 162.195C42.974 162.195 43.332 162.153 43.6641 162.068C43.9961 161.99 44.2988 161.876 44.5723 161.727C44.748 161.629 44.9108 161.515 45.0605 161.385C45.2168 161.255 45.3633 161.111 45.5 160.955V161.863C45.5 162.319 45.4349 162.723 45.3047 163.074C45.1745 163.426 44.9889 163.719 44.748 163.953C44.5007 164.194 44.2044 164.376 43.8594 164.5C43.5143 164.624 43.127 164.686 42.6973 164.686C42.4564 164.686 42.2155 164.66 41.9746 164.607C41.7337 164.562 41.4928 164.484 41.252 164.373C41.0111 164.262 40.7734 164.113 40.5391 163.924C40.3047 163.742 40.0768 163.517 39.8555 163.25L38.918 164.334C39.1589 164.679 39.4453 164.969 39.7773 165.203C40.1159 165.438 40.4674 165.623 40.832 165.76C41.1901 165.903 41.5449 166.004 41.8965 166.062C42.248 166.128 42.5605 166.16 42.834 166.16C43.498 166.16 44.1035 166.062 44.6504 165.867C45.1973 165.672 45.6693 165.385 46.0664 165.008C46.457 164.63 46.7598 164.171 46.9746 163.631C47.196 163.09 47.3066 162.472 47.3066 161.775V151.434H45.666L45.5781 152.586C45.4544 152.43 45.321 152.286 45.1777 152.156C45.041 152.026 44.8945 151.912 44.7383 151.814C44.4518 151.626 44.1296 151.482 43.7715 151.385C43.4199 151.287 43.0326 151.238 42.6094 151.238C41.9518 151.238 41.3626 151.372 40.8418 151.639C40.321 151.906 39.8783 152.277 39.5137 152.752C39.1491 153.227 38.8691 153.797 38.6738 154.461C38.485 155.118 38.3906 155.841 38.3906 156.629ZM40.1973 156.834V156.629C40.1973 156.115 40.2493 155.626 40.3535 155.164C40.4642 154.695 40.6367 154.282 40.8711 153.924C41.099 153.572 41.3919 153.292 41.75 153.084C42.1146 152.876 42.5508 152.771 43.0586 152.771C43.3581 152.771 43.6315 152.811 43.8789 152.889C44.1263 152.96 44.3509 153.061 44.5527 153.191C44.7546 153.328 44.9336 153.488 45.0898 153.67C45.2461 153.852 45.3828 154.054 45.5 154.275V159.119C45.3828 159.347 45.2461 159.555 45.0898 159.744C44.9336 159.933 44.7578 160.096 44.5625 160.232C44.3607 160.369 44.1328 160.477 43.8789 160.555C43.6315 160.626 43.3516 160.662 43.0391 160.662C42.5378 160.662 42.1081 160.561 41.75 160.359C41.3919 160.151 41.099 159.871 40.8711 159.52C40.6367 159.168 40.4642 158.761 40.3535 158.299C40.2493 157.837 40.1973 157.348 40.1973 156.834ZM51.5645 151.434H49.9434V162H51.6621V153.592C51.7012 153.488 51.75 153.39 51.8086 153.299C51.8737 153.208 51.9486 153.126 52.0332 153.055C52.1439 152.964 52.2773 152.895 52.4336 152.85C52.5964 152.798 52.7852 152.771 53 152.771C53.1953 152.771 53.3646 152.798 53.5078 152.85C53.6576 152.895 53.7812 152.97 53.8789 153.074C53.9831 153.185 54.0579 153.325 54.1035 153.494C54.1556 153.663 54.1816 153.859 54.1816 154.08V162H55.9004V154.09C55.9004 154.051 55.9004 154.018 55.9004 153.992C55.9004 153.96 55.9004 153.927 55.9004 153.895C55.9199 153.732 55.959 153.585 56.0176 153.455C56.0762 153.318 56.1576 153.198 56.2617 153.094C56.3659 152.996 56.4961 152.918 56.6523 152.859C56.8086 152.801 56.9941 152.771 57.209 152.771C57.4108 152.771 57.5866 152.798 57.7363 152.85C57.8926 152.902 58.0228 152.98 58.127 153.084C58.2246 153.195 58.2995 153.335 58.3516 153.504C58.4036 153.673 58.4297 153.868 58.4297 154.09V162H60.1484V154.109C60.1484 153.602 60.0898 153.162 59.9727 152.791C59.8555 152.413 59.6862 152.107 59.4648 151.873C59.263 151.665 59.0156 151.508 58.7227 151.404C58.4297 151.294 58.1009 151.238 57.7363 151.238C57.4694 151.245 57.222 151.281 56.9941 151.346C56.7728 151.411 56.571 151.499 56.3887 151.609C56.2454 151.707 56.112 151.821 55.9883 151.951C55.8646 152.081 55.7572 152.221 55.666 152.371C55.5944 152.208 55.5065 152.062 55.4023 151.932C55.3047 151.801 55.194 151.691 55.0703 151.6C54.901 151.482 54.7025 151.395 54.4746 151.336C54.2533 151.271 54.0026 151.238 53.7227 151.238C53.2279 151.245 52.8047 151.352 52.4531 151.561C52.1081 151.769 51.8281 152.059 51.6133 152.43L51.5645 151.434ZM69.6895 162H71.5742V161.844C71.457 161.551 71.3659 161.209 71.3008 160.818C71.2357 160.421 71.2031 160.047 71.2031 159.695V154.783C71.2031 154.191 71.0957 153.673 70.8809 153.23C70.666 152.788 70.373 152.417 70.002 152.117C69.6243 151.824 69.1784 151.606 68.6641 151.463C68.1497 151.313 67.5931 151.238 66.9941 151.238C66.3366 151.238 65.7474 151.329 65.2266 151.512C64.7122 151.694 64.276 151.932 63.918 152.225C63.5534 152.524 63.2734 152.859 63.0781 153.23C62.8893 153.602 62.7917 153.979 62.7852 154.363H64.6016C64.6016 154.142 64.6536 153.93 64.7578 153.729C64.8685 153.52 65.0215 153.341 65.2168 153.191C65.4121 153.042 65.6497 152.921 65.9297 152.83C66.2161 152.739 66.5384 152.693 66.8965 152.693C67.2806 152.693 67.6257 152.742 67.9316 152.84C68.2441 152.938 68.5078 153.074 68.7227 153.25C68.9375 153.432 69.1035 153.65 69.2207 153.904C69.3379 154.158 69.3965 154.445 69.3965 154.764V155.594H67.4238C66.6882 155.594 66.0208 155.665 65.4219 155.809C64.8294 155.952 64.3216 156.167 63.8984 156.453C63.4753 156.746 63.1465 157.111 62.9121 157.547C62.6842 157.983 62.5703 158.491 62.5703 159.07C62.5703 159.513 62.6549 159.926 62.8242 160.311C63 160.688 63.2474 161.014 63.5664 161.287C63.8789 161.567 64.2598 161.788 64.709 161.951C65.1647 162.114 65.6725 162.195 66.2324 162.195C66.5775 162.195 66.903 162.16 67.209 162.088C67.515 162.016 67.8047 161.919 68.0781 161.795C68.3451 161.671 68.5892 161.528 68.8105 161.365C69.0384 161.202 69.2435 161.03 69.4258 160.848C69.4453 161.069 69.4746 161.284 69.5137 161.492C69.5592 161.694 69.6178 161.863 69.6895 162ZM66.4961 160.623C66.1445 160.623 65.8353 160.577 65.5684 160.486C65.3014 160.395 65.0801 160.268 64.9043 160.105C64.7285 159.949 64.5951 159.76 64.5039 159.539C64.4193 159.318 64.377 159.077 64.377 158.816C64.377 158.543 64.4258 158.299 64.5234 158.084C64.6276 157.869 64.7773 157.684 64.9727 157.527C65.2461 157.306 65.6139 157.143 66.0762 157.039C66.5449 156.928 67.0918 156.873 67.7168 156.873H69.3965V159.012C69.2923 159.22 69.1491 159.422 68.9668 159.617C68.7845 159.806 68.5697 159.975 68.3223 160.125C68.0684 160.275 67.7884 160.395 67.4824 160.486C67.1764 160.577 66.8477 160.623 66.4961 160.623Z" fill="black"/>
<defs>
<linearGradient id="paint0_linear" x1="123.5" y1="0" x2="123.5" y2="328" gradientUnits="userSpaceOnUse">
<stop stop-color="#9D1A1A"/>
<stop offset="1" stop-color="white" stop-opacity="0"/>
</linearGradient>
<linearGradient id="paint1_linear" x1="123.5" y1="0" x2="123.5" y2="328" gradientUnits="userSpaceOnUse">
<stop stop-color="#CFCED6"/>
<stop offset="1" stop-color="#B7C0F2"/>
</linearGradient>
</defs>
</svg>
