<svg width="247" height="328" viewBox="0 0 247 328" fill="none" xmlns="http://www.w3.org/2000/svg">
<rect width="247" height="328" rx="8" fill="url(#paint0_linear)"/>
<rect width="247" height="328" rx="8" fill="url(#paint1_linear)"/>
<path d="M26.623 40.6685L26.5864 34.1499H20.8247V36.0542H24.438L24.4136 40.0459C24.2264 40.3145 23.9945 40.5342 23.7178 40.7051C23.4411 40.8678 23.144 40.998 22.8267 41.0957C22.5093 41.1934 22.1797 41.2585 21.8379 41.291C21.5042 41.3236 21.1828 41.3358 20.8735 41.3276C20.3364 41.3195 19.8563 41.2259 19.4331 41.0469C19.0099 40.8597 18.6396 40.6115 18.3223 40.3022C17.9967 39.993 17.7201 39.6349 17.4922 39.228C17.2643 38.8211 17.0771 38.3898 16.9307 37.9341C16.7842 37.4784 16.6743 37.0145 16.6011 36.5425C16.536 36.0623 16.4993 35.5985 16.4912 35.1509V33.0635C16.4912 32.624 16.5197 32.1683 16.5767 31.6963C16.6336 31.2243 16.7272 30.7604 16.8574 30.3047C16.9876 29.849 17.1545 29.4176 17.3579 29.0107C17.5614 28.5957 17.8177 28.2336 18.127 27.9243C18.4362 27.6151 18.7983 27.3709 19.2134 27.1919C19.6284 27.0047 20.1045 26.9111 20.6416 26.9111C21.2031 26.9111 21.6955 27.0007 22.1187 27.1797C22.5418 27.3506 22.908 27.5907 23.2173 27.8999C23.5184 28.2091 23.7625 28.5835 23.9497 29.0229C24.1369 29.4543 24.2752 29.9263 24.3647 30.439H26.5986C26.5254 29.6089 26.3301 28.8602 26.0127 28.1929C25.6953 27.5174 25.2762 26.9396 24.7554 26.4595C24.2345 25.9875 23.6242 25.6253 22.9243 25.373C22.2244 25.1126 21.4595 24.9824 20.6294 24.9824C19.8807 24.9824 19.2052 25.0923 18.603 25.312C18.0008 25.5317 17.4637 25.8288 16.9917 26.2031C16.5116 26.5856 16.1006 27.0373 15.7588 27.5581C15.417 28.0708 15.1322 28.6283 14.9043 29.2305C14.6764 29.8327 14.5055 30.4634 14.3916 31.1226C14.2858 31.7736 14.2288 32.4287 14.2207 33.0879V35.1509C14.2288 35.8182 14.2939 36.4814 14.416 37.1406C14.5462 37.7917 14.7375 38.4142 14.9897 39.0083C15.2339 39.6105 15.5391 40.168 15.9053 40.6807C16.2715 41.1934 16.6987 41.6369 17.187 42.0112C17.6753 42.3937 18.2246 42.6948 18.835 42.9146C19.4535 43.1261 20.1289 43.236 20.8613 43.2441C21.5856 43.2523 22.2773 43.1709 22.9365 43C23.5957 42.8372 24.2101 42.585 24.7798 42.2432C25.1134 42.0479 25.4349 41.82 25.7441 41.5596C26.0534 41.291 26.3464 40.994 26.623 40.6685ZM29.5039 36.2739V36.5425C29.5039 37.4946 29.6423 38.3776 29.9189 39.1914C30.1956 40.0052 30.5944 40.7132 31.1152 41.3154C31.6279 41.9176 32.2546 42.3896 32.9951 42.7314C33.7438 43.0732 34.5861 43.2441 35.522 43.2441C36.4497 43.2441 37.2839 43.0732 38.0244 42.7314C38.765 42.3896 39.3957 41.9176 39.9165 41.3154C40.4292 40.7132 40.8239 40.0052 41.1006 39.1914C41.3773 38.3776 41.5156 37.4946 41.5156 36.5425V36.2739C41.5156 35.3218 41.3773 34.4388 41.1006 33.625C40.8239 32.8031 40.4292 32.091 39.9165 31.4888C39.3957 30.8866 38.7609 30.4146 38.0122 30.0728C37.2716 29.7228 36.4334 29.5479 35.4976 29.5479C34.5698 29.5479 33.7357 29.7228 32.9951 30.0728C32.2546 30.4146 31.6279 30.8866 31.1152 31.4888C30.5944 32.091 30.1956 32.8031 29.9189 33.625C29.6423 34.4388 29.5039 35.3218 29.5039 36.2739ZM31.7622 36.5425V36.2739C31.7622 35.631 31.8395 35.0166 31.9941 34.4307C32.1488 33.8366 32.3848 33.3158 32.7021 32.8682C33.0114 32.4206 33.3979 32.0666 33.8618 31.8062C34.3257 31.5376 34.8709 31.4033 35.4976 31.4033C36.1242 31.4033 36.6694 31.5376 37.1333 31.8062C37.6053 32.0666 38 32.4206 38.3174 32.8682C38.6266 33.3158 38.8586 33.8366 39.0132 34.4307C39.1759 35.0166 39.2573 35.631 39.2573 36.2739V36.5425C39.2573 37.1935 39.18 37.8161 39.0254 38.4102C38.8708 38.9961 38.6388 39.5129 38.3296 39.9604C38.0122 40.408 37.6175 40.762 37.1455 41.0225C36.6816 41.2829 36.1405 41.4131 35.522 41.4131C34.8953 41.4131 34.346 41.2829 33.874 41.0225C33.402 40.762 33.0114 40.408 32.7021 39.9604C32.3848 39.5129 32.1488 38.9961 31.9941 38.4102C31.8395 37.8161 31.7622 37.1935 31.7622 36.5425ZM50.5 26.5938H48.2295V29.792H44.7627V31.5376H48.2295V38.7153C48.2295 39.5291 48.3353 40.2249 48.5469 40.8027C48.7666 41.3724 49.0636 41.8363 49.438 42.1943C49.8123 42.5605 50.2518 42.8291 50.7563 43C51.269 43.1628 51.8184 43.2441 52.4043 43.2441C52.7542 43.2441 53.1042 43.2279 53.4541 43.1953C53.8122 43.1628 54.1499 43.1139 54.4673 43.0488C54.7847 42.9919 55.0776 42.9227 55.3462 42.8413C55.6147 42.7518 55.8426 42.6501 56.0298 42.5361L55.7124 40.937C55.5741 40.9696 55.395 41.0103 55.1753 41.0591C54.9637 41.0998 54.7358 41.1405 54.4917 41.1812C54.2394 41.2218 53.9831 41.2585 53.7227 41.291C53.4622 41.3154 53.21 41.3276 52.9658 41.3276C52.6322 41.3276 52.3148 41.2869 52.0137 41.2056C51.7207 41.1242 51.4603 40.9818 51.2324 40.7783C51.0046 40.583 50.8255 40.3185 50.6953 39.9849C50.5651 39.6512 50.5 39.228 50.5 38.7153V31.5376H55.5293V29.792H50.5V26.5938ZM65.5146 26.5938H63.2441V29.792H59.7773V31.5376H63.2441V38.7153C63.2441 39.5291 63.3499 40.2249 63.5615 40.8027C63.7812 41.3724 64.0783 41.8363 64.4526 42.1943C64.827 42.5605 65.2664 42.8291 65.771 43C66.2837 43.1628 66.833 43.2441 67.4189 43.2441C67.7689 43.2441 68.1188 43.2279 68.4688 43.1953C68.8268 43.1628 69.1646 43.1139 69.4819 43.0488C69.7993 42.9919 70.0923 42.9227 70.3608 42.8413C70.6294 42.7518 70.8573 42.6501 71.0444 42.5361L70.7271 40.937C70.5887 40.9696 70.4097 41.0103 70.1899 41.0591C69.9784 41.0998 69.7505 41.1405 69.5063 41.1812C69.2541 41.2218 68.9977 41.2585 68.7373 41.291C68.4769 41.3154 68.2246 41.3276 67.9805 41.3276C67.6468 41.3276 67.3294 41.2869 67.0283 41.2056C66.7354 41.1242 66.4749 40.9818 66.2471 40.7783C66.0192 40.583 65.8402 40.3185 65.71 39.9849C65.5798 39.6512 65.5146 39.228 65.5146 38.7153V31.5376H70.5439V29.792H65.5146V26.5938ZM83.8618 43H86.2178V42.8047C86.0713 42.4385 85.9574 42.0112 85.876 41.5229C85.7946 41.0265 85.7539 40.5586 85.7539 40.1191V33.979C85.7539 33.2384 85.6196 32.5915 85.3511 32.0381C85.0825 31.4847 84.7163 31.0208 84.2524 30.6465C83.7804 30.2803 83.223 30.0076 82.5801 29.8286C81.9372 29.6414 81.2414 29.5479 80.4927 29.5479C79.6707 29.5479 78.9342 29.6618 78.2832 29.8896C77.6403 30.1175 77.0951 30.4146 76.6475 30.7808C76.1917 31.1551 75.8418 31.5742 75.5977 32.0381C75.3617 32.502 75.2396 32.974 75.2314 33.4541H77.502C77.502 33.1774 77.5671 32.9129 77.6973 32.6606C77.8356 32.4002 78.0269 32.1764 78.271 31.9893C78.5151 31.8021 78.8122 31.6515 79.1621 31.5376C79.5202 31.4237 79.923 31.3667 80.3706 31.3667C80.8507 31.3667 81.2821 31.4277 81.6646 31.5498C82.0552 31.6719 82.3848 31.8428 82.6533 32.0625C82.9219 32.2904 83.1294 32.563 83.2759 32.8804C83.4224 33.1978 83.4956 33.5558 83.4956 33.9546V34.9922H81.0298C80.1102 34.9922 79.276 35.0817 78.5273 35.2607C77.7868 35.4398 77.152 35.7083 76.623 36.0664C76.0941 36.4326 75.6831 36.8883 75.3901 37.4336C75.1053 37.9788 74.9629 38.6136 74.9629 39.3379C74.9629 39.8913 75.0687 40.408 75.2803 40.8882C75.5 41.3602 75.8092 41.7671 76.208 42.1089C76.5986 42.4588 77.0747 42.7355 77.6362 42.939C78.2059 43.1424 78.8407 43.2441 79.5405 43.2441C79.9718 43.2441 80.3787 43.1994 80.7612 43.1099C81.1437 43.0203 81.5059 42.8983 81.8477 42.7437C82.1813 42.589 82.4865 42.41 82.7632 42.2065C83.048 42.0031 83.3044 41.7874 83.5322 41.5596C83.5566 41.8363 83.5933 42.1048 83.6421 42.3652C83.6991 42.6175 83.7723 42.8291 83.8618 43ZM79.8701 41.2788C79.4307 41.2788 79.0441 41.2218 78.7104 41.1079C78.3768 40.994 78.1001 40.8353 77.8804 40.6318C77.6606 40.4365 77.4938 40.2005 77.3799 39.9238C77.2741 39.6471 77.2212 39.346 77.2212 39.0205C77.2212 38.6787 77.2822 38.3735 77.4043 38.105C77.5345 37.8364 77.7217 37.6045 77.9658 37.4092C78.3076 37.1325 78.7674 36.929 79.3452 36.7988C79.9312 36.6605 80.6147 36.5913 81.396 36.5913H83.4956V39.2646C83.3654 39.5251 83.1864 39.7773 82.9585 40.0215C82.7306 40.2575 82.4621 40.4691 82.1528 40.6562C81.8354 40.8434 81.4855 40.994 81.103 41.1079C80.7205 41.2218 80.3096 41.2788 79.8701 41.2788ZM105.566 24.25V26.2153H110.058V41.0469H105.566V43H116.625V41.0469H112.316V24.25H105.566ZM119.592 36.2739V36.5425C119.592 37.4946 119.73 38.3776 120.007 39.1914C120.284 40.0052 120.682 40.7132 121.203 41.3154C121.716 41.9176 122.342 42.3896 123.083 42.7314C123.832 43.0732 124.674 43.2441 125.61 43.2441C126.538 43.2441 127.372 43.0732 128.112 42.7314C128.853 42.3896 129.484 41.9176 130.004 41.3154C130.517 40.7132 130.912 40.0052 131.188 39.1914C131.465 38.3776 131.604 37.4946 131.604 36.5425V36.2739C131.604 35.3218 131.465 34.4388 131.188 33.625C130.912 32.8031 130.517 32.091 130.004 31.4888C129.484 30.8866 128.849 30.4146 128.1 30.0728C127.36 29.7228 126.521 29.5479 125.585 29.5479C124.658 29.5479 123.824 29.7228 123.083 30.0728C122.342 30.4146 121.716 30.8866 121.203 31.4888C120.682 32.091 120.284 32.8031 120.007 33.625C119.73 34.4388 119.592 35.3218 119.592 36.2739ZM121.85 36.5425V36.2739C121.85 35.631 121.927 35.0166 122.082 34.4307C122.237 33.8366 122.473 33.3158 122.79 32.8682C123.099 32.4206 123.486 32.0666 123.95 31.8062C124.414 31.5376 124.959 31.4033 125.585 31.4033C126.212 31.4033 126.757 31.5376 127.221 31.8062C127.693 32.0666 128.088 32.4206 128.405 32.8682C128.715 33.3158 128.946 33.8366 129.101 34.4307C129.264 35.0166 129.345 35.631 129.345 36.2739V36.5425C129.345 37.1935 129.268 37.8161 129.113 38.4102C128.959 38.9961 128.727 39.5129 128.417 39.9604C128.1 40.408 127.705 40.762 127.233 41.0225C126.77 41.2829 126.228 41.4131 125.61 41.4131C124.983 41.4131 124.434 41.2829 123.962 41.0225C123.49 40.762 123.099 40.408 122.79 39.9604C122.473 39.5129 122.237 38.9961 122.082 38.4102C121.927 37.8161 121.85 37.1935 121.85 36.5425ZM139.746 43H141.467L146.85 29.792H144.543L140.844 39.7529L140.625 40.5708L140.417 39.7529L136.633 29.792H134.313L139.746 43ZM156.091 43.2441C157.377 43.2441 158.455 42.9878 159.326 42.4751C160.205 41.9543 160.864 41.3602 161.303 40.6929L159.924 39.6187C159.509 40.1558 158.988 40.5871 158.361 40.9126C157.735 41.2381 157.019 41.4009 156.213 41.4009C155.603 41.4009 155.045 41.2869 154.541 41.0591C154.036 40.8312 153.605 40.5179 153.247 40.1191C152.897 39.7448 152.62 39.3135 152.417 38.8252C152.221 38.3369 152.095 37.7713 152.038 37.1284V37.043H161.474V36.0298C161.474 35.1102 161.356 34.2557 161.12 33.4663C160.892 32.6769 160.542 31.9893 160.07 31.4033C159.598 30.8255 159.004 30.3739 158.288 30.0483C157.58 29.7147 156.75 29.5479 155.798 29.5479C155.041 29.5479 154.3 29.7025 153.576 30.0117C152.86 30.321 152.221 30.7645 151.66 31.3423C151.09 31.9282 150.634 32.6444 150.292 33.4907C149.951 34.3289 149.78 35.2811 149.78 36.3472V36.8599C149.78 37.7795 149.934 38.6299 150.244 39.4111C150.553 40.1924 150.984 40.8678 151.538 41.4375C152.091 42.0072 152.754 42.4507 153.527 42.7681C154.309 43.0854 155.163 43.2441 156.091 43.2441ZM155.798 31.4033C156.376 31.4033 156.872 31.5091 157.287 31.7207C157.71 31.9323 158.06 32.209 158.337 32.5508C158.614 32.8926 158.829 33.2995 158.984 33.7715C159.139 34.2354 159.216 34.6707 159.216 35.0776V35.1875H152.111C152.201 34.5771 152.355 34.04 152.575 33.5762C152.803 33.1042 153.08 32.7054 153.405 32.3799C153.731 32.0625 154.097 31.8224 154.504 31.6597C154.911 31.4888 155.342 31.4033 155.798 31.4033ZM26.623 73.6685L26.5864 67.1499H20.8247V69.0542H24.438L24.4136 73.0459C24.2264 73.3145 23.9945 73.5342 23.7178 73.7051C23.4411 73.8678 23.144 73.998 22.8267 74.0957C22.5093 74.1934 22.1797 74.2585 21.8379 74.291C21.5042 74.3236 21.1828 74.3358 20.8735 74.3276C20.3364 74.3195 19.8563 74.2259 19.4331 74.0469C19.0099 73.8597 18.6396 73.6115 18.3223 73.3022C17.9967 72.993 17.7201 72.6349 17.4922 72.228C17.2643 71.8211 17.0771 71.3898 16.9307 70.9341C16.7842 70.4784 16.6743 70.0145 16.6011 69.5425C16.536 69.0623 16.4993 68.5985 16.4912 68.1509V66.0635C16.4912 65.624 16.5197 65.1683 16.5767 64.6963C16.6336 64.2243 16.7272 63.7604 16.8574 63.3047C16.9876 62.849 17.1545 62.4176 17.3579 62.0107C17.5614 61.5957 17.8177 61.2336 18.127 60.9243C18.4362 60.6151 18.7983 60.3709 19.2134 60.1919C19.6284 60.0047 20.1045 59.9111 20.6416 59.9111C21.2031 59.9111 21.6955 60.0007 22.1187 60.1797C22.5418 60.3506 22.908 60.5907 23.2173 60.8999C23.5184 61.2091 23.7625 61.5835 23.9497 62.0229C24.1369 62.4543 24.2752 62.9263 24.3647 63.439H26.5986C26.5254 62.6089 26.3301 61.8602 26.0127 61.1929C25.6953 60.5174 25.2762 59.9396 24.7554 59.4595C24.2345 58.9875 23.6242 58.6253 22.9243 58.373C22.2244 58.1126 21.4595 57.9824 20.6294 57.9824C19.8807 57.9824 19.2052 58.0923 18.603 58.312C18.0008 58.5317 17.4637 58.8288 16.9917 59.2031C16.5116 59.5856 16.1006 60.0373 15.7588 60.5581C15.417 61.0708 15.1322 61.6283 14.9043 62.2305C14.6764 62.8327 14.5055 63.4634 14.3916 64.1226C14.2858 64.7736 14.2288 65.4287 14.2207 66.0879V68.1509C14.2288 68.8182 14.2939 69.4814 14.416 70.1406C14.5462 70.7917 14.7375 71.4142 14.9897 72.0083C15.2339 72.6105 15.5391 73.168 15.9053 73.6807C16.2715 74.1934 16.6987 74.6369 17.187 75.0112C17.6753 75.3937 18.2246 75.6948 18.835 75.9146C19.4535 76.1261 20.1289 76.236 20.8613 76.2441C21.5856 76.2523 22.2773 76.1709 22.9365 76C23.5957 75.8372 24.2101 75.585 24.7798 75.2432C25.1134 75.0479 25.4349 74.82 25.7441 74.5596C26.0534 74.291 26.3464 73.994 26.623 73.6685ZM29.5039 69.2739V69.5425C29.5039 70.4946 29.6423 71.3776 29.9189 72.1914C30.1956 73.0052 30.5944 73.7132 31.1152 74.3154C31.6279 74.9176 32.2546 75.3896 32.9951 75.7314C33.7438 76.0732 34.5861 76.2441 35.522 76.2441C36.4497 76.2441 37.2839 76.0732 38.0244 75.7314C38.765 75.3896 39.3957 74.9176 39.9165 74.3154C40.4292 73.7132 40.8239 73.0052 41.1006 72.1914C41.3773 71.3776 41.5156 70.4946 41.5156 69.5425V69.2739C41.5156 68.3218 41.3773 67.4388 41.1006 66.625C40.8239 65.8031 40.4292 65.091 39.9165 64.4888C39.3957 63.8866 38.7609 63.4146 38.0122 63.0728C37.2716 62.7228 36.4334 62.5479 35.4976 62.5479C34.5698 62.5479 33.7357 62.7228 32.9951 63.0728C32.2546 63.4146 31.6279 63.8866 31.1152 64.4888C30.5944 65.091 30.1956 65.8031 29.9189 66.625C29.6423 67.4388 29.5039 68.3218 29.5039 69.2739ZM31.7622 69.5425V69.2739C31.7622 68.631 31.8395 68.0166 31.9941 67.4307C32.1488 66.8366 32.3848 66.3158 32.7021 65.8682C33.0114 65.4206 33.3979 65.0666 33.8618 64.8062C34.3257 64.5376 34.8709 64.4033 35.4976 64.4033C36.1242 64.4033 36.6694 64.5376 37.1333 64.8062C37.6053 65.0666 38 65.4206 38.3174 65.8682C38.6266 66.3158 38.8586 66.8366 39.0132 67.4307C39.1759 68.0166 39.2573 68.631 39.2573 69.2739V69.5425C39.2573 70.1935 39.18 70.8161 39.0254 71.4102C38.8708 71.9961 38.6388 72.5129 38.3296 72.9604C38.0122 73.408 37.6175 73.762 37.1455 74.0225C36.6816 74.2829 36.1405 74.4131 35.522 74.4131C34.8953 74.4131 34.346 74.2829 33.874 74.0225C33.402 73.762 33.0114 73.408 32.7021 72.9604C32.3848 72.5129 32.1488 71.9961 31.9941 71.4102C31.8395 70.8161 31.7622 70.1935 31.7622 69.5425ZM44.7383 69.2861V69.5425C44.7383 70.4865 44.8604 71.3695 45.1045 72.1914C45.3486 73.0052 45.6986 73.7132 46.1543 74.3154C46.6019 74.9176 47.1512 75.3896 47.8022 75.7314C48.4533 76.0732 49.1816 76.2441 49.9873 76.2441C50.4674 76.2441 50.915 76.1912 51.3301 76.0854C51.7451 75.9878 52.1235 75.8454 52.4653 75.6582C52.6851 75.5361 52.8885 75.3937 53.0757 75.231C53.271 75.0682 53.4541 74.8892 53.625 74.6938V75.8291C53.625 76.3988 53.5436 76.9033 53.3809 77.3428C53.2181 77.7822 52.9862 78.1484 52.6851 78.4414C52.3758 78.7425 52.0055 78.9704 51.5742 79.125C51.1429 79.2796 50.6587 79.3569 50.1216 79.3569C49.8205 79.3569 49.5194 79.3244 49.2183 79.2593C48.9172 79.2023 48.616 79.1047 48.3149 78.9663C48.0138 78.828 47.7168 78.6408 47.4238 78.4048C47.1309 78.1769 46.846 77.8962 46.5693 77.5625L45.3975 78.9175C45.6986 79.3488 46.0566 79.7109 46.4717 80.0039C46.8949 80.2969 47.3343 80.5288 47.79 80.6997C48.2376 80.8787 48.6812 81.0049 49.1206 81.0781C49.5601 81.1595 49.9507 81.2002 50.2925 81.2002C51.1226 81.2002 51.8794 81.0781 52.563 80.834C53.2466 80.5898 53.8366 80.2318 54.333 79.7598C54.8213 79.2878 55.1997 78.714 55.4683 78.0386C55.745 77.3631 55.8833 76.59 55.8833 75.7192V62.792H53.8325L53.7227 64.2324C53.568 64.0371 53.4012 63.8581 53.2222 63.6953C53.0513 63.5326 52.8682 63.3901 52.6729 63.2681C52.3148 63.0321 51.9119 62.853 51.4644 62.731C51.0249 62.6089 50.5407 62.5479 50.0117 62.5479C49.1898 62.5479 48.4533 62.7147 47.8022 63.0483C47.1512 63.382 46.5978 63.8459 46.1421 64.4399C45.6864 65.034 45.3364 65.7461 45.0923 66.5762C44.8563 67.3981 44.7383 68.3014 44.7383 69.2861ZM46.9966 69.5425V69.2861C46.9966 68.6432 47.0617 68.0329 47.1919 67.4551C47.3302 66.8691 47.5459 66.3524 47.8389 65.9048C48.1237 65.4653 48.4899 65.1154 48.9375 64.855C49.3932 64.5946 49.9385 64.4644 50.5732 64.4644C50.9476 64.4644 51.2894 64.5132 51.5986 64.6108C51.9079 64.7004 52.1886 64.8265 52.4409 64.9893C52.6932 65.1602 52.917 65.3595 53.1123 65.5874C53.3076 65.8153 53.4785 66.0675 53.625 66.3442V72.3989C53.4785 72.6838 53.3076 72.9442 53.1123 73.1802C52.917 73.4162 52.6973 73.6196 52.4531 73.7905C52.2008 73.9614 51.916 74.0957 51.5986 74.1934C51.2894 74.2829 50.9395 74.3276 50.5488 74.3276C49.9222 74.3276 49.3851 74.2015 48.9375 73.9492C48.4899 73.6888 48.1237 73.3389 47.8389 72.8994C47.5459 72.46 47.3302 71.9513 47.1919 71.3735C47.0617 70.7957 46.9966 70.1854 46.9966 69.5425ZM62.4263 64.7573V57.25H60.168V76H62.4263V66.4053C62.589 66.1449 62.7721 65.9089 62.9756 65.6973C63.1872 65.4775 63.415 65.2863 63.6592 65.1235C63.9684 64.9119 64.3062 64.7492 64.6724 64.6353C65.0386 64.5213 65.4251 64.4644 65.832 64.4644C66.3285 64.4562 66.7679 64.5254 67.1504 64.6719C67.5329 64.8102 67.8503 65.0218 68.1025 65.3066C68.3385 65.5671 68.5176 65.8966 68.6396 66.2954C68.7617 66.686 68.8228 67.1418 68.8228 67.6626V76H71.0811V67.687C71.0811 66.8 70.9712 66.035 70.7515 65.3921C70.5399 64.741 70.2347 64.2039 69.8359 63.7808C69.4372 63.3576 68.953 63.0483 68.3833 62.853C67.8218 62.6496 67.1951 62.5479 66.5034 62.5479C65.9744 62.556 65.474 62.6333 65.002 62.7798C64.5381 62.9263 64.1108 63.1419 63.7202 63.4268C63.4761 63.5977 63.2441 63.797 63.0244 64.0249C62.8047 64.2446 62.6053 64.4888 62.4263 64.7573ZM81.4814 70.2505V58.2266H79.2109V70.2505H81.4814ZM78.9912 74.8159C78.9912 75.1903 79.1051 75.5036 79.333 75.7559C79.569 76.0081 79.9189 76.1343 80.3828 76.1343C80.8467 76.1343 81.1966 76.0081 81.4326 75.7559C81.6768 75.5036 81.7988 75.1903 81.7988 74.8159C81.7988 74.4253 81.6768 74.0998 81.4326 73.8394C81.1966 73.5789 80.8467 73.4487 80.3828 73.4487C79.9189 73.4487 79.569 73.5789 79.333 73.8394C79.1051 74.0998 78.9912 74.4253 78.9912 74.8159Z" fill="#DF5013"/>
<path d="M16.6719 130.297H19.4746C20.1126 130.29 20.7148 130.193 21.2812 130.004C21.8542 129.815 22.3555 129.542 22.7852 129.184C23.2148 128.826 23.5534 128.386 23.8008 127.865C24.0547 127.338 24.1816 126.732 24.1816 126.049C24.1816 125.365 24.0547 124.76 23.8008 124.232C23.5534 123.705 23.2148 123.262 22.7852 122.904C22.3555 122.546 21.8542 122.273 21.2812 122.084C20.7148 121.895 20.1126 121.794 19.4746 121.781H14.8652V136H16.6719V130.297ZM16.6719 128.812V123.266H19.4746C19.8913 123.272 20.2754 123.34 20.627 123.471C20.985 123.601 21.2943 123.786 21.5547 124.027C21.8086 124.268 22.0072 124.561 22.1504 124.906C22.3001 125.251 22.375 125.639 22.375 126.068C22.375 126.498 22.3001 126.882 22.1504 127.221C22.0072 127.553 21.8053 127.836 21.5449 128.07C21.2845 128.305 20.9785 128.487 20.627 128.617C20.2754 128.741 19.8913 128.806 19.4746 128.812H16.6719ZM33.6348 125.238C32.8665 125.238 32.1797 125.408 31.5742 125.746C30.9753 126.078 30.4609 126.534 30.0312 127.113L30.0215 126.85L29.9434 125.434H28.2246V136H30.041V129.223C30.1582 128.897 30.3047 128.604 30.4805 128.344C30.6628 128.077 30.8743 127.852 31.1152 127.67C31.3822 127.462 31.6947 127.305 32.0527 127.201C32.4108 127.09 32.8112 127.035 33.2539 127.035C33.599 127.035 33.9277 127.055 34.2402 127.094C34.5592 127.126 34.8945 127.182 35.2461 127.26L35.4902 125.492C35.3079 125.414 35.0345 125.352 34.6699 125.307C34.3118 125.261 33.9668 125.238 33.6348 125.238ZM45.666 136H47.5508V135.844C47.4336 135.551 47.3424 135.209 47.2773 134.818C47.2122 134.421 47.1797 134.047 47.1797 133.695V128.783C47.1797 128.191 47.0723 127.673 46.8574 127.23C46.6426 126.788 46.3496 126.417 45.9785 126.117C45.6009 125.824 45.1549 125.606 44.6406 125.463C44.1263 125.313 43.5697 125.238 42.9707 125.238C42.3132 125.238 41.724 125.329 41.2031 125.512C40.6888 125.694 40.2526 125.932 39.8945 126.225C39.5299 126.524 39.25 126.859 39.0547 127.23C38.8659 127.602 38.7682 127.979 38.7617 128.363H40.5781C40.5781 128.142 40.6302 127.93 40.7344 127.729C40.8451 127.52 40.998 127.341 41.1934 127.191C41.3887 127.042 41.6263 126.921 41.9062 126.83C42.1927 126.739 42.515 126.693 42.873 126.693C43.2572 126.693 43.6022 126.742 43.9082 126.84C44.2207 126.938 44.4844 127.074 44.6992 127.25C44.9141 127.432 45.0801 127.65 45.1973 127.904C45.3145 128.158 45.373 128.445 45.373 128.764V129.594H43.4004C42.6647 129.594 41.9974 129.665 41.3984 129.809C40.806 129.952 40.2982 130.167 39.875 130.453C39.4518 130.746 39.123 131.111 38.8887 131.547C38.6608 131.983 38.5469 132.491 38.5469 133.07C38.5469 133.513 38.6315 133.926 38.8008 134.311C38.9766 134.688 39.224 135.014 39.543 135.287C39.8555 135.567 40.2363 135.788 40.6855 135.951C41.1413 136.114 41.6491 136.195 42.209 136.195C42.554 136.195 42.8796 136.16 43.1855 136.088C43.4915 136.016 43.7812 135.919 44.0547 135.795C44.3216 135.671 44.5658 135.528 44.7871 135.365C45.015 135.202 45.2201 135.03 45.4023 134.848C45.4219 135.069 45.4512 135.284 45.4902 135.492C45.5358 135.694 45.5944 135.863 45.666 136ZM42.4727 134.623C42.1211 134.623 41.8118 134.577 41.5449 134.486C41.278 134.395 41.0566 134.268 40.8809 134.105C40.7051 133.949 40.5716 133.76 40.4805 133.539C40.3958 133.318 40.3535 133.077 40.3535 132.816C40.3535 132.543 40.4023 132.299 40.5 132.084C40.6042 131.869 40.7539 131.684 40.9492 131.527C41.2227 131.306 41.5905 131.143 42.0527 131.039C42.5215 130.928 43.0684 130.873 43.6934 130.873H45.373V133.012C45.2689 133.22 45.1257 133.422 44.9434 133.617C44.7611 133.806 44.5462 133.975 44.2988 134.125C44.0449 134.275 43.765 134.395 43.459 134.486C43.153 134.577 42.8242 134.623 42.4727 134.623ZM55.2363 134.73C54.6699 134.73 54.1947 134.62 53.8105 134.398C53.4329 134.171 53.1302 133.874 52.9023 133.51C52.668 133.152 52.4987 132.748 52.3945 132.299C52.2969 131.843 52.248 131.384 52.248 130.922V130.512C52.248 130.056 52.2969 129.604 52.3945 129.154C52.4987 128.705 52.668 128.298 52.9023 127.934C53.1367 127.576 53.4427 127.286 53.8203 127.064C54.2044 126.837 54.6764 126.723 55.2363 126.723C55.6009 126.723 55.9395 126.785 56.252 126.908C56.571 127.032 56.8444 127.201 57.0723 127.416C57.3001 127.631 57.4792 127.882 57.6094 128.168C57.7461 128.448 57.8177 128.747 57.8242 129.066H59.5332C59.5332 128.533 59.4258 128.031 59.2109 127.562C58.9961 127.094 58.6999 126.687 58.3223 126.342C57.9382 126.003 57.4824 125.736 56.9551 125.541C56.4342 125.339 55.8613 125.238 55.2363 125.238C54.4355 125.238 53.7357 125.382 53.1367 125.668C52.5378 125.954 52.0397 126.339 51.6426 126.82C51.2389 127.309 50.9362 127.872 50.7344 128.51C50.5326 129.148 50.4316 129.815 50.4316 130.512V130.922C50.4316 131.625 50.5326 132.296 50.7344 132.934C50.9362 133.565 51.2389 134.122 51.6426 134.604C52.0397 135.092 52.5378 135.479 53.1367 135.766C53.7357 136.052 54.4355 136.195 55.2363 136.195C55.7962 136.195 56.3333 136.101 56.8477 135.912C57.362 135.717 57.8177 135.456 58.2148 135.131C58.612 134.812 58.9277 134.441 59.1621 134.018C59.403 133.588 59.5267 133.139 59.5332 132.67H57.8242C57.8177 132.963 57.7396 133.236 57.5898 133.49C57.4466 133.738 57.2546 133.952 57.0137 134.135C56.7728 134.324 56.4961 134.47 56.1836 134.574C55.8776 134.678 55.5618 134.73 55.2363 134.73ZM67.0234 122.875H65.207V125.434H62.4336V126.83H65.207V132.572C65.207 133.223 65.2917 133.78 65.4609 134.242C65.6367 134.698 65.8743 135.069 66.1738 135.355C66.4733 135.648 66.8249 135.863 67.2285 136C67.6387 136.13 68.0781 136.195 68.5469 136.195C68.8268 136.195 69.1068 136.182 69.3867 136.156C69.6732 136.13 69.9434 136.091 70.1973 136.039C70.4512 135.993 70.6855 135.938 70.9004 135.873C71.1152 135.801 71.2975 135.72 71.4473 135.629L71.1934 134.35C71.0827 134.376 70.9395 134.408 70.7637 134.447C70.5944 134.48 70.4121 134.512 70.2168 134.545C70.015 134.577 69.8099 134.607 69.6016 134.633C69.3932 134.652 69.1914 134.662 68.9961 134.662C68.7292 134.662 68.4753 134.63 68.2344 134.564C68 134.499 67.7917 134.385 67.6094 134.223C67.4271 134.066 67.2839 133.855 67.1797 133.588C67.0755 133.321 67.0234 132.982 67.0234 132.572V126.83H71.0469V125.434H67.0234V122.875ZM75.041 125.434V127.006H78.6348V134.438H75.041V136H83.8887V134.438H80.4414V125.434H75.041ZM78.4004 122.66C78.4004 122.953 78.4883 123.197 78.6641 123.393C78.8464 123.588 79.1198 123.686 79.4844 123.686C79.8424 123.686 80.1126 123.588 80.2949 123.393C80.4772 123.197 80.5684 122.953 80.5684 122.66C80.5684 122.497 80.5423 122.348 80.4902 122.211C80.4382 122.074 80.36 121.96 80.2559 121.869C80.1712 121.785 80.0638 121.719 79.9336 121.674C79.8034 121.622 79.6536 121.596 79.4844 121.596C79.3151 121.596 79.1621 121.622 79.0254 121.674C78.8952 121.719 78.7878 121.785 78.7031 121.869C78.599 121.967 78.5208 122.084 78.4688 122.221C78.4232 122.357 78.4004 122.504 78.4004 122.66ZM91.2715 134.73C90.7051 134.73 90.2298 134.62 89.8457 134.398C89.4681 134.171 89.1654 133.874 88.9375 133.51C88.7031 133.152 88.5339 132.748 88.4297 132.299C88.332 131.843 88.2832 131.384 88.2832 130.922V130.512C88.2832 130.056 88.332 129.604 88.4297 129.154C88.5339 128.705 88.7031 128.298 88.9375 127.934C89.1719 127.576 89.4779 127.286 89.8555 127.064C90.2396 126.837 90.7116 126.723 91.2715 126.723C91.6361 126.723 91.9746 126.785 92.2871 126.908C92.6061 127.032 92.8796 127.201 93.1074 127.416C93.3353 127.631 93.5143 127.882 93.6445 128.168C93.7812 128.448 93.8529 128.747 93.8594 129.066H95.5684C95.5684 128.533 95.4609 128.031 95.2461 127.562C95.0312 127.094 94.735 126.687 94.3574 126.342C93.9733 126.003 93.5176 125.736 92.9902 125.541C92.4694 125.339 91.8965 125.238 91.2715 125.238C90.4707 125.238 89.7708 125.382 89.1719 125.668C88.5729 125.954 88.0749 126.339 87.6777 126.82C87.2741 127.309 86.9714 127.872 86.7695 128.51C86.5677 129.148 86.4668 129.815 86.4668 130.512V130.922C86.4668 131.625 86.5677 132.296 86.7695 132.934C86.9714 133.565 87.2741 134.122 87.6777 134.604C88.0749 135.092 88.5729 135.479 89.1719 135.766C89.7708 136.052 90.4707 136.195 91.2715 136.195C91.8314 136.195 92.3685 136.101 92.8828 135.912C93.3971 135.717 93.8529 135.456 94.25 135.131C94.6471 134.812 94.9629 134.441 95.1973 134.018C95.4382 133.588 95.5618 133.139 95.5684 132.67H93.8594C93.8529 132.963 93.7747 133.236 93.625 133.49C93.4818 133.738 93.2897 133.952 93.0488 134.135C92.8079 134.324 92.5312 134.47 92.2188 134.574C91.9128 134.678 91.597 134.73 91.2715 134.73ZM103.449 136.195C104.478 136.195 105.34 135.99 106.037 135.58C106.74 135.163 107.268 134.688 107.619 134.154L106.516 133.295C106.184 133.725 105.767 134.07 105.266 134.33C104.764 134.59 104.191 134.721 103.547 134.721C103.059 134.721 102.613 134.63 102.209 134.447C101.805 134.265 101.46 134.014 101.174 133.695C100.894 133.396 100.673 133.051 100.51 132.66C100.354 132.27 100.253 131.817 100.207 131.303V131.234H107.756V130.424C107.756 129.688 107.661 129.005 107.473 128.373C107.29 127.742 107.01 127.191 106.633 126.723C106.255 126.26 105.78 125.899 105.207 125.639C104.641 125.372 103.977 125.238 103.215 125.238C102.609 125.238 102.017 125.362 101.438 125.609C100.865 125.857 100.354 126.212 99.9043 126.674C99.4486 127.143 99.084 127.715 98.8105 128.393C98.5371 129.063 98.4004 129.825 98.4004 130.678V131.088C98.4004 131.824 98.5241 132.504 98.7715 133.129C99.0189 133.754 99.3639 134.294 99.8066 134.75C100.249 135.206 100.78 135.561 101.398 135.814C102.023 136.068 102.707 136.195 103.449 136.195ZM103.215 126.723C103.677 126.723 104.074 126.807 104.406 126.977C104.745 127.146 105.025 127.367 105.246 127.641C105.467 127.914 105.64 128.24 105.764 128.617C105.887 128.988 105.949 129.337 105.949 129.662V129.75H100.266C100.337 129.262 100.461 128.832 100.637 128.461C100.819 128.083 101.04 127.764 101.301 127.504C101.561 127.25 101.854 127.058 102.18 126.928C102.505 126.791 102.85 126.723 103.215 126.723ZM123.82 136H125.246L126.877 129.525L127.141 127.885L127.414 129.525L129.064 136H130.49L132.736 125.434H131.135L129.963 132.172L129.699 133.832L129.416 132.172L127.736 125.434H126.574L124.885 132.172L124.621 133.686L124.406 132.172L123.176 125.434H121.574L123.82 136ZM135.1 125.434V127.006H138.693V134.438H135.1V136H143.947V134.438H140.5V125.434H135.1ZM138.459 122.66C138.459 122.953 138.547 123.197 138.723 123.393C138.905 123.588 139.178 123.686 139.543 123.686C139.901 123.686 140.171 123.588 140.354 123.393C140.536 123.197 140.627 122.953 140.627 122.66C140.627 122.497 140.601 122.348 140.549 122.211C140.497 122.074 140.419 121.96 140.314 121.869C140.23 121.785 140.122 121.719 139.992 121.674C139.862 121.622 139.712 121.596 139.543 121.596C139.374 121.596 139.221 121.622 139.084 121.674C138.954 121.719 138.846 121.785 138.762 121.869C138.658 121.967 138.579 122.084 138.527 122.221C138.482 122.357 138.459 122.504 138.459 122.66ZM151.105 122.875H149.289V125.434H146.516V126.83H149.289V132.572C149.289 133.223 149.374 133.78 149.543 134.242C149.719 134.698 149.956 135.069 150.256 135.355C150.555 135.648 150.907 135.863 151.311 136C151.721 136.13 152.16 136.195 152.629 136.195C152.909 136.195 153.189 136.182 153.469 136.156C153.755 136.13 154.025 136.091 154.279 136.039C154.533 135.993 154.768 135.938 154.982 135.873C155.197 135.801 155.38 135.72 155.529 135.629L155.275 134.35C155.165 134.376 155.021 134.408 154.846 134.447C154.676 134.48 154.494 134.512 154.299 134.545C154.097 134.577 153.892 134.607 153.684 134.633C153.475 134.652 153.273 134.662 153.078 134.662C152.811 134.662 152.557 134.63 152.316 134.564C152.082 134.499 151.874 134.385 151.691 134.223C151.509 134.066 151.366 133.855 151.262 133.588C151.158 133.321 151.105 132.982 151.105 132.572V126.83H155.129V125.434H151.105V122.875ZM160.646 127.006V121H158.84V136H160.646V128.324C160.777 128.116 160.923 127.927 161.086 127.758C161.255 127.582 161.438 127.429 161.633 127.299C161.88 127.13 162.15 126.999 162.443 126.908C162.736 126.817 163.046 126.771 163.371 126.771C163.768 126.765 164.12 126.82 164.426 126.938C164.732 127.048 164.986 127.217 165.188 127.445C165.376 127.654 165.52 127.917 165.617 128.236C165.715 128.549 165.764 128.913 165.764 129.33V136H167.57V129.35C167.57 128.64 167.482 128.028 167.307 127.514C167.137 126.993 166.893 126.563 166.574 126.225C166.255 125.886 165.868 125.639 165.412 125.482C164.963 125.32 164.462 125.238 163.908 125.238C163.485 125.245 163.085 125.307 162.707 125.424C162.336 125.541 161.994 125.714 161.682 125.941C161.486 126.078 161.301 126.238 161.125 126.42C160.949 126.596 160.79 126.791 160.646 127.006ZM189.533 121.781V131.674C189.52 132.077 189.449 132.462 189.318 132.826C189.195 133.184 189.016 133.5 188.781 133.773C188.54 134.047 188.251 134.265 187.912 134.428C187.574 134.584 187.189 134.662 186.76 134.662C186.343 134.662 185.965 134.594 185.627 134.457C185.295 134.32 185.008 134.125 184.768 133.871C184.527 133.624 184.335 133.331 184.191 132.992C184.055 132.654 183.977 132.286 183.957 131.889H182.121C182.18 132.546 182.329 133.142 182.57 133.676C182.811 134.203 183.133 134.652 183.537 135.023C183.934 135.401 184.403 135.691 184.943 135.893C185.49 136.094 186.096 136.195 186.76 136.195C187.417 136.195 188.023 136.085 188.576 135.863C189.136 135.635 189.621 135.32 190.031 134.916C190.441 134.519 190.764 134.044 190.998 133.49C191.239 132.937 191.366 132.331 191.379 131.674V121.781H189.533ZM201.818 136H203.703V135.844C203.586 135.551 203.495 135.209 203.43 134.818C203.365 134.421 203.332 134.047 203.332 133.695V128.783C203.332 128.191 203.225 127.673 203.01 127.23C202.795 126.788 202.502 126.417 202.131 126.117C201.753 125.824 201.307 125.606 200.793 125.463C200.279 125.313 199.722 125.238 199.123 125.238C198.465 125.238 197.876 125.329 197.355 125.512C196.841 125.694 196.405 125.932 196.047 126.225C195.682 126.524 195.402 126.859 195.207 127.23C195.018 127.602 194.921 127.979 194.914 128.363H196.73C196.73 128.142 196.783 127.93 196.887 127.729C196.997 127.52 197.15 127.341 197.346 127.191C197.541 127.042 197.779 126.921 198.059 126.83C198.345 126.739 198.667 126.693 199.025 126.693C199.41 126.693 199.755 126.742 200.061 126.84C200.373 126.938 200.637 127.074 200.852 127.25C201.066 127.432 201.232 127.65 201.35 127.904C201.467 128.158 201.525 128.445 201.525 128.764V129.594H199.553C198.817 129.594 198.15 129.665 197.551 129.809C196.958 129.952 196.451 130.167 196.027 130.453C195.604 130.746 195.275 131.111 195.041 131.547C194.813 131.983 194.699 132.491 194.699 133.07C194.699 133.513 194.784 133.926 194.953 134.311C195.129 134.688 195.376 135.014 195.695 135.287C196.008 135.567 196.389 135.788 196.838 135.951C197.294 136.114 197.801 136.195 198.361 136.195C198.706 136.195 199.032 136.16 199.338 136.088C199.644 136.016 199.934 135.919 200.207 135.795C200.474 135.671 200.718 135.528 200.939 135.365C201.167 135.202 201.372 135.03 201.555 134.848C201.574 135.069 201.604 135.284 201.643 135.492C201.688 135.694 201.747 135.863 201.818 136ZM198.625 134.623C198.273 134.623 197.964 134.577 197.697 134.486C197.43 134.395 197.209 134.268 197.033 134.105C196.857 133.949 196.724 133.76 196.633 133.539C196.548 133.318 196.506 133.077 196.506 132.816C196.506 132.543 196.555 132.299 196.652 132.084C196.757 131.869 196.906 131.684 197.102 131.527C197.375 131.306 197.743 131.143 198.205 131.039C198.674 130.928 199.221 130.873 199.846 130.873H201.525V133.012C201.421 133.22 201.278 133.422 201.096 133.617C200.913 133.806 200.699 133.975 200.451 134.125C200.197 134.275 199.917 134.395 199.611 134.486C199.305 134.577 198.977 134.623 198.625 134.623ZM210.49 136H211.867L216.174 125.434H214.328L211.369 133.402L211.193 134.057L211.027 133.402L208 125.434H206.145L210.49 136ZM225.842 136H227.727V135.844C227.609 135.551 227.518 135.209 227.453 134.818C227.388 134.421 227.355 134.047 227.355 133.695V128.783C227.355 128.191 227.248 127.673 227.033 127.23C226.818 126.788 226.525 126.417 226.154 126.117C225.777 125.824 225.331 125.606 224.816 125.463C224.302 125.313 223.745 125.238 223.146 125.238C222.489 125.238 221.9 125.329 221.379 125.512C220.865 125.694 220.428 125.932 220.07 126.225C219.706 126.524 219.426 126.859 219.23 127.23C219.042 127.602 218.944 127.979 218.938 128.363H220.754C220.754 128.142 220.806 127.93 220.91 127.729C221.021 127.52 221.174 127.341 221.369 127.191C221.564 127.042 221.802 126.921 222.082 126.83C222.368 126.739 222.691 126.693 223.049 126.693C223.433 126.693 223.778 126.742 224.084 126.84C224.396 126.938 224.66 127.074 224.875 127.25C225.09 127.432 225.256 127.65 225.373 127.904C225.49 128.158 225.549 128.445 225.549 128.764V129.594H223.576C222.84 129.594 222.173 129.665 221.574 129.809C220.982 129.952 220.474 130.167 220.051 130.453C219.628 130.746 219.299 131.111 219.064 131.547C218.837 131.983 218.723 132.491 218.723 133.07C218.723 133.513 218.807 133.926 218.977 134.311C219.152 134.688 219.4 135.014 219.719 135.287C220.031 135.567 220.412 135.788 220.861 135.951C221.317 136.114 221.825 136.195 222.385 136.195C222.73 136.195 223.055 136.16 223.361 136.088C223.667 136.016 223.957 135.919 224.23 135.795C224.497 135.671 224.742 135.528 224.963 135.365C225.191 135.202 225.396 135.03 225.578 134.848C225.598 135.069 225.627 135.284 225.666 135.492C225.712 135.694 225.77 135.863 225.842 136ZM222.648 134.623C222.297 134.623 221.988 134.577 221.721 134.486C221.454 134.395 221.232 134.268 221.057 134.105C220.881 133.949 220.747 133.76 220.656 133.539C220.572 133.318 220.529 133.077 220.529 132.816C220.529 132.543 220.578 132.299 220.676 132.084C220.78 131.869 220.93 131.684 221.125 131.527C221.398 131.306 221.766 131.143 222.229 131.039C222.697 130.928 223.244 130.873 223.869 130.873H225.549V133.012C225.445 133.22 225.301 133.422 225.119 133.617C224.937 133.806 224.722 133.975 224.475 134.125C224.221 134.275 223.941 134.395 223.635 134.486C223.329 134.577 223 134.623 222.648 134.623ZM22.1406 158.406C22.1406 158.797 22.056 159.135 21.8867 159.422C21.7174 159.702 21.4993 159.933 21.2324 160.115C20.9655 160.304 20.6595 160.444 20.3145 160.535C19.9759 160.62 19.6309 160.662 19.2793 160.662C18.8366 160.662 18.4264 160.604 18.0488 160.486C17.6777 160.363 17.349 160.18 17.0625 159.939C16.776 159.705 16.5417 159.419 16.3594 159.08C16.1771 158.735 16.0566 158.341 15.998 157.898H14.1523C14.1719 158.51 14.3053 159.067 14.5527 159.568C14.8066 160.063 15.1484 160.496 15.5781 160.867C16.0599 161.297 16.6263 161.626 17.2773 161.854C17.9349 162.081 18.6022 162.195 19.2793 162.195C19.8457 162.195 20.4121 162.117 20.9785 161.961C21.5449 161.798 22.0527 161.557 22.502 161.238C22.9512 160.926 23.3158 160.532 23.5957 160.057C23.8822 159.581 24.0254 159.025 24.0254 158.387C24.0254 157.755 23.8919 157.199 23.625 156.717C23.3646 156.235 23.0195 155.828 22.5898 155.496C22.1536 155.138 21.6719 154.845 21.1445 154.617C20.6172 154.383 20.0898 154.184 19.5625 154.021C19.2435 153.924 18.9017 153.81 18.5371 153.68C18.179 153.549 17.847 153.387 17.541 153.191C17.2285 152.996 16.9714 152.758 16.7695 152.479C16.5677 152.192 16.4635 151.844 16.457 151.434C16.457 151.056 16.5319 150.724 16.6816 150.438C16.8379 150.151 17.0462 149.91 17.3066 149.715C17.5605 149.52 17.8503 149.373 18.1758 149.275C18.5078 149.178 18.8464 149.129 19.1914 149.129C19.6211 149.129 20.0052 149.197 20.3438 149.334C20.6888 149.464 20.985 149.65 21.2324 149.891C21.4798 150.132 21.6784 150.421 21.8281 150.76C21.9779 151.092 22.0788 151.463 22.1309 151.873H23.9863C23.9733 151.222 23.8333 150.633 23.5664 150.105C23.2995 149.578 22.9447 149.129 22.502 148.758C22.0592 148.387 21.5514 148.1 20.9785 147.898C20.4056 147.69 19.8099 147.586 19.1914 147.586C18.6315 147.586 18.0749 147.674 17.5215 147.85C16.9681 148.019 16.4733 148.27 16.0371 148.602C15.6009 148.934 15.2461 149.34 14.9727 149.822C14.7057 150.304 14.5723 150.851 14.5723 151.463C14.5723 152.075 14.7057 152.609 14.9727 153.064C15.2461 153.514 15.5977 153.904 16.0273 154.236C16.4505 154.562 16.9193 154.842 17.4336 155.076C17.9544 155.304 18.4655 155.499 18.9668 155.662C19.3118 155.773 19.6699 155.896 20.041 156.033C20.4186 156.17 20.7637 156.339 21.0762 156.541C21.3887 156.749 21.6426 157.003 21.8379 157.303C22.0397 157.602 22.1406 157.97 22.1406 158.406ZM31.2129 160.73C30.6465 160.73 30.1712 160.62 29.7871 160.398C29.4095 160.171 29.1068 159.874 28.8789 159.51C28.6445 159.152 28.4753 158.748 28.3711 158.299C28.2734 157.843 28.2246 157.384 28.2246 156.922V156.512C28.2246 156.056 28.2734 155.604 28.3711 155.154C28.4753 154.705 28.6445 154.298 28.8789 153.934C29.1133 153.576 29.4193 153.286 29.7969 153.064C30.181 152.837 30.653 152.723 31.2129 152.723C31.5775 152.723 31.916 152.785 32.2285 152.908C32.5475 153.032 32.821 153.201 33.0488 153.416C33.2767 153.631 33.4557 153.882 33.5859 154.168C33.7227 154.448 33.7943 154.747 33.8008 155.066H35.5098C35.5098 154.533 35.4023 154.031 35.1875 153.562C34.9727 153.094 34.6764 152.687 34.2988 152.342C33.9147 152.003 33.459 151.736 32.9316 151.541C32.4108 151.339 31.8379 151.238 31.2129 151.238C30.4121 151.238 29.7122 151.382 29.1133 151.668C28.5143 151.954 28.0163 152.339 27.6191 152.82C27.2155 153.309 26.9128 153.872 26.7109 154.51C26.5091 155.148 26.4082 155.815 26.4082 156.512V156.922C26.4082 157.625 26.5091 158.296 26.7109 158.934C26.9128 159.565 27.2155 160.122 27.6191 160.604C28.0163 161.092 28.5143 161.479 29.1133 161.766C29.7122 162.052 30.4121 162.195 31.2129 162.195C31.7728 162.195 32.3099 162.101 32.8242 161.912C33.3385 161.717 33.7943 161.456 34.1914 161.131C34.5885 160.812 34.9043 160.441 35.1387 160.018C35.3796 159.588 35.5033 159.139 35.5098 158.67H33.8008C33.7943 158.963 33.7161 159.236 33.5664 159.49C33.4232 159.738 33.2311 159.952 32.9902 160.135C32.7493 160.324 32.4727 160.47 32.1602 160.574C31.8542 160.678 31.5384 160.73 31.2129 160.73ZM45.6465 151.238C44.8783 151.238 44.1914 151.408 43.5859 151.746C42.987 152.078 42.4727 152.534 42.043 153.113L42.0332 152.85L41.9551 151.434H40.2363V162H42.0527V155.223C42.1699 154.897 42.3164 154.604 42.4922 154.344C42.6745 154.077 42.8861 153.852 43.127 153.67C43.3939 153.462 43.7064 153.305 44.0645 153.201C44.4225 153.09 44.8229 153.035 45.2656 153.035C45.6107 153.035 45.9395 153.055 46.252 153.094C46.571 153.126 46.9062 153.182 47.2578 153.26L47.502 151.492C47.3197 151.414 47.0462 151.352 46.6816 151.307C46.3236 151.261 45.9785 151.238 45.6465 151.238ZM51.0176 151.434V153.006H54.6113V160.438H51.0176V162H59.8652V160.438H56.418V151.434H51.0176ZM54.377 148.66C54.377 148.953 54.4648 149.197 54.6406 149.393C54.8229 149.588 55.0964 149.686 55.4609 149.686C55.819 149.686 56.0892 149.588 56.2715 149.393C56.4538 149.197 56.5449 148.953 56.5449 148.66C56.5449 148.497 56.5189 148.348 56.4668 148.211C56.4147 148.074 56.3366 147.96 56.2324 147.869C56.1478 147.785 56.0404 147.719 55.9102 147.674C55.7799 147.622 55.6302 147.596 55.4609 147.596C55.2917 147.596 55.1387 147.622 55.002 147.674C54.8717 147.719 54.7643 147.785 54.6797 147.869C54.5755 147.967 54.4974 148.084 54.4453 148.221C54.3997 148.357 54.377 148.504 54.377 148.66ZM62.7363 166.062H64.543V160.984C64.6732 161.128 64.8132 161.261 64.9629 161.385C65.1126 161.502 65.2721 161.609 65.4414 161.707C65.7214 161.863 66.0339 161.984 66.3789 162.068C66.7305 162.153 67.1081 162.195 67.5117 162.195C68.1758 162.195 68.765 162.059 69.2793 161.785C69.8001 161.512 70.2363 161.134 70.5879 160.652C70.9395 160.171 71.2064 159.604 71.3887 158.953C71.571 158.296 71.6621 157.589 71.6621 156.834V156.629C71.6621 155.841 71.571 155.118 71.3887 154.461C71.2064 153.797 70.9395 153.227 70.5879 152.752C70.2363 152.277 69.8001 151.906 69.2793 151.639C68.7585 151.372 68.1595 151.238 67.4824 151.238C67.0983 151.238 66.737 151.281 66.3984 151.365C66.0664 151.443 65.7637 151.561 65.4902 151.717C65.2949 151.821 65.1126 151.948 64.9434 152.098C64.7741 152.241 64.6178 152.404 64.4746 152.586L64.3867 151.434H62.7363V166.062ZM69.8555 156.629V156.834C69.8555 157.348 69.7969 157.84 69.6797 158.309C69.569 158.777 69.3965 159.191 69.1621 159.549C68.9277 159.907 68.6283 160.193 68.2637 160.408C67.8991 160.617 67.4661 160.721 66.9648 160.721C66.6523 160.721 66.3659 160.682 66.1055 160.604C65.8516 160.525 65.6204 160.418 65.4121 160.281C65.2298 160.164 65.0671 160.021 64.9238 159.852C64.7806 159.682 64.6536 159.5 64.543 159.305V154.217C64.6667 153.995 64.8099 153.794 64.9727 153.611C65.1354 153.429 65.321 153.276 65.5293 153.152C65.7181 153.029 65.9297 152.934 66.1641 152.869C66.4049 152.804 66.6654 152.771 66.9453 152.771C67.4531 152.771 67.8893 152.876 68.2539 153.084C68.6185 153.292 68.9212 153.572 69.1621 153.924C69.3965 154.282 69.569 154.695 69.6797 155.164C69.7969 155.626 69.8555 156.115 69.8555 156.629ZM79.0352 148.875H77.2188V151.434H74.4453V152.83H77.2188V158.572C77.2188 159.223 77.3034 159.78 77.4727 160.242C77.6484 160.698 77.8861 161.069 78.1855 161.355C78.485 161.648 78.8366 161.863 79.2402 162C79.6504 162.13 80.0898 162.195 80.5586 162.195C80.8385 162.195 81.1185 162.182 81.3984 162.156C81.6849 162.13 81.9551 162.091 82.209 162.039C82.4629 161.993 82.6973 161.938 82.9121 161.873C83.127 161.801 83.3092 161.72 83.459 161.629L83.2051 160.35C83.0944 160.376 82.9512 160.408 82.7754 160.447C82.6061 160.48 82.4238 160.512 82.2285 160.545C82.0267 160.577 81.8216 160.607 81.6133 160.633C81.4049 160.652 81.2031 160.662 81.0078 160.662C80.7409 160.662 80.487 160.63 80.2461 160.564C80.0117 160.499 79.8034 160.385 79.6211 160.223C79.4388 160.066 79.2956 159.855 79.1914 159.588C79.0872 159.321 79.0352 158.982 79.0352 158.572V152.83H83.0586V151.434H79.0352V148.875ZM89.9141 160.828C89.9141 161.206 90.0312 161.528 90.2656 161.795C90.5065 162.055 90.8613 162.186 91.3301 162.186C91.7923 162.186 92.1471 162.055 92.3945 161.795C92.6419 161.535 92.7656 161.212 92.7656 160.828C92.7656 160.438 92.6419 160.109 92.3945 159.842C92.1536 159.568 91.7988 159.432 91.3301 159.432C90.8548 159.432 90.5 159.568 90.2656 159.842C90.0312 160.115 89.9141 160.444 89.9141 160.828ZM101.926 160.828C101.926 161.206 102.043 161.528 102.277 161.795C102.518 162.055 102.873 162.186 103.342 162.186C103.804 162.186 104.159 162.055 104.406 161.795C104.654 161.535 104.777 161.212 104.777 160.828C104.777 160.438 104.654 160.109 104.406 159.842C104.165 159.568 103.811 159.432 103.342 159.432C102.867 159.432 102.512 159.568 102.277 159.842C102.043 160.115 101.926 160.444 101.926 160.828ZM113.938 160.828C113.938 161.206 114.055 161.528 114.289 161.795C114.53 162.055 114.885 162.186 115.354 162.186C115.816 162.186 116.171 162.055 116.418 161.795C116.665 161.535 116.789 161.212 116.789 160.828C116.789 160.438 116.665 160.109 116.418 159.842C116.177 159.568 115.822 159.432 115.354 159.432C114.878 159.432 114.523 159.568 114.289 159.842C114.055 160.115 113.938 160.444 113.938 160.828ZM135.1 151.434V153.006H138.693V160.438H135.1V162H143.947V160.438H140.5V151.434H135.1ZM138.459 148.66C138.459 148.953 138.547 149.197 138.723 149.393C138.905 149.588 139.178 149.686 139.543 149.686C139.901 149.686 140.171 149.588 140.354 149.393C140.536 149.197 140.627 148.953 140.627 148.66C140.627 148.497 140.601 148.348 140.549 148.211C140.497 148.074 140.419 147.96 140.314 147.869C140.23 147.785 140.122 147.719 139.992 147.674C139.862 147.622 139.712 147.596 139.543 147.596C139.374 147.596 139.221 147.622 139.084 147.674C138.954 147.719 138.846 147.785 138.762 147.869C138.658 147.967 138.579 148.084 138.527 148.221C138.482 148.357 138.459 148.504 138.459 148.66ZM151.105 148.875H149.289V151.434H146.516V152.83H149.289V158.572C149.289 159.223 149.374 159.78 149.543 160.242C149.719 160.698 149.956 161.069 150.256 161.355C150.555 161.648 150.907 161.863 151.311 162C151.721 162.13 152.16 162.195 152.629 162.195C152.909 162.195 153.189 162.182 153.469 162.156C153.755 162.13 154.025 162.091 154.279 162.039C154.533 161.993 154.768 161.938 154.982 161.873C155.197 161.801 155.38 161.72 155.529 161.629L155.275 160.35C155.165 160.376 155.021 160.408 154.846 160.447C154.676 160.48 154.494 160.512 154.299 160.545C154.097 160.577 153.892 160.607 153.684 160.633C153.475 160.652 153.273 160.662 153.078 160.662C152.811 160.662 152.557 160.63 152.316 160.564C152.082 160.499 151.874 160.385 151.691 160.223C151.509 160.066 151.366 159.855 151.262 159.588C151.158 159.321 151.105 158.982 151.105 158.572V152.83H155.129V151.434H151.105V148.875ZM171.867 162H173.293L174.924 155.525L175.188 153.885L175.461 155.525L177.111 162H178.537L180.783 151.434H179.182L178.01 158.172L177.746 159.832L177.463 158.172L175.783 151.434H174.621L172.932 158.172L172.668 159.686L172.453 158.172L171.223 151.434H169.621L171.867 162ZM189.807 162H191.691V161.844C191.574 161.551 191.483 161.209 191.418 160.818C191.353 160.421 191.32 160.047 191.32 159.695V154.783C191.32 154.191 191.213 153.673 190.998 153.23C190.783 152.788 190.49 152.417 190.119 152.117C189.742 151.824 189.296 151.606 188.781 151.463C188.267 151.313 187.71 151.238 187.111 151.238C186.454 151.238 185.865 151.329 185.344 151.512C184.829 151.694 184.393 151.932 184.035 152.225C183.671 152.524 183.391 152.859 183.195 153.23C183.007 153.602 182.909 153.979 182.902 154.363H184.719C184.719 154.142 184.771 153.93 184.875 153.729C184.986 153.52 185.139 153.341 185.334 153.191C185.529 153.042 185.767 152.921 186.047 152.83C186.333 152.739 186.656 152.693 187.014 152.693C187.398 152.693 187.743 152.742 188.049 152.84C188.361 152.938 188.625 153.074 188.84 153.25C189.055 153.432 189.221 153.65 189.338 153.904C189.455 154.158 189.514 154.445 189.514 154.764V155.594H187.541C186.805 155.594 186.138 155.665 185.539 155.809C184.947 155.952 184.439 156.167 184.016 156.453C183.592 156.746 183.264 157.111 183.029 157.547C182.801 157.983 182.688 158.491 182.688 159.07C182.688 159.513 182.772 159.926 182.941 160.311C183.117 160.688 183.365 161.014 183.684 161.287C183.996 161.567 184.377 161.788 184.826 161.951C185.282 162.114 185.79 162.195 186.35 162.195C186.695 162.195 187.02 162.16 187.326 162.088C187.632 162.016 187.922 161.919 188.195 161.795C188.462 161.671 188.706 161.528 188.928 161.365C189.156 161.202 189.361 161.03 189.543 160.848C189.562 161.069 189.592 161.284 189.631 161.492C189.676 161.694 189.735 161.863 189.807 162ZM186.613 160.623C186.262 160.623 185.952 160.577 185.686 160.486C185.419 160.395 185.197 160.268 185.021 160.105C184.846 159.949 184.712 159.76 184.621 159.539C184.536 159.318 184.494 159.077 184.494 158.816C184.494 158.543 184.543 158.299 184.641 158.084C184.745 157.869 184.895 157.684 185.09 157.527C185.363 157.306 185.731 157.143 186.193 157.039C186.662 156.928 187.209 156.873 187.834 156.873H189.514V159.012C189.41 159.22 189.266 159.422 189.084 159.617C188.902 159.806 188.687 159.975 188.439 160.125C188.186 160.275 187.906 160.395 187.6 160.486C187.294 160.577 186.965 160.623 186.613 160.623ZM201.896 159.197C201.896 159.367 201.864 159.526 201.799 159.676C201.734 159.826 201.639 159.962 201.516 160.086C201.314 160.288 201.034 160.447 200.676 160.564C200.318 160.675 199.898 160.73 199.416 160.73C199.11 160.73 198.801 160.698 198.488 160.633C198.176 160.568 197.893 160.457 197.639 160.301C197.378 160.145 197.16 159.939 196.984 159.686C196.815 159.432 196.717 159.119 196.691 158.748H194.885C194.885 159.197 194.986 159.63 195.188 160.047C195.396 160.464 195.695 160.828 196.086 161.141C196.47 161.46 196.942 161.717 197.502 161.912C198.062 162.101 198.7 162.195 199.416 162.195C200.041 162.195 200.617 162.12 201.145 161.971C201.672 161.821 202.124 161.609 202.502 161.336C202.88 161.062 203.173 160.734 203.381 160.35C203.596 159.965 203.703 159.539 203.703 159.07C203.703 158.634 203.609 158.25 203.42 157.918C203.238 157.586 202.971 157.293 202.619 157.039C202.268 156.792 201.835 156.58 201.32 156.404C200.806 156.222 200.223 156.062 199.572 155.926C199.077 155.828 198.667 155.727 198.342 155.623C198.023 155.519 197.769 155.402 197.58 155.271C197.385 155.141 197.248 154.995 197.17 154.832C197.092 154.669 197.053 154.484 197.053 154.275C197.053 154.074 197.102 153.878 197.199 153.689C197.297 153.501 197.443 153.335 197.639 153.191C197.827 153.048 198.065 152.934 198.352 152.85C198.645 152.765 198.983 152.723 199.367 152.723C199.738 152.723 200.07 152.775 200.363 152.879C200.663 152.983 200.917 153.12 201.125 153.289C201.333 153.458 201.496 153.654 201.613 153.875C201.73 154.09 201.789 154.311 201.789 154.539H203.596C203.596 154.077 203.495 153.647 203.293 153.25C203.098 152.846 202.818 152.495 202.453 152.195C202.089 151.896 201.646 151.661 201.125 151.492C200.604 151.323 200.018 151.238 199.367 151.238C198.762 151.238 198.205 151.32 197.697 151.482C197.196 151.645 196.763 151.867 196.398 152.146C196.034 152.426 195.751 152.755 195.549 153.133C195.347 153.504 195.246 153.904 195.246 154.334C195.246 154.77 195.344 155.154 195.539 155.486C195.734 155.812 196.011 156.095 196.369 156.336C196.721 156.583 197.144 156.795 197.639 156.971C198.14 157.146 198.693 157.296 199.299 157.42C199.794 157.518 200.207 157.628 200.539 157.752C200.871 157.869 201.138 157.999 201.34 158.143C201.542 158.286 201.685 158.445 201.77 158.621C201.854 158.79 201.896 158.982 201.896 159.197ZM21.7207 185.197C21.7207 185.367 21.6882 185.526 21.623 185.676C21.5579 185.826 21.4635 185.962 21.3398 186.086C21.138 186.288 20.8581 186.447 20.5 186.564C20.1419 186.675 19.722 186.73 19.2402 186.73C18.9342 186.73 18.625 186.698 18.3125 186.633C18 186.568 17.7168 186.457 17.4629 186.301C17.2025 186.145 16.9844 185.939 16.8086 185.686C16.6393 185.432 16.5417 185.119 16.5156 184.748H14.709C14.709 185.197 14.8099 185.63 15.0117 186.047C15.2201 186.464 15.5195 186.828 15.9102 187.141C16.2943 187.46 16.7663 187.717 17.3262 187.912C17.8861 188.101 18.5241 188.195 19.2402 188.195C19.8652 188.195 20.4414 188.12 20.9688 187.971C21.4961 187.821 21.9486 187.609 22.3262 187.336C22.7038 187.062 22.9967 186.734 23.2051 186.35C23.4199 185.965 23.5273 185.539 23.5273 185.07C23.5273 184.634 23.4329 184.25 23.2441 183.918C23.0618 183.586 22.7949 183.293 22.4434 183.039C22.0918 182.792 21.6589 182.58 21.1445 182.404C20.6302 182.222 20.0475 182.062 19.3965 181.926C18.9017 181.828 18.4915 181.727 18.166 181.623C17.847 181.519 17.5931 181.402 17.4043 181.271C17.209 181.141 17.0723 180.995 16.9941 180.832C16.916 180.669 16.877 180.484 16.877 180.275C16.877 180.074 16.9258 179.878 17.0234 179.689C17.1211 179.501 17.2676 179.335 17.4629 179.191C17.6517 179.048 17.8893 178.934 18.1758 178.85C18.4688 178.765 18.8073 178.723 19.1914 178.723C19.5625 178.723 19.8945 178.775 20.1875 178.879C20.487 178.983 20.7409 179.12 20.9492 179.289C21.1576 179.458 21.3203 179.654 21.4375 179.875C21.5547 180.09 21.6133 180.311 21.6133 180.539H23.4199C23.4199 180.077 23.319 179.647 23.1172 179.25C22.9219 178.846 22.6419 178.495 22.2773 178.195C21.9128 177.896 21.4701 177.661 20.9492 177.492C20.4284 177.323 19.8424 177.238 19.1914 177.238C18.5859 177.238 18.0293 177.32 17.5215 177.482C17.0202 177.645 16.5872 177.867 16.2227 178.146C15.8581 178.426 15.5749 178.755 15.373 179.133C15.1712 179.504 15.0703 179.904 15.0703 180.334C15.0703 180.77 15.168 181.154 15.3633 181.486C15.5586 181.812 15.8353 182.095 16.1934 182.336C16.5449 182.583 16.9681 182.795 17.4629 182.971C17.9642 183.146 18.5176 183.296 19.123 183.42C19.6178 183.518 20.0312 183.628 20.3633 183.752C20.6953 183.869 20.9622 183.999 21.1641 184.143C21.3659 184.286 21.5091 184.445 21.5938 184.621C21.6784 184.79 21.7207 184.982 21.7207 185.197ZM31.2129 186.73C30.6465 186.73 30.1712 186.62 29.7871 186.398C29.4095 186.171 29.1068 185.874 28.8789 185.51C28.6445 185.152 28.4753 184.748 28.3711 184.299C28.2734 183.843 28.2246 183.384 28.2246 182.922V182.512C28.2246 182.056 28.2734 181.604 28.3711 181.154C28.4753 180.705 28.6445 180.298 28.8789 179.934C29.1133 179.576 29.4193 179.286 29.7969 179.064C30.181 178.837 30.653 178.723 31.2129 178.723C31.5775 178.723 31.916 178.785 32.2285 178.908C32.5475 179.032 32.821 179.201 33.0488 179.416C33.2767 179.631 33.4557 179.882 33.5859 180.168C33.7227 180.448 33.7943 180.747 33.8008 181.066H35.5098C35.5098 180.533 35.4023 180.031 35.1875 179.562C34.9727 179.094 34.6764 178.687 34.2988 178.342C33.9147 178.003 33.459 177.736 32.9316 177.541C32.4108 177.339 31.8379 177.238 31.2129 177.238C30.4121 177.238 29.7122 177.382 29.1133 177.668C28.5143 177.954 28.0163 178.339 27.6191 178.82C27.2155 179.309 26.9128 179.872 26.7109 180.51C26.5091 181.148 26.4082 181.815 26.4082 182.512V182.922C26.4082 183.625 26.5091 184.296 26.7109 184.934C26.9128 185.565 27.2155 186.122 27.6191 186.604C28.0163 187.092 28.5143 187.479 29.1133 187.766C29.7122 188.052 30.4121 188.195 31.2129 188.195C31.7728 188.195 32.3099 188.101 32.8242 187.912C33.3385 187.717 33.7943 187.456 34.1914 187.131C34.5885 186.812 34.9043 186.441 35.1387 186.018C35.3796 185.588 35.5033 185.139 35.5098 184.67H33.8008C33.7943 184.963 33.7161 185.236 33.5664 185.49C33.4232 185.738 33.2311 185.952 32.9902 186.135C32.7493 186.324 32.4727 186.47 32.1602 186.574C31.8542 186.678 31.5384 186.73 31.2129 186.73ZM45.666 188H47.5508V187.844C47.4336 187.551 47.3424 187.209 47.2773 186.818C47.2122 186.421 47.1797 186.047 47.1797 185.695V180.783C47.1797 180.191 47.0723 179.673 46.8574 179.23C46.6426 178.788 46.3496 178.417 45.9785 178.117C45.6009 177.824 45.1549 177.606 44.6406 177.463C44.1263 177.313 43.5697 177.238 42.9707 177.238C42.3132 177.238 41.724 177.329 41.2031 177.512C40.6888 177.694 40.2526 177.932 39.8945 178.225C39.5299 178.524 39.25 178.859 39.0547 179.23C38.8659 179.602 38.7682 179.979 38.7617 180.363H40.5781C40.5781 180.142 40.6302 179.93 40.7344 179.729C40.8451 179.52 40.998 179.341 41.1934 179.191C41.3887 179.042 41.6263 178.921 41.9062 178.83C42.1927 178.739 42.515 178.693 42.873 178.693C43.2572 178.693 43.6022 178.742 43.9082 178.84C44.2207 178.938 44.4844 179.074 44.6992 179.25C44.9141 179.432 45.0801 179.65 45.1973 179.904C45.3145 180.158 45.373 180.445 45.373 180.764V181.594H43.4004C42.6647 181.594 41.9974 181.665 41.3984 181.809C40.806 181.952 40.2982 182.167 39.875 182.453C39.4518 182.746 39.123 183.111 38.8887 183.547C38.6608 183.983 38.5469 184.491 38.5469 185.07C38.5469 185.513 38.6315 185.926 38.8008 186.311C38.9766 186.688 39.224 187.014 39.543 187.287C39.8555 187.567 40.2363 187.788 40.6855 187.951C41.1413 188.114 41.6491 188.195 42.209 188.195C42.554 188.195 42.8796 188.16 43.1855 188.088C43.4915 188.016 43.7812 187.919 44.0547 187.795C44.3216 187.671 44.5658 187.528 44.7871 187.365C45.015 187.202 45.2201 187.03 45.4023 186.848C45.4219 187.069 45.4512 187.284 45.4902 187.492C45.5358 187.694 45.5944 187.863 45.666 188ZM42.4727 186.623C42.1211 186.623 41.8118 186.577 41.5449 186.486C41.278 186.395 41.0566 186.268 40.8809 186.105C40.7051 185.949 40.5716 185.76 40.4805 185.539C40.3958 185.318 40.3535 185.077 40.3535 184.816C40.3535 184.543 40.4023 184.299 40.5 184.084C40.6042 183.869 40.7539 183.684 40.9492 183.527C41.2227 183.306 41.5905 183.143 42.0527 183.039C42.5215 182.928 43.0684 182.873 43.6934 182.873H45.373V185.012C45.2689 185.22 45.1257 185.422 44.9434 185.617C44.7611 185.806 44.5462 185.975 44.2988 186.125C44.0449 186.275 43.765 186.395 43.459 186.486C43.153 186.577 42.8242 186.623 42.4727 186.623ZM57.6582 177.238C56.89 177.238 56.2031 177.408 55.5977 177.746C54.9987 178.078 54.4844 178.534 54.0547 179.113L54.0449 178.85L53.9668 177.434H52.248V188H54.0645V181.223C54.1816 180.897 54.3281 180.604 54.5039 180.344C54.6862 180.077 54.8978 179.852 55.1387 179.67C55.4056 179.462 55.7181 179.305 56.0762 179.201C56.4342 179.09 56.8346 179.035 57.2773 179.035C57.6224 179.035 57.9512 179.055 58.2637 179.094C58.5827 179.126 58.918 179.182 59.2695 179.26L59.5137 177.492C59.3314 177.414 59.0579 177.352 58.6934 177.307C58.3353 177.261 57.9902 177.238 57.6582 177.238ZM63.5957 192.268C64.071 192.268 64.4909 192.18 64.8555 192.004C65.2201 191.828 65.5391 191.61 65.8125 191.35C66.0859 191.089 66.3171 190.806 66.5059 190.5C66.7012 190.194 66.8607 189.904 66.9844 189.631L72.3457 177.434H70.3242L67.5996 184.289L67.1016 185.529L66.6328 184.25L63.7324 177.434H61.7109L66.2617 187.502L65.5391 188.908C65.474 189.038 65.3828 189.204 65.2656 189.406C65.1549 189.608 65.0215 189.803 64.8652 189.992C64.7025 190.181 64.5169 190.344 64.3086 190.48C64.1068 190.617 63.8822 190.686 63.6348 190.686C63.5436 190.686 63.4167 190.679 63.2539 190.666C63.0977 190.66 62.9382 190.65 62.7754 190.637L62.4824 192.111C62.5996 192.137 62.7721 192.17 63 192.209C63.2279 192.248 63.4264 192.268 63.5957 192.268ZM77.9023 186.828C77.9023 187.206 78.0195 187.528 78.2539 187.795C78.4948 188.055 78.8496 188.186 79.3184 188.186C79.7806 188.186 80.1354 188.055 80.3828 187.795C80.6302 187.535 80.7539 187.212 80.7539 186.828C80.7539 186.438 80.6302 186.109 80.3828 185.842C80.1419 185.568 79.7871 185.432 79.3184 185.432C78.8431 185.432 78.4883 185.568 78.2539 185.842C78.0195 186.115 77.9023 186.444 77.9023 186.828ZM89.9141 186.828C89.9141 187.206 90.0312 187.528 90.2656 187.795C90.5065 188.055 90.8613 188.186 91.3301 188.186C91.7923 188.186 92.1471 188.055 92.3945 187.795C92.6419 187.535 92.7656 187.212 92.7656 186.828C92.7656 186.438 92.6419 186.109 92.3945 185.842C92.1536 185.568 91.7988 185.432 91.3301 185.432C90.8548 185.432 90.5 185.568 90.2656 185.842C90.0312 186.115 89.9141 186.444 89.9141 186.828ZM101.926 186.828C101.926 187.206 102.043 187.528 102.277 187.795C102.518 188.055 102.873 188.186 103.342 188.186C103.804 188.186 104.159 188.055 104.406 187.795C104.654 187.535 104.777 187.212 104.777 186.828C104.777 186.438 104.654 186.109 104.406 185.842C104.165 185.568 103.811 185.432 103.342 185.432C102.867 185.432 102.512 185.568 102.277 185.842C102.043 186.115 101.926 186.444 101.926 186.828Z" fill="black"/>
<defs>
<linearGradient id="paint0_linear" x1="123.5" y1="0" x2="123.5" y2="328" gradientUnits="userSpaceOnUse">
<stop stop-color="#9D1A1A"/>
<stop offset="1" stop-color="white" stop-opacity="0"/>
</linearGradient>
<linearGradient id="paint1_linear" x1="123.5" y1="0" x2="123.5" y2="328" gradientUnits="userSpaceOnUse">
<stop stop-color="#CFCED6"/>
<stop offset="1" stop-color="#B7C0F2"/>
</linearGradient>
</defs>
</svg>
