<svg width="247" height="328" viewBox="0 0 247 328" fill="none" xmlns="http://www.w3.org/2000/svg">
<rect width="247" height="328" rx="8" fill="url(#paint0_linear)"/>
<rect width="247" height="328" rx="8" fill="url(#paint1_linear)"/>
<path d="M26.6841 35.1387V33.1123C26.6759 32.4775 26.619 31.8346 26.5132 31.1836C26.4155 30.5326 26.2609 29.9059 26.0493 29.3037C25.8296 28.7015 25.5529 28.14 25.2192 27.6191C24.8937 27.0902 24.5031 26.6304 24.0474 26.2397C23.5916 25.8491 23.0667 25.5439 22.4727 25.3242C21.8786 25.0964 21.2153 24.9824 20.4829 24.9824C19.7505 24.9824 19.0872 25.0964 18.4932 25.3242C17.9072 25.5439 17.3864 25.8491 16.9307 26.2397C16.4749 26.6385 16.0802 27.1024 15.7466 27.6313C15.4211 28.1522 15.1525 28.7137 14.9409 29.3159C14.7212 29.9181 14.5584 30.5448 14.4526 31.1958C14.355 31.8387 14.3021 32.4775 14.2939 33.1123V35.1387C14.3021 35.7734 14.359 36.4123 14.4648 37.0552C14.5706 37.6981 14.7334 38.3206 14.9531 38.9229C15.1647 39.5251 15.4373 40.0907 15.771 40.6196C16.1047 41.1405 16.4993 41.5962 16.9551 41.9868C17.4108 42.3774 17.9316 42.6867 18.5176 42.9146C19.1117 43.1343 19.7749 43.2441 20.5073 43.2441C21.2397 43.2441 21.8989 43.1343 22.4849 42.9146C23.0789 42.6867 23.6038 42.3774 24.0596 41.9868C24.5153 41.5962 24.9059 41.1405 25.2314 40.6196C25.5651 40.0988 25.8377 39.5373 26.0493 38.9351C26.2609 38.3328 26.4155 37.7103 26.5132 37.0674C26.619 36.4163 26.6759 35.7734 26.6841 35.1387ZM24.4502 33.0879V35.1387C24.4421 35.5618 24.4136 36.0054 24.3647 36.4692C24.3241 36.9331 24.2467 37.3888 24.1328 37.8364C24.0107 38.2922 23.8521 38.7275 23.6567 39.1426C23.4696 39.5495 23.2336 39.9076 22.9487 40.2168C22.6558 40.5342 22.3058 40.7865 21.8989 40.9736C21.5002 41.1608 21.0363 41.2544 20.5073 41.2544C19.9784 41.2544 19.5145 41.1608 19.1157 40.9736C18.717 40.7865 18.3711 40.5342 18.0781 40.2168C17.7852 39.9076 17.541 39.5454 17.3457 39.1304C17.1504 38.7153 16.9917 38.2799 16.8696 37.8242C16.7476 37.3766 16.658 36.9209 16.6011 36.457C16.5522 35.9932 16.5238 35.5537 16.5156 35.1387V33.0879C16.5238 32.6729 16.5522 32.2375 16.6011 31.7817C16.658 31.3179 16.7476 30.8581 16.8696 30.4023C16.9836 29.9548 17.1382 29.5275 17.3335 29.1206C17.5288 28.7056 17.7729 28.3394 18.0659 28.022C18.3589 27.7127 18.7048 27.4645 19.1035 27.2773C19.5023 27.0902 19.9621 26.9966 20.4829 26.9966C21.0119 26.9966 21.4757 27.0902 21.8745 27.2773C22.2733 27.4564 22.6191 27.7005 22.9121 28.0098C23.2051 28.3271 23.4492 28.6934 23.6445 29.1084C23.8398 29.5153 23.9985 29.9425 24.1206 30.3901C24.2345 30.8459 24.3159 31.3057 24.3647 31.7695C24.4136 32.2253 24.4421 32.6647 24.4502 33.0879ZM41.3325 36.5425V36.2861C41.3325 35.5944 41.2756 34.9393 41.1616 34.3208C41.0477 33.6942 40.8809 33.1245 40.6611 32.6118C40.4495 32.1561 40.2054 31.7451 39.9287 31.3789C39.652 31.0046 39.3387 30.6872 38.9888 30.4268C38.5981 30.1501 38.1628 29.9344 37.6826 29.7798C37.2025 29.6252 36.6776 29.5479 36.1079 29.5479C35.6522 29.5479 35.229 29.5926 34.8384 29.6821C34.4478 29.7716 34.0897 29.9019 33.7642 30.0728C33.5037 30.2111 33.2596 30.3779 33.0317 30.5732C32.8039 30.7604 32.5964 30.972 32.4092 31.208V24.25H30.1509V43H32.2261L32.3359 41.4985C32.4824 41.6857 32.637 41.8566 32.7998 42.0112C32.9626 42.1659 33.1335 42.3083 33.3125 42.4385C33.6868 42.6989 34.106 42.8983 34.5698 43.0366C35.0418 43.175 35.5627 43.2441 36.1323 43.2441C36.6287 43.2441 37.0885 43.1831 37.5117 43.061C37.943 42.939 38.3377 42.7681 38.6958 42.5483C39.1922 42.231 39.6154 41.8322 39.9653 41.3521C40.3234 40.8638 40.6123 40.3145 40.832 39.7041C40.9948 39.2402 41.1169 38.7438 41.1982 38.2148C41.2878 37.6777 41.3325 37.1203 41.3325 36.5425ZM39.0742 36.2861V36.5425C39.0742 36.9331 39.0498 37.3156 39.001 37.6899C38.9521 38.0643 38.8748 38.4142 38.769 38.7397C38.6388 39.1711 38.4639 39.5617 38.2441 39.9116C38.0244 40.2616 37.7518 40.5505 37.4263 40.7783C37.1821 40.9574 36.9054 41.0957 36.5962 41.1934C36.2869 41.2829 35.9451 41.3276 35.5708 41.3276C35.1802 41.3276 34.8221 41.2788 34.4966 41.1812C34.1711 41.0754 33.8781 40.9289 33.6177 40.7417C33.3573 40.5545 33.1253 40.3389 32.9219 40.0947C32.7266 39.8424 32.5557 39.5698 32.4092 39.2769V33.5029C32.5475 33.21 32.7144 32.9414 32.9097 32.6973C33.1131 32.445 33.3451 32.2253 33.6055 32.0381C33.8577 31.859 34.1466 31.7207 34.4722 31.623C34.7977 31.5173 35.1558 31.4644 35.5464 31.4644C35.9045 31.4644 36.23 31.505 36.5229 31.5864C36.8159 31.6678 37.0804 31.7817 37.3164 31.9282C37.6582 32.1317 37.9471 32.4124 38.1831 32.7705C38.4191 33.1286 38.6104 33.5233 38.7568 33.9546C38.8626 34.3045 38.9399 34.6789 38.9888 35.0776C39.0457 35.4683 39.0742 35.8711 39.0742 36.2861ZM46.6792 29.792V31.7573H51.0859V43.0854C51.0859 43.7121 51.0046 44.237 50.8418 44.6602C50.6872 45.0915 50.4715 45.4373 50.1948 45.6978C49.9181 45.9582 49.5926 46.1413 49.2183 46.2471C48.8439 46.361 48.4451 46.418 48.022 46.418C47.908 46.418 47.7493 46.4139 47.5459 46.4058C47.3506 46.4058 47.1471 46.3976 46.9355 46.3813C46.7158 46.3732 46.5002 46.3569 46.2886 46.3325C46.077 46.3162 45.902 46.2959 45.7637 46.2715L45.605 48.127C45.8084 48.1595 46.0037 48.188 46.1909 48.2124C46.3781 48.245 46.5653 48.2694 46.7524 48.2856C46.9803 48.3019 47.2122 48.3141 47.4482 48.3223C47.6842 48.3304 47.9284 48.3345 48.1807 48.3345C48.9945 48.3345 49.7188 48.2165 50.3535 47.9805C50.9964 47.7526 51.5417 47.4149 51.9893 46.9673C52.4287 46.5278 52.7624 45.9826 52.9902 45.3315C53.2262 44.6805 53.3442 43.9318 53.3442 43.0854V29.792H46.6792ZM50.7686 26.313C50.7686 26.6792 50.8784 26.9884 51.0981 27.2407C51.3179 27.4849 51.6556 27.6069 52.1113 27.6069C52.5671 27.6069 52.9089 27.4849 53.1367 27.2407C53.3646 26.9884 53.4785 26.6792 53.4785 26.313C53.4785 25.9468 53.3646 25.6375 53.1367 25.3853C52.9089 25.1248 52.5671 24.9946 52.1113 24.9946C51.6556 24.9946 51.3179 25.1248 51.0981 25.3853C50.8784 25.6375 50.7686 25.9468 50.7686 26.313ZM66.0029 43.2441C67.2887 43.2441 68.367 42.9878 69.2378 42.4751C70.1167 41.9543 70.7759 41.3602 71.2153 40.6929L69.8359 39.6187C69.4209 40.1558 68.9001 40.5871 68.2734 40.9126C67.6468 41.2381 66.9307 41.4009 66.125 41.4009C65.5146 41.4009 64.9572 41.2869 64.4526 41.0591C63.9481 40.8312 63.5168 40.5179 63.1587 40.1191C62.8088 39.7448 62.5321 39.3135 62.3286 38.8252C62.1333 38.3369 62.0072 37.7713 61.9502 37.1284V37.043H71.3862V36.0298C71.3862 35.1102 71.2682 34.2557 71.0322 33.4663C70.8044 32.6769 70.4544 31.9893 69.9824 31.4033C69.5104 30.8255 68.9163 30.3739 68.2002 30.0483C67.4922 29.7147 66.6621 29.5479 65.71 29.5479C64.9531 29.5479 64.2126 29.7025 63.4883 30.0117C62.7721 30.321 62.1333 30.7645 61.5718 31.3423C61.0021 31.9282 60.5464 32.6444 60.2046 33.4907C59.8628 34.3289 59.6919 35.2811 59.6919 36.3472V36.8599C59.6919 37.7795 59.8465 38.6299 60.1558 39.4111C60.465 40.1924 60.8963 40.8678 61.4497 41.4375C62.0031 42.0072 62.6663 42.4507 63.4395 42.7681C64.2207 43.0854 65.0752 43.2441 66.0029 43.2441ZM65.71 31.4033C66.2878 31.4033 66.7842 31.5091 67.1992 31.7207C67.6224 31.9323 67.9723 32.209 68.249 32.5508C68.5257 32.8926 68.7414 33.2995 68.896 33.7715C69.0506 34.2354 69.1279 34.6707 69.1279 35.0776V35.1875H62.0234C62.113 34.5771 62.2676 34.04 62.4873 33.5762C62.7152 33.1042 62.9919 32.7054 63.3174 32.3799C63.6429 32.0625 64.0091 31.8224 64.416 31.6597C64.8229 31.4888 65.2542 31.4033 65.71 31.4033ZM80.8101 41.4131C80.1021 41.4131 79.508 41.2747 79.0278 40.998C78.5558 40.7132 78.1774 40.3429 77.8926 39.8872C77.5996 39.4396 77.388 38.9351 77.2578 38.3735C77.1357 37.8039 77.0747 37.2301 77.0747 36.6523V36.1396C77.0747 35.57 77.1357 35.0044 77.2578 34.4429C77.388 33.8813 77.5996 33.3727 77.8926 32.917C78.1855 32.4694 78.568 32.1073 79.04 31.8306C79.5202 31.5457 80.1102 31.4033 80.8101 31.4033C81.2658 31.4033 81.689 31.4806 82.0796 31.6353C82.4784 31.7899 82.8201 32.0015 83.105 32.27C83.3898 32.5386 83.6136 32.8519 83.7764 33.21C83.9473 33.5599 84.0368 33.9342 84.0449 34.333H86.1812C86.1812 33.6657 86.0469 33.0391 85.7783 32.4531C85.5098 31.8672 85.1395 31.3586 84.6675 30.9272C84.1873 30.5041 83.6177 30.1704 82.9585 29.9263C82.3075 29.674 81.5913 29.5479 80.8101 29.5479C79.8091 29.5479 78.9342 29.7269 78.1855 30.085C77.4368 30.443 76.8143 30.9232 76.3179 31.5254C75.8133 32.1357 75.4349 32.8397 75.1826 33.6372C74.9303 34.4347 74.8042 35.2689 74.8042 36.1396V36.6523C74.8042 37.5312 74.9303 38.3695 75.1826 39.167C75.4349 39.9564 75.8133 40.6522 76.3179 41.2544C76.8143 41.8647 77.4368 42.349 78.1855 42.707C78.9342 43.0651 79.8091 43.2441 80.8101 43.2441C81.5099 43.2441 82.1813 43.1261 82.8242 42.8901C83.4671 42.646 84.0368 42.3205 84.5332 41.9136C85.0296 41.5148 85.4243 41.0509 85.7173 40.522C86.0184 39.9849 86.173 39.4233 86.1812 38.8374H84.0449C84.0368 39.2036 83.9391 39.5454 83.752 39.8628C83.5729 40.172 83.3328 40.4406 83.0317 40.6685C82.7306 40.9045 82.3848 41.0876 81.9941 41.2178C81.6117 41.348 81.217 41.4131 80.8101 41.4131ZM95.5439 26.5938H93.2734V29.792H89.8066V31.5376H93.2734V38.7153C93.2734 39.5291 93.3792 40.2249 93.5908 40.8027C93.8105 41.3724 94.1076 41.8363 94.4819 42.1943C94.8563 42.5605 95.2957 42.8291 95.8003 43C96.313 43.1628 96.8623 43.2441 97.4482 43.2441C97.7982 43.2441 98.1481 43.2279 98.498 43.1953C98.8561 43.1628 99.1938 43.1139 99.5112 43.0488C99.8286 42.9919 100.122 42.9227 100.39 42.8413C100.659 42.7518 100.887 42.6501 101.074 42.5361L100.756 40.937C100.618 40.9696 100.439 41.0103 100.219 41.0591C100.008 41.0998 99.7798 41.1405 99.5356 41.1812C99.2834 41.2218 99.027 41.2585 98.7666 41.291C98.5062 41.3154 98.2539 41.3276 98.0098 41.3276C97.6761 41.3276 97.3587 41.2869 97.0576 41.2056C96.7646 41.1242 96.5042 40.9818 96.2764 40.7783C96.0485 40.583 95.8695 40.3185 95.7393 39.9849C95.609 39.6512 95.5439 39.228 95.5439 38.7153V31.5376H100.573V29.792H95.5439V26.5938Z" fill="#DF5013"/>
<path d="M16.6719 130.297H19.4746C20.1126 130.29 20.7148 130.193 21.2812 130.004C21.8542 129.815 22.3555 129.542 22.7852 129.184C23.2148 128.826 23.5534 128.386 23.8008 127.865C24.0547 127.338 24.1816 126.732 24.1816 126.049C24.1816 125.365 24.0547 124.76 23.8008 124.232C23.5534 123.705 23.2148 123.262 22.7852 122.904C22.3555 122.546 21.8542 122.273 21.2812 122.084C20.7148 121.895 20.1126 121.794 19.4746 121.781H14.8652V136H16.6719V130.297ZM16.6719 128.812V123.266H19.4746C19.8913 123.272 20.2754 123.34 20.627 123.471C20.985 123.601 21.2943 123.786 21.5547 124.027C21.8086 124.268 22.0072 124.561 22.1504 124.906C22.3001 125.251 22.375 125.639 22.375 126.068C22.375 126.498 22.3001 126.882 22.1504 127.221C22.0072 127.553 21.8053 127.836 21.5449 128.07C21.2845 128.305 20.9785 128.487 20.627 128.617C20.2754 128.741 19.8913 128.806 19.4746 128.812H16.6719ZM26.9941 121V122.572H30.5879V134.438H26.9941V136H35.8418V134.438H32.3945V121H26.9941ZM45.666 136H47.5508V135.844C47.4336 135.551 47.3424 135.209 47.2773 134.818C47.2122 134.421 47.1797 134.047 47.1797 133.695V128.783C47.1797 128.191 47.0723 127.673 46.8574 127.23C46.6426 126.788 46.3496 126.417 45.9785 126.117C45.6009 125.824 45.1549 125.606 44.6406 125.463C44.1263 125.313 43.5697 125.238 42.9707 125.238C42.3132 125.238 41.724 125.329 41.2031 125.512C40.6888 125.694 40.2526 125.932 39.8945 126.225C39.5299 126.524 39.25 126.859 39.0547 127.23C38.8659 127.602 38.7682 127.979 38.7617 128.363H40.5781C40.5781 128.142 40.6302 127.93 40.7344 127.729C40.8451 127.52 40.998 127.341 41.1934 127.191C41.3887 127.042 41.6263 126.921 41.9062 126.83C42.1927 126.739 42.515 126.693 42.873 126.693C43.2572 126.693 43.6022 126.742 43.9082 126.84C44.2207 126.938 44.4844 127.074 44.6992 127.25C44.9141 127.432 45.0801 127.65 45.1973 127.904C45.3145 128.158 45.373 128.445 45.373 128.764V129.594H43.4004C42.6647 129.594 41.9974 129.665 41.3984 129.809C40.806 129.952 40.2982 130.167 39.875 130.453C39.4518 130.746 39.123 131.111 38.8887 131.547C38.6608 131.983 38.5469 132.491 38.5469 133.07C38.5469 133.513 38.6315 133.926 38.8008 134.311C38.9766 134.688 39.224 135.014 39.543 135.287C39.8555 135.567 40.2363 135.788 40.6855 135.951C41.1413 136.114 41.6491 136.195 42.209 136.195C42.554 136.195 42.8796 136.16 43.1855 136.088C43.4915 136.016 43.7812 135.919 44.0547 135.795C44.3216 135.671 44.5658 135.528 44.7871 135.365C45.015 135.202 45.2201 135.03 45.4023 134.848C45.4219 135.069 45.4512 135.284 45.4902 135.492C45.5358 135.694 45.5944 135.863 45.666 136ZM42.4727 134.623C42.1211 134.623 41.8118 134.577 41.5449 134.486C41.278 134.395 41.0566 134.268 40.8809 134.105C40.7051 133.949 40.5716 133.76 40.4805 133.539C40.3958 133.318 40.3535 133.077 40.3535 132.816C40.3535 132.543 40.4023 132.299 40.5 132.084C40.6042 131.869 40.7539 131.684 40.9492 131.527C41.2227 131.306 41.5905 131.143 42.0527 131.039C42.5215 130.928 43.0684 130.873 43.6934 130.873H45.373V133.012C45.2689 133.22 45.1257 133.422 44.9434 133.617C44.7611 133.806 44.5462 133.975 44.2988 134.125C44.0449 134.275 43.765 134.395 43.459 134.486C43.153 134.577 42.8242 134.623 42.4727 134.623ZM51.584 140.268C52.0592 140.268 52.4792 140.18 52.8438 140.004C53.2083 139.828 53.5273 139.61 53.8008 139.35C54.0742 139.089 54.3053 138.806 54.4941 138.5C54.6895 138.194 54.849 137.904 54.9727 137.631L60.334 125.434H58.3125L55.5879 132.289L55.0898 133.529L54.6211 132.25L51.7207 125.434H49.6992L54.25 135.502L53.5273 136.908C53.4622 137.038 53.3711 137.204 53.2539 137.406C53.1432 137.608 53.0098 137.803 52.8535 137.992C52.6908 138.181 52.5052 138.344 52.2969 138.48C52.0951 138.617 51.8704 138.686 51.623 138.686C51.5319 138.686 51.4049 138.679 51.2422 138.666C51.0859 138.66 50.9264 138.65 50.7637 138.637L50.4707 140.111C50.5879 140.137 50.7604 140.17 50.9883 140.209C51.2161 140.248 51.4147 140.268 51.584 140.268ZM81.7012 136H83.5859V135.844C83.4688 135.551 83.3776 135.209 83.3125 134.818C83.2474 134.421 83.2148 134.047 83.2148 133.695V128.783C83.2148 128.191 83.1074 127.673 82.8926 127.23C82.6777 126.788 82.3848 126.417 82.0137 126.117C81.6361 125.824 81.1901 125.606 80.6758 125.463C80.1615 125.313 79.6048 125.238 79.0059 125.238C78.3483 125.238 77.7591 125.329 77.2383 125.512C76.724 125.694 76.2878 125.932 75.9297 126.225C75.5651 126.524 75.2852 126.859 75.0898 127.23C74.901 127.602 74.8034 127.979 74.7969 128.363H76.6133C76.6133 128.142 76.6654 127.93 76.7695 127.729C76.8802 127.52 77.0332 127.341 77.2285 127.191C77.4238 127.042 77.6615 126.921 77.9414 126.83C78.2279 126.739 78.5501 126.693 78.9082 126.693C79.2923 126.693 79.6374 126.742 79.9434 126.84C80.2559 126.938 80.5195 127.074 80.7344 127.25C80.9492 127.432 81.1152 127.65 81.2324 127.904C81.3496 128.158 81.4082 128.445 81.4082 128.764V129.594H79.4355C78.6999 129.594 78.0326 129.665 77.4336 129.809C76.8411 129.952 76.3333 130.167 75.9102 130.453C75.487 130.746 75.1582 131.111 74.9238 131.547C74.696 131.983 74.582 132.491 74.582 133.07C74.582 133.513 74.6667 133.926 74.8359 134.311C75.0117 134.688 75.2591 135.014 75.5781 135.287C75.8906 135.567 76.2715 135.788 76.7207 135.951C77.1764 136.114 77.6842 136.195 78.2441 136.195C78.5892 136.195 78.9147 136.16 79.2207 136.088C79.5267 136.016 79.8164 135.919 80.0898 135.795C80.3568 135.671 80.6009 135.528 80.8223 135.365C81.0501 135.202 81.2552 135.03 81.4375 134.848C81.457 135.069 81.4863 135.284 81.5254 135.492C81.571 135.694 81.6296 135.863 81.7012 136ZM78.5078 134.623C78.1562 134.623 77.847 134.577 77.5801 134.486C77.3132 134.395 77.0918 134.268 76.916 134.105C76.7402 133.949 76.6068 133.76 76.5156 133.539C76.431 133.318 76.3887 133.077 76.3887 132.816C76.3887 132.543 76.4375 132.299 76.5352 132.084C76.6393 131.869 76.7891 131.684 76.9844 131.527C77.2578 131.306 77.6257 131.143 78.0879 131.039C78.5566 130.928 79.1035 130.873 79.7285 130.873H81.4082V133.012C81.304 133.22 81.1608 133.422 80.9785 133.617C80.7962 133.806 80.5814 133.975 80.334 134.125C80.0801 134.275 79.8001 134.395 79.4941 134.486C79.1882 134.577 78.8594 134.623 78.5078 134.623ZM93.6934 125.238C92.9251 125.238 92.2383 125.408 91.6328 125.746C91.0339 126.078 90.5195 126.534 90.0898 127.113L90.0801 126.85L90.002 125.434H88.2832V136H90.0996V129.223C90.2168 128.897 90.3633 128.604 90.5391 128.344C90.7214 128.077 90.9329 127.852 91.1738 127.67C91.4408 127.462 91.7533 127.305 92.1113 127.201C92.4694 127.09 92.8698 127.035 93.3125 127.035C93.6576 127.035 93.9863 127.055 94.2988 127.094C94.6178 127.126 94.9531 127.182 95.3047 127.26L95.5488 125.492C95.3665 125.414 95.0931 125.352 94.7285 125.307C94.3704 125.261 94.0254 125.238 93.6934 125.238ZM98.2734 130.619V130.834C98.2734 131.596 98.3841 132.302 98.6055 132.953C98.8268 133.604 99.1458 134.171 99.5625 134.652C99.9727 135.134 100.474 135.512 101.066 135.785C101.665 136.059 102.339 136.195 103.088 136.195C103.83 136.195 104.497 136.059 105.09 135.785C105.682 135.512 106.187 135.134 106.604 134.652C107.014 134.171 107.329 133.604 107.551 132.953C107.772 132.302 107.883 131.596 107.883 130.834V130.619C107.883 129.857 107.772 129.151 107.551 128.5C107.329 127.842 107.014 127.273 106.604 126.791C106.187 126.309 105.679 125.932 105.08 125.658C104.488 125.378 103.817 125.238 103.068 125.238C102.326 125.238 101.659 125.378 101.066 125.658C100.474 125.932 99.9727 126.309 99.5625 126.791C99.1458 127.273 98.8268 127.842 98.6055 128.5C98.3841 129.151 98.2734 129.857 98.2734 130.619ZM100.08 130.834V130.619C100.08 130.105 100.142 129.613 100.266 129.145C100.389 128.669 100.578 128.253 100.832 127.895C101.079 127.536 101.389 127.253 101.76 127.045C102.131 126.83 102.567 126.723 103.068 126.723C103.57 126.723 104.006 126.83 104.377 127.045C104.755 127.253 105.07 127.536 105.324 127.895C105.572 128.253 105.757 128.669 105.881 129.145C106.011 129.613 106.076 130.105 106.076 130.619V130.834C106.076 131.355 106.014 131.853 105.891 132.328C105.767 132.797 105.581 133.21 105.334 133.568C105.08 133.926 104.764 134.21 104.387 134.418C104.016 134.626 103.583 134.73 103.088 134.73C102.587 134.73 102.147 134.626 101.77 134.418C101.392 134.21 101.079 133.926 100.832 133.568C100.578 133.21 100.389 132.797 100.266 132.328C100.142 131.853 100.08 131.355 100.08 130.834ZM117.756 136H119.396V125.434H117.58V133.012C117.482 133.24 117.359 133.451 117.209 133.646C117.066 133.835 116.896 133.998 116.701 134.135C116.467 134.304 116.19 134.438 115.871 134.535C115.552 134.626 115.191 134.672 114.787 134.672C114.442 134.672 114.136 134.626 113.869 134.535C113.609 134.444 113.387 134.285 113.205 134.057C113.023 133.835 112.886 133.536 112.795 133.158C112.704 132.781 112.658 132.305 112.658 131.732V125.434H110.852V131.713C110.852 132.501 110.936 133.178 111.105 133.744C111.281 134.304 111.529 134.766 111.848 135.131C112.167 135.495 112.551 135.766 113 135.941C113.449 136.111 113.951 136.195 114.504 136.195C115.194 136.195 115.803 136.052 116.33 135.766C116.857 135.473 117.297 135.066 117.648 134.545L117.756 136ZM122.805 136H124.611V128.422C124.735 128.194 124.878 127.986 125.041 127.797C125.21 127.608 125.393 127.442 125.588 127.299C125.829 127.136 126.092 127.009 126.379 126.918C126.665 126.82 126.975 126.771 127.307 126.771C127.691 126.771 128.029 126.817 128.322 126.908C128.622 126.999 128.876 127.146 129.084 127.348C129.286 127.549 129.439 127.813 129.543 128.139C129.647 128.464 129.699 128.861 129.699 129.33V136H131.506V129.291C131.506 128.588 131.418 127.982 131.242 127.475C131.073 126.96 130.829 126.537 130.51 126.205C130.191 125.873 129.803 125.629 129.348 125.473C128.898 125.316 128.397 125.238 127.844 125.238C127.434 125.245 127.043 125.307 126.672 125.424C126.307 125.535 125.969 125.694 125.656 125.902C125.448 126.039 125.249 126.202 125.061 126.391C124.878 126.573 124.709 126.775 124.553 126.996L124.426 125.434H122.805V136ZM134.475 130.629V130.834C134.475 131.589 134.576 132.296 134.777 132.953C134.979 133.604 135.262 134.171 135.627 134.652C135.992 135.134 136.431 135.512 136.945 135.785C137.466 136.059 138.046 136.195 138.684 136.195C139.335 136.195 139.904 136.085 140.393 135.863C140.881 135.642 141.301 135.316 141.652 134.887L141.73 136H143.391V121H141.584V126.479C141.239 126.075 140.829 125.769 140.354 125.561C139.885 125.346 139.335 125.238 138.703 125.238C138.059 125.238 137.476 125.372 136.955 125.639C136.434 125.906 135.992 126.277 135.627 126.752C135.256 127.227 134.969 127.797 134.768 128.461C134.572 129.118 134.475 129.841 134.475 130.629ZM136.281 130.834V130.629C136.281 130.115 136.337 129.626 136.447 129.164C136.558 128.695 136.73 128.282 136.965 127.924C137.193 127.572 137.486 127.292 137.844 127.084C138.208 126.876 138.645 126.771 139.152 126.771C139.745 126.771 140.24 126.911 140.637 127.191C141.034 127.465 141.35 127.816 141.584 128.246V133.148C141.35 133.611 141.034 133.979 140.637 134.252C140.24 134.525 139.738 134.662 139.133 134.662C138.632 134.662 138.202 134.561 137.844 134.359C137.486 134.151 137.193 133.871 136.965 133.52C136.73 133.168 136.558 132.761 136.447 132.299C136.337 131.837 136.281 131.348 136.281 130.834ZM159.855 136H161.281L162.912 129.525L163.176 127.885L163.449 129.525L165.1 136H166.525L168.771 125.434H167.17L165.998 132.172L165.734 133.832L165.451 132.172L163.771 125.434H162.609L160.92 132.172L160.656 133.686L160.441 132.172L159.211 125.434H157.609L159.855 136ZM171.135 125.434V127.006H174.729V134.438H171.135V136H179.982V134.438H176.535V125.434H171.135ZM174.494 122.66C174.494 122.953 174.582 123.197 174.758 123.393C174.94 123.588 175.214 123.686 175.578 123.686C175.936 123.686 176.206 123.588 176.389 123.393C176.571 123.197 176.662 122.953 176.662 122.66C176.662 122.497 176.636 122.348 176.584 122.211C176.532 122.074 176.454 121.96 176.35 121.869C176.265 121.785 176.158 121.719 176.027 121.674C175.897 121.622 175.747 121.596 175.578 121.596C175.409 121.596 175.256 121.622 175.119 121.674C174.989 121.719 174.882 121.785 174.797 121.869C174.693 121.967 174.615 122.084 174.562 122.221C174.517 122.357 174.494 122.504 174.494 122.66ZM187.141 122.875H185.324V125.434H182.551V126.83H185.324V132.572C185.324 133.223 185.409 133.78 185.578 134.242C185.754 134.698 185.992 135.069 186.291 135.355C186.59 135.648 186.942 135.863 187.346 136C187.756 136.13 188.195 136.195 188.664 136.195C188.944 136.195 189.224 136.182 189.504 136.156C189.79 136.13 190.061 136.091 190.314 136.039C190.568 135.993 190.803 135.938 191.018 135.873C191.232 135.801 191.415 135.72 191.564 135.629L191.311 134.35C191.2 134.376 191.057 134.408 190.881 134.447C190.712 134.48 190.529 134.512 190.334 134.545C190.132 134.577 189.927 134.607 189.719 134.633C189.51 134.652 189.309 134.662 189.113 134.662C188.846 134.662 188.592 134.63 188.352 134.564C188.117 134.499 187.909 134.385 187.727 134.223C187.544 134.066 187.401 133.855 187.297 133.588C187.193 133.321 187.141 132.982 187.141 132.572V126.83H191.164V125.434H187.141V122.875ZM196.682 127.006V121H194.875V136H196.682V128.324C196.812 128.116 196.958 127.927 197.121 127.758C197.29 127.582 197.473 127.429 197.668 127.299C197.915 127.13 198.186 126.999 198.479 126.908C198.771 126.817 199.081 126.771 199.406 126.771C199.803 126.765 200.155 126.82 200.461 126.938C200.767 127.048 201.021 127.217 201.223 127.445C201.411 127.654 201.555 127.917 201.652 128.236C201.75 128.549 201.799 128.913 201.799 129.33V136H203.605V129.35C203.605 128.64 203.518 128.028 203.342 127.514C203.173 126.993 202.928 126.563 202.609 126.225C202.29 125.886 201.903 125.639 201.447 125.482C200.998 125.32 200.497 125.238 199.943 125.238C199.52 125.245 199.12 125.307 198.742 125.424C198.371 125.541 198.029 125.714 197.717 125.941C197.521 126.078 197.336 126.238 197.16 126.42C196.984 126.596 196.825 126.791 196.682 127.006ZM18.9766 148.875H17.1602V151.434H14.3867V152.83H17.1602V158.572C17.1602 159.223 17.2448 159.78 17.4141 160.242C17.5898 160.698 17.8275 161.069 18.127 161.355C18.4264 161.648 18.778 161.863 19.1816 162C19.5918 162.13 20.0312 162.195 20.5 162.195C20.7799 162.195 21.0599 162.182 21.3398 162.156C21.6263 162.13 21.8965 162.091 22.1504 162.039C22.4043 161.993 22.6387 161.938 22.8535 161.873C23.0684 161.801 23.2507 161.72 23.4004 161.629L23.1465 160.35C23.0358 160.376 22.8926 160.408 22.7168 160.447C22.5475 160.48 22.3652 160.512 22.1699 160.545C21.9681 160.577 21.763 160.607 21.5547 160.633C21.3464 160.652 21.1445 160.662 20.9492 160.662C20.6823 160.662 20.4284 160.63 20.1875 160.564C19.9531 160.499 19.7448 160.385 19.5625 160.223C19.3802 160.066 19.237 159.855 19.1328 159.588C19.0286 159.321 18.9766 158.982 18.9766 158.572V152.83H23V151.434H18.9766V148.875ZM28.5176 153.006V147H26.7109V162H28.5176V154.324C28.6478 154.116 28.7943 153.927 28.957 153.758C29.1263 153.582 29.3086 153.429 29.5039 153.299C29.7513 153.13 30.0215 152.999 30.3145 152.908C30.6074 152.817 30.9167 152.771 31.2422 152.771C31.6393 152.765 31.9909 152.82 32.2969 152.938C32.6029 153.048 32.8568 153.217 33.0586 153.445C33.2474 153.654 33.3906 153.917 33.4883 154.236C33.5859 154.549 33.6348 154.913 33.6348 155.33V162H35.4414V155.35C35.4414 154.64 35.3535 154.028 35.1777 153.514C35.0085 152.993 34.7643 152.563 34.4453 152.225C34.1263 151.886 33.7389 151.639 33.2832 151.482C32.834 151.32 32.3327 151.238 31.7793 151.238C31.3561 151.245 30.9557 151.307 30.5781 151.424C30.207 151.541 29.8652 151.714 29.5527 151.941C29.3574 152.078 29.1719 152.238 28.9961 152.42C28.8203 152.596 28.6608 152.791 28.5176 153.006ZM43.3906 162.195C44.4193 162.195 45.2819 161.99 45.9785 161.58C46.6816 161.163 47.209 160.688 47.5605 160.154L46.457 159.295C46.125 159.725 45.7083 160.07 45.207 160.33C44.7057 160.59 44.1328 160.721 43.4883 160.721C43 160.721 42.554 160.63 42.1504 160.447C41.7467 160.265 41.4017 160.014 41.1152 159.695C40.8353 159.396 40.6139 159.051 40.4512 158.66C40.2949 158.27 40.194 157.817 40.1484 157.303V157.234H47.6973V156.424C47.6973 155.688 47.6029 155.005 47.4141 154.373C47.2318 153.742 46.9518 153.191 46.5742 152.723C46.1966 152.26 45.7214 151.899 45.1484 151.639C44.582 151.372 43.918 151.238 43.1562 151.238C42.5508 151.238 41.9583 151.362 41.3789 151.609C40.806 151.857 40.2949 152.212 39.8457 152.674C39.39 153.143 39.0254 153.715 38.752 154.393C38.4785 155.063 38.3418 155.825 38.3418 156.678V157.088C38.3418 157.824 38.4655 158.504 38.7129 159.129C38.9603 159.754 39.3053 160.294 39.748 160.75C40.1908 161.206 40.7214 161.561 41.3398 161.814C41.9648 162.068 42.6484 162.195 43.3906 162.195ZM43.1562 152.723C43.6185 152.723 44.0156 152.807 44.3477 152.977C44.6862 153.146 44.9661 153.367 45.1875 153.641C45.4089 153.914 45.5814 154.24 45.7051 154.617C45.8288 154.988 45.8906 155.337 45.8906 155.662V155.75H40.207C40.2786 155.262 40.4023 154.832 40.5781 154.461C40.7604 154.083 40.9818 153.764 41.2422 153.504C41.5026 153.25 41.7956 153.058 42.1211 152.928C42.4466 152.791 42.7917 152.723 43.1562 152.723ZM64.5527 153.006V147H62.7461V162H64.5527V154.324C64.6829 154.116 64.8294 153.927 64.9922 153.758C65.1615 153.582 65.3438 153.429 65.5391 153.299C65.7865 153.13 66.0566 152.999 66.3496 152.908C66.6426 152.817 66.9518 152.771 67.2773 152.771C67.6745 152.765 68.026 152.82 68.332 152.938C68.638 153.048 68.8919 153.217 69.0938 153.445C69.2826 153.654 69.4258 153.917 69.5234 154.236C69.6211 154.549 69.6699 154.913 69.6699 155.33V162H71.4766V155.35C71.4766 154.64 71.3887 154.028 71.2129 153.514C71.0436 152.993 70.7995 152.563 70.4805 152.225C70.1615 151.886 69.7741 151.639 69.3184 151.482C68.8691 151.32 68.3678 151.238 67.8145 151.238C67.3913 151.245 66.9909 151.307 66.6133 151.424C66.2422 151.541 65.9004 151.714 65.5879 151.941C65.3926 152.078 65.207 152.238 65.0312 152.42C64.8555 152.596 64.696 152.791 64.5527 153.006ZM79.4258 162.195C80.4544 162.195 81.3171 161.99 82.0137 161.58C82.7168 161.163 83.2441 160.688 83.5957 160.154L82.4922 159.295C82.1602 159.725 81.7435 160.07 81.2422 160.33C80.7409 160.59 80.168 160.721 79.5234 160.721C79.0352 160.721 78.5892 160.63 78.1855 160.447C77.7819 160.265 77.4368 160.014 77.1504 159.695C76.8704 159.396 76.6491 159.051 76.4863 158.66C76.3301 158.27 76.2292 157.817 76.1836 157.303V157.234H83.7324V156.424C83.7324 155.688 83.638 155.005 83.4492 154.373C83.2669 153.742 82.987 153.191 82.6094 152.723C82.2318 152.26 81.7565 151.899 81.1836 151.639C80.6172 151.372 79.9531 151.238 79.1914 151.238C78.5859 151.238 77.9935 151.362 77.4141 151.609C76.8411 151.857 76.3301 152.212 75.8809 152.674C75.4251 153.143 75.0605 153.715 74.7871 154.393C74.5137 155.063 74.377 155.825 74.377 156.678V157.088C74.377 157.824 74.5007 158.504 74.748 159.129C74.9954 159.754 75.3405 160.294 75.7832 160.75C76.2259 161.206 76.7565 161.561 77.375 161.814C78 162.068 78.6836 162.195 79.4258 162.195ZM79.1914 152.723C79.6536 152.723 80.0508 152.807 80.3828 152.977C80.7214 153.146 81.0013 153.367 81.2227 153.641C81.444 153.914 81.6165 154.24 81.7402 154.617C81.8639 154.988 81.9258 155.337 81.9258 155.662V155.75H76.2422C76.3138 155.262 76.4375 154.832 76.6133 154.461C76.7956 154.083 77.0169 153.764 77.2773 153.504C77.5378 153.25 77.8307 153.058 78.1562 152.928C78.4818 152.791 78.8268 152.723 79.1914 152.723ZM87.0527 151.434V153.006H90.6465V160.438H87.0527V162H95.9004V160.438H92.4531V151.434H87.0527ZM90.4121 148.66C90.4121 148.953 90.5 149.197 90.6758 149.393C90.8581 149.588 91.1315 149.686 91.4961 149.686C91.8542 149.686 92.1243 149.588 92.3066 149.393C92.4889 149.197 92.5801 148.953 92.5801 148.66C92.5801 148.497 92.554 148.348 92.502 148.211C92.4499 148.074 92.3717 147.96 92.2676 147.869C92.1829 147.785 92.0755 147.719 91.9453 147.674C91.8151 147.622 91.6654 147.596 91.4961 147.596C91.3268 147.596 91.1738 147.622 91.0371 147.674C90.9069 147.719 90.7995 147.785 90.7148 147.869C90.6107 147.967 90.5326 148.084 90.4805 148.221C90.4349 148.357 90.4121 148.504 90.4121 148.66ZM98.4492 156.629V156.834C98.4492 157.589 98.5469 158.296 98.7422 158.953C98.9375 159.604 99.2174 160.171 99.582 160.652C99.9401 161.134 100.38 161.512 100.9 161.785C101.421 162.059 102.004 162.195 102.648 162.195C103.033 162.195 103.391 162.153 103.723 162.068C104.055 161.99 104.357 161.876 104.631 161.727C104.807 161.629 104.969 161.515 105.119 161.385C105.275 161.255 105.422 161.111 105.559 160.955V161.863C105.559 162.319 105.493 162.723 105.363 163.074C105.233 163.426 105.048 163.719 104.807 163.953C104.559 164.194 104.263 164.376 103.918 164.5C103.573 164.624 103.186 164.686 102.756 164.686C102.515 164.686 102.274 164.66 102.033 164.607C101.792 164.562 101.551 164.484 101.311 164.373C101.07 164.262 100.832 164.113 100.598 163.924C100.363 163.742 100.135 163.517 99.9141 163.25L98.9766 164.334C99.2174 164.679 99.5039 164.969 99.8359 165.203C100.174 165.438 100.526 165.623 100.891 165.76C101.249 165.903 101.604 166.004 101.955 166.062C102.307 166.128 102.619 166.16 102.893 166.16C103.557 166.16 104.162 166.062 104.709 165.867C105.256 165.672 105.728 165.385 106.125 165.008C106.516 164.63 106.818 164.171 107.033 163.631C107.255 163.09 107.365 162.472 107.365 161.775V151.434H105.725L105.637 152.586C105.513 152.43 105.38 152.286 105.236 152.156C105.1 152.026 104.953 151.912 104.797 151.814C104.51 151.626 104.188 151.482 103.83 151.385C103.479 151.287 103.091 151.238 102.668 151.238C102.01 151.238 101.421 151.372 100.9 151.639C100.38 151.906 99.9368 152.277 99.5723 152.752C99.2077 153.227 98.9277 153.797 98.7324 154.461C98.5436 155.118 98.4492 155.841 98.4492 156.629ZM100.256 156.834V156.629C100.256 156.115 100.308 155.626 100.412 155.164C100.523 154.695 100.695 154.282 100.93 153.924C101.158 153.572 101.451 153.292 101.809 153.084C102.173 152.876 102.609 152.771 103.117 152.771C103.417 152.771 103.69 152.811 103.938 152.889C104.185 152.96 104.41 153.061 104.611 153.191C104.813 153.328 104.992 153.488 105.148 153.67C105.305 153.852 105.441 154.054 105.559 154.275V159.119C105.441 159.347 105.305 159.555 105.148 159.744C104.992 159.933 104.816 160.096 104.621 160.232C104.419 160.369 104.191 160.477 103.938 160.555C103.69 160.626 103.41 160.662 103.098 160.662C102.596 160.662 102.167 160.561 101.809 160.359C101.451 160.151 101.158 159.871 100.93 159.52C100.695 159.168 100.523 158.761 100.412 158.299C100.308 157.837 100.256 157.348 100.256 156.834ZM112.6 153.006V147H110.793V162H112.6V154.324C112.73 154.116 112.876 153.927 113.039 153.758C113.208 153.582 113.391 153.429 113.586 153.299C113.833 153.13 114.104 152.999 114.396 152.908C114.689 152.817 114.999 152.771 115.324 152.771C115.721 152.765 116.073 152.82 116.379 152.938C116.685 153.048 116.939 153.217 117.141 153.445C117.329 153.654 117.473 153.917 117.57 154.236C117.668 154.549 117.717 154.913 117.717 155.33V162H119.523V155.35C119.523 154.64 119.436 154.028 119.26 153.514C119.09 152.993 118.846 152.563 118.527 152.225C118.208 151.886 117.821 151.639 117.365 151.482C116.916 151.32 116.415 151.238 115.861 151.238C115.438 151.245 115.038 151.307 114.66 151.424C114.289 151.541 113.947 151.714 113.635 151.941C113.439 152.078 113.254 152.238 113.078 152.42C112.902 152.596 112.743 152.791 112.6 153.006ZM127.082 148.875H125.266V151.434H122.492V152.83H125.266V158.572C125.266 159.223 125.35 159.78 125.52 160.242C125.695 160.698 125.933 161.069 126.232 161.355C126.532 161.648 126.883 161.863 127.287 162C127.697 162.13 128.137 162.195 128.605 162.195C128.885 162.195 129.165 162.182 129.445 162.156C129.732 162.13 130.002 162.091 130.256 162.039C130.51 161.993 130.744 161.938 130.959 161.873C131.174 161.801 131.356 161.72 131.506 161.629L131.252 160.35C131.141 160.376 130.998 160.408 130.822 160.447C130.653 160.48 130.471 160.512 130.275 160.545C130.074 160.577 129.868 160.607 129.66 160.633C129.452 160.652 129.25 160.662 129.055 160.662C128.788 160.662 128.534 160.63 128.293 160.564C128.059 160.499 127.85 160.385 127.668 160.223C127.486 160.066 127.342 159.855 127.238 159.588C127.134 159.321 127.082 158.982 127.082 158.572V152.83H131.105V151.434H127.082V148.875ZM153.771 162H155.656V161.844C155.539 161.551 155.448 161.209 155.383 160.818C155.318 160.421 155.285 160.047 155.285 159.695V154.783C155.285 154.191 155.178 153.673 154.963 153.23C154.748 152.788 154.455 152.417 154.084 152.117C153.706 151.824 153.26 151.606 152.746 151.463C152.232 151.313 151.675 151.238 151.076 151.238C150.419 151.238 149.829 151.329 149.309 151.512C148.794 151.694 148.358 151.932 148 152.225C147.635 152.524 147.355 152.859 147.16 153.23C146.971 153.602 146.874 153.979 146.867 154.363H148.684C148.684 154.142 148.736 153.93 148.84 153.729C148.951 153.52 149.104 153.341 149.299 153.191C149.494 153.042 149.732 152.921 150.012 152.83C150.298 152.739 150.62 152.693 150.979 152.693C151.363 152.693 151.708 152.742 152.014 152.84C152.326 152.938 152.59 153.074 152.805 153.25C153.02 153.432 153.186 153.65 153.303 153.904C153.42 154.158 153.479 154.445 153.479 154.764V155.594H151.506C150.77 155.594 150.103 155.665 149.504 155.809C148.911 155.952 148.404 156.167 147.98 156.453C147.557 156.746 147.229 157.111 146.994 157.547C146.766 157.983 146.652 158.491 146.652 159.07C146.652 159.513 146.737 159.926 146.906 160.311C147.082 160.688 147.329 161.014 147.648 161.287C147.961 161.567 148.342 161.788 148.791 161.951C149.247 162.114 149.755 162.195 150.314 162.195C150.66 162.195 150.985 162.16 151.291 162.088C151.597 162.016 151.887 161.919 152.16 161.795C152.427 161.671 152.671 161.528 152.893 161.365C153.12 161.202 153.326 161.03 153.508 160.848C153.527 161.069 153.557 161.284 153.596 161.492C153.641 161.694 153.7 161.863 153.771 162ZM150.578 160.623C150.227 160.623 149.917 160.577 149.65 160.486C149.383 160.395 149.162 160.268 148.986 160.105C148.811 159.949 148.677 159.76 148.586 159.539C148.501 159.318 148.459 159.077 148.459 158.816C148.459 158.543 148.508 158.299 148.605 158.084C148.71 157.869 148.859 157.684 149.055 157.527C149.328 157.306 149.696 157.143 150.158 157.039C150.627 156.928 151.174 156.873 151.799 156.873H153.479V159.012C153.374 159.22 153.231 159.422 153.049 159.617C152.867 159.806 152.652 159.975 152.404 160.125C152.15 160.275 151.87 160.395 151.564 160.486C151.258 160.577 150.93 160.623 150.578 160.623ZM158.84 162H160.646V154.422C160.77 154.194 160.913 153.986 161.076 153.797C161.245 153.608 161.428 153.442 161.623 153.299C161.864 153.136 162.128 153.009 162.414 152.918C162.701 152.82 163.01 152.771 163.342 152.771C163.726 152.771 164.064 152.817 164.357 152.908C164.657 152.999 164.911 153.146 165.119 153.348C165.321 153.549 165.474 153.813 165.578 154.139C165.682 154.464 165.734 154.861 165.734 155.33V162H167.541V155.291C167.541 154.588 167.453 153.982 167.277 153.475C167.108 152.96 166.864 152.537 166.545 152.205C166.226 151.873 165.839 151.629 165.383 151.473C164.934 151.316 164.432 151.238 163.879 151.238C163.469 151.245 163.078 151.307 162.707 151.424C162.342 151.535 162.004 151.694 161.691 151.902C161.483 152.039 161.285 152.202 161.096 152.391C160.913 152.573 160.744 152.775 160.588 152.996L160.461 151.434H158.84V162ZM170.51 156.629V156.834C170.51 157.589 170.611 158.296 170.812 158.953C171.014 159.604 171.298 160.171 171.662 160.652C172.027 161.134 172.466 161.512 172.98 161.785C173.501 162.059 174.081 162.195 174.719 162.195C175.37 162.195 175.939 162.085 176.428 161.863C176.916 161.642 177.336 161.316 177.688 160.887L177.766 162H179.426V147H177.619V152.479C177.274 152.075 176.864 151.769 176.389 151.561C175.92 151.346 175.37 151.238 174.738 151.238C174.094 151.238 173.511 151.372 172.99 151.639C172.469 151.906 172.027 152.277 171.662 152.752C171.291 153.227 171.005 153.797 170.803 154.461C170.607 155.118 170.51 155.841 170.51 156.629ZM172.316 156.834V156.629C172.316 156.115 172.372 155.626 172.482 155.164C172.593 154.695 172.766 154.282 173 153.924C173.228 153.572 173.521 153.292 173.879 153.084C174.243 152.876 174.68 152.771 175.188 152.771C175.78 152.771 176.275 152.911 176.672 153.191C177.069 153.465 177.385 153.816 177.619 154.246V159.148C177.385 159.611 177.069 159.979 176.672 160.252C176.275 160.525 175.773 160.662 175.168 160.662C174.667 160.662 174.237 160.561 173.879 160.359C173.521 160.151 173.228 159.871 173 159.52C172.766 159.168 172.593 158.761 172.482 158.299C172.372 157.837 172.316 157.348 172.316 156.834ZM15.7148 188H17.1406L18.7715 181.525L19.0352 179.885L19.3086 181.525L20.959 188H22.3848L24.6309 177.434H23.0293L21.8574 184.172L21.5938 185.832L21.3105 184.172L19.6309 177.434H18.4688L16.7793 184.172L16.5156 185.686L16.3008 184.172L15.0703 177.434H13.4688L15.7148 188ZM26.9941 177.434V179.006H30.5879V186.438H26.9941V188H35.8418V186.438H32.3945V177.434H26.9941ZM30.3535 174.66C30.3535 174.953 30.4414 175.197 30.6172 175.393C30.7995 175.588 31.0729 175.686 31.4375 175.686C31.7956 175.686 32.0658 175.588 32.248 175.393C32.4303 175.197 32.5215 174.953 32.5215 174.66C32.5215 174.497 32.4954 174.348 32.4434 174.211C32.3913 174.074 32.3132 173.96 32.209 173.869C32.1243 173.785 32.0169 173.719 31.8867 173.674C31.7565 173.622 31.6068 173.596 31.4375 173.596C31.2682 173.596 31.1152 173.622 30.9785 173.674C30.8483 173.719 30.7409 173.785 30.6562 173.869C30.5521 173.967 30.474 174.084 30.4219 174.221C30.3763 174.357 30.3535 174.504 30.3535 174.66ZM38.3809 182.629V182.834C38.3809 183.589 38.4818 184.296 38.6836 184.953C38.8854 185.604 39.1686 186.171 39.5332 186.652C39.8978 187.134 40.3372 187.512 40.8516 187.785C41.3724 188.059 41.9518 188.195 42.5898 188.195C43.2409 188.195 43.8105 188.085 44.2988 187.863C44.7871 187.642 45.207 187.316 45.5586 186.887L45.6367 188H47.2969V173H45.4902V178.479C45.1452 178.075 44.735 177.769 44.2598 177.561C43.791 177.346 43.2409 177.238 42.6094 177.238C41.9648 177.238 41.3822 177.372 40.8613 177.639C40.3405 177.906 39.8978 178.277 39.5332 178.752C39.1621 179.227 38.8757 179.797 38.6738 180.461C38.4785 181.118 38.3809 181.841 38.3809 182.629ZM40.1875 182.834V182.629C40.1875 182.115 40.2428 181.626 40.3535 181.164C40.4642 180.695 40.6367 180.282 40.8711 179.924C41.099 179.572 41.3919 179.292 41.75 179.084C42.1146 178.876 42.5508 178.771 43.0586 178.771C43.651 178.771 44.1458 178.911 44.543 179.191C44.9401 179.465 45.2559 179.816 45.4902 180.246V185.148C45.2559 185.611 44.9401 185.979 44.543 186.252C44.1458 186.525 43.6445 186.662 43.0391 186.662C42.5378 186.662 42.1081 186.561 41.75 186.359C41.3919 186.151 41.099 185.871 40.8711 185.52C40.6367 185.168 40.4642 184.761 40.3535 184.299C40.2428 183.837 40.1875 183.348 40.1875 182.834ZM55.0117 174.875H53.1953V177.434H50.4219V178.83H53.1953V184.572C53.1953 185.223 53.2799 185.78 53.4492 186.242C53.625 186.698 53.8626 187.069 54.1621 187.355C54.4616 187.648 54.8132 187.863 55.2168 188C55.627 188.13 56.0664 188.195 56.5352 188.195C56.8151 188.195 57.0951 188.182 57.375 188.156C57.6615 188.13 57.9316 188.091 58.1855 188.039C58.4395 187.993 58.6738 187.938 58.8887 187.873C59.1035 187.801 59.2858 187.72 59.4355 187.629L59.1816 186.35C59.071 186.376 58.9277 186.408 58.752 186.447C58.5827 186.48 58.4004 186.512 58.2051 186.545C58.0033 186.577 57.7982 186.607 57.5898 186.633C57.3815 186.652 57.1797 186.662 56.9844 186.662C56.7174 186.662 56.4635 186.63 56.2227 186.564C55.9883 186.499 55.7799 186.385 55.5977 186.223C55.4154 186.066 55.2721 185.855 55.168 185.588C55.0638 185.321 55.0117 184.982 55.0117 184.572V178.83H59.0352V177.434H55.0117V174.875ZM64.5527 179.006V173H62.7461V188H64.5527V180.324C64.6829 180.116 64.8294 179.927 64.9922 179.758C65.1615 179.582 65.3438 179.429 65.5391 179.299C65.7865 179.13 66.0566 178.999 66.3496 178.908C66.6426 178.817 66.9518 178.771 67.2773 178.771C67.6745 178.765 68.026 178.82 68.332 178.938C68.638 179.048 68.8919 179.217 69.0938 179.445C69.2826 179.654 69.4258 179.917 69.5234 180.236C69.6211 180.549 69.6699 180.913 69.6699 181.33V188H71.4766V181.35C71.4766 180.64 71.3887 180.028 71.2129 179.514C71.0436 178.993 70.7995 178.563 70.4805 178.225C70.1615 177.886 69.7741 177.639 69.3184 177.482C68.8691 177.32 68.3678 177.238 67.8145 177.238C67.3913 177.245 66.9909 177.307 66.6133 177.424C66.2422 177.541 65.9004 177.714 65.5879 177.941C65.3926 178.078 65.207 178.238 65.0312 178.42C64.8555 178.596 64.696 178.791 64.5527 179.006ZM86.2617 182.619V182.834C86.2617 183.596 86.3724 184.302 86.5938 184.953C86.8151 185.604 87.1341 186.171 87.5508 186.652C87.9609 187.134 88.4622 187.512 89.0547 187.785C89.6536 188.059 90.3275 188.195 91.0762 188.195C91.8184 188.195 92.4857 188.059 93.0781 187.785C93.6706 187.512 94.1751 187.134 94.5918 186.652C95.002 186.171 95.3177 185.604 95.5391 184.953C95.7604 184.302 95.8711 183.596 95.8711 182.834V182.619C95.8711 181.857 95.7604 181.151 95.5391 180.5C95.3177 179.842 95.002 179.273 94.5918 178.791C94.1751 178.309 93.6673 177.932 93.0684 177.658C92.4759 177.378 91.8053 177.238 91.0566 177.238C90.3145 177.238 89.6471 177.378 89.0547 177.658C88.4622 177.932 87.9609 178.309 87.5508 178.791C87.1341 179.273 86.8151 179.842 86.5938 180.5C86.3724 181.151 86.2617 181.857 86.2617 182.619ZM88.0684 182.834V182.619C88.0684 182.105 88.1302 181.613 88.2539 181.145C88.3776 180.669 88.5664 180.253 88.8203 179.895C89.0677 179.536 89.377 179.253 89.748 179.045C90.1191 178.83 90.5553 178.723 91.0566 178.723C91.5579 178.723 91.9941 178.83 92.3652 179.045C92.7428 179.253 93.0586 179.536 93.3125 179.895C93.5599 180.253 93.7454 180.669 93.8691 181.145C93.9993 181.613 94.0645 182.105 94.0645 182.619V182.834C94.0645 183.355 94.0026 183.853 93.8789 184.328C93.7552 184.797 93.5697 185.21 93.3223 185.568C93.0684 185.926 92.7526 186.21 92.375 186.418C92.0039 186.626 91.571 186.73 91.0762 186.73C90.5749 186.73 90.1354 186.626 89.7578 186.418C89.3802 186.21 89.0677 185.926 88.8203 185.568C88.5664 185.21 88.3776 184.797 88.2539 184.328C88.1302 183.853 88.0684 183.355 88.0684 182.834ZM101.477 188H103.293V178.83H107.365V177.434H103.293V176.691C103.293 176.249 103.348 175.861 103.459 175.529C103.576 175.197 103.745 174.927 103.967 174.719C104.175 174.517 104.436 174.367 104.748 174.27C105.067 174.165 105.432 174.113 105.842 174.113C106.245 174.113 106.623 174.149 106.975 174.221C107.333 174.286 107.645 174.364 107.912 174.455L108.127 172.961C107.958 172.915 107.792 172.876 107.629 172.844C107.466 172.805 107.303 172.769 107.141 172.736C106.893 172.691 106.643 172.655 106.389 172.629C106.135 172.596 105.878 172.58 105.617 172.58C104.992 172.58 104.426 172.668 103.918 172.844C103.41 173.02 102.977 173.28 102.619 173.625C102.255 173.97 101.971 174.4 101.77 174.914C101.574 175.422 101.477 176.014 101.477 176.691V177.434H98.5664V178.83H101.477V188ZM127.082 174.875H125.266V177.434H122.492V178.83H125.266V184.572C125.266 185.223 125.35 185.78 125.52 186.242C125.695 186.698 125.933 187.069 126.232 187.355C126.532 187.648 126.883 187.863 127.287 188C127.697 188.13 128.137 188.195 128.605 188.195C128.885 188.195 129.165 188.182 129.445 188.156C129.732 188.13 130.002 188.091 130.256 188.039C130.51 187.993 130.744 187.938 130.959 187.873C131.174 187.801 131.356 187.72 131.506 187.629L131.252 186.35C131.141 186.376 130.998 186.408 130.822 186.447C130.653 186.48 130.471 186.512 130.275 186.545C130.074 186.577 129.868 186.607 129.66 186.633C129.452 186.652 129.25 186.662 129.055 186.662C128.788 186.662 128.534 186.63 128.293 186.564C128.059 186.499 127.85 186.385 127.668 186.223C127.486 186.066 127.342 185.855 127.238 185.588C127.134 185.321 127.082 184.982 127.082 184.572V178.83H131.105V177.434H127.082V174.875ZM136.623 179.006V173H134.816V188H136.623V180.324C136.753 180.116 136.9 179.927 137.062 179.758C137.232 179.582 137.414 179.429 137.609 179.299C137.857 179.13 138.127 178.999 138.42 178.908C138.713 178.817 139.022 178.771 139.348 178.771C139.745 178.765 140.096 178.82 140.402 178.938C140.708 179.048 140.962 179.217 141.164 179.445C141.353 179.654 141.496 179.917 141.594 180.236C141.691 180.549 141.74 180.913 141.74 181.33V188H143.547V181.35C143.547 180.64 143.459 180.028 143.283 179.514C143.114 178.993 142.87 178.563 142.551 178.225C142.232 177.886 141.844 177.639 141.389 177.482C140.939 177.32 140.438 177.238 139.885 177.238C139.462 177.245 139.061 177.307 138.684 177.424C138.312 177.541 137.971 177.714 137.658 177.941C137.463 178.078 137.277 178.238 137.102 178.42C136.926 178.596 136.766 178.791 136.623 179.006ZM151.496 188.195C152.525 188.195 153.387 187.99 154.084 187.58C154.787 187.163 155.314 186.688 155.666 186.154L154.562 185.295C154.23 185.725 153.814 186.07 153.312 186.33C152.811 186.59 152.238 186.721 151.594 186.721C151.105 186.721 150.66 186.63 150.256 186.447C149.852 186.265 149.507 186.014 149.221 185.695C148.941 185.396 148.719 185.051 148.557 184.66C148.4 184.27 148.299 183.817 148.254 183.303V183.234H155.803V182.424C155.803 181.688 155.708 181.005 155.52 180.373C155.337 179.742 155.057 179.191 154.68 178.723C154.302 178.26 153.827 177.899 153.254 177.639C152.688 177.372 152.023 177.238 151.262 177.238C150.656 177.238 150.064 177.362 149.484 177.609C148.911 177.857 148.4 178.212 147.951 178.674C147.495 179.143 147.131 179.715 146.857 180.393C146.584 181.063 146.447 181.825 146.447 182.678V183.088C146.447 183.824 146.571 184.504 146.818 185.129C147.066 185.754 147.411 186.294 147.854 186.75C148.296 187.206 148.827 187.561 149.445 187.814C150.07 188.068 150.754 188.195 151.496 188.195ZM151.262 178.723C151.724 178.723 152.121 178.807 152.453 178.977C152.792 179.146 153.072 179.367 153.293 179.641C153.514 179.914 153.687 180.24 153.811 180.617C153.934 180.988 153.996 181.337 153.996 181.662V181.75H148.312C148.384 181.262 148.508 180.832 148.684 180.461C148.866 180.083 149.087 179.764 149.348 179.504C149.608 179.25 149.901 179.058 150.227 178.928C150.552 178.791 150.897 178.723 151.262 178.723ZM15.7148 214H17.1406L18.7715 207.525L19.0352 205.885L19.3086 207.525L20.959 214H22.3848L24.6309 203.434H23.0293L21.8574 210.172L21.5938 211.832L21.3105 210.172L19.6309 203.434H18.4688L16.7793 210.172L16.5156 211.686L16.3008 210.172L15.0703 203.434H13.4688L15.7148 214ZM31.3789 214.195C32.4076 214.195 33.2702 213.99 33.9668 213.58C34.6699 213.163 35.1973 212.688 35.5488 212.154L34.4453 211.295C34.1133 211.725 33.6966 212.07 33.1953 212.33C32.694 212.59 32.1211 212.721 31.4766 212.721C30.9883 212.721 30.5423 212.63 30.1387 212.447C29.735 212.265 29.39 212.014 29.1035 211.695C28.8236 211.396 28.6022 211.051 28.4395 210.66C28.2832 210.27 28.1823 209.817 28.1367 209.303V209.234H35.6855V208.424C35.6855 207.688 35.5911 207.005 35.4023 206.373C35.2201 205.742 34.9401 205.191 34.5625 204.723C34.1849 204.26 33.7096 203.899 33.1367 203.639C32.5703 203.372 31.9062 203.238 31.1445 203.238C30.5391 203.238 29.9466 203.362 29.3672 203.609C28.7943 203.857 28.2832 204.212 27.834 204.674C27.3783 205.143 27.0137 205.715 26.7402 206.393C26.4668 207.063 26.3301 207.825 26.3301 208.678V209.088C26.3301 209.824 26.4538 210.504 26.7012 211.129C26.9486 211.754 27.2936 212.294 27.7363 212.75C28.179 213.206 28.7096 213.561 29.3281 213.814C29.9531 214.068 30.6367 214.195 31.3789 214.195ZM31.1445 204.723C31.6068 204.723 32.0039 204.807 32.3359 204.977C32.6745 205.146 32.9544 205.367 33.1758 205.641C33.3971 205.914 33.5697 206.24 33.6934 206.617C33.8171 206.988 33.8789 207.337 33.8789 207.662V207.75H28.1953C28.2669 207.262 28.3906 206.832 28.5664 206.461C28.7487 206.083 28.9701 205.764 29.2305 205.504C29.4909 205.25 29.7839 205.058 30.1094 204.928C30.4349 204.791 30.7799 204.723 31.1445 204.723ZM47.6777 208.834V208.629C47.6777 208.076 47.6322 207.551 47.541 207.057C47.4499 206.555 47.3164 206.1 47.1406 205.689C46.9714 205.325 46.776 204.996 46.5547 204.703C46.3333 204.404 46.0827 204.15 45.8027 203.941C45.4902 203.72 45.1419 203.548 44.7578 203.424C44.3737 203.3 43.9538 203.238 43.498 203.238C43.1335 203.238 42.7949 203.274 42.4824 203.346C42.1699 203.417 41.8835 203.521 41.623 203.658C41.4147 203.769 41.2194 203.902 41.0371 204.059C40.8548 204.208 40.6888 204.378 40.5391 204.566V199H38.7324V214H40.3926L40.4805 212.799C40.5977 212.949 40.7214 213.085 40.8516 213.209C40.9818 213.333 41.1185 213.447 41.2617 213.551C41.5612 213.759 41.8965 213.919 42.2676 214.029C42.6452 214.14 43.0618 214.195 43.5176 214.195C43.9147 214.195 44.2826 214.146 44.6211 214.049C44.9661 213.951 45.2819 213.814 45.5684 213.639C45.9655 213.385 46.304 213.066 46.584 212.682C46.8704 212.291 47.1016 211.852 47.2773 211.363C47.4076 210.992 47.5052 210.595 47.5703 210.172C47.6419 209.742 47.6777 209.296 47.6777 208.834ZM45.8711 208.629V208.834C45.8711 209.146 45.8516 209.452 45.8125 209.752C45.7734 210.051 45.7116 210.331 45.627 210.592C45.5228 210.937 45.3828 211.249 45.207 211.529C45.0312 211.809 44.8132 212.04 44.5527 212.223C44.3574 212.366 44.1361 212.477 43.8887 212.555C43.6413 212.626 43.3678 212.662 43.0684 212.662C42.7559 212.662 42.4694 212.623 42.209 212.545C41.9486 212.46 41.7142 212.343 41.5059 212.193C41.2975 212.044 41.112 211.871 40.9492 211.676C40.793 211.474 40.6562 211.256 40.5391 211.021V206.402C40.6497 206.168 40.7832 205.953 40.9395 205.758C41.1022 205.556 41.2878 205.38 41.4961 205.23C41.6979 205.087 41.929 204.977 42.1895 204.898C42.4499 204.814 42.7363 204.771 43.0488 204.771C43.3353 204.771 43.5957 204.804 43.8301 204.869C44.0645 204.934 44.276 205.025 44.4648 205.143C44.7383 205.305 44.9694 205.53 45.1582 205.816C45.347 206.103 45.5 206.419 45.6172 206.764C45.7018 207.044 45.7637 207.343 45.8027 207.662C45.8483 207.975 45.8711 208.297 45.8711 208.629ZM50.7246 218.062H52.5312V212.984C52.6615 213.128 52.8014 213.261 52.9512 213.385C53.1009 213.502 53.2604 213.609 53.4297 213.707C53.7096 213.863 54.0221 213.984 54.3672 214.068C54.7188 214.153 55.0964 214.195 55.5 214.195C56.1641 214.195 56.7533 214.059 57.2676 213.785C57.7884 213.512 58.2246 213.134 58.5762 212.652C58.9277 212.171 59.1947 211.604 59.377 210.953C59.5592 210.296 59.6504 209.589 59.6504 208.834V208.629C59.6504 207.841 59.5592 207.118 59.377 206.461C59.1947 205.797 58.9277 205.227 58.5762 204.752C58.2246 204.277 57.7884 203.906 57.2676 203.639C56.7467 203.372 56.1478 203.238 55.4707 203.238C55.0866 203.238 54.7253 203.281 54.3867 203.365C54.0547 203.443 53.752 203.561 53.4785 203.717C53.2832 203.821 53.1009 203.948 52.9316 204.098C52.7624 204.241 52.6061 204.404 52.4629 204.586L52.375 203.434H50.7246V218.062ZM57.8438 208.629V208.834C57.8438 209.348 57.7852 209.84 57.668 210.309C57.5573 210.777 57.3848 211.191 57.1504 211.549C56.916 211.907 56.6165 212.193 56.252 212.408C55.8874 212.617 55.4544 212.721 54.9531 212.721C54.6406 212.721 54.3542 212.682 54.0938 212.604C53.8398 212.525 53.6087 212.418 53.4004 212.281C53.2181 212.164 53.0553 212.021 52.9121 211.852C52.7689 211.682 52.6419 211.5 52.5312 211.305V206.217C52.6549 205.995 52.7982 205.794 52.9609 205.611C53.1237 205.429 53.3092 205.276 53.5176 205.152C53.7064 205.029 53.918 204.934 54.1523 204.869C54.3932 204.804 54.6536 204.771 54.9336 204.771C55.4414 204.771 55.8776 204.876 56.2422 205.084C56.6068 205.292 56.9095 205.572 57.1504 205.924C57.3848 206.282 57.5573 206.695 57.668 207.164C57.7852 207.626 57.8438 208.115 57.8438 208.629ZM69.6895 214H71.5742V213.844C71.457 213.551 71.3659 213.209 71.3008 212.818C71.2357 212.421 71.2031 212.047 71.2031 211.695V206.783C71.2031 206.191 71.0957 205.673 70.8809 205.23C70.666 204.788 70.373 204.417 70.002 204.117C69.6243 203.824 69.1784 203.606 68.6641 203.463C68.1497 203.313 67.5931 203.238 66.9941 203.238C66.3366 203.238 65.7474 203.329 65.2266 203.512C64.7122 203.694 64.276 203.932 63.918 204.225C63.5534 204.524 63.2734 204.859 63.0781 205.23C62.8893 205.602 62.7917 205.979 62.7852 206.363H64.6016C64.6016 206.142 64.6536 205.93 64.7578 205.729C64.8685 205.52 65.0215 205.341 65.2168 205.191C65.4121 205.042 65.6497 204.921 65.9297 204.83C66.2161 204.739 66.5384 204.693 66.8965 204.693C67.2806 204.693 67.6257 204.742 67.9316 204.84C68.2441 204.938 68.5078 205.074 68.7227 205.25C68.9375 205.432 69.1035 205.65 69.2207 205.904C69.3379 206.158 69.3965 206.445 69.3965 206.764V207.594H67.4238C66.6882 207.594 66.0208 207.665 65.4219 207.809C64.8294 207.952 64.3216 208.167 63.8984 208.453C63.4753 208.746 63.1465 209.111 62.9121 209.547C62.6842 209.983 62.5703 210.491 62.5703 211.07C62.5703 211.513 62.6549 211.926 62.8242 212.311C63 212.688 63.2474 213.014 63.5664 213.287C63.8789 213.567 64.2598 213.788 64.709 213.951C65.1647 214.114 65.6725 214.195 66.2324 214.195C66.5775 214.195 66.903 214.16 67.209 214.088C67.515 214.016 67.8047 213.919 68.0781 213.795C68.3451 213.671 68.5892 213.528 68.8105 213.365C69.0384 213.202 69.2435 213.03 69.4258 212.848C69.4453 213.069 69.4746 213.284 69.5137 213.492C69.5592 213.694 69.6178 213.863 69.6895 214ZM66.4961 212.623C66.1445 212.623 65.8353 212.577 65.5684 212.486C65.3014 212.395 65.0801 212.268 64.9043 212.105C64.7285 211.949 64.5951 211.76 64.5039 211.539C64.4193 211.318 64.377 211.077 64.377 210.816C64.377 210.543 64.4258 210.299 64.5234 210.084C64.6276 209.869 64.7773 209.684 64.9727 209.527C65.2461 209.306 65.6139 209.143 66.0762 209.039C66.5449 208.928 67.0918 208.873 67.7168 208.873H69.3965V211.012C69.2923 211.22 69.1491 211.422 68.9668 211.617C68.7845 211.806 68.5697 211.975 68.3223 212.125C68.0684 212.275 67.7884 212.395 67.4824 212.486C67.1764 212.577 66.8477 212.623 66.4961 212.623ZM74.4258 208.629V208.834C74.4258 209.589 74.5234 210.296 74.7188 210.953C74.9141 211.604 75.194 212.171 75.5586 212.652C75.9167 213.134 76.3561 213.512 76.877 213.785C77.3978 214.059 77.9805 214.195 78.625 214.195C79.0091 214.195 79.3672 214.153 79.6992 214.068C80.0312 213.99 80.334 213.876 80.6074 213.727C80.7832 213.629 80.946 213.515 81.0957 213.385C81.252 213.255 81.3984 213.111 81.5352 212.955V213.863C81.5352 214.319 81.4701 214.723 81.3398 215.074C81.2096 215.426 81.0241 215.719 80.7832 215.953C80.5358 216.194 80.2396 216.376 79.8945 216.5C79.5495 216.624 79.1621 216.686 78.7324 216.686C78.4915 216.686 78.2507 216.66 78.0098 216.607C77.7689 216.562 77.528 216.484 77.2871 216.373C77.0462 216.262 76.8086 216.113 76.5742 215.924C76.3398 215.742 76.112 215.517 75.8906 215.25L74.9531 216.334C75.194 216.679 75.4805 216.969 75.8125 217.203C76.151 217.438 76.5026 217.623 76.8672 217.76C77.2253 217.903 77.5801 218.004 77.9316 218.062C78.2832 218.128 78.5957 218.16 78.8691 218.16C79.5332 218.16 80.1387 218.062 80.6855 217.867C81.2324 217.672 81.7044 217.385 82.1016 217.008C82.4922 216.63 82.7949 216.171 83.0098 215.631C83.2311 215.09 83.3418 214.472 83.3418 213.775V203.434H81.7012L81.6133 204.586C81.4896 204.43 81.3561 204.286 81.2129 204.156C81.0762 204.026 80.9297 203.912 80.7734 203.814C80.487 203.626 80.1647 203.482 79.8066 203.385C79.4551 203.287 79.0677 203.238 78.6445 203.238C77.987 203.238 77.3978 203.372 76.877 203.639C76.3561 203.906 75.9134 204.277 75.5488 204.752C75.1842 205.227 74.9043 205.797 74.709 206.461C74.5202 207.118 74.4258 207.841 74.4258 208.629ZM76.2324 208.834V208.629C76.2324 208.115 76.2845 207.626 76.3887 207.164C76.4993 206.695 76.6719 206.282 76.9062 205.924C77.1341 205.572 77.4271 205.292 77.7852 205.084C78.1497 204.876 78.5859 204.771 79.0938 204.771C79.3932 204.771 79.6667 204.811 79.9141 204.889C80.1615 204.96 80.3861 205.061 80.5879 205.191C80.7897 205.328 80.9688 205.488 81.125 205.67C81.2812 205.852 81.418 206.054 81.5352 206.275V211.119C81.418 211.347 81.2812 211.555 81.125 211.744C80.9688 211.933 80.793 212.096 80.5977 212.232C80.3958 212.369 80.168 212.477 79.9141 212.555C79.6667 212.626 79.3867 212.662 79.0742 212.662C78.5729 212.662 78.1432 212.561 77.7852 212.359C77.4271 212.151 77.1341 211.871 76.9062 211.52C76.6719 211.168 76.4993 210.761 76.3887 210.299C76.2845 209.837 76.2324 209.348 76.2324 208.834ZM91.4375 214.195C92.4661 214.195 93.3288 213.99 94.0254 213.58C94.7285 213.163 95.2559 212.688 95.6074 212.154L94.5039 211.295C94.1719 211.725 93.7552 212.07 93.2539 212.33C92.7526 212.59 92.1797 212.721 91.5352 212.721C91.0469 212.721 90.6009 212.63 90.1973 212.447C89.7936 212.265 89.4486 212.014 89.1621 211.695C88.8822 211.396 88.6608 211.051 88.498 210.66C88.3418 210.27 88.2409 209.817 88.1953 209.303V209.234H95.7441V208.424C95.7441 207.688 95.6497 207.005 95.4609 206.373C95.2786 205.742 94.9987 205.191 94.6211 204.723C94.2435 204.26 93.7682 203.899 93.1953 203.639C92.6289 203.372 91.9648 203.238 91.2031 203.238C90.5977 203.238 90.0052 203.362 89.4258 203.609C88.8529 203.857 88.3418 204.212 87.8926 204.674C87.4368 205.143 87.0723 205.715 86.7988 206.393C86.5254 207.063 86.3887 207.825 86.3887 208.678V209.088C86.3887 209.824 86.5124 210.504 86.7598 211.129C87.0072 211.754 87.3522 212.294 87.7949 212.75C88.2376 213.206 88.7682 213.561 89.3867 213.814C90.0117 214.068 90.6953 214.195 91.4375 214.195ZM91.2031 204.723C91.6654 204.723 92.0625 204.807 92.3945 204.977C92.7331 205.146 93.013 205.367 93.2344 205.641C93.4557 205.914 93.6283 206.24 93.752 206.617C93.8757 206.988 93.9375 207.337 93.9375 207.662V207.75H88.2539C88.3255 207.262 88.4492 206.832 88.625 206.461C88.8073 206.083 89.0286 205.764 89.2891 205.504C89.5495 205.25 89.8424 205.058 90.168 204.928C90.4935 204.791 90.8385 204.723 91.2031 204.723ZM103.82 209.4V199.781H102.004V209.4H103.82ZM101.828 213.053C101.828 213.352 101.919 213.603 102.102 213.805C102.29 214.007 102.57 214.107 102.941 214.107C103.312 214.107 103.592 214.007 103.781 213.805C103.977 213.603 104.074 213.352 104.074 213.053C104.074 212.74 103.977 212.48 103.781 212.271C103.592 212.063 103.312 211.959 102.941 211.959C102.57 211.959 102.29 212.063 102.102 212.271C101.919 212.48 101.828 212.74 101.828 213.053ZM126.994 206.92L123.762 199.781H121.701L126.125 208.697L126.154 214H127.834L127.863 208.697L132.287 199.781H130.236L126.994 206.92ZM134.309 208.619V208.834C134.309 209.596 134.419 210.302 134.641 210.953C134.862 211.604 135.181 212.171 135.598 212.652C136.008 213.134 136.509 213.512 137.102 213.785C137.701 214.059 138.374 214.195 139.123 214.195C139.865 214.195 140.533 214.059 141.125 213.785C141.717 213.512 142.222 213.134 142.639 212.652C143.049 212.171 143.365 211.604 143.586 210.953C143.807 210.302 143.918 209.596 143.918 208.834V208.619C143.918 207.857 143.807 207.151 143.586 206.5C143.365 205.842 143.049 205.273 142.639 204.791C142.222 204.309 141.714 203.932 141.115 203.658C140.523 203.378 139.852 203.238 139.104 203.238C138.361 203.238 137.694 203.378 137.102 203.658C136.509 203.932 136.008 204.309 135.598 204.791C135.181 205.273 134.862 205.842 134.641 206.5C134.419 207.151 134.309 207.857 134.309 208.619ZM136.115 208.834V208.619C136.115 208.105 136.177 207.613 136.301 207.145C136.424 206.669 136.613 206.253 136.867 205.895C137.115 205.536 137.424 205.253 137.795 205.045C138.166 204.83 138.602 204.723 139.104 204.723C139.605 204.723 140.041 204.83 140.412 205.045C140.79 205.253 141.105 205.536 141.359 205.895C141.607 206.253 141.792 206.669 141.916 207.145C142.046 207.613 142.111 208.105 142.111 208.619V208.834C142.111 209.355 142.049 209.853 141.926 210.328C141.802 210.797 141.617 211.21 141.369 211.568C141.115 211.926 140.799 212.21 140.422 212.418C140.051 212.626 139.618 212.73 139.123 212.73C138.622 212.73 138.182 212.626 137.805 212.418C137.427 212.21 137.115 211.926 136.867 211.568C136.613 211.21 136.424 210.797 136.301 210.328C136.177 209.853 136.115 209.355 136.115 208.834ZM153.791 214H155.432V203.434H153.615V211.012C153.518 211.24 153.394 211.451 153.244 211.646C153.101 211.835 152.932 211.998 152.736 212.135C152.502 212.304 152.225 212.438 151.906 212.535C151.587 212.626 151.226 212.672 150.822 212.672C150.477 212.672 150.171 212.626 149.904 212.535C149.644 212.444 149.423 212.285 149.24 212.057C149.058 211.835 148.921 211.536 148.83 211.158C148.739 210.781 148.693 210.305 148.693 209.732V203.434H146.887V209.713C146.887 210.501 146.971 211.178 147.141 211.744C147.316 212.304 147.564 212.766 147.883 213.131C148.202 213.495 148.586 213.766 149.035 213.941C149.484 214.111 149.986 214.195 150.539 214.195C151.229 214.195 151.838 214.052 152.365 213.766C152.893 213.473 153.332 213.066 153.684 212.545L153.791 214ZM164.328 200.221V198.785H162.561V200.25C162.561 200.81 162.482 201.331 162.326 201.812C162.176 202.294 161.949 202.766 161.643 203.229L162.629 203.932C162.902 203.697 163.143 203.43 163.352 203.131C163.56 202.831 163.739 202.516 163.889 202.184C164.032 201.858 164.139 201.526 164.211 201.188C164.289 200.849 164.328 200.527 164.328 200.221ZM171.135 199V200.572H174.729V212.438H171.135V214H179.982V212.438H176.535V199H171.135ZM183.146 199V200.572H186.74V212.438H183.146V214H191.994V212.438H188.547V199H183.146ZM16.5059 231.006V225H14.6992V240H16.5059V232.324C16.6361 232.116 16.7826 231.927 16.9453 231.758C17.1146 231.582 17.2969 231.429 17.4922 231.299C17.7396 231.13 18.0098 230.999 18.3027 230.908C18.5957 230.817 18.9049 230.771 19.2305 230.771C19.6276 230.765 19.9792 230.82 20.2852 230.938C20.5911 231.048 20.8451 231.217 21.0469 231.445C21.2357 231.654 21.3789 231.917 21.4766 232.236C21.5742 232.549 21.623 232.913 21.623 233.33V240H23.4297V233.35C23.4297 232.64 23.3418 232.028 23.166 231.514C22.9967 230.993 22.7526 230.563 22.4336 230.225C22.1146 229.886 21.7272 229.639 21.2715 229.482C20.8223 229.32 20.321 229.238 19.7676 229.238C19.3444 229.245 18.944 229.307 18.5664 229.424C18.1953 229.541 17.8535 229.714 17.541 229.941C17.3457 230.078 17.1602 230.238 16.9844 230.42C16.8086 230.596 16.6491 230.791 16.5059 231.006ZM33.6543 240H35.5391V239.844C35.4219 239.551 35.3307 239.209 35.2656 238.818C35.2005 238.421 35.168 238.047 35.168 237.695V232.783C35.168 232.191 35.0605 231.673 34.8457 231.23C34.6309 230.788 34.3379 230.417 33.9668 230.117C33.5892 229.824 33.1432 229.606 32.6289 229.463C32.1146 229.313 31.5579 229.238 30.959 229.238C30.3014 229.238 29.7122 229.329 29.1914 229.512C28.6771 229.694 28.2409 229.932 27.8828 230.225C27.5182 230.524 27.2383 230.859 27.043 231.23C26.8542 231.602 26.7565 231.979 26.75 232.363H28.5664C28.5664 232.142 28.6185 231.93 28.7227 231.729C28.8333 231.52 28.9863 231.341 29.1816 231.191C29.377 231.042 29.6146 230.921 29.8945 230.83C30.181 230.739 30.5033 230.693 30.8613 230.693C31.2454 230.693 31.5905 230.742 31.8965 230.84C32.209 230.938 32.4727 231.074 32.6875 231.25C32.9023 231.432 33.0684 231.65 33.1855 231.904C33.3027 232.158 33.3613 232.445 33.3613 232.764V233.594H31.3887C30.653 233.594 29.9857 233.665 29.3867 233.809C28.7943 233.952 28.2865 234.167 27.8633 234.453C27.4401 234.746 27.1113 235.111 26.877 235.547C26.6491 235.983 26.5352 236.491 26.5352 237.07C26.5352 237.513 26.6198 237.926 26.7891 238.311C26.9648 238.688 27.2122 239.014 27.5312 239.287C27.8438 239.567 28.2246 239.788 28.6738 239.951C29.1296 240.114 29.6374 240.195 30.1973 240.195C30.5423 240.195 30.8678 240.16 31.1738 240.088C31.4798 240.016 31.7695 239.919 32.043 239.795C32.3099 239.671 32.554 239.528 32.7754 239.365C33.0033 239.202 33.2083 239.03 33.3906 238.848C33.4102 239.069 33.4395 239.284 33.4785 239.492C33.5241 239.694 33.5827 239.863 33.6543 240ZM30.4609 238.623C30.1094 238.623 29.8001 238.577 29.5332 238.486C29.2663 238.395 29.0449 238.268 28.8691 238.105C28.6934 237.949 28.5599 237.76 28.4688 237.539C28.3841 237.318 28.3418 237.077 28.3418 236.816C28.3418 236.543 28.3906 236.299 28.4883 236.084C28.5924 235.869 28.7422 235.684 28.9375 235.527C29.2109 235.306 29.5788 235.143 30.041 235.039C30.5098 234.928 31.0566 234.873 31.6816 234.873H33.3613V237.012C33.2572 237.22 33.1139 237.422 32.9316 237.617C32.7493 237.806 32.5345 237.975 32.2871 238.125C32.0332 238.275 31.7533 238.395 31.4473 238.486C31.1413 238.577 30.8125 238.623 30.4609 238.623ZM42.3262 240H43.7031L48.0098 229.434H46.1641L43.2051 237.402L43.0293 238.057L42.8633 237.402L39.8359 229.434H37.9805L42.3262 240ZM55.4023 240.195C56.431 240.195 57.2936 239.99 57.9902 239.58C58.6934 239.163 59.2207 238.688 59.5723 238.154L58.4688 237.295C58.1367 237.725 57.7201 238.07 57.2188 238.33C56.7174 238.59 56.1445 238.721 55.5 238.721C55.0117 238.721 54.5658 238.63 54.1621 238.447C53.7585 238.265 53.4134 238.014 53.127 237.695C52.847 237.396 52.6257 237.051 52.4629 236.66C52.3066 236.27 52.2057 235.817 52.1602 235.303V235.234H59.709V234.424C59.709 233.688 59.6146 233.005 59.4258 232.373C59.2435 231.742 58.9635 231.191 58.5859 230.723C58.2083 230.26 57.7331 229.899 57.1602 229.639C56.5938 229.372 55.9297 229.238 55.168 229.238C54.5625 229.238 53.9701 229.362 53.3906 229.609C52.8177 229.857 52.3066 230.212 51.8574 230.674C51.4017 231.143 51.0371 231.715 50.7637 232.393C50.4902 233.063 50.3535 233.825 50.3535 234.678V235.088C50.3535 235.824 50.4772 236.504 50.7246 237.129C50.972 237.754 51.3171 238.294 51.7598 238.75C52.2025 239.206 52.7331 239.561 53.3516 239.814C53.9766 240.068 54.6602 240.195 55.4023 240.195ZM55.168 230.723C55.6302 230.723 56.0273 230.807 56.3594 230.977C56.6979 231.146 56.9779 231.367 57.1992 231.641C57.4206 231.914 57.5931 232.24 57.7168 232.617C57.8405 232.988 57.9023 233.337 57.9023 233.662V233.75H52.2188C52.2904 233.262 52.4141 232.832 52.5898 232.461C52.7721 232.083 52.9935 231.764 53.2539 231.504C53.5143 231.25 53.8073 231.058 54.1328 230.928C54.4583 230.791 54.8034 230.723 55.168 230.723ZM77.4531 240H79.2695V230.83H83.3418V229.434H79.2695V228.691C79.2695 228.249 79.3249 227.861 79.4355 227.529C79.5527 227.197 79.722 226.927 79.9434 226.719C80.1517 226.517 80.4121 226.367 80.7246 226.27C81.0436 226.165 81.4082 226.113 81.8184 226.113C82.222 226.113 82.5996 226.149 82.9512 226.221C83.3092 226.286 83.6217 226.364 83.8887 226.455L84.1035 224.961C83.9342 224.915 83.7682 224.876 83.6055 224.844C83.4427 224.805 83.2799 224.769 83.1172 224.736C82.8698 224.691 82.6191 224.655 82.3652 224.629C82.1113 224.596 81.8542 224.58 81.5938 224.58C80.9688 224.58 80.4023 224.668 79.8945 224.844C79.3867 225.02 78.9538 225.28 78.5957 225.625C78.2311 225.97 77.9479 226.4 77.7461 226.914C77.5508 227.422 77.4531 228.014 77.4531 228.691V229.434H74.543V230.83H77.4531V240ZM93.7324 240H95.373V229.434H93.5566V237.012C93.459 237.24 93.3353 237.451 93.1855 237.646C93.0423 237.835 92.873 237.998 92.6777 238.135C92.4434 238.304 92.1667 238.438 91.8477 238.535C91.5286 238.626 91.1673 238.672 90.7637 238.672C90.4186 238.672 90.1126 238.626 89.8457 238.535C89.5853 238.444 89.3639 238.285 89.1816 238.057C88.9993 237.835 88.8626 237.536 88.7715 237.158C88.6803 236.781 88.6348 236.305 88.6348 235.732V229.434H86.8281V235.713C86.8281 236.501 86.9128 237.178 87.082 237.744C87.2578 238.304 87.5052 238.766 87.8242 239.131C88.1432 239.495 88.5273 239.766 88.9766 239.941C89.4258 240.111 89.9271 240.195 90.4805 240.195C91.1706 240.195 91.7793 240.052 92.3066 239.766C92.834 239.473 93.2734 239.066 93.625 238.545L93.7324 240ZM98.7812 240H100.588V232.422C100.712 232.194 100.855 231.986 101.018 231.797C101.187 231.608 101.369 231.442 101.564 231.299C101.805 231.136 102.069 231.009 102.355 230.918C102.642 230.82 102.951 230.771 103.283 230.771C103.667 230.771 104.006 230.817 104.299 230.908C104.598 230.999 104.852 231.146 105.061 231.348C105.262 231.549 105.415 231.813 105.52 232.139C105.624 232.464 105.676 232.861 105.676 233.33V240H107.482V233.291C107.482 232.588 107.395 231.982 107.219 231.475C107.049 230.96 106.805 230.537 106.486 230.205C106.167 229.873 105.78 229.629 105.324 229.473C104.875 229.316 104.374 229.238 103.82 229.238C103.41 229.245 103.02 229.307 102.648 229.424C102.284 229.535 101.945 229.694 101.633 229.902C101.424 230.039 101.226 230.202 101.037 230.391C100.855 230.573 100.686 230.775 100.529 230.996L100.402 229.434H98.7812V240ZM114.084 235.996H115.891C115.891 235.742 115.897 235.518 115.91 235.322C115.923 235.12 115.956 234.932 116.008 234.756C116.06 234.58 116.138 234.408 116.242 234.238C116.353 234.069 116.506 233.89 116.701 233.701C117.007 233.428 117.316 233.132 117.629 232.812C117.948 232.493 118.234 232.148 118.488 231.777C118.742 231.413 118.951 231.025 119.113 230.615C119.276 230.199 119.357 229.756 119.357 229.287C119.357 228.701 119.263 228.18 119.074 227.725C118.885 227.269 118.612 226.882 118.254 226.562C117.896 226.243 117.456 226.003 116.936 225.84C116.421 225.671 115.835 225.586 115.178 225.586C114.585 225.586 114.032 225.667 113.518 225.83C113.01 225.986 112.57 226.214 112.199 226.514C111.822 226.82 111.522 227.191 111.301 227.627C111.079 228.063 110.965 228.555 110.959 229.102H112.766C112.766 228.763 112.834 228.473 112.971 228.232C113.107 227.985 113.29 227.78 113.518 227.617C113.739 227.461 113.993 227.347 114.279 227.275C114.572 227.197 114.872 227.158 115.178 227.158C115.575 227.158 115.926 227.21 116.232 227.314C116.538 227.419 116.792 227.572 116.994 227.773C117.176 227.956 117.313 228.18 117.404 228.447C117.502 228.708 117.551 229.007 117.551 229.346C117.551 229.671 117.489 229.98 117.365 230.273C117.242 230.566 117.085 230.843 116.896 231.104C116.701 231.37 116.486 231.624 116.252 231.865C116.024 232.106 115.799 232.34 115.578 232.568C115.253 232.868 114.992 233.128 114.797 233.35C114.602 233.564 114.452 233.789 114.348 234.023C114.243 234.264 114.175 234.538 114.143 234.844C114.11 235.143 114.09 235.527 114.084 235.996ZM113.879 239.053C113.879 239.352 113.97 239.603 114.152 239.805C114.341 240.007 114.621 240.107 114.992 240.107C115.363 240.107 115.643 240.007 115.832 239.805C116.027 239.603 116.125 239.352 116.125 239.053C116.125 238.74 116.027 238.48 115.832 238.271C115.643 238.063 115.363 237.959 114.992 237.959C114.621 237.959 114.341 238.063 114.152 238.271C113.97 238.48 113.879 238.74 113.879 239.053Z" fill="black"/>
<defs>
<linearGradient id="paint0_linear" x1="123.5" y1="0" x2="123.5" y2="328" gradientUnits="userSpaceOnUse">
<stop stop-color="#9D1A1A"/>
<stop offset="1" stop-color="white" stop-opacity="0"/>
</linearGradient>
<linearGradient id="paint1_linear" x1="123.5" y1="0" x2="123.5" y2="328" gradientUnits="userSpaceOnUse">
<stop stop-color="#CFCED6"/>
<stop offset="1" stop-color="#B7C0F2"/>
</linearGradient>
</defs>
</svg>
