<svg width="247" height="328" viewBox="0 0 247 328" fill="none" xmlns="http://www.w3.org/2000/svg">
<rect width="247" height="328" rx="8" fill="url(#paint0_linear)"/>
<rect width="247" height="328" rx="8" fill="url(#paint1_linear)"/>
<path d="M16.0518 43H18.3711L20.5439 30.3657L20.6782 29.6089L20.8003 30.3535L22.9609 43H25.2681L27.4287 25.2266H25.2925L24.0107 37.458L23.9375 38.1904L23.8032 37.4702L21.6426 25.2266H19.6772L17.5288 37.458L17.3945 38.1904L17.3213 37.4824L16.0396 25.2266H13.8911L16.0518 43ZM38.8179 43H41.1738V42.8047C41.0273 42.4385 40.9134 42.0112 40.832 41.5229C40.7507 41.0265 40.71 40.5586 40.71 40.1191V33.979C40.71 33.2384 40.5757 32.5915 40.3071 32.0381C40.0386 31.4847 39.6724 31.0208 39.2085 30.6465C38.7365 30.2803 38.179 30.0076 37.5361 29.8286C36.8932 29.6414 36.1974 29.5479 35.4487 29.5479C34.6268 29.5479 33.8903 29.6618 33.2393 29.8896C32.5964 30.1175 32.0511 30.4146 31.6035 30.7808C31.1478 31.1551 30.7979 31.5742 30.5537 32.0381C30.3177 32.502 30.1956 32.974 30.1875 33.4541H32.458C32.458 33.1774 32.5231 32.9129 32.6533 32.6606C32.7917 32.4002 32.9829 32.1764 33.2271 31.9893C33.4712 31.8021 33.7682 31.6515 34.1182 31.5376C34.4762 31.4237 34.8791 31.3667 35.3267 31.3667C35.8068 31.3667 36.2381 31.4277 36.6206 31.5498C37.0112 31.6719 37.3408 31.8428 37.6094 32.0625C37.8779 32.2904 38.0854 32.563 38.2319 32.8804C38.3784 33.1978 38.4517 33.5558 38.4517 33.9546V34.9922H35.9858C35.0662 34.9922 34.2321 35.0817 33.4834 35.2607C32.7428 35.4398 32.1081 35.7083 31.5791 36.0664C31.0501 36.4326 30.6392 36.8883 30.3462 37.4336C30.0614 37.9788 29.9189 38.6136 29.9189 39.3379C29.9189 39.8913 30.0247 40.408 30.2363 40.8882C30.4561 41.3602 30.7653 41.7671 31.1641 42.1089C31.5547 42.4588 32.0308 42.7355 32.5923 42.939C33.1619 43.1424 33.7967 43.2441 34.4966 43.2441C34.9279 43.2441 35.3348 43.1994 35.7173 43.1099C36.0998 43.0203 36.4619 42.8983 36.8037 42.7437C37.1374 42.589 37.4425 42.41 37.7192 42.2065C38.0041 42.0031 38.2604 41.7874 38.4883 41.5596C38.5127 41.8363 38.5493 42.1048 38.5981 42.3652C38.6551 42.6175 38.7284 42.8291 38.8179 43ZM34.8262 41.2788C34.3867 41.2788 34.0002 41.2218 33.6665 41.1079C33.3328 40.994 33.0562 40.8353 32.8364 40.6318C32.6167 40.4365 32.4499 40.2005 32.3359 39.9238C32.2301 39.6471 32.1772 39.346 32.1772 39.0205C32.1772 38.6787 32.2383 38.3735 32.3604 38.105C32.4906 37.8364 32.6777 37.6045 32.9219 37.4092C33.2637 37.1325 33.7235 36.929 34.3013 36.7988C34.8872 36.6605 35.5708 36.5913 36.3521 36.5913H38.4517V39.2646C38.3215 39.5251 38.1424 39.7773 37.9146 40.0215C37.6867 40.2575 37.4181 40.4691 37.1089 40.6562C36.7915 40.8434 36.4416 40.994 36.0591 41.1079C35.6766 41.2218 35.2656 41.2788 34.8262 41.2788ZM50.5 26.5938H48.2295V29.792H44.7627V31.5376H48.2295V38.7153C48.2295 39.5291 48.3353 40.2249 48.5469 40.8027C48.7666 41.3724 49.0636 41.8363 49.438 42.1943C49.8123 42.5605 50.2518 42.8291 50.7563 43C51.269 43.1628 51.8184 43.2441 52.4043 43.2441C52.7542 43.2441 53.1042 43.2279 53.4541 43.1953C53.8122 43.1628 54.1499 43.1139 54.4673 43.0488C54.7847 42.9919 55.0776 42.9227 55.3462 42.8413C55.6147 42.7518 55.8426 42.6501 56.0298 42.5361L55.7124 40.937C55.5741 40.9696 55.395 41.0103 55.1753 41.0591C54.9637 41.0998 54.7358 41.1405 54.4917 41.1812C54.2394 41.2218 53.9831 41.2585 53.7227 41.291C53.4622 41.3154 53.21 41.3276 52.9658 41.3276C52.6322 41.3276 52.3148 41.2869 52.0137 41.2056C51.7207 41.1242 51.4603 40.9818 51.2324 40.7783C51.0046 40.583 50.8255 40.3185 50.6953 39.9849C50.5651 39.6512 50.5 39.228 50.5 38.7153V31.5376H55.5293V29.792H50.5V26.5938ZM66.0029 43.2441C67.2887 43.2441 68.367 42.9878 69.2378 42.4751C70.1167 41.9543 70.7759 41.3602 71.2153 40.6929L69.8359 39.6187C69.4209 40.1558 68.9001 40.5871 68.2734 40.9126C67.6468 41.2381 66.9307 41.4009 66.125 41.4009C65.5146 41.4009 64.9572 41.2869 64.4526 41.0591C63.9481 40.8312 63.5168 40.5179 63.1587 40.1191C62.8088 39.7448 62.5321 39.3135 62.3286 38.8252C62.1333 38.3369 62.0072 37.7713 61.9502 37.1284V37.043H71.3862V36.0298C71.3862 35.1102 71.2682 34.2557 71.0322 33.4663C70.8044 32.6769 70.4544 31.9893 69.9824 31.4033C69.5104 30.8255 68.9163 30.3739 68.2002 30.0483C67.4922 29.7147 66.6621 29.5479 65.71 29.5479C64.9531 29.5479 64.2126 29.7025 63.4883 30.0117C62.7721 30.321 62.1333 30.7645 61.5718 31.3423C61.0021 31.9282 60.5464 32.6444 60.2046 33.4907C59.8628 34.3289 59.6919 35.2811 59.6919 36.3472V36.8599C59.6919 37.7795 59.8465 38.6299 60.1558 39.4111C60.465 40.1924 60.8963 40.8678 61.4497 41.4375C62.0031 42.0072 62.6663 42.4507 63.4395 42.7681C64.2207 43.0854 65.0752 43.2441 66.0029 43.2441ZM65.71 31.4033C66.2878 31.4033 66.7842 31.5091 67.1992 31.7207C67.6224 31.9323 67.9723 32.209 68.249 32.5508C68.5257 32.8926 68.7414 33.2995 68.896 33.7715C69.0506 34.2354 69.1279 34.6707 69.1279 35.0776V35.1875H62.0234C62.113 34.5771 62.2676 34.04 62.4873 33.5762C62.7152 33.1042 62.9919 32.7054 63.3174 32.3799C63.6429 32.0625 64.0091 31.8224 64.416 31.6597C64.8229 31.4888 65.2542 31.4033 65.71 31.4033ZM83.8374 29.5479C82.8771 29.5479 82.0186 29.7594 81.2617 30.1826C80.513 30.5977 79.8701 31.1673 79.333 31.8916L79.3208 31.562L79.2231 29.792H77.0747V43H79.3452V34.5283C79.4917 34.1214 79.6748 33.7552 79.8945 33.4297C80.1224 33.096 80.3869 32.8153 80.688 32.5874C81.0216 32.327 81.4123 32.1317 81.8599 32.0015C82.3075 31.8631 82.8079 31.7939 83.3613 31.7939C83.7926 31.7939 84.2036 31.8184 84.5942 31.8672C84.993 31.9079 85.4121 31.9771 85.8516 32.0747L86.1567 29.8652C85.9289 29.7676 85.5871 29.6903 85.1313 29.6333C84.6838 29.5763 84.2524 29.5479 83.8374 29.5479ZM95.8247 41.4131C95.1167 41.4131 94.5226 41.2747 94.0425 40.998C93.5705 40.7132 93.1921 40.3429 92.9072 39.8872C92.6143 39.4396 92.4027 38.9351 92.2725 38.3735C92.1504 37.8039 92.0894 37.2301 92.0894 36.6523V36.1396C92.0894 35.57 92.1504 35.0044 92.2725 34.4429C92.4027 33.8813 92.6143 33.3727 92.9072 32.917C93.2002 32.4694 93.5827 32.1073 94.0547 31.8306C94.5348 31.5457 95.1248 31.4033 95.8247 31.4033C96.2804 31.4033 96.7036 31.4806 97.0942 31.6353C97.493 31.7899 97.8348 32.0015 98.1196 32.27C98.4045 32.5386 98.6283 32.8519 98.791 33.21C98.9619 33.5599 99.0514 33.9342 99.0596 34.333H101.196C101.196 33.6657 101.062 33.0391 100.793 32.4531C100.524 31.8672 100.154 31.3586 99.6821 30.9272C99.202 30.5041 98.6323 30.1704 97.9731 29.9263C97.3221 29.674 96.606 29.5479 95.8247 29.5479C94.8237 29.5479 93.9489 29.7269 93.2002 30.085C92.4515 30.443 91.8289 30.9232 91.3325 31.5254C90.828 32.1357 90.4495 32.8397 90.1973 33.6372C89.945 34.4347 89.8188 35.2689 89.8188 36.1396V36.6523C89.8188 37.5312 89.945 38.3695 90.1973 39.167C90.4495 39.9564 90.828 40.6522 91.3325 41.2544C91.8289 41.8647 92.4515 42.349 93.2002 42.707C93.9489 43.0651 94.8237 43.2441 95.8247 43.2441C96.5246 43.2441 97.196 43.1261 97.8389 42.8901C98.4818 42.646 99.0514 42.3205 99.5479 41.9136C100.044 41.5148 100.439 41.0509 100.732 40.522C101.033 39.9849 101.188 39.4233 101.196 38.8374H99.0596C99.0514 39.2036 98.9538 39.5454 98.7666 39.8628C98.5876 40.172 98.3475 40.4406 98.0464 40.6685C97.7453 40.9045 97.3994 41.0876 97.0088 41.2178C96.6263 41.348 96.2316 41.4131 95.8247 41.4131ZM104.577 36.2739V36.5425C104.577 37.4946 104.715 38.3776 104.992 39.1914C105.269 40.0052 105.668 40.7132 106.188 41.3154C106.701 41.9176 107.328 42.3896 108.068 42.7314C108.817 43.0732 109.659 43.2441 110.595 43.2441C111.523 43.2441 112.357 43.0732 113.098 42.7314C113.838 42.3896 114.469 41.9176 114.99 41.3154C115.502 40.7132 115.897 40.0052 116.174 39.1914C116.451 38.3776 116.589 37.4946 116.589 36.5425V36.2739C116.589 35.3218 116.451 34.4388 116.174 33.625C115.897 32.8031 115.502 32.091 114.99 31.4888C114.469 30.8866 113.834 30.4146 113.085 30.0728C112.345 29.7228 111.507 29.5479 110.571 29.5479C109.643 29.5479 108.809 29.7228 108.068 30.0728C107.328 30.4146 106.701 30.8866 106.188 31.4888C105.668 32.091 105.269 32.8031 104.992 33.625C104.715 34.4388 104.577 35.3218 104.577 36.2739ZM106.835 36.5425V36.2739C106.835 35.631 106.913 35.0166 107.067 34.4307C107.222 33.8366 107.458 33.3158 107.775 32.8682C108.085 32.4206 108.471 32.0666 108.935 31.8062C109.399 31.5376 109.944 31.4033 110.571 31.4033C111.197 31.4033 111.743 31.5376 112.207 31.8062C112.679 32.0666 113.073 32.4206 113.391 32.8682C113.7 33.3158 113.932 33.8366 114.086 34.4307C114.249 35.0166 114.331 35.631 114.331 36.2739V36.5425C114.331 37.1935 114.253 37.8161 114.099 38.4102C113.944 38.9961 113.712 39.5129 113.403 39.9604C113.085 40.408 112.691 40.762 112.219 41.0225C111.755 41.2829 111.214 41.4131 110.595 41.4131C109.969 41.4131 109.419 41.2829 108.947 41.0225C108.475 40.762 108.085 40.408 107.775 39.9604C107.458 39.5129 107.222 38.9961 107.067 38.4102C106.913 37.8161 106.835 37.1935 106.835 36.5425ZM120.581 24.25V26.2153H125.073V41.0469H120.581V43H131.64V41.0469H127.331V24.25H120.581ZM134.606 36.2739V36.5425C134.606 37.4946 134.745 38.3776 135.021 39.1914C135.298 40.0052 135.697 40.7132 136.218 41.3154C136.73 41.9176 137.357 42.3896 138.098 42.7314C138.846 43.0732 139.689 43.2441 140.625 43.2441C141.552 43.2441 142.386 43.0732 143.127 42.7314C143.868 42.3896 144.498 41.9176 145.019 41.3154C145.532 40.7132 145.926 40.0052 146.203 39.1914C146.48 38.3776 146.618 37.4946 146.618 36.5425V36.2739C146.618 35.3218 146.48 34.4388 146.203 33.625C145.926 32.8031 145.532 32.091 145.019 31.4888C144.498 30.8866 143.863 30.4146 143.115 30.0728C142.374 29.7228 141.536 29.5479 140.6 29.5479C139.672 29.5479 138.838 29.7228 138.098 30.0728C137.357 30.4146 136.73 30.8866 136.218 31.4888C135.697 32.091 135.298 32.8031 135.021 33.625C134.745 34.4388 134.606 35.3218 134.606 36.2739ZM136.865 36.5425V36.2739C136.865 35.631 136.942 35.0166 137.097 34.4307C137.251 33.8366 137.487 33.3158 137.805 32.8682C138.114 32.4206 138.5 32.0666 138.964 31.8062C139.428 31.5376 139.973 31.4033 140.6 31.4033C141.227 31.4033 141.772 31.5376 142.236 31.8062C142.708 32.0666 143.103 32.4206 143.42 32.8682C143.729 33.3158 143.961 33.8366 144.116 34.4307C144.278 35.0166 144.36 35.631 144.36 36.2739V36.5425C144.36 37.1935 144.283 37.8161 144.128 38.4102C143.973 38.9961 143.741 39.5129 143.432 39.9604C143.115 40.408 142.72 40.762 142.248 41.0225C141.784 41.2829 141.243 41.4131 140.625 41.4131C139.998 41.4131 139.449 41.2829 138.977 41.0225C138.505 40.762 138.114 40.408 137.805 39.9604C137.487 39.5129 137.251 38.9961 137.097 38.4102C136.942 37.8161 136.865 37.1935 136.865 36.5425ZM158.911 29.5479C157.95 29.5479 157.092 29.7594 156.335 30.1826C155.586 30.5977 154.943 31.1673 154.406 31.8916L154.394 31.562L154.296 29.792H152.148V43H154.418V34.5283C154.565 34.1214 154.748 33.7552 154.968 33.4297C155.196 33.096 155.46 32.8153 155.761 32.5874C156.095 32.327 156.486 32.1317 156.933 32.0015C157.381 31.8631 157.881 31.7939 158.435 31.7939C158.866 31.7939 159.277 31.8184 159.667 31.8672C160.066 31.9079 160.485 31.9771 160.925 32.0747L161.23 29.8652C161.002 29.7676 160.66 29.6903 160.205 29.6333C159.757 29.5763 159.326 29.5479 158.911 29.5479ZM26.6353 70.6533H24.377C24.3037 71.1904 24.1776 71.6909 23.9985 72.1548C23.8195 72.6105 23.5794 73.0052 23.2783 73.3389C22.9772 73.6807 22.6069 73.9451 22.1675 74.1323C21.7362 74.3195 21.2235 74.4131 20.6294 74.4131C20.0841 74.4131 19.6081 74.3276 19.2012 74.1567C18.7943 73.9777 18.4403 73.7336 18.1392 73.4243C17.8381 73.1232 17.5898 72.7733 17.3945 72.3745C17.1992 71.9757 17.0405 71.5485 16.9185 71.0928C16.7964 70.6452 16.7069 70.1895 16.6499 69.7256C16.6011 69.2536 16.5767 68.7979 16.5767 68.3584V65.856C16.5767 65.4165 16.6011 64.9648 16.6499 64.501C16.7069 64.029 16.7964 63.5692 16.9185 63.1216C17.0405 62.674 17.1992 62.2508 17.3945 61.8521C17.598 61.4533 17.8503 61.1034 18.1514 60.8022C18.4443 60.5011 18.7943 60.2651 19.2012 60.0942C19.6162 59.9152 20.0923 59.8257 20.6294 59.8257C21.2235 59.8257 21.7362 59.9274 22.1675 60.1309C22.6069 60.3262 22.9772 60.5988 23.2783 60.9487C23.5794 61.2987 23.8195 61.7056 23.9985 62.1694C24.1776 62.6333 24.3037 63.1338 24.377 63.6709H26.6353C26.5376 62.8245 26.3341 62.0514 26.0249 61.3516C25.7238 60.6517 25.321 60.0495 24.8164 59.5449C24.3118 59.0485 23.7096 58.666 23.0098 58.3975C22.3099 58.1208 21.5164 57.9824 20.6294 57.9824C19.8888 57.9824 19.2215 58.0882 18.6274 58.2998C18.0334 58.5033 17.5044 58.7881 17.0405 59.1543C16.5685 59.5205 16.1616 59.9559 15.8198 60.4604C15.4862 60.9569 15.2095 61.498 14.9897 62.084C14.7619 62.6699 14.591 63.2843 14.4771 63.9272C14.3713 64.5701 14.3143 65.2212 14.3062 65.8804V68.3584C14.3143 69.0176 14.3713 69.6686 14.4771 70.3115C14.591 70.9544 14.7619 71.5688 14.9897 72.1548C15.2095 72.7407 15.4862 73.2819 15.8198 73.7783C16.1616 74.2747 16.5685 74.7061 17.0405 75.0723C17.5044 75.4385 18.0334 75.7274 18.6274 75.939C19.2297 76.1424 19.897 76.2441 20.6294 76.2441C21.4839 76.2441 22.257 76.1099 22.9487 75.8413C23.6486 75.5646 24.2549 75.1781 24.7676 74.6816C25.2721 74.1934 25.6831 73.6074 26.0005 72.9238C26.3179 72.2321 26.5295 71.4753 26.6353 70.6533ZM30.4927 57.25V59.2153H34.9849V74.0469H30.4927V76H41.5522V74.0469H37.2432V57.25H30.4927ZM44.5186 69.2739V69.5425C44.5186 70.4946 44.6569 71.3776 44.9336 72.1914C45.2103 73.0052 45.609 73.7132 46.1299 74.3154C46.6426 74.9176 47.2692 75.3896 48.0098 75.7314C48.7585 76.0732 49.6007 76.2441 50.5366 76.2441C51.4644 76.2441 52.2985 76.0732 53.0391 75.7314C53.7796 75.3896 54.4103 74.9176 54.9312 74.3154C55.4438 73.7132 55.8385 73.0052 56.1152 72.1914C56.3919 71.3776 56.5303 70.4946 56.5303 69.5425V69.2739C56.5303 68.3218 56.3919 67.4388 56.1152 66.625C55.8385 65.8031 55.4438 65.091 54.9312 64.4888C54.4103 63.8866 53.7756 63.4146 53.0269 63.0728C52.2863 62.7228 51.4481 62.5479 50.5122 62.5479C49.5845 62.5479 48.7503 62.7228 48.0098 63.0728C47.2692 63.4146 46.6426 63.8866 46.1299 64.4888C45.609 65.091 45.2103 65.8031 44.9336 66.625C44.6569 67.4388 44.5186 68.3218 44.5186 69.2739ZM46.7769 69.5425V69.2739C46.7769 68.631 46.8542 68.0166 47.0088 67.4307C47.1634 66.8366 47.3994 66.3158 47.7168 65.8682C48.026 65.4206 48.4126 65.0666 48.8765 64.8062C49.3403 64.5376 49.8856 64.4033 50.5122 64.4033C51.1388 64.4033 51.6841 64.5376 52.1479 64.8062C52.62 65.0666 53.0146 65.4206 53.332 65.8682C53.6413 66.3158 53.8732 66.8366 54.0278 67.4307C54.1906 68.0166 54.272 68.631 54.272 69.2739V69.5425C54.272 70.1935 54.1947 70.8161 54.04 71.4102C53.8854 71.9961 53.6535 72.5129 53.3442 72.9604C53.0269 73.408 52.6322 73.762 52.1602 74.0225C51.6963 74.2829 51.1551 74.4131 50.5366 74.4131C49.91 74.4131 49.3607 74.2829 48.8887 74.0225C48.4167 73.762 48.026 73.408 47.7168 72.9604C47.3994 72.5129 47.1634 71.9961 47.0088 71.4102C46.8542 70.8161 46.7769 70.1935 46.7769 69.5425ZM65.7954 74.4131C65.0874 74.4131 64.4933 74.2747 64.0132 73.998C63.5412 73.7132 63.1628 73.3429 62.8779 72.8872C62.585 72.4396 62.3734 71.9351 62.2432 71.3735C62.1211 70.8039 62.0601 70.2301 62.0601 69.6523V69.1396C62.0601 68.57 62.1211 68.0044 62.2432 67.4429C62.3734 66.8813 62.585 66.3727 62.8779 65.917C63.1709 65.4694 63.5534 65.1073 64.0254 64.8306C64.5055 64.5457 65.0955 64.4033 65.7954 64.4033C66.2511 64.4033 66.6743 64.4806 67.0649 64.6353C67.4637 64.7899 67.8055 65.0015 68.0903 65.27C68.3752 65.5386 68.599 65.8519 68.7617 66.21C68.9326 66.5599 69.0221 66.9342 69.0303 67.333H71.1665C71.1665 66.6657 71.0322 66.0391 70.7637 65.4531C70.4951 64.8672 70.1248 64.3586 69.6528 63.9272C69.1727 63.5041 68.603 63.1704 67.9438 62.9263C67.2928 62.674 66.5767 62.5479 65.7954 62.5479C64.7944 62.5479 63.9196 62.7269 63.1709 63.085C62.4222 63.443 61.7996 63.9232 61.3032 64.5254C60.7987 65.1357 60.4202 65.8397 60.168 66.6372C59.9157 67.4347 59.7896 68.2689 59.7896 69.1396V69.6523C59.7896 70.5312 59.9157 71.3695 60.168 72.167C60.4202 72.9564 60.7987 73.6522 61.3032 74.2544C61.7996 74.8647 62.4222 75.349 63.1709 75.707C63.9196 76.0651 64.7944 76.2441 65.7954 76.2441C66.4953 76.2441 67.1667 76.1261 67.8096 75.8901C68.4525 75.646 69.0221 75.3205 69.5186 74.9136C70.015 74.5148 70.4097 74.0509 70.7026 73.522C71.0037 72.9849 71.1584 72.4233 71.1665 71.8374H69.0303C69.0221 72.2036 68.9245 72.5454 68.7373 72.8628C68.5583 73.172 68.3182 73.4406 68.0171 73.6685C67.716 73.9045 67.3701 74.0876 66.9795 74.2178C66.597 74.348 66.2023 74.4131 65.7954 74.4131ZM79.1377 69.8354L83.9839 76H86.8525L80.688 68.2974L86.0347 62.792H83.2881L78.9546 67.1377L77.4775 68.7246V57.25H75.207V76H77.4775V71.4346L79.1377 69.8354Z" fill="#DF5013"/>
<path d="M16.6816 121.781H14.4453V136H16.2031V130.326L16.0566 124.594L18.4688 132.045H19.5039L22.1309 124.389L21.9844 130.326V136H23.7422V121.781H21.4961L18.9961 128.891L16.6816 121.781ZM26.2031 130.619V130.834C26.2031 131.596 26.3138 132.302 26.5352 132.953C26.7565 133.604 27.0755 134.171 27.4922 134.652C27.9023 135.134 28.4036 135.512 28.9961 135.785C29.5951 136.059 30.2689 136.195 31.0176 136.195C31.7598 136.195 32.4271 136.059 33.0195 135.785C33.612 135.512 34.1165 135.134 34.5332 134.652C34.9434 134.171 35.2591 133.604 35.4805 132.953C35.7018 132.302 35.8125 131.596 35.8125 130.834V130.619C35.8125 129.857 35.7018 129.151 35.4805 128.5C35.2591 127.842 34.9434 127.273 34.5332 126.791C34.1165 126.309 33.6087 125.932 33.0098 125.658C32.4173 125.378 31.7467 125.238 30.998 125.238C30.2559 125.238 29.5885 125.378 28.9961 125.658C28.4036 125.932 27.9023 126.309 27.4922 126.791C27.0755 127.273 26.7565 127.842 26.5352 128.5C26.3138 129.151 26.2031 129.857 26.2031 130.619ZM28.0098 130.834V130.619C28.0098 130.105 28.0716 129.613 28.1953 129.145C28.319 128.669 28.5078 128.253 28.7617 127.895C29.0091 127.536 29.3184 127.253 29.6895 127.045C30.0605 126.83 30.4967 126.723 30.998 126.723C31.4993 126.723 31.9355 126.83 32.3066 127.045C32.6842 127.253 33 127.536 33.2539 127.895C33.5013 128.253 33.6868 128.669 33.8105 129.145C33.9408 129.613 34.0059 130.105 34.0059 130.619V130.834C34.0059 131.355 33.944 131.853 33.8203 132.328C33.6966 132.797 33.5111 133.21 33.2637 133.568C33.0098 133.926 32.694 134.21 32.3164 134.418C31.9453 134.626 31.5124 134.73 31.0176 134.73C30.5163 134.73 30.0768 134.626 29.6992 134.418C29.3216 134.21 29.0091 133.926 28.7617 133.568C28.5078 133.21 28.319 132.797 28.1953 132.328C28.0716 131.853 28.0098 131.355 28.0098 130.834ZM45.6465 125.238C44.8783 125.238 44.1914 125.408 43.5859 125.746C42.987 126.078 42.4727 126.534 42.043 127.113L42.0332 126.85L41.9551 125.434H40.2363V136H42.0527V129.223C42.1699 128.897 42.3164 128.604 42.4922 128.344C42.6745 128.077 42.8861 127.852 43.127 127.67C43.3939 127.462 43.7064 127.305 44.0645 127.201C44.4225 127.09 44.8229 127.035 45.2656 127.035C45.6107 127.035 45.9395 127.055 46.252 127.094C46.571 127.126 46.9062 127.182 47.2578 127.26L47.502 125.492C47.3197 125.414 47.0462 125.352 46.6816 125.307C46.3236 125.261 45.9785 125.238 45.6465 125.238ZM55.4023 136.195C56.431 136.195 57.2936 135.99 57.9902 135.58C58.6934 135.163 59.2207 134.688 59.5723 134.154L58.4688 133.295C58.1367 133.725 57.7201 134.07 57.2188 134.33C56.7174 134.59 56.1445 134.721 55.5 134.721C55.0117 134.721 54.5658 134.63 54.1621 134.447C53.7585 134.265 53.4134 134.014 53.127 133.695C52.847 133.396 52.6257 133.051 52.4629 132.66C52.3066 132.27 52.2057 131.817 52.1602 131.303V131.234H59.709V130.424C59.709 129.688 59.6146 129.005 59.4258 128.373C59.2435 127.742 58.9635 127.191 58.5859 126.723C58.2083 126.26 57.7331 125.899 57.1602 125.639C56.5938 125.372 55.9297 125.238 55.168 125.238C54.5625 125.238 53.9701 125.362 53.3906 125.609C52.8177 125.857 52.3066 126.212 51.8574 126.674C51.4017 127.143 51.0371 127.715 50.7637 128.393C50.4902 129.063 50.3535 129.825 50.3535 130.678V131.088C50.3535 131.824 50.4772 132.504 50.7246 133.129C50.972 133.754 51.3171 134.294 51.7598 134.75C52.2025 135.206 52.7331 135.561 53.3516 135.814C53.9766 136.068 54.6602 136.195 55.4023 136.195ZM55.168 126.723C55.6302 126.723 56.0273 126.807 56.3594 126.977C56.6979 127.146 56.9779 127.367 57.1992 127.641C57.4206 127.914 57.5931 128.24 57.7168 128.617C57.8405 128.988 57.9023 129.337 57.9023 129.662V129.75H52.2188C52.2904 129.262 52.4141 128.832 52.5898 128.461C52.7721 128.083 52.9935 127.764 53.2539 127.504C53.5143 127.25 53.8073 127.058 54.1328 126.928C54.4583 126.791 54.8034 126.723 55.168 126.723ZM74.748 140.062H76.5547V134.984C76.6849 135.128 76.8249 135.261 76.9746 135.385C77.1243 135.502 77.2839 135.609 77.4531 135.707C77.7331 135.863 78.0456 135.984 78.3906 136.068C78.7422 136.153 79.1198 136.195 79.5234 136.195C80.1875 136.195 80.7767 136.059 81.291 135.785C81.8118 135.512 82.248 135.134 82.5996 134.652C82.9512 134.171 83.2181 133.604 83.4004 132.953C83.5827 132.296 83.6738 131.589 83.6738 130.834V130.629C83.6738 129.841 83.5827 129.118 83.4004 128.461C83.2181 127.797 82.9512 127.227 82.5996 126.752C82.248 126.277 81.8118 125.906 81.291 125.639C80.7702 125.372 80.1712 125.238 79.4941 125.238C79.11 125.238 78.7487 125.281 78.4102 125.365C78.0781 125.443 77.7754 125.561 77.502 125.717C77.3066 125.821 77.1243 125.948 76.9551 126.098C76.7858 126.241 76.6296 126.404 76.4863 126.586L76.3984 125.434H74.748V140.062ZM81.8672 130.629V130.834C81.8672 131.348 81.8086 131.84 81.6914 132.309C81.5807 132.777 81.4082 133.191 81.1738 133.549C80.9395 133.907 80.64 134.193 80.2754 134.408C79.9108 134.617 79.4779 134.721 78.9766 134.721C78.6641 134.721 78.3776 134.682 78.1172 134.604C77.8633 134.525 77.6322 134.418 77.4238 134.281C77.2415 134.164 77.0788 134.021 76.9355 133.852C76.7923 133.682 76.6654 133.5 76.5547 133.305V128.217C76.6784 127.995 76.8216 127.794 76.9844 127.611C77.1471 127.429 77.3327 127.276 77.541 127.152C77.7298 127.029 77.9414 126.934 78.1758 126.869C78.4167 126.804 78.6771 126.771 78.957 126.771C79.4648 126.771 79.901 126.876 80.2656 127.084C80.6302 127.292 80.9329 127.572 81.1738 127.924C81.4082 128.282 81.5807 128.695 81.6914 129.164C81.8086 129.626 81.8672 130.115 81.8672 130.629ZM93.6934 125.238C92.9251 125.238 92.2383 125.408 91.6328 125.746C91.0339 126.078 90.5195 126.534 90.0898 127.113L90.0801 126.85L90.002 125.434H88.2832V136H90.0996V129.223C90.2168 128.897 90.3633 128.604 90.5391 128.344C90.7214 128.077 90.9329 127.852 91.1738 127.67C91.4408 127.462 91.7533 127.305 92.1113 127.201C92.4694 127.09 92.8698 127.035 93.3125 127.035C93.6576 127.035 93.9863 127.055 94.2988 127.094C94.6178 127.126 94.9531 127.182 95.3047 127.26L95.5488 125.492C95.3665 125.414 95.0931 125.352 94.7285 125.307C94.3704 125.261 94.0254 125.238 93.6934 125.238ZM105.725 136H107.609V135.844C107.492 135.551 107.401 135.209 107.336 134.818C107.271 134.421 107.238 134.047 107.238 133.695V128.783C107.238 128.191 107.131 127.673 106.916 127.23C106.701 126.788 106.408 126.417 106.037 126.117C105.66 125.824 105.214 125.606 104.699 125.463C104.185 125.313 103.628 125.238 103.029 125.238C102.372 125.238 101.783 125.329 101.262 125.512C100.747 125.694 100.311 125.932 99.9531 126.225C99.5885 126.524 99.3086 126.859 99.1133 127.23C98.9245 127.602 98.8268 127.979 98.8203 128.363H100.637C100.637 128.142 100.689 127.93 100.793 127.729C100.904 127.52 101.057 127.341 101.252 127.191C101.447 127.042 101.685 126.921 101.965 126.83C102.251 126.739 102.574 126.693 102.932 126.693C103.316 126.693 103.661 126.742 103.967 126.84C104.279 126.938 104.543 127.074 104.758 127.25C104.973 127.432 105.139 127.65 105.256 127.904C105.373 128.158 105.432 128.445 105.432 128.764V129.594H103.459C102.723 129.594 102.056 129.665 101.457 129.809C100.865 129.952 100.357 130.167 99.9336 130.453C99.5104 130.746 99.1816 131.111 98.9473 131.547C98.7194 131.983 98.6055 132.491 98.6055 133.07C98.6055 133.513 98.6901 133.926 98.8594 134.311C99.0352 134.688 99.2826 135.014 99.6016 135.287C99.9141 135.567 100.295 135.788 100.744 135.951C101.2 136.114 101.708 136.195 102.268 136.195C102.613 136.195 102.938 136.16 103.244 136.088C103.55 136.016 103.84 135.919 104.113 135.795C104.38 135.671 104.624 135.528 104.846 135.365C105.074 135.202 105.279 135.03 105.461 134.848C105.48 135.069 105.51 135.284 105.549 135.492C105.594 135.694 105.653 135.863 105.725 136ZM102.531 134.623C102.18 134.623 101.87 134.577 101.604 134.486C101.337 134.395 101.115 134.268 100.939 134.105C100.764 133.949 100.63 133.76 100.539 133.539C100.454 133.318 100.412 133.077 100.412 132.816C100.412 132.543 100.461 132.299 100.559 132.084C100.663 131.869 100.812 131.684 101.008 131.527C101.281 131.306 101.649 131.143 102.111 131.039C102.58 130.928 103.127 130.873 103.752 130.873H105.432V133.012C105.327 133.22 105.184 133.422 105.002 133.617C104.82 133.806 104.605 133.975 104.357 134.125C104.104 134.275 103.824 134.395 103.518 134.486C103.212 134.577 102.883 134.623 102.531 134.623ZM115.295 134.73C114.729 134.73 114.253 134.62 113.869 134.398C113.492 134.171 113.189 133.874 112.961 133.51C112.727 133.152 112.557 132.748 112.453 132.299C112.355 131.843 112.307 131.384 112.307 130.922V130.512C112.307 130.056 112.355 129.604 112.453 129.154C112.557 128.705 112.727 128.298 112.961 127.934C113.195 127.576 113.501 127.286 113.879 127.064C114.263 126.837 114.735 126.723 115.295 126.723C115.66 126.723 115.998 126.785 116.311 126.908C116.63 127.032 116.903 127.201 117.131 127.416C117.359 127.631 117.538 127.882 117.668 128.168C117.805 128.448 117.876 128.747 117.883 129.066H119.592C119.592 128.533 119.484 128.031 119.27 127.562C119.055 127.094 118.758 126.687 118.381 126.342C117.997 126.003 117.541 125.736 117.014 125.541C116.493 125.339 115.92 125.238 115.295 125.238C114.494 125.238 113.794 125.382 113.195 125.668C112.596 125.954 112.098 126.339 111.701 126.82C111.298 127.309 110.995 127.872 110.793 128.51C110.591 129.148 110.49 129.815 110.49 130.512V130.922C110.49 131.625 110.591 132.296 110.793 132.934C110.995 133.565 111.298 134.122 111.701 134.604C112.098 135.092 112.596 135.479 113.195 135.766C113.794 136.052 114.494 136.195 115.295 136.195C115.855 136.195 116.392 136.101 116.906 135.912C117.421 135.717 117.876 135.456 118.273 135.131C118.671 134.812 118.986 134.441 119.221 134.018C119.462 133.588 119.585 133.139 119.592 132.67H117.883C117.876 132.963 117.798 133.236 117.648 133.49C117.505 133.738 117.313 133.952 117.072 134.135C116.831 134.324 116.555 134.47 116.242 134.574C115.936 134.678 115.62 134.73 115.295 134.73ZM127.082 122.875H125.266V125.434H122.492V126.83H125.266V132.572C125.266 133.223 125.35 133.78 125.52 134.242C125.695 134.698 125.933 135.069 126.232 135.355C126.532 135.648 126.883 135.863 127.287 136C127.697 136.13 128.137 136.195 128.605 136.195C128.885 136.195 129.165 136.182 129.445 136.156C129.732 136.13 130.002 136.091 130.256 136.039C130.51 135.993 130.744 135.938 130.959 135.873C131.174 135.801 131.356 135.72 131.506 135.629L131.252 134.35C131.141 134.376 130.998 134.408 130.822 134.447C130.653 134.48 130.471 134.512 130.275 134.545C130.074 134.577 129.868 134.607 129.66 134.633C129.452 134.652 129.25 134.662 129.055 134.662C128.788 134.662 128.534 134.63 128.293 134.564C128.059 134.499 127.85 134.385 127.668 134.223C127.486 134.066 127.342 133.855 127.238 133.588C127.134 133.321 127.082 132.982 127.082 132.572V126.83H131.105V125.434H127.082V122.875ZM135.1 125.434V127.006H138.693V134.438H135.1V136H143.947V134.438H140.5V125.434H135.1ZM138.459 122.66C138.459 122.953 138.547 123.197 138.723 123.393C138.905 123.588 139.178 123.686 139.543 123.686C139.901 123.686 140.171 123.588 140.354 123.393C140.536 123.197 140.627 122.953 140.627 122.66C140.627 122.497 140.601 122.348 140.549 122.211C140.497 122.074 140.419 121.96 140.314 121.869C140.23 121.785 140.122 121.719 139.992 121.674C139.862 121.622 139.712 121.596 139.543 121.596C139.374 121.596 139.221 121.622 139.084 121.674C138.954 121.719 138.846 121.785 138.762 121.869C138.658 121.967 138.579 122.084 138.527 122.221C138.482 122.357 138.459 122.504 138.459 122.66ZM151.33 134.73C150.764 134.73 150.288 134.62 149.904 134.398C149.527 134.171 149.224 133.874 148.996 133.51C148.762 133.152 148.592 132.748 148.488 132.299C148.391 131.843 148.342 131.384 148.342 130.922V130.512C148.342 130.056 148.391 129.604 148.488 129.154C148.592 128.705 148.762 128.298 148.996 127.934C149.23 127.576 149.536 127.286 149.914 127.064C150.298 126.837 150.77 126.723 151.33 126.723C151.695 126.723 152.033 126.785 152.346 126.908C152.665 127.032 152.938 127.201 153.166 127.416C153.394 127.631 153.573 127.882 153.703 128.168C153.84 128.448 153.911 128.747 153.918 129.066H155.627C155.627 128.533 155.52 128.031 155.305 127.562C155.09 127.094 154.794 126.687 154.416 126.342C154.032 126.003 153.576 125.736 153.049 125.541C152.528 125.339 151.955 125.238 151.33 125.238C150.529 125.238 149.829 125.382 149.23 125.668C148.632 125.954 148.133 126.339 147.736 126.82C147.333 127.309 147.03 127.872 146.828 128.51C146.626 129.148 146.525 129.815 146.525 130.512V130.922C146.525 131.625 146.626 132.296 146.828 132.934C147.03 133.565 147.333 134.122 147.736 134.604C148.133 135.092 148.632 135.479 149.23 135.766C149.829 136.052 150.529 136.195 151.33 136.195C151.89 136.195 152.427 136.101 152.941 135.912C153.456 135.717 153.911 135.456 154.309 135.131C154.706 134.812 155.021 134.441 155.256 134.018C155.497 133.588 155.62 133.139 155.627 132.67H153.918C153.911 132.963 153.833 133.236 153.684 133.49C153.54 133.738 153.348 133.952 153.107 134.135C152.867 134.324 152.59 134.47 152.277 134.574C151.971 134.678 151.656 134.73 151.33 134.73ZM163.508 136.195C164.536 136.195 165.399 135.99 166.096 135.58C166.799 135.163 167.326 134.688 167.678 134.154L166.574 133.295C166.242 133.725 165.826 134.07 165.324 134.33C164.823 134.59 164.25 134.721 163.605 134.721C163.117 134.721 162.671 134.63 162.268 134.447C161.864 134.265 161.519 134.014 161.232 133.695C160.952 133.396 160.731 133.051 160.568 132.66C160.412 132.27 160.311 131.817 160.266 131.303V131.234H167.814V130.424C167.814 129.688 167.72 129.005 167.531 128.373C167.349 127.742 167.069 127.191 166.691 126.723C166.314 126.26 165.839 125.899 165.266 125.639C164.699 125.372 164.035 125.238 163.273 125.238C162.668 125.238 162.076 125.362 161.496 125.609C160.923 125.857 160.412 126.212 159.963 126.674C159.507 127.143 159.143 127.715 158.869 128.393C158.596 129.063 158.459 129.825 158.459 130.678V131.088C158.459 131.824 158.583 132.504 158.83 133.129C159.077 133.754 159.423 134.294 159.865 134.75C160.308 135.206 160.839 135.561 161.457 135.814C162.082 136.068 162.766 136.195 163.508 136.195ZM163.273 126.723C163.736 126.723 164.133 126.807 164.465 126.977C164.803 127.146 165.083 127.367 165.305 127.641C165.526 127.914 165.699 128.24 165.822 128.617C165.946 128.988 166.008 129.337 166.008 129.662V129.75H160.324C160.396 129.262 160.52 128.832 160.695 128.461C160.878 128.083 161.099 127.764 161.359 127.504C161.62 127.25 161.913 127.058 162.238 126.928C162.564 126.791 162.909 126.723 163.273 126.723ZM183.879 136H185.305L186.936 129.525L187.199 127.885L187.473 129.525L189.123 136H190.549L192.795 125.434H191.193L190.021 132.172L189.758 133.832L189.475 132.172L187.795 125.434H186.633L184.943 132.172L184.68 133.686L184.465 132.172L183.234 125.434H181.633L183.879 136ZM195.158 125.434V127.006H198.752V134.438H195.158V136H204.006V134.438H200.559V125.434H195.158ZM198.518 122.66C198.518 122.953 198.605 123.197 198.781 123.393C198.964 123.588 199.237 123.686 199.602 123.686C199.96 123.686 200.23 123.588 200.412 123.393C200.594 123.197 200.686 122.953 200.686 122.66C200.686 122.497 200.66 122.348 200.607 122.211C200.555 122.074 200.477 121.96 200.373 121.869C200.288 121.785 200.181 121.719 200.051 121.674C199.921 121.622 199.771 121.596 199.602 121.596C199.432 121.596 199.279 121.622 199.143 121.674C199.012 121.719 198.905 121.785 198.82 121.869C198.716 121.967 198.638 122.084 198.586 122.221C198.54 122.357 198.518 122.504 198.518 122.66ZM211.164 122.875H209.348V125.434H206.574V126.83H209.348V132.572C209.348 133.223 209.432 133.78 209.602 134.242C209.777 134.698 210.015 135.069 210.314 135.355C210.614 135.648 210.965 135.863 211.369 136C211.779 136.13 212.219 136.195 212.688 136.195C212.967 136.195 213.247 136.182 213.527 136.156C213.814 136.13 214.084 136.091 214.338 136.039C214.592 135.993 214.826 135.938 215.041 135.873C215.256 135.801 215.438 135.72 215.588 135.629L215.334 134.35C215.223 134.376 215.08 134.408 214.904 134.447C214.735 134.48 214.553 134.512 214.357 134.545C214.156 134.577 213.951 134.607 213.742 134.633C213.534 134.652 213.332 134.662 213.137 134.662C212.87 134.662 212.616 134.63 212.375 134.564C212.141 134.499 211.932 134.385 211.75 134.223C211.568 134.066 211.424 133.855 211.32 133.588C211.216 133.321 211.164 132.982 211.164 132.572V126.83H215.188V125.434H211.164V122.875ZM220.705 127.006V121H218.898V136H220.705V128.324C220.835 128.116 220.982 127.927 221.145 127.758C221.314 127.582 221.496 127.429 221.691 127.299C221.939 127.13 222.209 126.999 222.502 126.908C222.795 126.817 223.104 126.771 223.43 126.771C223.827 126.765 224.178 126.82 224.484 126.938C224.79 127.048 225.044 127.217 225.246 127.445C225.435 127.654 225.578 127.917 225.676 128.236C225.773 128.549 225.822 128.913 225.822 129.33V136H227.629V129.35C227.629 128.64 227.541 128.028 227.365 127.514C227.196 126.993 226.952 126.563 226.633 126.225C226.314 125.886 225.926 125.639 225.471 125.482C225.021 125.32 224.52 125.238 223.967 125.238C223.544 125.245 223.143 125.307 222.766 125.424C222.395 125.541 222.053 125.714 221.74 125.941C221.545 126.078 221.359 126.238 221.184 126.42C221.008 126.596 220.848 126.791 220.705 127.006ZM21.3691 147.781V157.674C21.3561 158.077 21.2845 158.462 21.1543 158.826C21.0306 159.184 20.8516 159.5 20.6172 159.773C20.3763 160.047 20.0866 160.265 19.748 160.428C19.4095 160.584 19.0254 160.662 18.5957 160.662C18.179 160.662 17.8014 160.594 17.4629 160.457C17.1309 160.32 16.8444 160.125 16.6035 159.871C16.3626 159.624 16.1706 159.331 16.0273 158.992C15.8906 158.654 15.8125 158.286 15.793 157.889H13.957C14.0156 158.546 14.1654 159.142 14.4062 159.676C14.6471 160.203 14.9694 160.652 15.373 161.023C15.7702 161.401 16.2389 161.691 16.7793 161.893C17.3262 162.094 17.9316 162.195 18.5957 162.195C19.2533 162.195 19.8587 162.085 20.4121 161.863C20.972 161.635 21.457 161.32 21.8672 160.916C22.2773 160.519 22.5996 160.044 22.834 159.49C23.0749 158.937 23.2018 158.331 23.2148 157.674V147.781H21.3691ZM33.6543 162H35.5391V161.844C35.4219 161.551 35.3307 161.209 35.2656 160.818C35.2005 160.421 35.168 160.047 35.168 159.695V154.783C35.168 154.191 35.0605 153.673 34.8457 153.23C34.6309 152.788 34.3379 152.417 33.9668 152.117C33.5892 151.824 33.1432 151.606 32.6289 151.463C32.1146 151.313 31.5579 151.238 30.959 151.238C30.3014 151.238 29.7122 151.329 29.1914 151.512C28.6771 151.694 28.2409 151.932 27.8828 152.225C27.5182 152.524 27.2383 152.859 27.043 153.23C26.8542 153.602 26.7565 153.979 26.75 154.363H28.5664C28.5664 154.142 28.6185 153.93 28.7227 153.729C28.8333 153.52 28.9863 153.341 29.1816 153.191C29.377 153.042 29.6146 152.921 29.8945 152.83C30.181 152.739 30.5033 152.693 30.8613 152.693C31.2454 152.693 31.5905 152.742 31.8965 152.84C32.209 152.938 32.4727 153.074 32.6875 153.25C32.9023 153.432 33.0684 153.65 33.1855 153.904C33.3027 154.158 33.3613 154.445 33.3613 154.764V155.594H31.3887C30.653 155.594 29.9857 155.665 29.3867 155.809C28.7943 155.952 28.2865 156.167 27.8633 156.453C27.4401 156.746 27.1113 157.111 26.877 157.547C26.6491 157.983 26.5352 158.491 26.5352 159.07C26.5352 159.513 26.6198 159.926 26.7891 160.311C26.9648 160.688 27.2122 161.014 27.5312 161.287C27.8438 161.567 28.2246 161.788 28.6738 161.951C29.1296 162.114 29.6374 162.195 30.1973 162.195C30.5423 162.195 30.8678 162.16 31.1738 162.088C31.4798 162.016 31.7695 161.919 32.043 161.795C32.3099 161.671 32.554 161.528 32.7754 161.365C33.0033 161.202 33.2083 161.03 33.3906 160.848C33.4102 161.069 33.4395 161.284 33.4785 161.492C33.5241 161.694 33.5827 161.863 33.6543 162ZM30.4609 160.623C30.1094 160.623 29.8001 160.577 29.5332 160.486C29.2663 160.395 29.0449 160.268 28.8691 160.105C28.6934 159.949 28.5599 159.76 28.4688 159.539C28.3841 159.318 28.3418 159.077 28.3418 158.816C28.3418 158.543 28.3906 158.299 28.4883 158.084C28.5924 157.869 28.7422 157.684 28.9375 157.527C29.2109 157.306 29.5788 157.143 30.041 157.039C30.5098 156.928 31.0566 156.873 31.6816 156.873H33.3613V159.012C33.2572 159.22 33.1139 159.422 32.9316 159.617C32.7493 159.806 32.5345 159.975 32.2871 160.125C32.0332 160.275 31.7533 160.395 31.4473 160.486C31.1413 160.577 30.8125 160.623 30.4609 160.623ZM42.3262 162H43.7031L48.0098 151.434H46.1641L43.2051 159.402L43.0293 160.057L42.8633 159.402L39.8359 151.434H37.9805L42.3262 162ZM57.6777 162H59.5625V161.844C59.4453 161.551 59.3542 161.209 59.2891 160.818C59.224 160.421 59.1914 160.047 59.1914 159.695V154.783C59.1914 154.191 59.084 153.673 58.8691 153.23C58.6543 152.788 58.3613 152.417 57.9902 152.117C57.6126 151.824 57.1667 151.606 56.6523 151.463C56.138 151.313 55.5814 151.238 54.9824 151.238C54.3249 151.238 53.7357 151.329 53.2148 151.512C52.7005 151.694 52.2643 151.932 51.9062 152.225C51.5417 152.524 51.2617 152.859 51.0664 153.23C50.8776 153.602 50.7799 153.979 50.7734 154.363H52.5898C52.5898 154.142 52.6419 153.93 52.7461 153.729C52.8568 153.52 53.0098 153.341 53.2051 153.191C53.4004 153.042 53.638 152.921 53.918 152.83C54.2044 152.739 54.5267 152.693 54.8848 152.693C55.2689 152.693 55.6139 152.742 55.9199 152.84C56.2324 152.938 56.4961 153.074 56.7109 153.25C56.9258 153.432 57.0918 153.65 57.209 153.904C57.3262 154.158 57.3848 154.445 57.3848 154.764V155.594H55.4121C54.6764 155.594 54.0091 155.665 53.4102 155.809C52.8177 155.952 52.3099 156.167 51.8867 156.453C51.4635 156.746 51.1348 157.111 50.9004 157.547C50.6725 157.983 50.5586 158.491 50.5586 159.07C50.5586 159.513 50.6432 159.926 50.8125 160.311C50.9883 160.688 51.2357 161.014 51.5547 161.287C51.8672 161.567 52.248 161.788 52.6973 161.951C53.153 162.114 53.6608 162.195 54.2207 162.195C54.5658 162.195 54.8913 162.16 55.1973 162.088C55.5033 162.016 55.793 161.919 56.0664 161.795C56.3333 161.671 56.5775 161.528 56.7988 161.365C57.0267 161.202 57.2318 161.03 57.4141 160.848C57.4336 161.069 57.4629 161.284 57.502 161.492C57.5475 161.694 57.6061 161.863 57.6777 162ZM54.4844 160.623C54.1328 160.623 53.8236 160.577 53.5566 160.486C53.2897 160.395 53.0684 160.268 52.8926 160.105C52.7168 159.949 52.5833 159.76 52.4922 159.539C52.4076 159.318 52.3652 159.077 52.3652 158.816C52.3652 158.543 52.4141 158.299 52.5117 158.084C52.6159 157.869 52.7656 157.684 52.9609 157.527C53.2344 157.306 53.6022 157.143 54.0645 157.039C54.5332 156.928 55.0801 156.873 55.7051 156.873H57.3848V159.012C57.2806 159.22 57.1374 159.422 56.9551 159.617C56.7728 159.806 56.5579 159.975 56.3105 160.125C56.0566 160.275 55.7767 160.395 55.4707 160.486C55.1647 160.577 54.8359 160.623 54.4844 160.623ZM82.1992 158.406C82.1992 158.797 82.1146 159.135 81.9453 159.422C81.776 159.702 81.5579 159.933 81.291 160.115C81.0241 160.304 80.7181 160.444 80.373 160.535C80.0345 160.62 79.6895 160.662 79.3379 160.662C78.8952 160.662 78.485 160.604 78.1074 160.486C77.7363 160.363 77.4076 160.18 77.1211 159.939C76.8346 159.705 76.6003 159.419 76.418 159.08C76.2357 158.735 76.1152 158.341 76.0566 157.898H74.2109C74.2305 158.51 74.3639 159.067 74.6113 159.568C74.8652 160.063 75.207 160.496 75.6367 160.867C76.1185 161.297 76.6849 161.626 77.3359 161.854C77.9935 162.081 78.6608 162.195 79.3379 162.195C79.9043 162.195 80.4707 162.117 81.0371 161.961C81.6035 161.798 82.1113 161.557 82.5605 161.238C83.0098 160.926 83.3743 160.532 83.6543 160.057C83.9408 159.581 84.084 159.025 84.084 158.387C84.084 157.755 83.9505 157.199 83.6836 156.717C83.4232 156.235 83.0781 155.828 82.6484 155.496C82.2122 155.138 81.7305 154.845 81.2031 154.617C80.6758 154.383 80.1484 154.184 79.6211 154.021C79.3021 153.924 78.9603 153.81 78.5957 153.68C78.2376 153.549 77.9056 153.387 77.5996 153.191C77.2871 152.996 77.0299 152.758 76.8281 152.479C76.6263 152.192 76.5221 151.844 76.5156 151.434C76.5156 151.056 76.5905 150.724 76.7402 150.438C76.8965 150.151 77.1048 149.91 77.3652 149.715C77.6191 149.52 77.9089 149.373 78.2344 149.275C78.5664 149.178 78.9049 149.129 79.25 149.129C79.6797 149.129 80.0638 149.197 80.4023 149.334C80.7474 149.464 81.0436 149.65 81.291 149.891C81.5384 150.132 81.737 150.421 81.8867 150.76C82.0365 151.092 82.1374 151.463 82.1895 151.873H84.0449C84.0319 151.222 83.8919 150.633 83.625 150.105C83.3581 149.578 83.0033 149.129 82.5605 148.758C82.1178 148.387 81.61 148.1 81.0371 147.898C80.4642 147.69 79.8685 147.586 79.25 147.586C78.6901 147.586 78.1335 147.674 77.5801 147.85C77.0267 148.019 76.5319 148.27 76.0957 148.602C75.6595 148.934 75.3047 149.34 75.0312 149.822C74.7643 150.304 74.6309 150.851 74.6309 151.463C74.6309 152.075 74.7643 152.609 75.0312 153.064C75.3047 153.514 75.6562 153.904 76.0859 154.236C76.5091 154.562 76.9779 154.842 77.4922 155.076C78.013 155.304 78.5241 155.499 79.0254 155.662C79.3704 155.773 79.7285 155.896 80.0996 156.033C80.4772 156.17 80.8223 156.339 81.1348 156.541C81.4473 156.749 81.7012 157.003 81.8965 157.303C82.0983 157.602 82.1992 157.97 82.1992 158.406ZM91.2715 160.73C90.7051 160.73 90.2298 160.62 89.8457 160.398C89.4681 160.171 89.1654 159.874 88.9375 159.51C88.7031 159.152 88.5339 158.748 88.4297 158.299C88.332 157.843 88.2832 157.384 88.2832 156.922V156.512C88.2832 156.056 88.332 155.604 88.4297 155.154C88.5339 154.705 88.7031 154.298 88.9375 153.934C89.1719 153.576 89.4779 153.286 89.8555 153.064C90.2396 152.837 90.7116 152.723 91.2715 152.723C91.6361 152.723 91.9746 152.785 92.2871 152.908C92.6061 153.032 92.8796 153.201 93.1074 153.416C93.3353 153.631 93.5143 153.882 93.6445 154.168C93.7812 154.448 93.8529 154.747 93.8594 155.066H95.5684C95.5684 154.533 95.4609 154.031 95.2461 153.562C95.0312 153.094 94.735 152.687 94.3574 152.342C93.9733 152.003 93.5176 151.736 92.9902 151.541C92.4694 151.339 91.8965 151.238 91.2715 151.238C90.4707 151.238 89.7708 151.382 89.1719 151.668C88.5729 151.954 88.0749 152.339 87.6777 152.82C87.2741 153.309 86.9714 153.872 86.7695 154.51C86.5677 155.148 86.4668 155.815 86.4668 156.512V156.922C86.4668 157.625 86.5677 158.296 86.7695 158.934C86.9714 159.565 87.2741 160.122 87.6777 160.604C88.0749 161.092 88.5729 161.479 89.1719 161.766C89.7708 162.052 90.4707 162.195 91.2715 162.195C91.8314 162.195 92.3685 162.101 92.8828 161.912C93.3971 161.717 93.8529 161.456 94.25 161.131C94.6471 160.812 94.9629 160.441 95.1973 160.018C95.4382 159.588 95.5618 159.139 95.5684 158.67H93.8594C93.8529 158.963 93.7747 159.236 93.625 159.49C93.4818 159.738 93.2897 159.952 93.0488 160.135C92.8079 160.324 92.5312 160.47 92.2188 160.574C91.9128 160.678 91.597 160.73 91.2715 160.73ZM105.705 151.238C104.937 151.238 104.25 151.408 103.645 151.746C103.046 152.078 102.531 152.534 102.102 153.113L102.092 152.85L102.014 151.434H100.295V162H102.111V155.223C102.229 154.897 102.375 154.604 102.551 154.344C102.733 154.077 102.945 153.852 103.186 153.67C103.452 153.462 103.765 153.305 104.123 153.201C104.481 153.09 104.882 153.035 105.324 153.035C105.669 153.035 105.998 153.055 106.311 153.094C106.63 153.126 106.965 153.182 107.316 153.26L107.561 151.492C107.378 151.414 107.105 151.352 106.74 151.307C106.382 151.261 106.037 151.238 105.705 151.238ZM111.076 151.434V153.006H114.67V160.438H111.076V162H119.924V160.438H116.477V151.434H111.076ZM114.436 148.66C114.436 148.953 114.523 149.197 114.699 149.393C114.882 149.588 115.155 149.686 115.52 149.686C115.878 149.686 116.148 149.588 116.33 149.393C116.512 149.197 116.604 148.953 116.604 148.66C116.604 148.497 116.577 148.348 116.525 148.211C116.473 148.074 116.395 147.96 116.291 147.869C116.206 147.785 116.099 147.719 115.969 147.674C115.839 147.622 115.689 147.596 115.52 147.596C115.35 147.596 115.197 147.622 115.061 147.674C114.93 147.719 114.823 147.785 114.738 147.869C114.634 147.967 114.556 148.084 114.504 148.221C114.458 148.357 114.436 148.504 114.436 148.66ZM122.795 166.062H124.602V160.984C124.732 161.128 124.872 161.261 125.021 161.385C125.171 161.502 125.331 161.609 125.5 161.707C125.78 161.863 126.092 161.984 126.438 162.068C126.789 162.153 127.167 162.195 127.57 162.195C128.234 162.195 128.824 162.059 129.338 161.785C129.859 161.512 130.295 161.134 130.646 160.652C130.998 160.171 131.265 159.604 131.447 158.953C131.63 158.296 131.721 157.589 131.721 156.834V156.629C131.721 155.841 131.63 155.118 131.447 154.461C131.265 153.797 130.998 153.227 130.646 152.752C130.295 152.277 129.859 151.906 129.338 151.639C128.817 151.372 128.218 151.238 127.541 151.238C127.157 151.238 126.796 151.281 126.457 151.365C126.125 151.443 125.822 151.561 125.549 151.717C125.354 151.821 125.171 151.948 125.002 152.098C124.833 152.241 124.676 152.404 124.533 152.586L124.445 151.434H122.795V166.062ZM129.914 156.629V156.834C129.914 157.348 129.855 157.84 129.738 158.309C129.628 158.777 129.455 159.191 129.221 159.549C128.986 159.907 128.687 160.193 128.322 160.408C127.958 160.617 127.525 160.721 127.023 160.721C126.711 160.721 126.424 160.682 126.164 160.604C125.91 160.525 125.679 160.418 125.471 160.281C125.288 160.164 125.126 160.021 124.982 159.852C124.839 159.682 124.712 159.5 124.602 159.305V154.217C124.725 153.995 124.868 153.794 125.031 153.611C125.194 153.429 125.38 153.276 125.588 153.152C125.777 153.029 125.988 152.934 126.223 152.869C126.464 152.804 126.724 152.771 127.004 152.771C127.512 152.771 127.948 152.876 128.312 153.084C128.677 153.292 128.98 153.572 129.221 153.924C129.455 154.282 129.628 154.695 129.738 155.164C129.855 155.626 129.914 156.115 129.914 156.629ZM139.094 148.875H137.277V151.434H134.504V152.83H137.277V158.572C137.277 159.223 137.362 159.78 137.531 160.242C137.707 160.698 137.945 161.069 138.244 161.355C138.544 161.648 138.895 161.863 139.299 162C139.709 162.13 140.148 162.195 140.617 162.195C140.897 162.195 141.177 162.182 141.457 162.156C141.743 162.13 142.014 162.091 142.268 162.039C142.521 161.993 142.756 161.938 142.971 161.873C143.186 161.801 143.368 161.72 143.518 161.629L143.264 160.35C143.153 160.376 143.01 160.408 142.834 160.447C142.665 160.48 142.482 160.512 142.287 160.545C142.085 160.577 141.88 160.607 141.672 160.633C141.464 160.652 141.262 160.662 141.066 160.662C140.799 160.662 140.546 160.63 140.305 160.564C140.07 160.499 139.862 160.385 139.68 160.223C139.497 160.066 139.354 159.855 139.25 159.588C139.146 159.321 139.094 158.982 139.094 158.572V152.83H143.117V151.434H139.094V148.875ZM150.373 152.273C150.373 152.651 150.49 152.973 150.725 153.24C150.965 153.501 151.32 153.631 151.789 153.631C152.251 153.631 152.606 153.501 152.854 153.24C153.101 152.98 153.225 152.658 153.225 152.273C153.225 151.883 153.101 151.554 152.854 151.287C152.613 151.014 152.258 150.877 151.789 150.877C151.314 150.877 150.959 151.014 150.725 151.287C150.49 151.561 150.373 151.889 150.373 152.273ZM152.697 161.58V159.861H150.734V161.609C150.734 162.163 150.669 162.697 150.539 163.211C150.409 163.725 150.188 164.21 149.875 164.666L150.998 165.281C151.519 164.819 151.932 164.249 152.238 163.572C152.544 162.895 152.697 162.231 152.697 161.58ZM175.129 148.875H173.312V151.434H170.539V152.83H173.312V158.572C173.312 159.223 173.397 159.78 173.566 160.242C173.742 160.698 173.98 161.069 174.279 161.355C174.579 161.648 174.93 161.863 175.334 162C175.744 162.13 176.184 162.195 176.652 162.195C176.932 162.195 177.212 162.182 177.492 162.156C177.779 162.13 178.049 162.091 178.303 162.039C178.557 161.993 178.791 161.938 179.006 161.873C179.221 161.801 179.403 161.72 179.553 161.629L179.299 160.35C179.188 160.376 179.045 160.408 178.869 160.447C178.7 160.48 178.518 160.512 178.322 160.545C178.12 160.577 177.915 160.607 177.707 160.633C177.499 160.652 177.297 160.662 177.102 160.662C176.835 160.662 176.581 160.63 176.34 160.564C176.105 160.499 175.897 160.385 175.715 160.223C175.533 160.066 175.389 159.855 175.285 159.588C175.181 159.321 175.129 158.982 175.129 158.572V152.83H179.152V151.434H175.129V148.875ZM184.67 153.006V147H182.863V162H184.67V154.324C184.8 154.116 184.947 153.927 185.109 153.758C185.279 153.582 185.461 153.429 185.656 153.299C185.904 153.13 186.174 152.999 186.467 152.908C186.76 152.817 187.069 152.771 187.395 152.771C187.792 152.765 188.143 152.82 188.449 152.938C188.755 153.048 189.009 153.217 189.211 153.445C189.4 153.654 189.543 153.917 189.641 154.236C189.738 154.549 189.787 154.913 189.787 155.33V162H191.594V155.35C191.594 154.64 191.506 154.028 191.33 153.514C191.161 152.993 190.917 152.563 190.598 152.225C190.279 151.886 189.891 151.639 189.436 151.482C188.986 151.32 188.485 151.238 187.932 151.238C187.508 151.245 187.108 151.307 186.73 151.424C186.359 151.541 186.018 151.714 185.705 151.941C185.51 152.078 185.324 152.238 185.148 152.42C184.973 152.596 184.813 152.791 184.67 153.006ZM195.158 151.434V153.006H198.752V160.438H195.158V162H204.006V160.438H200.559V151.434H195.158ZM198.518 148.66C198.518 148.953 198.605 149.197 198.781 149.393C198.964 149.588 199.237 149.686 199.602 149.686C199.96 149.686 200.23 149.588 200.412 149.393C200.594 149.197 200.686 148.953 200.686 148.66C200.686 148.497 200.66 148.348 200.607 148.211C200.555 148.074 200.477 147.96 200.373 147.869C200.288 147.785 200.181 147.719 200.051 147.674C199.921 147.622 199.771 147.596 199.602 147.596C199.432 147.596 199.279 147.622 199.143 147.674C199.012 147.719 198.905 147.785 198.82 147.869C198.716 147.967 198.638 148.084 198.586 148.221C198.54 148.357 198.518 148.504 198.518 148.66ZM213.908 159.197C213.908 159.367 213.876 159.526 213.811 159.676C213.745 159.826 213.651 159.962 213.527 160.086C213.326 160.288 213.046 160.447 212.688 160.564C212.329 160.675 211.91 160.73 211.428 160.73C211.122 160.73 210.812 160.698 210.5 160.633C210.188 160.568 209.904 160.457 209.65 160.301C209.39 160.145 209.172 159.939 208.996 159.686C208.827 159.432 208.729 159.119 208.703 158.748H206.896C206.896 159.197 206.997 159.63 207.199 160.047C207.408 160.464 207.707 160.828 208.098 161.141C208.482 161.46 208.954 161.717 209.514 161.912C210.074 162.101 210.712 162.195 211.428 162.195C212.053 162.195 212.629 162.12 213.156 161.971C213.684 161.821 214.136 161.609 214.514 161.336C214.891 161.062 215.184 160.734 215.393 160.35C215.607 159.965 215.715 159.539 215.715 159.07C215.715 158.634 215.62 158.25 215.432 157.918C215.249 157.586 214.982 157.293 214.631 157.039C214.279 156.792 213.846 156.58 213.332 156.404C212.818 156.222 212.235 156.062 211.584 155.926C211.089 155.828 210.679 155.727 210.354 155.623C210.035 155.519 209.781 155.402 209.592 155.271C209.396 155.141 209.26 154.995 209.182 154.832C209.104 154.669 209.064 154.484 209.064 154.275C209.064 154.074 209.113 153.878 209.211 153.689C209.309 153.501 209.455 153.335 209.65 153.191C209.839 153.048 210.077 152.934 210.363 152.85C210.656 152.765 210.995 152.723 211.379 152.723C211.75 152.723 212.082 152.775 212.375 152.879C212.674 152.983 212.928 153.12 213.137 153.289C213.345 153.458 213.508 153.654 213.625 153.875C213.742 154.09 213.801 154.311 213.801 154.539H215.607C215.607 154.077 215.507 153.647 215.305 153.25C215.109 152.846 214.829 152.495 214.465 152.195C214.1 151.896 213.658 151.661 213.137 151.492C212.616 151.323 212.03 151.238 211.379 151.238C210.773 151.238 210.217 151.32 209.709 151.482C209.208 151.645 208.775 151.867 208.41 152.146C208.046 152.426 207.762 152.755 207.561 153.133C207.359 153.504 207.258 153.904 207.258 154.334C207.258 154.77 207.355 155.154 207.551 155.486C207.746 155.812 208.023 156.095 208.381 156.336C208.732 156.583 209.156 156.795 209.65 156.971C210.152 157.146 210.705 157.296 211.311 157.42C211.805 157.518 212.219 157.628 212.551 157.752C212.883 157.869 213.15 157.999 213.352 158.143C213.553 158.286 213.697 158.445 213.781 158.621C213.866 158.79 213.908 158.982 213.908 159.197ZM18.9766 174.875H17.1602V177.434H14.3867V178.83H17.1602V184.572C17.1602 185.223 17.2448 185.78 17.4141 186.242C17.5898 186.698 17.8275 187.069 18.127 187.355C18.4264 187.648 18.778 187.863 19.1816 188C19.5918 188.13 20.0312 188.195 20.5 188.195C20.7799 188.195 21.0599 188.182 21.3398 188.156C21.6263 188.13 21.8965 188.091 22.1504 188.039C22.4043 187.993 22.6387 187.938 22.8535 187.873C23.0684 187.801 23.2507 187.72 23.4004 187.629L23.1465 186.35C23.0358 186.376 22.8926 186.408 22.7168 186.447C22.5475 186.48 22.3652 186.512 22.1699 186.545C21.9681 186.577 21.763 186.607 21.5547 186.633C21.3464 186.652 21.1445 186.662 20.9492 186.662C20.6823 186.662 20.4284 186.63 20.1875 186.564C19.9531 186.499 19.7448 186.385 19.5625 186.223C19.3802 186.066 19.237 185.855 19.1328 185.588C19.0286 185.321 18.9766 184.982 18.9766 184.572V178.83H23V177.434H18.9766V174.875ZM26.9941 177.434V179.006H30.5879V186.438H26.9941V188H35.8418V186.438H32.3945V177.434H26.9941ZM30.3535 174.66C30.3535 174.953 30.4414 175.197 30.6172 175.393C30.7995 175.588 31.0729 175.686 31.4375 175.686C31.7956 175.686 32.0658 175.588 32.248 175.393C32.4303 175.197 32.5215 174.953 32.5215 174.66C32.5215 174.497 32.4954 174.348 32.4434 174.211C32.3913 174.074 32.3132 173.96 32.209 173.869C32.1243 173.785 32.0169 173.719 31.8867 173.674C31.7565 173.622 31.6068 173.596 31.4375 173.596C31.2682 173.596 31.1152 173.622 30.9785 173.674C30.8483 173.719 30.7409 173.785 30.6562 173.869C30.5521 173.967 30.474 174.084 30.4219 174.221C30.3763 174.357 30.3535 174.504 30.3535 174.66ZM39.5527 177.434H37.9316V188H39.6504V179.592C39.6895 179.488 39.7383 179.39 39.7969 179.299C39.862 179.208 39.9368 179.126 40.0215 179.055C40.1322 178.964 40.2656 178.895 40.4219 178.85C40.5846 178.798 40.7734 178.771 40.9883 178.771C41.1836 178.771 41.3529 178.798 41.4961 178.85C41.6458 178.895 41.7695 178.97 41.8672 179.074C41.9714 179.185 42.0462 179.325 42.0918 179.494C42.1439 179.663 42.1699 179.859 42.1699 180.08V188H43.8887V180.09C43.8887 180.051 43.8887 180.018 43.8887 179.992C43.8887 179.96 43.8887 179.927 43.8887 179.895C43.9082 179.732 43.9473 179.585 44.0059 179.455C44.0645 179.318 44.1458 179.198 44.25 179.094C44.3542 178.996 44.4844 178.918 44.6406 178.859C44.7969 178.801 44.9824 178.771 45.1973 178.771C45.3991 178.771 45.5749 178.798 45.7246 178.85C45.8809 178.902 46.0111 178.98 46.1152 179.084C46.2129 179.195 46.2878 179.335 46.3398 179.504C46.3919 179.673 46.418 179.868 46.418 180.09V188H48.1367V180.109C48.1367 179.602 48.0781 179.162 47.9609 178.791C47.8438 178.413 47.6745 178.107 47.4531 177.873C47.2513 177.665 47.0039 177.508 46.7109 177.404C46.418 177.294 46.0892 177.238 45.7246 177.238C45.4577 177.245 45.2103 177.281 44.9824 177.346C44.7611 177.411 44.5592 177.499 44.377 177.609C44.2337 177.707 44.1003 177.821 43.9766 177.951C43.8529 178.081 43.7454 178.221 43.6543 178.371C43.5827 178.208 43.4948 178.062 43.3906 177.932C43.293 177.801 43.1823 177.691 43.0586 177.6C42.8893 177.482 42.6908 177.395 42.4629 177.336C42.2415 177.271 41.9909 177.238 41.7109 177.238C41.2161 177.245 40.793 177.352 40.4414 177.561C40.0964 177.769 39.8164 178.059 39.6016 178.43L39.5527 177.434ZM55.4023 188.195C56.431 188.195 57.2936 187.99 57.9902 187.58C58.6934 187.163 59.2207 186.688 59.5723 186.154L58.4688 185.295C58.1367 185.725 57.7201 186.07 57.2188 186.33C56.7174 186.59 56.1445 186.721 55.5 186.721C55.0117 186.721 54.5658 186.63 54.1621 186.447C53.7585 186.265 53.4134 186.014 53.127 185.695C52.847 185.396 52.6257 185.051 52.4629 184.66C52.3066 184.27 52.2057 183.817 52.1602 183.303V183.234H59.709V182.424C59.709 181.688 59.6146 181.005 59.4258 180.373C59.2435 179.742 58.9635 179.191 58.5859 178.723C58.2083 178.26 57.7331 177.899 57.1602 177.639C56.5938 177.372 55.9297 177.238 55.168 177.238C54.5625 177.238 53.9701 177.362 53.3906 177.609C52.8177 177.857 52.3066 178.212 51.8574 178.674C51.4017 179.143 51.0371 179.715 50.7637 180.393C50.4902 181.063 50.3535 181.825 50.3535 182.678V183.088C50.3535 183.824 50.4772 184.504 50.7246 185.129C50.972 185.754 51.3171 186.294 51.7598 186.75C52.2025 187.206 52.7331 187.561 53.3516 187.814C53.9766 188.068 54.6602 188.195 55.4023 188.195ZM55.168 178.723C55.6302 178.723 56.0273 178.807 56.3594 178.977C56.6979 179.146 56.9779 179.367 57.1992 179.641C57.4206 179.914 57.5931 180.24 57.7168 180.617C57.8405 180.988 57.9023 181.337 57.9023 181.662V181.75H52.2188C52.2904 181.262 52.4141 180.832 52.5898 180.461C52.7721 180.083 52.9935 179.764 53.2539 179.504C53.5143 179.25 53.8073 179.058 54.1328 178.928C54.4583 178.791 54.8034 178.723 55.168 178.723ZM75.041 177.434V179.006H78.6348V186.438H75.041V188H83.8887V186.438H80.4414V177.434H75.041ZM78.4004 174.66C78.4004 174.953 78.4883 175.197 78.6641 175.393C78.8464 175.588 79.1198 175.686 79.4844 175.686C79.8424 175.686 80.1126 175.588 80.2949 175.393C80.4772 175.197 80.5684 174.953 80.5684 174.66C80.5684 174.497 80.5423 174.348 80.4902 174.211C80.4382 174.074 80.36 173.96 80.2559 173.869C80.1712 173.785 80.0638 173.719 79.9336 173.674C79.8034 173.622 79.6536 173.596 79.4844 173.596C79.3151 173.596 79.1621 173.622 79.0254 173.674C78.8952 173.719 78.7878 173.785 78.7031 173.869C78.599 173.967 78.5208 174.084 78.4688 174.221C78.4232 174.357 78.4004 174.504 78.4004 174.66ZM86.7695 188H88.5762V180.422C88.6999 180.194 88.8431 179.986 89.0059 179.797C89.1751 179.608 89.3574 179.442 89.5527 179.299C89.7936 179.136 90.0573 179.009 90.3438 178.918C90.6302 178.82 90.9395 178.771 91.2715 178.771C91.6556 178.771 91.9941 178.817 92.2871 178.908C92.5866 178.999 92.8405 179.146 93.0488 179.348C93.2507 179.549 93.4036 179.813 93.5078 180.139C93.612 180.464 93.6641 180.861 93.6641 181.33V188H95.4707V181.291C95.4707 180.588 95.3828 179.982 95.207 179.475C95.0378 178.96 94.7936 178.537 94.4746 178.205C94.1556 177.873 93.7682 177.629 93.3125 177.473C92.8633 177.316 92.362 177.238 91.8086 177.238C91.3984 177.245 91.0078 177.307 90.6367 177.424C90.2721 177.535 89.9336 177.694 89.6211 177.902C89.4128 178.039 89.2142 178.202 89.0254 178.391C88.8431 178.573 88.6738 178.775 88.5176 178.996L88.3906 177.434H86.7695V188ZM103.283 186.73C102.717 186.73 102.242 186.62 101.857 186.398C101.48 186.171 101.177 185.874 100.949 185.51C100.715 185.152 100.546 184.748 100.441 184.299C100.344 183.843 100.295 183.384 100.295 182.922V182.512C100.295 182.056 100.344 181.604 100.441 181.154C100.546 180.705 100.715 180.298 100.949 179.934C101.184 179.576 101.49 179.286 101.867 179.064C102.251 178.837 102.723 178.723 103.283 178.723C103.648 178.723 103.986 178.785 104.299 178.908C104.618 179.032 104.891 179.201 105.119 179.416C105.347 179.631 105.526 179.882 105.656 180.168C105.793 180.448 105.865 180.747 105.871 181.066H107.58C107.58 180.533 107.473 180.031 107.258 179.562C107.043 179.094 106.747 178.687 106.369 178.342C105.985 178.003 105.529 177.736 105.002 177.541C104.481 177.339 103.908 177.238 103.283 177.238C102.482 177.238 101.783 177.382 101.184 177.668C100.585 177.954 100.087 178.339 99.6895 178.82C99.2858 179.309 98.9831 179.872 98.7812 180.51C98.5794 181.148 98.4785 181.815 98.4785 182.512V182.922C98.4785 183.625 98.5794 184.296 98.7812 184.934C98.9831 185.565 99.2858 186.122 99.6895 186.604C100.087 187.092 100.585 187.479 101.184 187.766C101.783 188.052 102.482 188.195 103.283 188.195C103.843 188.195 104.38 188.101 104.895 187.912C105.409 187.717 105.865 187.456 106.262 187.131C106.659 186.812 106.975 186.441 107.209 186.018C107.45 185.588 107.574 185.139 107.58 184.67H105.871C105.865 184.963 105.786 185.236 105.637 185.49C105.493 185.738 105.301 185.952 105.061 186.135C104.82 186.324 104.543 186.47 104.23 186.574C103.924 186.678 103.609 186.73 103.283 186.73ZM110.285 182.619V182.834C110.285 183.596 110.396 184.302 110.617 184.953C110.839 185.604 111.158 186.171 111.574 186.652C111.984 187.134 112.486 187.512 113.078 187.785C113.677 188.059 114.351 188.195 115.1 188.195C115.842 188.195 116.509 188.059 117.102 187.785C117.694 187.512 118.199 187.134 118.615 186.652C119.025 186.171 119.341 185.604 119.562 184.953C119.784 184.302 119.895 183.596 119.895 182.834V182.619C119.895 181.857 119.784 181.151 119.562 180.5C119.341 179.842 119.025 179.273 118.615 178.791C118.199 178.309 117.691 177.932 117.092 177.658C116.499 177.378 115.829 177.238 115.08 177.238C114.338 177.238 113.671 177.378 113.078 177.658C112.486 177.932 111.984 178.309 111.574 178.791C111.158 179.273 110.839 179.842 110.617 180.5C110.396 181.151 110.285 181.857 110.285 182.619ZM112.092 182.834V182.619C112.092 182.105 112.154 181.613 112.277 181.145C112.401 180.669 112.59 180.253 112.844 179.895C113.091 179.536 113.4 179.253 113.771 179.045C114.143 178.83 114.579 178.723 115.08 178.723C115.581 178.723 116.018 178.83 116.389 179.045C116.766 179.253 117.082 179.536 117.336 179.895C117.583 180.253 117.769 180.669 117.893 181.145C118.023 181.613 118.088 182.105 118.088 182.619V182.834C118.088 183.355 118.026 183.853 117.902 184.328C117.779 184.797 117.593 185.21 117.346 185.568C117.092 185.926 116.776 186.21 116.398 186.418C116.027 186.626 115.594 186.73 115.1 186.73C114.598 186.73 114.159 186.626 113.781 186.418C113.404 186.21 113.091 185.926 112.844 185.568C112.59 185.21 112.401 184.797 112.277 184.328C112.154 183.853 112.092 183.355 112.092 182.834ZM129.729 177.238C128.96 177.238 128.273 177.408 127.668 177.746C127.069 178.078 126.555 178.534 126.125 179.113L126.115 178.85L126.037 177.434H124.318V188H126.135V181.223C126.252 180.897 126.398 180.604 126.574 180.344C126.757 180.077 126.968 179.852 127.209 179.67C127.476 179.462 127.788 179.305 128.146 179.201C128.505 179.09 128.905 179.035 129.348 179.035C129.693 179.035 130.021 179.055 130.334 179.094C130.653 179.126 130.988 179.182 131.34 179.26L131.584 177.492C131.402 177.414 131.128 177.352 130.764 177.307C130.406 177.261 130.061 177.238 129.729 177.238ZM134.807 192.062H136.613V186.984C136.743 187.128 136.883 187.261 137.033 187.385C137.183 187.502 137.342 187.609 137.512 187.707C137.792 187.863 138.104 187.984 138.449 188.068C138.801 188.153 139.178 188.195 139.582 188.195C140.246 188.195 140.835 188.059 141.35 187.785C141.87 187.512 142.307 187.134 142.658 186.652C143.01 186.171 143.277 185.604 143.459 184.953C143.641 184.296 143.732 183.589 143.732 182.834V182.629C143.732 181.841 143.641 181.118 143.459 180.461C143.277 179.797 143.01 179.227 142.658 178.752C142.307 178.277 141.87 177.906 141.35 177.639C140.829 177.372 140.23 177.238 139.553 177.238C139.169 177.238 138.807 177.281 138.469 177.365C138.137 177.443 137.834 177.561 137.561 177.717C137.365 177.821 137.183 177.948 137.014 178.098C136.844 178.241 136.688 178.404 136.545 178.586L136.457 177.434H134.807V192.062ZM141.926 182.629V182.834C141.926 183.348 141.867 183.84 141.75 184.309C141.639 184.777 141.467 185.191 141.232 185.549C140.998 185.907 140.699 186.193 140.334 186.408C139.969 186.617 139.536 186.721 139.035 186.721C138.723 186.721 138.436 186.682 138.176 186.604C137.922 186.525 137.691 186.418 137.482 186.281C137.3 186.164 137.137 186.021 136.994 185.852C136.851 185.682 136.724 185.5 136.613 185.305V180.217C136.737 179.995 136.88 179.794 137.043 179.611C137.206 179.429 137.391 179.276 137.6 179.152C137.788 179.029 138 178.934 138.234 178.869C138.475 178.804 138.736 178.771 139.016 178.771C139.523 178.771 139.96 178.876 140.324 179.084C140.689 179.292 140.992 179.572 141.232 179.924C141.467 180.282 141.639 180.695 141.75 181.164C141.867 181.626 141.926 182.115 141.926 182.629ZM151.496 188.195C152.525 188.195 153.387 187.99 154.084 187.58C154.787 187.163 155.314 186.688 155.666 186.154L154.562 185.295C154.23 185.725 153.814 186.07 153.312 186.33C152.811 186.59 152.238 186.721 151.594 186.721C151.105 186.721 150.66 186.63 150.256 186.447C149.852 186.265 149.507 186.014 149.221 185.695C148.941 185.396 148.719 185.051 148.557 184.66C148.4 184.27 148.299 183.817 148.254 183.303V183.234H155.803V182.424C155.803 181.688 155.708 181.005 155.52 180.373C155.337 179.742 155.057 179.191 154.68 178.723C154.302 178.26 153.827 177.899 153.254 177.639C152.688 177.372 152.023 177.238 151.262 177.238C150.656 177.238 150.064 177.362 149.484 177.609C148.911 177.857 148.4 178.212 147.951 178.674C147.495 179.143 147.131 179.715 146.857 180.393C146.584 181.063 146.447 181.825 146.447 182.678V183.088C146.447 183.824 146.571 184.504 146.818 185.129C147.066 185.754 147.411 186.294 147.854 186.75C148.296 187.206 148.827 187.561 149.445 187.814C150.07 188.068 150.754 188.195 151.496 188.195ZM151.262 178.723C151.724 178.723 152.121 178.807 152.453 178.977C152.792 179.146 153.072 179.367 153.293 179.641C153.514 179.914 153.687 180.24 153.811 180.617C153.934 180.988 153.996 181.337 153.996 181.662V181.75H148.312C148.384 181.262 148.508 180.832 148.684 180.461C148.866 180.083 149.087 179.764 149.348 179.504C149.608 179.25 149.901 179.058 150.227 178.928C150.552 178.791 150.897 178.723 151.262 178.723ZM165.764 177.238C164.995 177.238 164.309 177.408 163.703 177.746C163.104 178.078 162.59 178.534 162.16 179.113L162.15 178.85L162.072 177.434H160.354V188H162.17V181.223C162.287 180.897 162.434 180.604 162.609 180.344C162.792 180.077 163.003 179.852 163.244 179.67C163.511 179.462 163.824 179.305 164.182 179.201C164.54 179.09 164.94 179.035 165.383 179.035C165.728 179.035 166.057 179.055 166.369 179.094C166.688 179.126 167.023 179.182 167.375 179.26L167.619 177.492C167.437 177.414 167.163 177.352 166.799 177.307C166.441 177.261 166.096 177.238 165.764 177.238ZM177.795 188H179.68V187.844C179.562 187.551 179.471 187.209 179.406 186.818C179.341 186.421 179.309 186.047 179.309 185.695V180.783C179.309 180.191 179.201 179.673 178.986 179.23C178.771 178.788 178.479 178.417 178.107 178.117C177.73 177.824 177.284 177.606 176.77 177.463C176.255 177.313 175.699 177.238 175.1 177.238C174.442 177.238 173.853 177.329 173.332 177.512C172.818 177.694 172.382 177.932 172.023 178.225C171.659 178.524 171.379 178.859 171.184 179.23C170.995 179.602 170.897 179.979 170.891 180.363H172.707C172.707 180.142 172.759 179.93 172.863 179.729C172.974 179.52 173.127 179.341 173.322 179.191C173.518 179.042 173.755 178.921 174.035 178.83C174.322 178.739 174.644 178.693 175.002 178.693C175.386 178.693 175.731 178.742 176.037 178.84C176.35 178.938 176.613 179.074 176.828 179.25C177.043 179.432 177.209 179.65 177.326 179.904C177.443 180.158 177.502 180.445 177.502 180.764V181.594H175.529C174.794 181.594 174.126 181.665 173.527 181.809C172.935 181.952 172.427 182.167 172.004 182.453C171.581 182.746 171.252 183.111 171.018 183.547C170.79 183.983 170.676 184.491 170.676 185.07C170.676 185.513 170.76 185.926 170.93 186.311C171.105 186.688 171.353 187.014 171.672 187.287C171.984 187.567 172.365 187.788 172.814 187.951C173.27 188.114 173.778 188.195 174.338 188.195C174.683 188.195 175.008 188.16 175.314 188.088C175.62 188.016 175.91 187.919 176.184 187.795C176.451 187.671 176.695 187.528 176.916 187.365C177.144 187.202 177.349 187.03 177.531 186.848C177.551 187.069 177.58 187.284 177.619 187.492C177.665 187.694 177.723 187.863 177.795 188ZM174.602 186.623C174.25 186.623 173.941 186.577 173.674 186.486C173.407 186.395 173.186 186.268 173.01 186.105C172.834 185.949 172.701 185.76 172.609 185.539C172.525 185.318 172.482 185.077 172.482 184.816C172.482 184.543 172.531 184.299 172.629 184.084C172.733 183.869 172.883 183.684 173.078 183.527C173.352 183.306 173.719 183.143 174.182 183.039C174.65 182.928 175.197 182.873 175.822 182.873H177.502V185.012C177.398 185.22 177.255 185.422 177.072 185.617C176.89 185.806 176.675 185.975 176.428 186.125C176.174 186.275 175.894 186.395 175.588 186.486C175.282 186.577 174.953 186.623 174.602 186.623ZM187.141 174.875H185.324V177.434H182.551V178.83H185.324V184.572C185.324 185.223 185.409 185.78 185.578 186.242C185.754 186.698 185.992 187.069 186.291 187.355C186.59 187.648 186.942 187.863 187.346 188C187.756 188.13 188.195 188.195 188.664 188.195C188.944 188.195 189.224 188.182 189.504 188.156C189.79 188.13 190.061 188.091 190.314 188.039C190.568 187.993 190.803 187.938 191.018 187.873C191.232 187.801 191.415 187.72 191.564 187.629L191.311 186.35C191.2 186.376 191.057 186.408 190.881 186.447C190.712 186.48 190.529 186.512 190.334 186.545C190.132 186.577 189.927 186.607 189.719 186.633C189.51 186.652 189.309 186.662 189.113 186.662C188.846 186.662 188.592 186.63 188.352 186.564C188.117 186.499 187.909 186.385 187.727 186.223C187.544 186.066 187.401 185.855 187.297 185.588C187.193 185.321 187.141 184.982 187.141 184.572V178.83H191.164V177.434H187.141V174.875ZM195.158 177.434V179.006H198.752V186.438H195.158V188H204.006V186.438H200.559V177.434H195.158ZM198.518 174.66C198.518 174.953 198.605 175.197 198.781 175.393C198.964 175.588 199.237 175.686 199.602 175.686C199.96 175.686 200.23 175.588 200.412 175.393C200.594 175.197 200.686 174.953 200.686 174.66C200.686 174.497 200.66 174.348 200.607 174.211C200.555 174.074 200.477 173.96 200.373 173.869C200.288 173.785 200.181 173.719 200.051 173.674C199.921 173.622 199.771 173.596 199.602 173.596C199.432 173.596 199.279 173.622 199.143 173.674C199.012 173.719 198.905 173.785 198.82 173.869C198.716 173.967 198.638 174.084 198.586 174.221C198.54 174.357 198.518 174.504 198.518 174.66ZM206.887 188H208.693V180.422C208.817 180.194 208.96 179.986 209.123 179.797C209.292 179.608 209.475 179.442 209.67 179.299C209.911 179.136 210.174 179.009 210.461 178.918C210.747 178.82 211.057 178.771 211.389 178.771C211.773 178.771 212.111 178.817 212.404 178.908C212.704 178.999 212.958 179.146 213.166 179.348C213.368 179.549 213.521 179.813 213.625 180.139C213.729 180.464 213.781 180.861 213.781 181.33V188H215.588V181.291C215.588 180.588 215.5 179.982 215.324 179.475C215.155 178.96 214.911 178.537 214.592 178.205C214.273 177.873 213.885 177.629 213.43 177.473C212.98 177.316 212.479 177.238 211.926 177.238C211.516 177.245 211.125 177.307 210.754 177.424C210.389 177.535 210.051 177.694 209.738 177.902C209.53 178.039 209.331 178.202 209.143 178.391C208.96 178.573 208.791 178.775 208.635 178.996L208.508 177.434H206.887V188ZM218.566 182.629V182.834C218.566 183.589 218.664 184.296 218.859 184.953C219.055 185.604 219.335 186.171 219.699 186.652C220.057 187.134 220.497 187.512 221.018 187.785C221.538 188.059 222.121 188.195 222.766 188.195C223.15 188.195 223.508 188.153 223.84 188.068C224.172 187.99 224.475 187.876 224.748 187.727C224.924 187.629 225.087 187.515 225.236 187.385C225.393 187.255 225.539 187.111 225.676 186.955V187.863C225.676 188.319 225.611 188.723 225.48 189.074C225.35 189.426 225.165 189.719 224.924 189.953C224.676 190.194 224.38 190.376 224.035 190.5C223.69 190.624 223.303 190.686 222.873 190.686C222.632 190.686 222.391 190.66 222.15 190.607C221.91 190.562 221.669 190.484 221.428 190.373C221.187 190.262 220.949 190.113 220.715 189.924C220.48 189.742 220.253 189.517 220.031 189.25L219.094 190.334C219.335 190.679 219.621 190.969 219.953 191.203C220.292 191.438 220.643 191.623 221.008 191.76C221.366 191.903 221.721 192.004 222.072 192.062C222.424 192.128 222.736 192.16 223.01 192.16C223.674 192.16 224.279 192.062 224.826 191.867C225.373 191.672 225.845 191.385 226.242 191.008C226.633 190.63 226.936 190.171 227.15 189.631C227.372 189.09 227.482 188.472 227.482 187.775V177.434H225.842L225.754 178.586C225.63 178.43 225.497 178.286 225.354 178.156C225.217 178.026 225.07 177.912 224.914 177.814C224.628 177.626 224.305 177.482 223.947 177.385C223.596 177.287 223.208 177.238 222.785 177.238C222.128 177.238 221.538 177.372 221.018 177.639C220.497 177.906 220.054 178.277 219.689 178.752C219.325 179.227 219.045 179.797 218.85 180.461C218.661 181.118 218.566 181.841 218.566 182.629ZM220.373 182.834V182.629C220.373 182.115 220.425 181.626 220.529 181.164C220.64 180.695 220.812 180.282 221.047 179.924C221.275 179.572 221.568 179.292 221.926 179.084C222.29 178.876 222.727 178.771 223.234 178.771C223.534 178.771 223.807 178.811 224.055 178.889C224.302 178.96 224.527 179.061 224.729 179.191C224.93 179.328 225.109 179.488 225.266 179.67C225.422 179.852 225.559 180.054 225.676 180.275V185.119C225.559 185.347 225.422 185.555 225.266 185.744C225.109 185.933 224.934 186.096 224.738 186.232C224.536 186.369 224.309 186.477 224.055 186.555C223.807 186.626 223.527 186.662 223.215 186.662C222.714 186.662 222.284 186.561 221.926 186.359C221.568 186.151 221.275 185.871 221.047 185.52C220.812 185.168 220.64 184.761 220.529 184.299C220.425 183.837 220.373 183.348 220.373 182.834ZM15.7148 214H17.1406L18.7715 207.525L19.0352 205.885L19.3086 207.525L20.959 214H22.3848L24.6309 203.434H23.0293L21.8574 210.172L21.5938 211.832L21.3105 210.172L19.6309 203.434H18.4688L16.7793 210.172L16.5156 211.686L16.3008 210.172L15.0703 203.434H13.4688L15.7148 214ZM33.6543 214H35.5391V213.844C35.4219 213.551 35.3307 213.209 35.2656 212.818C35.2005 212.421 35.168 212.047 35.168 211.695V206.783C35.168 206.191 35.0605 205.673 34.8457 205.23C34.6309 204.788 34.3379 204.417 33.9668 204.117C33.5892 203.824 33.1432 203.606 32.6289 203.463C32.1146 203.313 31.5579 203.238 30.959 203.238C30.3014 203.238 29.7122 203.329 29.1914 203.512C28.6771 203.694 28.2409 203.932 27.8828 204.225C27.5182 204.524 27.2383 204.859 27.043 205.23C26.8542 205.602 26.7565 205.979 26.75 206.363H28.5664C28.5664 206.142 28.6185 205.93 28.7227 205.729C28.8333 205.52 28.9863 205.341 29.1816 205.191C29.377 205.042 29.6146 204.921 29.8945 204.83C30.181 204.739 30.5033 204.693 30.8613 204.693C31.2454 204.693 31.5905 204.742 31.8965 204.84C32.209 204.938 32.4727 205.074 32.6875 205.25C32.9023 205.432 33.0684 205.65 33.1855 205.904C33.3027 206.158 33.3613 206.445 33.3613 206.764V207.594H31.3887C30.653 207.594 29.9857 207.665 29.3867 207.809C28.7943 207.952 28.2865 208.167 27.8633 208.453C27.4401 208.746 27.1113 209.111 26.877 209.547C26.6491 209.983 26.5352 210.491 26.5352 211.07C26.5352 211.513 26.6198 211.926 26.7891 212.311C26.9648 212.688 27.2122 213.014 27.5312 213.287C27.8438 213.567 28.2246 213.788 28.6738 213.951C29.1296 214.114 29.6374 214.195 30.1973 214.195C30.5423 214.195 30.8678 214.16 31.1738 214.088C31.4798 214.016 31.7695 213.919 32.043 213.795C32.3099 213.671 32.554 213.528 32.7754 213.365C33.0033 213.202 33.2083 213.03 33.3906 212.848C33.4102 213.069 33.4395 213.284 33.4785 213.492C33.5241 213.694 33.5827 213.863 33.6543 214ZM30.4609 212.623C30.1094 212.623 29.8001 212.577 29.5332 212.486C29.2663 212.395 29.0449 212.268 28.8691 212.105C28.6934 211.949 28.5599 211.76 28.4688 211.539C28.3841 211.318 28.3418 211.077 28.3418 210.816C28.3418 210.543 28.3906 210.299 28.4883 210.084C28.5924 209.869 28.7422 209.684 28.9375 209.527C29.2109 209.306 29.5788 209.143 30.041 209.039C30.5098 208.928 31.0566 208.873 31.6816 208.873H33.3613V211.012C33.2572 211.22 33.1139 211.422 32.9316 211.617C32.7493 211.806 32.5345 211.975 32.2871 212.125C32.0332 212.275 31.7533 212.395 31.4473 212.486C31.1413 212.577 30.8125 212.623 30.4609 212.623ZM43 200.875H41.1836V203.434H38.4102V204.83H41.1836V210.572C41.1836 211.223 41.2682 211.78 41.4375 212.242C41.6133 212.698 41.8509 213.069 42.1504 213.355C42.4499 213.648 42.8014 213.863 43.2051 214C43.6152 214.13 44.0547 214.195 44.5234 214.195C44.8034 214.195 45.0833 214.182 45.3633 214.156C45.6497 214.13 45.9199 214.091 46.1738 214.039C46.4277 213.993 46.6621 213.938 46.877 213.873C47.0918 213.801 47.2741 213.72 47.4238 213.629L47.1699 212.35C47.0592 212.376 46.916 212.408 46.7402 212.447C46.571 212.48 46.3887 212.512 46.1934 212.545C45.9915 212.577 45.7865 212.607 45.5781 212.633C45.3698 212.652 45.168 212.662 44.9727 212.662C44.7057 212.662 44.4518 212.63 44.2109 212.564C43.9766 212.499 43.7682 212.385 43.5859 212.223C43.4036 212.066 43.2604 211.855 43.1562 211.588C43.0521 211.321 43 210.982 43 210.572V204.83H47.0234V203.434H43V200.875ZM55.4023 214.195C56.431 214.195 57.2936 213.99 57.9902 213.58C58.6934 213.163 59.2207 212.688 59.5723 212.154L58.4688 211.295C58.1367 211.725 57.7201 212.07 57.2188 212.33C56.7174 212.59 56.1445 212.721 55.5 212.721C55.0117 212.721 54.5658 212.63 54.1621 212.447C53.7585 212.265 53.4134 212.014 53.127 211.695C52.847 211.396 52.6257 211.051 52.4629 210.66C52.3066 210.27 52.2057 209.817 52.1602 209.303V209.234H59.709V208.424C59.709 207.688 59.6146 207.005 59.4258 206.373C59.2435 205.742 58.9635 205.191 58.5859 204.723C58.2083 204.26 57.7331 203.899 57.1602 203.639C56.5938 203.372 55.9297 203.238 55.168 203.238C54.5625 203.238 53.9701 203.362 53.3906 203.609C52.8177 203.857 52.3066 204.212 51.8574 204.674C51.4017 205.143 51.0371 205.715 50.7637 206.393C50.4902 207.063 50.3535 207.825 50.3535 208.678V209.088C50.3535 209.824 50.4772 210.504 50.7246 211.129C50.972 211.754 51.3171 212.294 51.7598 212.75C52.2025 213.206 52.7331 213.561 53.3516 213.814C53.9766 214.068 54.6602 214.195 55.4023 214.195ZM55.168 204.723C55.6302 204.723 56.0273 204.807 56.3594 204.977C56.6979 205.146 56.9779 205.367 57.1992 205.641C57.4206 205.914 57.5931 206.24 57.7168 206.617C57.8405 206.988 57.9023 207.337 57.9023 207.662V207.75H52.2188C52.2904 207.262 52.4141 206.832 52.5898 206.461C52.7721 206.083 52.9935 205.764 53.2539 205.504C53.5143 205.25 53.8073 205.058 54.1328 204.928C54.4583 204.791 54.8034 204.723 55.168 204.723ZM69.6699 203.238C68.9017 203.238 68.2148 203.408 67.6094 203.746C67.0104 204.078 66.4961 204.534 66.0664 205.113L66.0566 204.85L65.9785 203.434H64.2598V214H66.0762V207.223C66.1934 206.897 66.3398 206.604 66.5156 206.344C66.6979 206.077 66.9095 205.852 67.1504 205.67C67.4173 205.462 67.7298 205.305 68.0879 205.201C68.446 205.09 68.8464 205.035 69.2891 205.035C69.6341 205.035 69.9629 205.055 70.2754 205.094C70.5944 205.126 70.9297 205.182 71.2812 205.26L71.5254 203.492C71.3431 203.414 71.0697 203.352 70.7051 203.307C70.347 203.261 70.002 203.238 69.6699 203.238ZM79.2598 212.73C78.6934 212.73 78.2181 212.62 77.834 212.398C77.4564 212.171 77.1536 211.874 76.9258 211.51C76.6914 211.152 76.5221 210.748 76.418 210.299C76.3203 209.843 76.2715 209.384 76.2715 208.922V208.512C76.2715 208.056 76.3203 207.604 76.418 207.154C76.5221 206.705 76.6914 206.298 76.9258 205.934C77.1602 205.576 77.4661 205.286 77.8438 205.064C78.2279 204.837 78.6999 204.723 79.2598 204.723C79.6243 204.723 79.9629 204.785 80.2754 204.908C80.5944 205.032 80.8678 205.201 81.0957 205.416C81.3236 205.631 81.5026 205.882 81.6328 206.168C81.7695 206.448 81.8411 206.747 81.8477 207.066H83.5566C83.5566 206.533 83.4492 206.031 83.2344 205.562C83.0195 205.094 82.7233 204.687 82.3457 204.342C81.9616 204.003 81.5059 203.736 80.9785 203.541C80.4577 203.339 79.8848 203.238 79.2598 203.238C78.459 203.238 77.7591 203.382 77.1602 203.668C76.5612 203.954 76.0632 204.339 75.666 204.82C75.2624 205.309 74.9596 205.872 74.7578 206.51C74.556 207.148 74.4551 207.815 74.4551 208.512V208.922C74.4551 209.625 74.556 210.296 74.7578 210.934C74.9596 211.565 75.2624 212.122 75.666 212.604C76.0632 213.092 76.5612 213.479 77.1602 213.766C77.7591 214.052 78.459 214.195 79.2598 214.195C79.8197 214.195 80.3568 214.101 80.8711 213.912C81.3854 213.717 81.8411 213.456 82.2383 213.131C82.6354 212.812 82.9512 212.441 83.1855 212.018C83.4264 211.588 83.5501 211.139 83.5566 210.67H81.8477C81.8411 210.963 81.763 211.236 81.6133 211.49C81.4701 211.738 81.278 211.952 81.0371 212.135C80.7962 212.324 80.5195 212.47 80.207 212.574C79.901 212.678 79.5853 212.73 79.2598 212.73ZM86.2617 208.619V208.834C86.2617 209.596 86.3724 210.302 86.5938 210.953C86.8151 211.604 87.1341 212.171 87.5508 212.652C87.9609 213.134 88.4622 213.512 89.0547 213.785C89.6536 214.059 90.3275 214.195 91.0762 214.195C91.8184 214.195 92.4857 214.059 93.0781 213.785C93.6706 213.512 94.1751 213.134 94.5918 212.652C95.002 212.171 95.3177 211.604 95.5391 210.953C95.7604 210.302 95.8711 209.596 95.8711 208.834V208.619C95.8711 207.857 95.7604 207.151 95.5391 206.5C95.3177 205.842 95.002 205.273 94.5918 204.791C94.1751 204.309 93.6673 203.932 93.0684 203.658C92.4759 203.378 91.8053 203.238 91.0566 203.238C90.3145 203.238 89.6471 203.378 89.0547 203.658C88.4622 203.932 87.9609 204.309 87.5508 204.791C87.1341 205.273 86.8151 205.842 86.5938 206.5C86.3724 207.151 86.2617 207.857 86.2617 208.619ZM88.0684 208.834V208.619C88.0684 208.105 88.1302 207.613 88.2539 207.145C88.3776 206.669 88.5664 206.253 88.8203 205.895C89.0677 205.536 89.377 205.253 89.748 205.045C90.1191 204.83 90.5553 204.723 91.0566 204.723C91.5579 204.723 91.9941 204.83 92.3652 205.045C92.7428 205.253 93.0586 205.536 93.3125 205.895C93.5599 206.253 93.7454 206.669 93.8691 207.145C93.9993 207.613 94.0645 208.105 94.0645 208.619V208.834C94.0645 209.355 94.0026 209.853 93.8789 210.328C93.7552 210.797 93.5697 211.21 93.3223 211.568C93.0684 211.926 92.7526 212.21 92.375 212.418C92.0039 212.626 91.571 212.73 91.0762 212.73C90.5749 212.73 90.1354 212.626 89.7578 212.418C89.3802 212.21 89.0677 211.926 88.8203 211.568C88.5664 211.21 88.3776 210.797 88.2539 210.328C88.1302 209.853 88.0684 209.355 88.0684 208.834ZM99.0645 199V200.572H102.658V212.438H99.0645V214H107.912V212.438H104.465V199H99.0645ZM110.285 208.619V208.834C110.285 209.596 110.396 210.302 110.617 210.953C110.839 211.604 111.158 212.171 111.574 212.652C111.984 213.134 112.486 213.512 113.078 213.785C113.677 214.059 114.351 214.195 115.1 214.195C115.842 214.195 116.509 214.059 117.102 213.785C117.694 213.512 118.199 213.134 118.615 212.652C119.025 212.171 119.341 211.604 119.562 210.953C119.784 210.302 119.895 209.596 119.895 208.834V208.619C119.895 207.857 119.784 207.151 119.562 206.5C119.341 205.842 119.025 205.273 118.615 204.791C118.199 204.309 117.691 203.932 117.092 203.658C116.499 203.378 115.829 203.238 115.08 203.238C114.338 203.238 113.671 203.378 113.078 203.658C112.486 203.932 111.984 204.309 111.574 204.791C111.158 205.273 110.839 205.842 110.617 206.5C110.396 207.151 110.285 207.857 110.285 208.619ZM112.092 208.834V208.619C112.092 208.105 112.154 207.613 112.277 207.145C112.401 206.669 112.59 206.253 112.844 205.895C113.091 205.536 113.4 205.253 113.771 205.045C114.143 204.83 114.579 204.723 115.08 204.723C115.581 204.723 116.018 204.83 116.389 205.045C116.766 205.253 117.082 205.536 117.336 205.895C117.583 206.253 117.769 206.669 117.893 207.145C118.023 207.613 118.088 208.105 118.088 208.619V208.834C118.088 209.355 118.026 209.853 117.902 210.328C117.779 210.797 117.593 211.21 117.346 211.568C117.092 211.926 116.776 212.21 116.398 212.418C116.027 212.626 115.594 212.73 115.1 212.73C114.598 212.73 114.159 212.626 113.781 212.418C113.404 212.21 113.091 211.926 112.844 211.568C112.59 211.21 112.401 210.797 112.277 210.328C112.154 209.853 112.092 209.355 112.092 208.834ZM129.729 203.238C128.96 203.238 128.273 203.408 127.668 203.746C127.069 204.078 126.555 204.534 126.125 205.113L126.115 204.85L126.037 203.434H124.318V214H126.135V207.223C126.252 206.897 126.398 206.604 126.574 206.344C126.757 206.077 126.968 205.852 127.209 205.67C127.476 205.462 127.788 205.305 128.146 205.201C128.505 205.09 128.905 205.035 129.348 205.035C129.693 205.035 130.021 205.055 130.334 205.094C130.653 205.126 130.988 205.182 131.34 205.26L131.584 203.492C131.402 203.414 131.128 203.352 130.764 203.307C130.406 203.261 130.061 203.238 129.729 203.238ZM147.844 214H149.27L150.9 207.525L151.164 205.885L151.438 207.525L153.088 214H154.514L156.76 203.434H155.158L153.986 210.172L153.723 211.832L153.439 210.172L151.76 203.434H150.598L148.908 210.172L148.645 211.686L148.43 210.172L147.199 203.434H145.598L147.844 214ZM159.123 203.434V205.006H162.717V212.438H159.123V214H167.971V212.438H164.523V203.434H159.123ZM162.482 200.66C162.482 200.953 162.57 201.197 162.746 201.393C162.928 201.588 163.202 201.686 163.566 201.686C163.924 201.686 164.195 201.588 164.377 201.393C164.559 201.197 164.65 200.953 164.65 200.66C164.65 200.497 164.624 200.348 164.572 200.211C164.52 200.074 164.442 199.96 164.338 199.869C164.253 199.785 164.146 199.719 164.016 199.674C163.885 199.622 163.736 199.596 163.566 199.596C163.397 199.596 163.244 199.622 163.107 199.674C162.977 199.719 162.87 199.785 162.785 199.869C162.681 199.967 162.603 200.084 162.551 200.221C162.505 200.357 162.482 200.504 162.482 200.66ZM175.129 200.875H173.312V203.434H170.539V204.83H173.312V210.572C173.312 211.223 173.397 211.78 173.566 212.242C173.742 212.698 173.98 213.069 174.279 213.355C174.579 213.648 174.93 213.863 175.334 214C175.744 214.13 176.184 214.195 176.652 214.195C176.932 214.195 177.212 214.182 177.492 214.156C177.779 214.13 178.049 214.091 178.303 214.039C178.557 213.993 178.791 213.938 179.006 213.873C179.221 213.801 179.403 213.72 179.553 213.629L179.299 212.35C179.188 212.376 179.045 212.408 178.869 212.447C178.7 212.48 178.518 212.512 178.322 212.545C178.12 212.577 177.915 212.607 177.707 212.633C177.499 212.652 177.297 212.662 177.102 212.662C176.835 212.662 176.581 212.63 176.34 212.564C176.105 212.499 175.897 212.385 175.715 212.223C175.533 212.066 175.389 211.855 175.285 211.588C175.181 211.321 175.129 210.982 175.129 210.572V204.83H179.152V203.434H175.129V200.875ZM184.67 205.006V199H182.863V214H184.67V206.324C184.8 206.116 184.947 205.927 185.109 205.758C185.279 205.582 185.461 205.429 185.656 205.299C185.904 205.13 186.174 204.999 186.467 204.908C186.76 204.817 187.069 204.771 187.395 204.771C187.792 204.765 188.143 204.82 188.449 204.938C188.755 205.048 189.009 205.217 189.211 205.445C189.4 205.654 189.543 205.917 189.641 206.236C189.738 206.549 189.787 206.913 189.787 207.33V214H191.594V207.35C191.594 206.64 191.506 206.028 191.33 205.514C191.161 204.993 190.917 204.563 190.598 204.225C190.279 203.886 189.891 203.639 189.436 203.482C188.986 203.32 188.485 203.238 187.932 203.238C187.508 203.245 187.108 203.307 186.73 203.424C186.359 203.541 186.018 203.714 185.705 203.941C185.51 204.078 185.324 204.238 185.148 204.42C184.973 204.596 184.813 204.791 184.67 205.006ZM18.9766 226.875H17.1602V229.434H14.3867V230.83H17.1602V236.572C17.1602 237.223 17.2448 237.78 17.4141 238.242C17.5898 238.698 17.8275 239.069 18.127 239.355C18.4264 239.648 18.778 239.863 19.1816 240C19.5918 240.13 20.0312 240.195 20.5 240.195C20.7799 240.195 21.0599 240.182 21.3398 240.156C21.6263 240.13 21.8965 240.091 22.1504 240.039C22.4043 239.993 22.6387 239.938 22.8535 239.873C23.0684 239.801 23.2507 239.72 23.4004 239.629L23.1465 238.35C23.0358 238.376 22.8926 238.408 22.7168 238.447C22.5475 238.48 22.3652 238.512 22.1699 238.545C21.9681 238.577 21.763 238.607 21.5547 238.633C21.3464 238.652 21.1445 238.662 20.9492 238.662C20.6823 238.662 20.4284 238.63 20.1875 238.564C19.9531 238.499 19.7448 238.385 19.5625 238.223C19.3802 238.066 19.237 237.855 19.1328 237.588C19.0286 237.321 18.9766 236.982 18.9766 236.572V230.83H23V229.434H18.9766V226.875ZM28.5176 231.006V225H26.7109V240H28.5176V232.324C28.6478 232.116 28.7943 231.927 28.957 231.758C29.1263 231.582 29.3086 231.429 29.5039 231.299C29.7513 231.13 30.0215 230.999 30.3145 230.908C30.6074 230.817 30.9167 230.771 31.2422 230.771C31.6393 230.765 31.9909 230.82 32.2969 230.938C32.6029 231.048 32.8568 231.217 33.0586 231.445C33.2474 231.654 33.3906 231.917 33.4883 232.236C33.5859 232.549 33.6348 232.913 33.6348 233.33V240H35.4414V233.35C35.4414 232.64 35.3535 232.028 35.1777 231.514C35.0085 230.993 34.7643 230.563 34.4453 230.225C34.1263 229.886 33.7389 229.639 33.2832 229.482C32.834 229.32 32.3327 229.238 31.7793 229.238C31.3561 229.245 30.9557 229.307 30.5781 229.424C30.207 229.541 29.8652 229.714 29.5527 229.941C29.3574 230.078 29.1719 230.238 28.9961 230.42C28.8203 230.596 28.6608 230.791 28.5176 231.006ZM43.3906 240.195C44.4193 240.195 45.2819 239.99 45.9785 239.58C46.6816 239.163 47.209 238.688 47.5605 238.154L46.457 237.295C46.125 237.725 45.7083 238.07 45.207 238.33C44.7057 238.59 44.1328 238.721 43.4883 238.721C43 238.721 42.554 238.63 42.1504 238.447C41.7467 238.265 41.4017 238.014 41.1152 237.695C40.8353 237.396 40.6139 237.051 40.4512 236.66C40.2949 236.27 40.194 235.817 40.1484 235.303V235.234H47.6973V234.424C47.6973 233.688 47.6029 233.005 47.4141 232.373C47.2318 231.742 46.9518 231.191 46.5742 230.723C46.1966 230.26 45.7214 229.899 45.1484 229.639C44.582 229.372 43.918 229.238 43.1562 229.238C42.5508 229.238 41.9583 229.362 41.3789 229.609C40.806 229.857 40.2949 230.212 39.8457 230.674C39.39 231.143 39.0254 231.715 38.752 232.393C38.4785 233.063 38.3418 233.825 38.3418 234.678V235.088C38.3418 235.824 38.4655 236.504 38.7129 237.129C38.9603 237.754 39.3053 238.294 39.748 238.75C40.1908 239.206 40.7214 239.561 41.3398 239.814C41.9648 240.068 42.6484 240.195 43.3906 240.195ZM43.1562 230.723C43.6185 230.723 44.0156 230.807 44.3477 230.977C44.6862 231.146 44.9661 231.367 45.1875 231.641C45.4089 231.914 45.5814 232.24 45.7051 232.617C45.8288 232.988 45.8906 233.337 45.8906 233.662V233.75H40.207C40.2786 233.262 40.4023 232.832 40.5781 232.461C40.7604 232.083 40.9818 231.764 41.2422 231.504C41.5026 231.25 41.7956 231.058 42.1211 230.928C42.4466 230.791 42.7917 230.723 43.1562 230.723ZM67.248 238.73C66.6816 238.73 66.2064 238.62 65.8223 238.398C65.4447 238.171 65.1419 237.874 64.9141 237.51C64.6797 237.152 64.5104 236.748 64.4062 236.299C64.3086 235.843 64.2598 235.384 64.2598 234.922V234.512C64.2598 234.056 64.3086 233.604 64.4062 233.154C64.5104 232.705 64.6797 232.298 64.9141 231.934C65.1484 231.576 65.4544 231.286 65.832 231.064C66.2161 230.837 66.6882 230.723 67.248 230.723C67.6126 230.723 67.9512 230.785 68.2637 230.908C68.5827 231.032 68.8561 231.201 69.084 231.416C69.3118 231.631 69.4909 231.882 69.6211 232.168C69.7578 232.448 69.8294 232.747 69.8359 233.066H71.5449C71.5449 232.533 71.4375 232.031 71.2227 231.562C71.0078 231.094 70.7116 230.687 70.334 230.342C69.9499 230.003 69.4941 229.736 68.9668 229.541C68.446 229.339 67.873 229.238 67.248 229.238C66.4473 229.238 65.7474 229.382 65.1484 229.668C64.5495 229.954 64.0514 230.339 63.6543 230.82C63.2507 231.309 62.9479 231.872 62.7461 232.51C62.5443 233.148 62.4434 233.815 62.4434 234.512V234.922C62.4434 235.625 62.5443 236.296 62.7461 236.934C62.9479 237.565 63.2507 238.122 63.6543 238.604C64.0514 239.092 64.5495 239.479 65.1484 239.766C65.7474 240.052 66.4473 240.195 67.248 240.195C67.8079 240.195 68.3451 240.101 68.8594 239.912C69.3737 239.717 69.8294 239.456 70.2266 239.131C70.6237 238.812 70.9395 238.441 71.1738 238.018C71.4147 237.588 71.5384 237.139 71.5449 236.67H69.8359C69.8294 236.963 69.7513 237.236 69.6016 237.49C69.4583 237.738 69.2663 237.952 69.0254 238.135C68.7845 238.324 68.5078 238.47 68.1953 238.574C67.8893 238.678 67.5736 238.73 67.248 238.73ZM74.25 234.619V234.834C74.25 235.596 74.3607 236.302 74.582 236.953C74.8034 237.604 75.1224 238.171 75.5391 238.652C75.9492 239.134 76.4505 239.512 77.043 239.785C77.6419 240.059 78.3158 240.195 79.0645 240.195C79.8066 240.195 80.474 240.059 81.0664 239.785C81.6589 239.512 82.1634 239.134 82.5801 238.652C82.9902 238.171 83.306 237.604 83.5273 236.953C83.7487 236.302 83.8594 235.596 83.8594 234.834V234.619C83.8594 233.857 83.7487 233.151 83.5273 232.5C83.306 231.842 82.9902 231.273 82.5801 230.791C82.1634 230.309 81.6556 229.932 81.0566 229.658C80.4642 229.378 79.7936 229.238 79.0449 229.238C78.3027 229.238 77.6354 229.378 77.043 229.658C76.4505 229.932 75.9492 230.309 75.5391 230.791C75.1224 231.273 74.8034 231.842 74.582 232.5C74.3607 233.151 74.25 233.857 74.25 234.619ZM76.0566 234.834V234.619C76.0566 234.105 76.1185 233.613 76.2422 233.145C76.3659 232.669 76.5547 232.253 76.8086 231.895C77.056 231.536 77.3652 231.253 77.7363 231.045C78.1074 230.83 78.5436 230.723 79.0449 230.723C79.5462 230.723 79.9824 230.83 80.3535 231.045C80.7311 231.253 81.0469 231.536 81.3008 231.895C81.5482 232.253 81.7337 232.669 81.8574 233.145C81.9876 233.613 82.0527 234.105 82.0527 234.619V234.834C82.0527 235.355 81.9909 235.853 81.8672 236.328C81.7435 236.797 81.5579 237.21 81.3105 237.568C81.0566 237.926 80.7409 238.21 80.3633 238.418C79.9922 238.626 79.5592 238.73 79.0645 238.73C78.5632 238.73 78.1237 238.626 77.7461 238.418C77.3685 238.21 77.056 237.926 76.8086 237.568C76.5547 237.21 76.3659 236.797 76.2422 236.328C76.1185 235.853 76.0566 235.355 76.0566 234.834ZM86.4277 234.629V234.834C86.4277 235.589 86.5286 236.296 86.7305 236.953C86.9323 237.604 87.2155 238.171 87.5801 238.652C87.9447 239.134 88.3841 239.512 88.8984 239.785C89.4193 240.059 89.9987 240.195 90.6367 240.195C91.2878 240.195 91.8574 240.085 92.3457 239.863C92.834 239.642 93.2539 239.316 93.6055 238.887L93.6836 240H95.3438V225H93.5371V230.479C93.1921 230.075 92.7819 229.769 92.3066 229.561C91.8379 229.346 91.2878 229.238 90.6562 229.238C90.0117 229.238 89.429 229.372 88.9082 229.639C88.3874 229.906 87.9447 230.277 87.5801 230.752C87.209 231.227 86.9225 231.797 86.7207 232.461C86.5254 233.118 86.4277 233.841 86.4277 234.629ZM88.2344 234.834V234.629C88.2344 234.115 88.2897 233.626 88.4004 233.164C88.5111 232.695 88.6836 232.282 88.918 231.924C89.1458 231.572 89.4388 231.292 89.7969 231.084C90.1615 230.876 90.5977 230.771 91.1055 230.771C91.6979 230.771 92.1927 230.911 92.5898 231.191C92.987 231.465 93.3027 231.816 93.5371 232.246V237.148C93.3027 237.611 92.987 237.979 92.5898 238.252C92.1927 238.525 91.6914 238.662 91.0859 238.662C90.5846 238.662 90.1549 238.561 89.7969 238.359C89.4388 238.151 89.1458 237.871 88.918 237.52C88.6836 237.168 88.5111 236.761 88.4004 236.299C88.2897 235.837 88.2344 235.348 88.2344 234.834ZM103.449 240.195C104.478 240.195 105.34 239.99 106.037 239.58C106.74 239.163 107.268 238.688 107.619 238.154L106.516 237.295C106.184 237.725 105.767 238.07 105.266 238.33C104.764 238.59 104.191 238.721 103.547 238.721C103.059 238.721 102.613 238.63 102.209 238.447C101.805 238.265 101.46 238.014 101.174 237.695C100.894 237.396 100.673 237.051 100.51 236.66C100.354 236.27 100.253 235.817 100.207 235.303V235.234H107.756V234.424C107.756 233.688 107.661 233.005 107.473 232.373C107.29 231.742 107.01 231.191 106.633 230.723C106.255 230.26 105.78 229.899 105.207 229.639C104.641 229.372 103.977 229.238 103.215 229.238C102.609 229.238 102.017 229.362 101.438 229.609C100.865 229.857 100.354 230.212 99.9043 230.674C99.4486 231.143 99.084 231.715 98.8105 232.393C98.5371 233.063 98.4004 233.825 98.4004 234.678V235.088C98.4004 235.824 98.5241 236.504 98.7715 237.129C99.0189 237.754 99.3639 238.294 99.8066 238.75C100.249 239.206 100.78 239.561 101.398 239.814C102.023 240.068 102.707 240.195 103.449 240.195ZM103.215 230.723C103.677 230.723 104.074 230.807 104.406 230.977C104.745 231.146 105.025 231.367 105.246 231.641C105.467 231.914 105.64 232.24 105.764 232.617C105.887 232.988 105.949 233.337 105.949 233.662V233.75H100.266C100.337 233.262 100.461 232.832 100.637 232.461C100.819 232.083 101.04 231.764 101.301 231.504C101.561 231.25 101.854 231.058 102.18 230.928C102.505 230.791 102.85 230.723 103.215 230.723ZM113.938 238.828C113.938 239.206 114.055 239.528 114.289 239.795C114.53 240.055 114.885 240.186 115.354 240.186C115.816 240.186 116.171 240.055 116.418 239.795C116.665 239.535 116.789 239.212 116.789 238.828C116.789 238.438 116.665 238.109 116.418 237.842C116.177 237.568 115.822 237.432 115.354 237.432C114.878 237.432 114.523 237.568 114.289 237.842C114.055 238.115 113.938 238.444 113.938 238.828ZM125.949 238.828C125.949 239.206 126.066 239.528 126.301 239.795C126.542 240.055 126.896 240.186 127.365 240.186C127.827 240.186 128.182 240.055 128.43 239.795C128.677 239.535 128.801 239.212 128.801 238.828C128.801 238.438 128.677 238.109 128.43 237.842C128.189 237.568 127.834 237.432 127.365 237.432C126.89 237.432 126.535 237.568 126.301 237.842C126.066 238.115 125.949 238.444 125.949 238.828ZM137.961 238.828C137.961 239.206 138.078 239.528 138.312 239.795C138.553 240.055 138.908 240.186 139.377 240.186C139.839 240.186 140.194 240.055 140.441 239.795C140.689 239.535 140.812 239.212 140.812 238.828C140.812 238.438 140.689 238.109 140.441 237.842C140.201 237.568 139.846 237.432 139.377 237.432C138.902 237.432 138.547 237.568 138.312 237.842C138.078 238.115 137.961 238.444 137.961 238.828Z" fill="black"/>
<defs>
<linearGradient id="paint0_linear" x1="123.5" y1="0" x2="123.5" y2="328" gradientUnits="userSpaceOnUse">
<stop stop-color="#9D1A1A"/>
<stop offset="1" stop-color="white" stop-opacity="0"/>
</linearGradient>
<linearGradient id="paint1_linear" x1="123.5" y1="0" x2="123.5" y2="328" gradientUnits="userSpaceOnUse">
<stop stop-color="#CFCED6"/>
<stop offset="1" stop-color="#B7C0F2"/>
</linearGradient>
</defs>
</svg>
