<svg width="247" height="328" viewBox="0 0 247 328" fill="none" xmlns="http://www.w3.org/2000/svg">
<rect width="247" height="328" rx="8" fill="url(#paint0_linear)"/>
<rect width="247" height="328" rx="8" fill="url(#paint1_linear)"/>
<path d="M15.124 25.2266V27.1919H19.2866V41.0469H15.124V43H25.8662V41.0469H21.606V27.1919H25.8662V25.2266H15.124ZM30.1387 43H32.397V33.5273C32.5516 33.2425 32.7306 32.9821 32.9341 32.7461C33.1457 32.5101 33.3735 32.3026 33.6177 32.1235C33.9188 31.9201 34.2484 31.7614 34.6064 31.6475C34.9645 31.5254 35.3511 31.4644 35.7661 31.4644C36.2463 31.4644 36.6694 31.5213 37.0356 31.6353C37.41 31.7492 37.7274 31.9323 37.9878 32.1846C38.2401 32.4368 38.4313 32.7664 38.5615 33.1733C38.6917 33.5802 38.7568 34.0767 38.7568 34.6626V43H41.0151V34.6138C41.0151 33.7349 40.9053 32.978 40.6855 32.3433C40.474 31.7004 40.1688 31.1714 39.77 30.7563C39.3713 30.3413 38.887 30.0361 38.3174 29.8408C37.7559 29.6455 37.1292 29.5479 36.4375 29.5479C35.9248 29.556 35.4365 29.6333 34.9727 29.7798C34.5169 29.9181 34.0938 30.1175 33.7031 30.3779C33.4427 30.5488 33.1945 30.7523 32.9585 30.9883C32.7306 31.2161 32.519 31.4684 32.3237 31.7451L32.165 29.792H30.1387V43ZM50.5 26.5938H48.2295V29.792H44.7627V31.5376H48.2295V38.7153C48.2295 39.5291 48.3353 40.2249 48.5469 40.8027C48.7666 41.3724 49.0636 41.8363 49.438 42.1943C49.8123 42.5605 50.2518 42.8291 50.7563 43C51.269 43.1628 51.8184 43.2441 52.4043 43.2441C52.7542 43.2441 53.1042 43.2279 53.4541 43.1953C53.8122 43.1628 54.1499 43.1139 54.4673 43.0488C54.7847 42.9919 55.0776 42.9227 55.3462 42.8413C55.6147 42.7518 55.8426 42.6501 56.0298 42.5361L55.7124 40.937C55.5741 40.9696 55.395 41.0103 55.1753 41.0591C54.9637 41.0998 54.7358 41.1405 54.4917 41.1812C54.2394 41.2218 53.9831 41.2585 53.7227 41.291C53.4622 41.3154 53.21 41.3276 52.9658 41.3276C52.6322 41.3276 52.3148 41.2869 52.0137 41.2056C51.7207 41.1242 51.4603 40.9818 51.2324 40.7783C51.0046 40.583 50.8255 40.3185 50.6953 39.9849C50.5651 39.6512 50.5 39.228 50.5 38.7153V31.5376H55.5293V29.792H50.5V26.5938ZM68.8228 29.5479C67.8625 29.5479 67.0039 29.7594 66.2471 30.1826C65.4984 30.5977 64.8555 31.1673 64.3184 31.8916L64.3062 31.562L64.2085 29.792H62.0601V43H64.3306V34.5283C64.4771 34.1214 64.6602 33.7552 64.8799 33.4297C65.1077 33.096 65.3722 32.8153 65.6733 32.5874C66.007 32.327 66.3976 32.1317 66.8452 32.0015C67.2928 31.8631 67.7933 31.7939 68.3467 31.7939C68.778 31.7939 69.189 31.8184 69.5796 31.8672C69.9784 31.9079 70.3975 31.9771 70.8369 32.0747L71.1421 29.8652C70.9142 29.7676 70.5724 29.6903 70.1167 29.6333C69.6691 29.5763 69.2378 29.5479 68.8228 29.5479ZM74.5479 36.2739V36.5425C74.5479 37.4946 74.6862 38.3776 74.9629 39.1914C75.2396 40.0052 75.6383 40.7132 76.1592 41.3154C76.6719 41.9176 77.2985 42.3896 78.0391 42.7314C78.7878 43.0732 79.63 43.2441 80.5659 43.2441C81.4937 43.2441 82.3278 43.0732 83.0684 42.7314C83.8089 42.3896 84.4396 41.9176 84.9604 41.3154C85.4731 40.7132 85.8678 40.0052 86.1445 39.1914C86.4212 38.3776 86.5596 37.4946 86.5596 36.5425V36.2739C86.5596 35.3218 86.4212 34.4388 86.1445 33.625C85.8678 32.8031 85.4731 32.091 84.9604 31.4888C84.4396 30.8866 83.8049 30.4146 83.0562 30.0728C82.3156 29.7228 81.4774 29.5479 80.5415 29.5479C79.6138 29.5479 78.7796 29.7228 78.0391 30.0728C77.2985 30.4146 76.6719 30.8866 76.1592 31.4888C75.6383 32.091 75.2396 32.8031 74.9629 33.625C74.6862 34.4388 74.5479 35.3218 74.5479 36.2739ZM76.8062 36.5425V36.2739C76.8062 35.631 76.8835 35.0166 77.0381 34.4307C77.1927 33.8366 77.4287 33.3158 77.7461 32.8682C78.0553 32.4206 78.4419 32.0666 78.9058 31.8062C79.3696 31.5376 79.9149 31.4033 80.5415 31.4033C81.1681 31.4033 81.7134 31.5376 82.1772 31.8062C82.6493 32.0666 83.0439 32.4206 83.3613 32.8682C83.6706 33.3158 83.9025 33.8366 84.0571 34.4307C84.2199 35.0166 84.3013 35.631 84.3013 36.2739V36.5425C84.3013 37.1935 84.224 37.8161 84.0693 38.4102C83.9147 38.9961 83.6828 39.5129 83.3735 39.9604C83.0562 40.408 82.6615 40.762 82.1895 41.0225C81.7256 41.2829 81.1844 41.4131 80.5659 41.4131C79.9393 41.4131 79.39 41.2829 78.918 41.0225C78.446 40.762 78.0553 40.408 77.7461 39.9604C77.4287 39.5129 77.1927 38.9961 77.0381 38.4102C76.8835 37.8161 76.8062 37.1935 76.8062 36.5425ZM116.711 40.6685L116.674 34.1499H110.913V36.0542H114.526L114.501 40.0459C114.314 40.3145 114.082 40.5342 113.806 40.7051C113.529 40.8678 113.232 40.998 112.915 41.0957C112.597 41.1934 112.268 41.2585 111.926 41.291C111.592 41.3236 111.271 41.3358 110.961 41.3276C110.424 41.3195 109.944 41.2259 109.521 41.0469C109.098 40.8597 108.728 40.6115 108.41 40.3022C108.085 39.993 107.808 39.6349 107.58 39.228C107.352 38.8211 107.165 38.3898 107.019 37.9341C106.872 37.4784 106.762 37.0145 106.689 36.5425C106.624 36.0623 106.587 35.5985 106.579 35.1509V33.0635C106.579 32.624 106.608 32.1683 106.665 31.6963C106.722 31.2243 106.815 30.7604 106.945 30.3047C107.076 29.849 107.242 29.4176 107.446 29.0107C107.649 28.5957 107.906 28.2336 108.215 27.9243C108.524 27.6151 108.886 27.3709 109.301 27.1919C109.716 27.0047 110.192 26.9111 110.729 26.9111C111.291 26.9111 111.783 27.0007 112.207 27.1797C112.63 27.3506 112.996 27.5907 113.305 27.8999C113.606 28.2091 113.85 28.5835 114.038 29.0229C114.225 29.4543 114.363 29.9263 114.453 30.439H116.687C116.613 29.6089 116.418 28.8602 116.101 28.1929C115.783 27.5174 115.364 26.9396 114.843 26.4595C114.322 25.9875 113.712 25.6253 113.012 25.373C112.312 25.1126 111.547 24.9824 110.717 24.9824C109.969 24.9824 109.293 25.0923 108.691 25.312C108.089 25.5317 107.552 25.8288 107.08 26.2031C106.599 26.5856 106.188 27.0373 105.847 27.5581C105.505 28.0708 105.22 28.6283 104.992 29.2305C104.764 29.8327 104.593 30.4634 104.479 31.1226C104.374 31.7736 104.317 32.4287 104.309 33.0879V35.1509C104.317 35.8182 104.382 36.4814 104.504 37.1406C104.634 37.7917 104.825 38.4142 105.078 39.0083C105.322 39.6105 105.627 40.168 105.993 40.6807C106.359 41.1934 106.787 41.6369 107.275 42.0112C107.763 42.3937 108.312 42.6948 108.923 42.9146C109.541 43.1261 110.217 43.236 110.949 43.2441C111.674 43.2523 112.365 43.1709 113.024 43C113.684 42.8372 114.298 42.585 114.868 42.2432C115.201 42.0479 115.523 41.82 115.832 41.5596C116.141 41.291 116.434 40.994 116.711 40.6685ZM120.227 25.2266V27.1919H124.389V41.0469H120.227V43H130.969V41.0469H126.708V27.1919H130.969V25.2266H120.227ZM145.129 35.1509V33.2344H137.731V27.1553H146.362V25.2266H135.449V43H137.731V35.1509H145.129Z" fill="#DF5013"/>
<path d="M16.7402 110.467V97.7812H14.9336V112H23.6934V110.467H16.7402ZM26.2031 106.619V106.834C26.2031 107.596 26.3138 108.302 26.5352 108.953C26.7565 109.604 27.0755 110.171 27.4922 110.652C27.9023 111.134 28.4036 111.512 28.9961 111.785C29.5951 112.059 30.2689 112.195 31.0176 112.195C31.7598 112.195 32.4271 112.059 33.0195 111.785C33.612 111.512 34.1165 111.134 34.5332 110.652C34.9434 110.171 35.2591 109.604 35.4805 108.953C35.7018 108.302 35.8125 107.596 35.8125 106.834V106.619C35.8125 105.857 35.7018 105.151 35.4805 104.5C35.2591 103.842 34.9434 103.273 34.5332 102.791C34.1165 102.309 33.6087 101.932 33.0098 101.658C32.4173 101.378 31.7467 101.238 30.998 101.238C30.2559 101.238 29.5885 101.378 28.9961 101.658C28.4036 101.932 27.9023 102.309 27.4922 102.791C27.0755 103.273 26.7565 103.842 26.5352 104.5C26.3138 105.151 26.2031 105.857 26.2031 106.619ZM28.0098 106.834V106.619C28.0098 106.105 28.0716 105.613 28.1953 105.145C28.319 104.669 28.5078 104.253 28.7617 103.895C29.0091 103.536 29.3184 103.253 29.6895 103.045C30.0605 102.83 30.4967 102.723 30.998 102.723C31.4993 102.723 31.9355 102.83 32.3066 103.045C32.6842 103.253 33 103.536 33.2539 103.895C33.5013 104.253 33.6868 104.669 33.8105 105.145C33.9408 105.613 34.0059 106.105 34.0059 106.619V106.834C34.0059 107.355 33.944 107.853 33.8203 108.328C33.6966 108.797 33.5111 109.21 33.2637 109.568C33.0098 109.926 32.694 110.21 32.3164 110.418C31.9453 110.626 31.5124 110.73 31.0176 110.73C30.5163 110.73 30.0768 110.626 29.6992 110.418C29.3216 110.21 29.0091 109.926 28.7617 109.568C28.5078 109.21 28.319 108.797 28.1953 108.328C28.0716 107.853 28.0098 107.355 28.0098 106.834ZM38.2148 106.619V106.834C38.2148 107.596 38.3255 108.302 38.5469 108.953C38.7682 109.604 39.0872 110.171 39.5039 110.652C39.9141 111.134 40.4154 111.512 41.0078 111.785C41.6068 112.059 42.2806 112.195 43.0293 112.195C43.7715 112.195 44.4388 112.059 45.0312 111.785C45.6237 111.512 46.1283 111.134 46.5449 110.652C46.9551 110.171 47.2708 109.604 47.4922 108.953C47.7135 108.302 47.8242 107.596 47.8242 106.834V106.619C47.8242 105.857 47.7135 105.151 47.4922 104.5C47.2708 103.842 46.9551 103.273 46.5449 102.791C46.1283 102.309 45.6204 101.932 45.0215 101.658C44.429 101.378 43.7585 101.238 43.0098 101.238C42.2676 101.238 41.6003 101.378 41.0078 101.658C40.4154 101.932 39.9141 102.309 39.5039 102.791C39.0872 103.273 38.7682 103.842 38.5469 104.5C38.3255 105.151 38.2148 105.857 38.2148 106.619ZM40.0215 106.834V106.619C40.0215 106.105 40.0833 105.613 40.207 105.145C40.3307 104.669 40.5195 104.253 40.7734 103.895C41.0208 103.536 41.3301 103.253 41.7012 103.045C42.0723 102.83 42.5085 102.723 43.0098 102.723C43.5111 102.723 43.9473 102.83 44.3184 103.045C44.696 103.253 45.0117 103.536 45.2656 103.895C45.513 104.253 45.6986 104.669 45.8223 105.145C45.9525 105.613 46.0176 106.105 46.0176 106.619V106.834C46.0176 107.355 45.9557 107.853 45.832 108.328C45.7083 108.797 45.5228 109.21 45.2754 109.568C45.0215 109.926 44.7057 110.21 44.3281 110.418C43.957 110.626 43.5241 110.73 43.0293 110.73C42.528 110.73 42.0885 110.626 41.7109 110.418C41.3333 110.21 41.0208 109.926 40.7734 109.568C40.5195 109.21 40.3307 108.797 40.207 108.328C40.0833 107.853 40.0215 107.355 40.0215 106.834ZM50.7246 116.062H52.5312V110.984C52.6615 111.128 52.8014 111.261 52.9512 111.385C53.1009 111.502 53.2604 111.609 53.4297 111.707C53.7096 111.863 54.0221 111.984 54.3672 112.068C54.7188 112.153 55.0964 112.195 55.5 112.195C56.1641 112.195 56.7533 112.059 57.2676 111.785C57.7884 111.512 58.2246 111.134 58.5762 110.652C58.9277 110.171 59.1947 109.604 59.377 108.953C59.5592 108.296 59.6504 107.589 59.6504 106.834V106.629C59.6504 105.841 59.5592 105.118 59.377 104.461C59.1947 103.797 58.9277 103.227 58.5762 102.752C58.2246 102.277 57.7884 101.906 57.2676 101.639C56.7467 101.372 56.1478 101.238 55.4707 101.238C55.0866 101.238 54.7253 101.281 54.3867 101.365C54.0547 101.443 53.752 101.561 53.4785 101.717C53.2832 101.821 53.1009 101.948 52.9316 102.098C52.7624 102.241 52.6061 102.404 52.4629 102.586L52.375 101.434H50.7246V116.062ZM57.8438 106.629V106.834C57.8438 107.348 57.7852 107.84 57.668 108.309C57.5573 108.777 57.3848 109.191 57.1504 109.549C56.916 109.907 56.6165 110.193 56.252 110.408C55.8874 110.617 55.4544 110.721 54.9531 110.721C54.6406 110.721 54.3542 110.682 54.0938 110.604C53.8398 110.525 53.6087 110.418 53.4004 110.281C53.2181 110.164 53.0553 110.021 52.9121 109.852C52.7689 109.682 52.6419 109.5 52.5312 109.305V104.217C52.6549 103.995 52.7982 103.794 52.9609 103.611C53.1237 103.429 53.3092 103.276 53.5176 103.152C53.7064 103.029 53.918 102.934 54.1523 102.869C54.3932 102.804 54.6536 102.771 54.9336 102.771C55.4414 102.771 55.8776 102.876 56.2422 103.084C56.6068 103.292 56.9095 103.572 57.1504 103.924C57.3848 104.282 57.5573 104.695 57.668 105.164C57.7852 105.626 57.8438 106.115 57.8438 106.629ZM63.0293 101.434V103.006H66.623V110.438H63.0293V112H71.877V110.438H68.4297V101.434H63.0293ZM66.3887 98.6602C66.3887 98.9531 66.4766 99.1973 66.6523 99.3926C66.8346 99.5879 67.1081 99.6855 67.4727 99.6855C67.8307 99.6855 68.1009 99.5879 68.2832 99.3926C68.4655 99.1973 68.5566 98.9531 68.5566 98.6602C68.5566 98.4974 68.5306 98.3477 68.4785 98.2109C68.4264 98.0742 68.3483 97.9603 68.2441 97.8691C68.1595 97.7845 68.0521 97.7194 67.9219 97.6738C67.7917 97.6217 67.6419 97.5957 67.4727 97.5957C67.3034 97.5957 67.1504 97.6217 67.0137 97.6738C66.8835 97.7194 66.776 97.7845 66.6914 97.8691C66.5872 97.9668 66.5091 98.084 66.457 98.2207C66.4115 98.3574 66.3887 98.5039 66.3887 98.6602ZM74.7578 112H76.5645V104.422C76.6882 104.194 76.8314 103.986 76.9941 103.797C77.1634 103.608 77.3457 103.442 77.541 103.299C77.7819 103.136 78.0456 103.009 78.332 102.918C78.6185 102.82 78.9277 102.771 79.2598 102.771C79.6439 102.771 79.9824 102.817 80.2754 102.908C80.5749 102.999 80.8288 103.146 81.0371 103.348C81.2389 103.549 81.3919 103.813 81.4961 104.139C81.6003 104.464 81.6523 104.861 81.6523 105.33V112H83.459V105.291C83.459 104.588 83.3711 103.982 83.1953 103.475C83.026 102.96 82.7819 102.537 82.4629 102.205C82.1439 101.873 81.7565 101.629 81.3008 101.473C80.8516 101.316 80.3503 101.238 79.7969 101.238C79.3867 101.245 78.9961 101.307 78.625 101.424C78.2604 101.535 77.9219 101.694 77.6094 101.902C77.401 102.039 77.2025 102.202 77.0137 102.391C76.8314 102.573 76.6621 102.775 76.5059 102.996L76.3789 101.434H74.7578V112ZM86.4375 106.629V106.834C86.4375 107.589 86.5352 108.296 86.7305 108.953C86.9258 109.604 87.2057 110.171 87.5703 110.652C87.9284 111.134 88.3678 111.512 88.8887 111.785C89.4095 112.059 89.9922 112.195 90.6367 112.195C91.0208 112.195 91.3789 112.153 91.7109 112.068C92.043 111.99 92.3457 111.876 92.6191 111.727C92.7949 111.629 92.9577 111.515 93.1074 111.385C93.2637 111.255 93.4102 111.111 93.5469 110.955V111.863C93.5469 112.319 93.4818 112.723 93.3516 113.074C93.2214 113.426 93.0358 113.719 92.7949 113.953C92.5475 114.194 92.2513 114.376 91.9062 114.5C91.5612 114.624 91.1738 114.686 90.7441 114.686C90.5033 114.686 90.2624 114.66 90.0215 114.607C89.7806 114.562 89.5397 114.484 89.2988 114.373C89.0579 114.262 88.8203 114.113 88.5859 113.924C88.3516 113.742 88.1237 113.517 87.9023 113.25L86.9648 114.334C87.2057 114.679 87.4922 114.969 87.8242 115.203C88.1628 115.438 88.5143 115.623 88.8789 115.76C89.237 115.903 89.5918 116.004 89.9434 116.062C90.2949 116.128 90.6074 116.16 90.8809 116.16C91.5449 116.16 92.1504 116.062 92.6973 115.867C93.2441 115.672 93.7161 115.385 94.1133 115.008C94.5039 114.63 94.8066 114.171 95.0215 113.631C95.2428 113.09 95.3535 112.472 95.3535 111.775V101.434H93.7129L93.625 102.586C93.5013 102.43 93.3678 102.286 93.2246 102.156C93.0879 102.026 92.9414 101.912 92.7852 101.814C92.4987 101.626 92.1764 101.482 91.8184 101.385C91.4668 101.287 91.0794 101.238 90.6562 101.238C89.9987 101.238 89.4095 101.372 88.8887 101.639C88.3678 101.906 87.9251 102.277 87.5605 102.752C87.196 103.227 86.916 103.797 86.7207 104.461C86.5319 105.118 86.4375 105.841 86.4375 106.629ZM88.2441 106.834V106.629C88.2441 106.115 88.2962 105.626 88.4004 105.164C88.5111 104.695 88.6836 104.282 88.918 103.924C89.1458 103.572 89.4388 103.292 89.7969 103.084C90.1615 102.876 90.5977 102.771 91.1055 102.771C91.4049 102.771 91.6784 102.811 91.9258 102.889C92.1732 102.96 92.3978 103.061 92.5996 103.191C92.8014 103.328 92.9805 103.488 93.1367 103.67C93.293 103.852 93.4297 104.054 93.5469 104.275V109.119C93.4297 109.347 93.293 109.555 93.1367 109.744C92.9805 109.933 92.8047 110.096 92.6094 110.232C92.4076 110.369 92.1797 110.477 91.9258 110.555C91.6784 110.626 91.3984 110.662 91.0859 110.662C90.5846 110.662 90.1549 110.561 89.7969 110.359C89.4388 110.151 89.1458 109.871 88.918 109.52C88.6836 109.168 88.5111 108.761 88.4004 108.299C88.2962 107.837 88.2441 107.348 88.2441 106.834ZM110.461 106.629V106.834C110.461 107.589 110.559 108.296 110.754 108.953C110.949 109.604 111.229 110.171 111.594 110.652C111.952 111.134 112.391 111.512 112.912 111.785C113.433 112.059 114.016 112.195 114.66 112.195C115.044 112.195 115.402 112.153 115.734 112.068C116.066 111.99 116.369 111.876 116.643 111.727C116.818 111.629 116.981 111.515 117.131 111.385C117.287 111.255 117.434 111.111 117.57 110.955V111.863C117.57 112.319 117.505 112.723 117.375 113.074C117.245 113.426 117.059 113.719 116.818 113.953C116.571 114.194 116.275 114.376 115.93 114.5C115.585 114.624 115.197 114.686 114.768 114.686C114.527 114.686 114.286 114.66 114.045 114.607C113.804 114.562 113.563 114.484 113.322 114.373C113.081 114.262 112.844 114.113 112.609 113.924C112.375 113.742 112.147 113.517 111.926 113.25L110.988 114.334C111.229 114.679 111.516 114.969 111.848 115.203C112.186 115.438 112.538 115.623 112.902 115.76C113.26 115.903 113.615 116.004 113.967 116.062C114.318 116.128 114.631 116.16 114.904 116.16C115.568 116.16 116.174 116.062 116.721 115.867C117.268 115.672 117.74 115.385 118.137 115.008C118.527 114.63 118.83 114.171 119.045 113.631C119.266 113.09 119.377 112.472 119.377 111.775V101.434H117.736L117.648 102.586C117.525 102.43 117.391 102.286 117.248 102.156C117.111 102.026 116.965 101.912 116.809 101.814C116.522 101.626 116.2 101.482 115.842 101.385C115.49 101.287 115.103 101.238 114.68 101.238C114.022 101.238 113.433 101.372 112.912 101.639C112.391 101.906 111.949 102.277 111.584 102.752C111.219 103.227 110.939 103.797 110.744 104.461C110.555 105.118 110.461 105.841 110.461 106.629ZM112.268 106.834V106.629C112.268 106.115 112.32 105.626 112.424 105.164C112.535 104.695 112.707 104.282 112.941 103.924C113.169 103.572 113.462 103.292 113.82 103.084C114.185 102.876 114.621 102.771 115.129 102.771C115.428 102.771 115.702 102.811 115.949 102.889C116.197 102.96 116.421 103.061 116.623 103.191C116.825 103.328 117.004 103.488 117.16 103.67C117.316 103.852 117.453 104.054 117.57 104.275V109.119C117.453 109.347 117.316 109.555 117.16 109.744C117.004 109.933 116.828 110.096 116.633 110.232C116.431 110.369 116.203 110.477 115.949 110.555C115.702 110.626 115.422 110.662 115.109 110.662C114.608 110.662 114.178 110.561 113.82 110.359C113.462 110.151 113.169 109.871 112.941 109.52C112.707 109.168 112.535 108.761 112.424 108.299C112.32 107.837 112.268 107.348 112.268 106.834ZM123.088 101.434V103.006H126.682V110.438H123.088V112H131.936V110.438H128.488V101.434H123.088ZM126.447 98.6602C126.447 98.9531 126.535 99.1973 126.711 99.3926C126.893 99.5879 127.167 99.6855 127.531 99.6855C127.889 99.6855 128.16 99.5879 128.342 99.3926C128.524 99.1973 128.615 98.9531 128.615 98.6602C128.615 98.4974 128.589 98.3477 128.537 98.2109C128.485 98.0742 128.407 97.9603 128.303 97.8691C128.218 97.7845 128.111 97.7194 127.98 97.6738C127.85 97.6217 127.701 97.5957 127.531 97.5957C127.362 97.5957 127.209 97.6217 127.072 97.6738C126.942 97.7194 126.835 97.7845 126.75 97.8691C126.646 97.9668 126.568 98.084 126.516 98.2207C126.47 98.3574 126.447 98.5039 126.447 98.6602ZM137.512 112H139.328V102.83H143.4V101.434H139.328V100.691C139.328 100.249 139.383 99.8613 139.494 99.5293C139.611 99.1973 139.781 98.9271 140.002 98.7188C140.21 98.5169 140.471 98.3672 140.783 98.2695C141.102 98.1654 141.467 98.1133 141.877 98.1133C142.281 98.1133 142.658 98.1491 143.01 98.2207C143.368 98.2858 143.68 98.3639 143.947 98.4551L144.162 96.9609C143.993 96.9154 143.827 96.8763 143.664 96.8438C143.501 96.8047 143.339 96.7689 143.176 96.7363C142.928 96.6908 142.678 96.6549 142.424 96.6289C142.17 96.5964 141.913 96.5801 141.652 96.5801C141.027 96.5801 140.461 96.668 139.953 96.8438C139.445 97.0195 139.012 97.2799 138.654 97.625C138.29 97.9701 138.007 98.3997 137.805 98.9141C137.609 99.4219 137.512 100.014 137.512 100.691V101.434H134.602V102.83H137.512V112ZM14.9824 127.434V129.006H18.5762V136.438H14.9824V138H23.8301V136.438H20.3828V127.434H14.9824ZM18.3418 124.66C18.3418 124.953 18.4297 125.197 18.6055 125.393C18.7878 125.588 19.0612 125.686 19.4258 125.686C19.7839 125.686 20.054 125.588 20.2363 125.393C20.4186 125.197 20.5098 124.953 20.5098 124.66C20.5098 124.497 20.4837 124.348 20.4316 124.211C20.3796 124.074 20.3014 123.96 20.1973 123.869C20.1126 123.785 20.0052 123.719 19.875 123.674C19.7448 123.622 19.5951 123.596 19.4258 123.596C19.2565 123.596 19.1035 123.622 18.9668 123.674C18.8366 123.719 18.7292 123.785 18.6445 123.869C18.5404 123.967 18.4622 124.084 18.4102 124.221C18.3646 124.357 18.3418 124.504 18.3418 124.66ZM26.7109 138H28.5176V130.422C28.6413 130.194 28.7845 129.986 28.9473 129.797C29.1165 129.608 29.2988 129.442 29.4941 129.299C29.735 129.136 29.9987 129.009 30.2852 128.918C30.5716 128.82 30.8809 128.771 31.2129 128.771C31.597 128.771 31.9355 128.817 32.2285 128.908C32.528 128.999 32.7819 129.146 32.9902 129.348C33.1921 129.549 33.3451 129.813 33.4492 130.139C33.5534 130.464 33.6055 130.861 33.6055 131.33V138H35.4121V131.291C35.4121 130.588 35.3242 129.982 35.1484 129.475C34.9792 128.96 34.735 128.537 34.416 128.205C34.097 127.873 33.7096 127.629 33.2539 127.473C32.8047 127.316 32.3034 127.238 31.75 127.238C31.3398 127.245 30.9492 127.307 30.5781 127.424C30.2135 127.535 29.875 127.694 29.5625 127.902C29.3542 128.039 29.1556 128.202 28.9668 128.391C28.7845 128.573 28.6152 128.775 28.459 128.996L28.332 127.434H26.7109V138ZM45.7441 135.197C45.7441 135.367 45.7116 135.526 45.6465 135.676C45.5814 135.826 45.487 135.962 45.3633 136.086C45.1615 136.288 44.8815 136.447 44.5234 136.564C44.1654 136.675 43.7454 136.73 43.2637 136.73C42.9577 136.73 42.6484 136.698 42.3359 136.633C42.0234 136.568 41.7402 136.457 41.4863 136.301C41.2259 136.145 41.0078 135.939 40.832 135.686C40.6628 135.432 40.5651 135.119 40.5391 134.748H38.7324C38.7324 135.197 38.8333 135.63 39.0352 136.047C39.2435 136.464 39.543 136.828 39.9336 137.141C40.3177 137.46 40.7897 137.717 41.3496 137.912C41.9095 138.101 42.5475 138.195 43.2637 138.195C43.8887 138.195 44.4648 138.12 44.9922 137.971C45.5195 137.821 45.972 137.609 46.3496 137.336C46.7272 137.062 47.0202 136.734 47.2285 136.35C47.4434 135.965 47.5508 135.539 47.5508 135.07C47.5508 134.634 47.4564 134.25 47.2676 133.918C47.0853 133.586 46.8184 133.293 46.4668 133.039C46.1152 132.792 45.6823 132.58 45.168 132.404C44.6536 132.222 44.071 132.062 43.4199 131.926C42.9251 131.828 42.515 131.727 42.1895 131.623C41.8704 131.519 41.6165 131.402 41.4277 131.271C41.2324 131.141 41.0957 130.995 41.0176 130.832C40.9395 130.669 40.9004 130.484 40.9004 130.275C40.9004 130.074 40.9492 129.878 41.0469 129.689C41.1445 129.501 41.291 129.335 41.4863 129.191C41.6751 129.048 41.9128 128.934 42.1992 128.85C42.4922 128.765 42.8307 128.723 43.2148 128.723C43.5859 128.723 43.918 128.775 44.2109 128.879C44.5104 128.983 44.7643 129.12 44.9727 129.289C45.181 129.458 45.3438 129.654 45.4609 129.875C45.5781 130.09 45.6367 130.311 45.6367 130.539H47.4434C47.4434 130.077 47.3424 129.647 47.1406 129.25C46.9453 128.846 46.6654 128.495 46.3008 128.195C45.9362 127.896 45.4935 127.661 44.9727 127.492C44.4518 127.323 43.8659 127.238 43.2148 127.238C42.6094 127.238 42.0527 127.32 41.5449 127.482C41.0436 127.645 40.6107 127.867 40.2461 128.146C39.8815 128.426 39.5983 128.755 39.3965 129.133C39.1947 129.504 39.0938 129.904 39.0938 130.334C39.0938 130.77 39.1914 131.154 39.3867 131.486C39.582 131.812 39.8587 132.095 40.2168 132.336C40.5684 132.583 40.9915 132.795 41.4863 132.971C41.9876 133.146 42.541 133.296 43.1465 133.42C43.6413 133.518 44.0547 133.628 44.3867 133.752C44.7188 133.869 44.9857 133.999 45.1875 134.143C45.3893 134.286 45.5326 134.445 45.6172 134.621C45.7018 134.79 45.7441 134.982 45.7441 135.197ZM50.7246 142.062H52.5312V136.984C52.6615 137.128 52.8014 137.261 52.9512 137.385C53.1009 137.502 53.2604 137.609 53.4297 137.707C53.7096 137.863 54.0221 137.984 54.3672 138.068C54.7188 138.153 55.0964 138.195 55.5 138.195C56.1641 138.195 56.7533 138.059 57.2676 137.785C57.7884 137.512 58.2246 137.134 58.5762 136.652C58.9277 136.171 59.1947 135.604 59.377 134.953C59.5592 134.296 59.6504 133.589 59.6504 132.834V132.629C59.6504 131.841 59.5592 131.118 59.377 130.461C59.1947 129.797 58.9277 129.227 58.5762 128.752C58.2246 128.277 57.7884 127.906 57.2676 127.639C56.7467 127.372 56.1478 127.238 55.4707 127.238C55.0866 127.238 54.7253 127.281 54.3867 127.365C54.0547 127.443 53.752 127.561 53.4785 127.717C53.2832 127.821 53.1009 127.948 52.9316 128.098C52.7624 128.241 52.6061 128.404 52.4629 128.586L52.375 127.434H50.7246V142.062ZM57.8438 132.629V132.834C57.8438 133.348 57.7852 133.84 57.668 134.309C57.5573 134.777 57.3848 135.191 57.1504 135.549C56.916 135.907 56.6165 136.193 56.252 136.408C55.8874 136.617 55.4544 136.721 54.9531 136.721C54.6406 136.721 54.3542 136.682 54.0938 136.604C53.8398 136.525 53.6087 136.418 53.4004 136.281C53.2181 136.164 53.0553 136.021 52.9121 135.852C52.7689 135.682 52.6419 135.5 52.5312 135.305V130.217C52.6549 129.995 52.7982 129.794 52.9609 129.611C53.1237 129.429 53.3092 129.276 53.5176 129.152C53.7064 129.029 53.918 128.934 54.1523 128.869C54.3932 128.804 54.6536 128.771 54.9336 128.771C55.4414 128.771 55.8776 128.876 56.2422 129.084C56.6068 129.292 56.9095 129.572 57.1504 129.924C57.3848 130.282 57.5573 130.695 57.668 131.164C57.7852 131.626 57.8438 132.115 57.8438 132.629ZM63.0293 127.434V129.006H66.623V136.438H63.0293V138H71.877V136.438H68.4297V127.434H63.0293ZM66.3887 124.66C66.3887 124.953 66.4766 125.197 66.6523 125.393C66.8346 125.588 67.1081 125.686 67.4727 125.686C67.8307 125.686 68.1009 125.588 68.2832 125.393C68.4655 125.197 68.5566 124.953 68.5566 124.66C68.5566 124.497 68.5306 124.348 68.4785 124.211C68.4264 124.074 68.3483 123.96 68.2441 123.869C68.1595 123.785 68.0521 123.719 67.9219 123.674C67.7917 123.622 67.6419 123.596 67.4727 123.596C67.3034 123.596 67.1504 123.622 67.0137 123.674C66.8835 123.719 66.776 123.785 66.6914 123.869C66.5872 123.967 66.5091 124.084 66.457 124.221C66.4115 124.357 66.3887 124.504 66.3887 124.66ZM81.6816 127.238C80.9134 127.238 80.2266 127.408 79.6211 127.746C79.0221 128.078 78.5078 128.534 78.0781 129.113L78.0684 128.85L77.9902 127.434H76.2715V138H78.0879V131.223C78.2051 130.897 78.3516 130.604 78.5273 130.344C78.7096 130.077 78.9212 129.852 79.1621 129.67C79.429 129.462 79.7415 129.305 80.0996 129.201C80.4577 129.09 80.8581 129.035 81.3008 129.035C81.6458 129.035 81.9746 129.055 82.2871 129.094C82.6061 129.126 82.9414 129.182 83.293 129.26L83.5371 127.492C83.3548 127.414 83.0814 127.352 82.7168 127.307C82.3587 127.261 82.0137 127.238 81.6816 127.238ZM91.4375 138.195C92.4661 138.195 93.3288 137.99 94.0254 137.58C94.7285 137.163 95.2559 136.688 95.6074 136.154L94.5039 135.295C94.1719 135.725 93.7552 136.07 93.2539 136.33C92.7526 136.59 92.1797 136.721 91.5352 136.721C91.0469 136.721 90.6009 136.63 90.1973 136.447C89.7936 136.265 89.4486 136.014 89.1621 135.695C88.8822 135.396 88.6608 135.051 88.498 134.66C88.3418 134.27 88.2409 133.817 88.1953 133.303V133.234H95.7441V132.424C95.7441 131.688 95.6497 131.005 95.4609 130.373C95.2786 129.742 94.9987 129.191 94.6211 128.723C94.2435 128.26 93.7682 127.899 93.1953 127.639C92.6289 127.372 91.9648 127.238 91.2031 127.238C90.5977 127.238 90.0052 127.362 89.4258 127.609C88.8529 127.857 88.3418 128.212 87.8926 128.674C87.4368 129.143 87.0723 129.715 86.7988 130.393C86.5254 131.063 86.3887 131.825 86.3887 132.678V133.088C86.3887 133.824 86.5124 134.504 86.7598 135.129C87.0072 135.754 87.3522 136.294 87.7949 136.75C88.2376 137.206 88.7682 137.561 89.3867 137.814C90.0117 138.068 90.6953 138.195 91.4375 138.195ZM91.2031 128.723C91.6654 128.723 92.0625 128.807 92.3945 128.977C92.7331 129.146 93.013 129.367 93.2344 129.641C93.4557 129.914 93.6283 130.24 93.752 130.617C93.8757 130.988 93.9375 131.337 93.9375 131.662V131.75H88.2539C88.3255 131.262 88.4492 130.832 88.625 130.461C88.8073 130.083 89.0286 129.764 89.2891 129.504C89.5495 129.25 89.8424 129.058 90.168 128.928C90.4935 128.791 90.8385 128.723 91.2031 128.723ZM98.4395 132.629V132.834C98.4395 133.589 98.5404 134.296 98.7422 134.953C98.944 135.604 99.2272 136.171 99.5918 136.652C99.9564 137.134 100.396 137.512 100.91 137.785C101.431 138.059 102.01 138.195 102.648 138.195C103.299 138.195 103.869 138.085 104.357 137.863C104.846 137.642 105.266 137.316 105.617 136.887L105.695 138H107.355V123H105.549V128.479C105.204 128.075 104.794 127.769 104.318 127.561C103.85 127.346 103.299 127.238 102.668 127.238C102.023 127.238 101.441 127.372 100.92 127.639C100.399 127.906 99.9564 128.277 99.5918 128.752C99.2207 129.227 98.9342 129.797 98.7324 130.461C98.5371 131.118 98.4395 131.841 98.4395 132.629ZM100.246 132.834V132.629C100.246 132.115 100.301 131.626 100.412 131.164C100.523 130.695 100.695 130.282 100.93 129.924C101.158 129.572 101.451 129.292 101.809 129.084C102.173 128.876 102.609 128.771 103.117 128.771C103.71 128.771 104.204 128.911 104.602 129.191C104.999 129.465 105.314 129.816 105.549 130.246V135.148C105.314 135.611 104.999 135.979 104.602 136.252C104.204 136.525 103.703 136.662 103.098 136.662C102.596 136.662 102.167 136.561 101.809 136.359C101.451 136.151 101.158 135.871 100.93 135.52C100.695 135.168 100.523 134.761 100.412 134.299C100.301 133.837 100.246 133.348 100.246 132.834ZM131.76 132.834V132.629C131.76 132.076 131.714 131.551 131.623 131.057C131.532 130.555 131.398 130.1 131.223 129.689C131.053 129.325 130.858 128.996 130.637 128.703C130.415 128.404 130.165 128.15 129.885 127.941C129.572 127.72 129.224 127.548 128.84 127.424C128.456 127.3 128.036 127.238 127.58 127.238C127.215 127.238 126.877 127.274 126.564 127.346C126.252 127.417 125.965 127.521 125.705 127.658C125.497 127.769 125.301 127.902 125.119 128.059C124.937 128.208 124.771 128.378 124.621 128.566V123H122.814V138H124.475L124.562 136.799C124.68 136.949 124.803 137.085 124.934 137.209C125.064 137.333 125.201 137.447 125.344 137.551C125.643 137.759 125.979 137.919 126.35 138.029C126.727 138.14 127.144 138.195 127.6 138.195C127.997 138.195 128.365 138.146 128.703 138.049C129.048 137.951 129.364 137.814 129.65 137.639C130.048 137.385 130.386 137.066 130.666 136.682C130.952 136.291 131.184 135.852 131.359 135.363C131.49 134.992 131.587 134.595 131.652 134.172C131.724 133.742 131.76 133.296 131.76 132.834ZM129.953 132.629V132.834C129.953 133.146 129.934 133.452 129.895 133.752C129.855 134.051 129.794 134.331 129.709 134.592C129.605 134.937 129.465 135.249 129.289 135.529C129.113 135.809 128.895 136.04 128.635 136.223C128.439 136.366 128.218 136.477 127.971 136.555C127.723 136.626 127.45 136.662 127.15 136.662C126.838 136.662 126.551 136.623 126.291 136.545C126.031 136.46 125.796 136.343 125.588 136.193C125.38 136.044 125.194 135.871 125.031 135.676C124.875 135.474 124.738 135.256 124.621 135.021V130.402C124.732 130.168 124.865 129.953 125.021 129.758C125.184 129.556 125.37 129.38 125.578 129.23C125.78 129.087 126.011 128.977 126.271 128.898C126.532 128.814 126.818 128.771 127.131 128.771C127.417 128.771 127.678 128.804 127.912 128.869C128.146 128.934 128.358 129.025 128.547 129.143C128.82 129.305 129.051 129.53 129.24 129.816C129.429 130.103 129.582 130.419 129.699 130.764C129.784 131.044 129.846 131.343 129.885 131.662C129.93 131.975 129.953 132.297 129.953 132.629ZM135.666 142.268C136.141 142.268 136.561 142.18 136.926 142.004C137.29 141.828 137.609 141.61 137.883 141.35C138.156 141.089 138.387 140.806 138.576 140.5C138.771 140.194 138.931 139.904 139.055 139.631L144.416 127.434H142.395L139.67 134.289L139.172 135.529L138.703 134.25L135.803 127.434H133.781L138.332 137.502L137.609 138.908C137.544 139.038 137.453 139.204 137.336 139.406C137.225 139.608 137.092 139.803 136.936 139.992C136.773 140.181 136.587 140.344 136.379 140.48C136.177 140.617 135.952 140.686 135.705 140.686C135.614 140.686 135.487 140.679 135.324 140.666C135.168 140.66 135.008 140.65 134.846 140.637L134.553 142.111C134.67 142.137 134.842 142.17 135.07 142.209C135.298 142.248 135.497 142.268 135.666 142.268ZM163.117 124.875H161.301V127.434H158.527V128.83H161.301V134.572C161.301 135.223 161.385 135.78 161.555 136.242C161.73 136.698 161.968 137.069 162.268 137.355C162.567 137.648 162.919 137.863 163.322 138C163.732 138.13 164.172 138.195 164.641 138.195C164.921 138.195 165.201 138.182 165.48 138.156C165.767 138.13 166.037 138.091 166.291 138.039C166.545 137.993 166.779 137.938 166.994 137.873C167.209 137.801 167.391 137.72 167.541 137.629L167.287 136.35C167.176 136.376 167.033 136.408 166.857 136.447C166.688 136.48 166.506 136.512 166.311 136.545C166.109 136.577 165.904 136.607 165.695 136.633C165.487 136.652 165.285 136.662 165.09 136.662C164.823 136.662 164.569 136.63 164.328 136.564C164.094 136.499 163.885 136.385 163.703 136.223C163.521 136.066 163.378 135.855 163.273 135.588C163.169 135.321 163.117 134.982 163.117 134.572V128.83H167.141V127.434H163.117V124.875ZM172.658 129.006V123H170.852V138H172.658V130.324C172.788 130.116 172.935 129.927 173.098 129.758C173.267 129.582 173.449 129.429 173.645 129.299C173.892 129.13 174.162 128.999 174.455 128.908C174.748 128.817 175.057 128.771 175.383 128.771C175.78 128.765 176.132 128.82 176.438 128.938C176.743 129.048 176.997 129.217 177.199 129.445C177.388 129.654 177.531 129.917 177.629 130.236C177.727 130.549 177.775 130.913 177.775 131.33V138H179.582V131.35C179.582 130.64 179.494 130.028 179.318 129.514C179.149 128.993 178.905 128.563 178.586 128.225C178.267 127.886 177.88 127.639 177.424 127.482C176.975 127.32 176.473 127.238 175.92 127.238C175.497 127.245 175.096 127.307 174.719 127.424C174.348 127.541 174.006 127.714 173.693 127.941C173.498 128.078 173.312 128.238 173.137 128.42C172.961 128.596 172.801 128.791 172.658 129.006ZM187.531 138.195C188.56 138.195 189.423 137.99 190.119 137.58C190.822 137.163 191.35 136.688 191.701 136.154L190.598 135.295C190.266 135.725 189.849 136.07 189.348 136.33C188.846 136.59 188.273 136.721 187.629 136.721C187.141 136.721 186.695 136.63 186.291 136.447C185.887 136.265 185.542 136.014 185.256 135.695C184.976 135.396 184.755 135.051 184.592 134.66C184.436 134.27 184.335 133.817 184.289 133.303V133.234H191.838V132.424C191.838 131.688 191.743 131.005 191.555 130.373C191.372 129.742 191.092 129.191 190.715 128.723C190.337 128.26 189.862 127.899 189.289 127.639C188.723 127.372 188.059 127.238 187.297 127.238C186.691 127.238 186.099 127.362 185.52 127.609C184.947 127.857 184.436 128.212 183.986 128.674C183.531 129.143 183.166 129.715 182.893 130.393C182.619 131.063 182.482 131.825 182.482 132.678V133.088C182.482 133.824 182.606 134.504 182.854 135.129C183.101 135.754 183.446 136.294 183.889 136.75C184.331 137.206 184.862 137.561 185.48 137.814C186.105 138.068 186.789 138.195 187.531 138.195ZM187.297 128.723C187.759 128.723 188.156 128.807 188.488 128.977C188.827 129.146 189.107 129.367 189.328 129.641C189.549 129.914 189.722 130.24 189.846 130.617C189.969 130.988 190.031 131.337 190.031 131.662V131.75H184.348C184.419 131.262 184.543 130.832 184.719 130.461C184.901 130.083 185.122 129.764 185.383 129.504C185.643 129.25 185.936 129.058 186.262 128.928C186.587 128.791 186.932 128.723 187.297 128.723ZM14.6895 168.062H16.4961V162.984C16.6263 163.128 16.7663 163.261 16.916 163.385C17.0658 163.502 17.2253 163.609 17.3945 163.707C17.6745 163.863 17.987 163.984 18.332 164.068C18.6836 164.153 19.0612 164.195 19.4648 164.195C20.1289 164.195 20.7181 164.059 21.2324 163.785C21.7533 163.512 22.1895 163.134 22.541 162.652C22.8926 162.171 23.1595 161.604 23.3418 160.953C23.5241 160.296 23.6152 159.589 23.6152 158.834V158.629C23.6152 157.841 23.5241 157.118 23.3418 156.461C23.1595 155.797 22.8926 155.227 22.541 154.752C22.1895 154.277 21.7533 153.906 21.2324 153.639C20.7116 153.372 20.1126 153.238 19.4355 153.238C19.0514 153.238 18.6901 153.281 18.3516 153.365C18.0195 153.443 17.7168 153.561 17.4434 153.717C17.248 153.821 17.0658 153.948 16.8965 154.098C16.7272 154.241 16.571 154.404 16.4277 154.586L16.3398 153.434H14.6895V168.062ZM21.8086 158.629V158.834C21.8086 159.348 21.75 159.84 21.6328 160.309C21.5221 160.777 21.3496 161.191 21.1152 161.549C20.8809 161.907 20.5814 162.193 20.2168 162.408C19.8522 162.617 19.4193 162.721 18.918 162.721C18.6055 162.721 18.319 162.682 18.0586 162.604C17.8047 162.525 17.5736 162.418 17.3652 162.281C17.1829 162.164 17.0202 162.021 16.877 161.852C16.7337 161.682 16.6068 161.5 16.4961 161.305V156.217C16.6198 155.995 16.763 155.794 16.9258 155.611C17.0885 155.429 17.2741 155.276 17.4824 155.152C17.6712 155.029 17.8828 154.934 18.1172 154.869C18.3581 154.804 18.6185 154.771 18.8984 154.771C19.4062 154.771 19.8424 154.876 20.207 155.084C20.5716 155.292 20.8743 155.572 21.1152 155.924C21.3496 156.282 21.5221 156.695 21.6328 157.164C21.75 157.626 21.8086 158.115 21.8086 158.629ZM28.5176 155.006V149H26.7109V164H28.5176V156.324C28.6478 156.116 28.7943 155.927 28.957 155.758C29.1263 155.582 29.3086 155.429 29.5039 155.299C29.7513 155.13 30.0215 154.999 30.3145 154.908C30.6074 154.817 30.9167 154.771 31.2422 154.771C31.6393 154.765 31.9909 154.82 32.2969 154.938C32.6029 155.048 32.8568 155.217 33.0586 155.445C33.2474 155.654 33.3906 155.917 33.4883 156.236C33.5859 156.549 33.6348 156.913 33.6348 157.33V164H35.4414V157.35C35.4414 156.64 35.3535 156.028 35.1777 155.514C35.0085 154.993 34.7643 154.563 34.4453 154.225C34.1263 153.886 33.7389 153.639 33.2832 153.482C32.834 153.32 32.3327 153.238 31.7793 153.238C31.3561 153.245 30.9557 153.307 30.5781 153.424C30.207 153.541 29.8652 153.714 29.5527 153.941C29.3574 154.078 29.1719 154.238 28.9961 154.42C28.8203 154.596 28.6608 154.791 28.5176 155.006ZM45.6465 153.238C44.8783 153.238 44.1914 153.408 43.5859 153.746C42.987 154.078 42.4727 154.534 42.043 155.113L42.0332 154.85L41.9551 153.434H40.2363V164H42.0527V157.223C42.1699 156.897 42.3164 156.604 42.4922 156.344C42.6745 156.077 42.8861 155.852 43.127 155.67C43.3939 155.462 43.7064 155.305 44.0645 155.201C44.4225 155.09 44.8229 155.035 45.2656 155.035C45.6107 155.035 45.9395 155.055 46.252 155.094C46.571 155.126 46.9062 155.182 47.2578 155.26L47.502 153.492C47.3197 153.414 47.0462 153.352 46.6816 153.307C46.3236 153.261 45.9785 153.238 45.6465 153.238ZM57.6777 164H59.5625V163.844C59.4453 163.551 59.3542 163.209 59.2891 162.818C59.224 162.421 59.1914 162.047 59.1914 161.695V156.783C59.1914 156.191 59.084 155.673 58.8691 155.23C58.6543 154.788 58.3613 154.417 57.9902 154.117C57.6126 153.824 57.1667 153.606 56.6523 153.463C56.138 153.313 55.5814 153.238 54.9824 153.238C54.3249 153.238 53.7357 153.329 53.2148 153.512C52.7005 153.694 52.2643 153.932 51.9062 154.225C51.5417 154.524 51.2617 154.859 51.0664 155.23C50.8776 155.602 50.7799 155.979 50.7734 156.363H52.5898C52.5898 156.142 52.6419 155.93 52.7461 155.729C52.8568 155.52 53.0098 155.341 53.2051 155.191C53.4004 155.042 53.638 154.921 53.918 154.83C54.2044 154.739 54.5267 154.693 54.8848 154.693C55.2689 154.693 55.6139 154.742 55.9199 154.84C56.2324 154.938 56.4961 155.074 56.7109 155.25C56.9258 155.432 57.0918 155.65 57.209 155.904C57.3262 156.158 57.3848 156.445 57.3848 156.764V157.594H55.4121C54.6764 157.594 54.0091 157.665 53.4102 157.809C52.8177 157.952 52.3099 158.167 51.8867 158.453C51.4635 158.746 51.1348 159.111 50.9004 159.547C50.6725 159.983 50.5586 160.491 50.5586 161.07C50.5586 161.513 50.6432 161.926 50.8125 162.311C50.9883 162.688 51.2357 163.014 51.5547 163.287C51.8672 163.567 52.248 163.788 52.6973 163.951C53.153 164.114 53.6608 164.195 54.2207 164.195C54.5658 164.195 54.8913 164.16 55.1973 164.088C55.5033 164.016 55.793 163.919 56.0664 163.795C56.3333 163.671 56.5775 163.528 56.7988 163.365C57.0267 163.202 57.2318 163.03 57.4141 162.848C57.4336 163.069 57.4629 163.284 57.502 163.492C57.5475 163.694 57.6061 163.863 57.6777 164ZM54.4844 162.623C54.1328 162.623 53.8236 162.577 53.5566 162.486C53.2897 162.395 53.0684 162.268 52.8926 162.105C52.7168 161.949 52.5833 161.76 52.4922 161.539C52.4076 161.318 52.3652 161.077 52.3652 160.816C52.3652 160.543 52.4141 160.299 52.5117 160.084C52.6159 159.869 52.7656 159.684 52.9609 159.527C53.2344 159.306 53.6022 159.143 54.0645 159.039C54.5332 158.928 55.0801 158.873 55.7051 158.873H57.3848V161.012C57.2806 161.22 57.1374 161.422 56.9551 161.617C56.7728 161.806 56.5579 161.975 56.3105 162.125C56.0566 162.275 55.7767 162.395 55.4707 162.486C55.1647 162.577 54.8359 162.623 54.4844 162.623ZM69.7676 161.197C69.7676 161.367 69.735 161.526 69.6699 161.676C69.6048 161.826 69.5104 161.962 69.3867 162.086C69.1849 162.288 68.9049 162.447 68.5469 162.564C68.1888 162.675 67.7689 162.73 67.2871 162.73C66.9811 162.73 66.6719 162.698 66.3594 162.633C66.0469 162.568 65.7637 162.457 65.5098 162.301C65.2493 162.145 65.0312 161.939 64.8555 161.686C64.6862 161.432 64.5885 161.119 64.5625 160.748H62.7559C62.7559 161.197 62.8568 161.63 63.0586 162.047C63.2669 162.464 63.5664 162.828 63.957 163.141C64.3411 163.46 64.8132 163.717 65.373 163.912C65.9329 164.101 66.571 164.195 67.2871 164.195C67.9121 164.195 68.4883 164.12 69.0156 163.971C69.543 163.821 69.9954 163.609 70.373 163.336C70.7507 163.062 71.0436 162.734 71.252 162.35C71.4668 161.965 71.5742 161.539 71.5742 161.07C71.5742 160.634 71.4798 160.25 71.291 159.918C71.1087 159.586 70.8418 159.293 70.4902 159.039C70.1387 158.792 69.7057 158.58 69.1914 158.404C68.6771 158.222 68.0944 158.062 67.4434 157.926C66.9486 157.828 66.5384 157.727 66.2129 157.623C65.8939 157.519 65.64 157.402 65.4512 157.271C65.2559 157.141 65.1191 156.995 65.041 156.832C64.9629 156.669 64.9238 156.484 64.9238 156.275C64.9238 156.074 64.9727 155.878 65.0703 155.689C65.168 155.501 65.3145 155.335 65.5098 155.191C65.6986 155.048 65.9362 154.934 66.2227 154.85C66.5156 154.765 66.8542 154.723 67.2383 154.723C67.6094 154.723 67.9414 154.775 68.2344 154.879C68.5339 154.983 68.7878 155.12 68.9961 155.289C69.2044 155.458 69.3672 155.654 69.4844 155.875C69.6016 156.09 69.6602 156.311 69.6602 156.539H71.4668C71.4668 156.077 71.3659 155.647 71.1641 155.25C70.9688 154.846 70.6888 154.495 70.3242 154.195C69.9596 153.896 69.5169 153.661 68.9961 153.492C68.4753 153.323 67.8893 153.238 67.2383 153.238C66.6328 153.238 66.0762 153.32 65.5684 153.482C65.0671 153.645 64.6341 153.867 64.2695 154.146C63.9049 154.426 63.6217 154.755 63.4199 155.133C63.2181 155.504 63.1172 155.904 63.1172 156.334C63.1172 156.77 63.2148 157.154 63.4102 157.486C63.6055 157.812 63.8822 158.095 64.2402 158.336C64.5918 158.583 65.015 158.795 65.5098 158.971C66.0111 159.146 66.5645 159.296 67.1699 159.42C67.6647 159.518 68.0781 159.628 68.4102 159.752C68.7422 159.869 69.0091 159.999 69.2109 160.143C69.4128 160.286 69.556 160.445 69.6406 160.621C69.7253 160.79 69.7676 160.982 69.7676 161.197ZM79.4258 164.195C80.4544 164.195 81.3171 163.99 82.0137 163.58C82.7168 163.163 83.2441 162.688 83.5957 162.154L82.4922 161.295C82.1602 161.725 81.7435 162.07 81.2422 162.33C80.7409 162.59 80.168 162.721 79.5234 162.721C79.0352 162.721 78.5892 162.63 78.1855 162.447C77.7819 162.265 77.4368 162.014 77.1504 161.695C76.8704 161.396 76.6491 161.051 76.4863 160.66C76.3301 160.27 76.2292 159.817 76.1836 159.303V159.234H83.7324V158.424C83.7324 157.688 83.638 157.005 83.4492 156.373C83.2669 155.742 82.987 155.191 82.6094 154.723C82.2318 154.26 81.7565 153.899 81.1836 153.639C80.6172 153.372 79.9531 153.238 79.1914 153.238C78.5859 153.238 77.9935 153.362 77.4141 153.609C76.8411 153.857 76.3301 154.212 75.8809 154.674C75.4251 155.143 75.0605 155.715 74.7871 156.393C74.5137 157.063 74.377 157.825 74.377 158.678V159.088C74.377 159.824 74.5007 160.504 74.748 161.129C74.9954 161.754 75.3405 162.294 75.7832 162.75C76.2259 163.206 76.7565 163.561 77.375 163.814C78 164.068 78.6836 164.195 79.4258 164.195ZM79.1914 154.723C79.6536 154.723 80.0508 154.807 80.3828 154.977C80.7214 155.146 81.0013 155.367 81.2227 155.641C81.444 155.914 81.6165 156.24 81.7402 156.617C81.8639 156.988 81.9258 157.337 81.9258 157.662V157.75H76.2422C76.3138 157.262 76.4375 156.832 76.6133 156.461C76.7956 156.083 77.0169 155.764 77.2773 155.504C77.5378 155.25 77.8307 155.058 78.1562 154.928C78.4818 154.791 78.8268 154.723 79.1914 154.723ZM100.295 152.428V153.854H102.062V152.398C102.062 151.839 102.137 151.318 102.287 150.836C102.443 150.354 102.674 149.882 102.98 149.42L101.994 148.717C101.721 148.951 101.48 149.218 101.271 149.518C101.063 149.817 100.887 150.13 100.744 150.455C100.594 150.787 100.48 151.122 100.402 151.461C100.331 151.799 100.295 152.122 100.295 152.428ZM103.469 152.428V153.854H105.236V152.398C105.236 151.839 105.311 151.318 105.461 150.836C105.617 150.354 105.848 149.882 106.154 149.42L105.168 148.717C104.895 148.951 104.654 149.218 104.445 149.518C104.237 149.817 104.061 150.13 103.918 150.455C103.768 150.787 103.654 151.122 103.576 151.461C103.505 151.799 103.469 152.122 103.469 152.428ZM112.6 155.006V149H110.793V164H112.6V156.324C112.73 156.116 112.876 155.927 113.039 155.758C113.208 155.582 113.391 155.429 113.586 155.299C113.833 155.13 114.104 154.999 114.396 154.908C114.689 154.817 114.999 154.771 115.324 154.771C115.721 154.765 116.073 154.82 116.379 154.938C116.685 155.048 116.939 155.217 117.141 155.445C117.329 155.654 117.473 155.917 117.57 156.236C117.668 156.549 117.717 156.913 117.717 157.33V164H119.523V157.35C119.523 156.64 119.436 156.028 119.26 155.514C119.09 154.993 118.846 154.563 118.527 154.225C118.208 153.886 117.821 153.639 117.365 153.482C116.916 153.32 116.415 153.238 115.861 153.238C115.438 153.245 115.038 153.307 114.66 153.424C114.289 153.541 113.947 153.714 113.635 153.941C113.439 154.078 113.254 154.238 113.078 154.42C112.902 154.596 112.743 154.791 112.6 155.006ZM127.473 164.195C128.501 164.195 129.364 163.99 130.061 163.58C130.764 163.163 131.291 162.688 131.643 162.154L130.539 161.295C130.207 161.725 129.79 162.07 129.289 162.33C128.788 162.59 128.215 162.721 127.57 162.721C127.082 162.721 126.636 162.63 126.232 162.447C125.829 162.265 125.484 162.014 125.197 161.695C124.917 161.396 124.696 161.051 124.533 160.66C124.377 160.27 124.276 159.817 124.23 159.303V159.234H131.779V158.424C131.779 157.688 131.685 157.005 131.496 156.373C131.314 155.742 131.034 155.191 130.656 154.723C130.279 154.26 129.803 153.899 129.23 153.639C128.664 153.372 128 153.238 127.238 153.238C126.633 153.238 126.04 153.362 125.461 153.609C124.888 153.857 124.377 154.212 123.928 154.674C123.472 155.143 123.107 155.715 122.834 156.393C122.561 157.063 122.424 157.825 122.424 158.678V159.088C122.424 159.824 122.548 160.504 122.795 161.129C123.042 161.754 123.387 162.294 123.83 162.75C124.273 163.206 124.803 163.561 125.422 163.814C126.047 164.068 126.73 164.195 127.473 164.195ZM127.238 154.723C127.701 154.723 128.098 154.807 128.43 154.977C128.768 155.146 129.048 155.367 129.27 155.641C129.491 155.914 129.663 156.24 129.787 156.617C129.911 156.988 129.973 157.337 129.973 157.662V157.75H124.289C124.361 157.262 124.484 156.832 124.66 156.461C124.842 156.083 125.064 155.764 125.324 155.504C125.585 155.25 125.878 155.058 126.203 154.928C126.529 154.791 126.874 154.723 127.238 154.723ZM135.1 149V150.572H138.693V162.438H135.1V164H143.947V162.438H140.5V149H135.1ZM147.111 149V150.572H150.705V162.438H147.111V164H155.959V162.438H152.512V149H147.111ZM158.332 158.619V158.834C158.332 159.596 158.443 160.302 158.664 160.953C158.885 161.604 159.204 162.171 159.621 162.652C160.031 163.134 160.533 163.512 161.125 163.785C161.724 164.059 162.398 164.195 163.146 164.195C163.889 164.195 164.556 164.059 165.148 163.785C165.741 163.512 166.245 163.134 166.662 162.652C167.072 162.171 167.388 161.604 167.609 160.953C167.831 160.302 167.941 159.596 167.941 158.834V158.619C167.941 157.857 167.831 157.151 167.609 156.5C167.388 155.842 167.072 155.273 166.662 154.791C166.245 154.309 165.738 153.932 165.139 153.658C164.546 153.378 163.876 153.238 163.127 153.238C162.385 153.238 161.717 153.378 161.125 153.658C160.533 153.932 160.031 154.309 159.621 154.791C159.204 155.273 158.885 155.842 158.664 156.5C158.443 157.151 158.332 157.857 158.332 158.619ZM160.139 158.834V158.619C160.139 158.105 160.201 157.613 160.324 157.145C160.448 156.669 160.637 156.253 160.891 155.895C161.138 155.536 161.447 155.253 161.818 155.045C162.189 154.83 162.626 154.723 163.127 154.723C163.628 154.723 164.064 154.83 164.436 155.045C164.813 155.253 165.129 155.536 165.383 155.895C165.63 156.253 165.816 156.669 165.939 157.145C166.07 157.613 166.135 158.105 166.135 158.619V158.834C166.135 159.355 166.073 159.853 165.949 160.328C165.826 160.797 165.64 161.21 165.393 161.568C165.139 161.926 164.823 162.21 164.445 162.418C164.074 162.626 163.641 162.73 163.146 162.73C162.645 162.73 162.206 162.626 161.828 162.418C161.451 162.21 161.138 161.926 160.891 161.568C160.637 161.21 160.448 160.797 160.324 160.328C160.201 159.853 160.139 159.355 160.139 158.834ZM15.7148 190H17.1406L18.7715 183.525L19.0352 181.885L19.3086 183.525L20.959 190H22.3848L24.6309 179.434H23.0293L21.8574 186.172L21.5938 187.832L21.3105 186.172L19.6309 179.434H18.4688L16.7793 186.172L16.5156 187.686L16.3008 186.172L15.0703 179.434H13.4688L15.7148 190ZM26.2031 184.619V184.834C26.2031 185.596 26.3138 186.302 26.5352 186.953C26.7565 187.604 27.0755 188.171 27.4922 188.652C27.9023 189.134 28.4036 189.512 28.9961 189.785C29.5951 190.059 30.2689 190.195 31.0176 190.195C31.7598 190.195 32.4271 190.059 33.0195 189.785C33.612 189.512 34.1165 189.134 34.5332 188.652C34.9434 188.171 35.2591 187.604 35.4805 186.953C35.7018 186.302 35.8125 185.596 35.8125 184.834V184.619C35.8125 183.857 35.7018 183.151 35.4805 182.5C35.2591 181.842 34.9434 181.273 34.5332 180.791C34.1165 180.309 33.6087 179.932 33.0098 179.658C32.4173 179.378 31.7467 179.238 30.998 179.238C30.2559 179.238 29.5885 179.378 28.9961 179.658C28.4036 179.932 27.9023 180.309 27.4922 180.791C27.0755 181.273 26.7565 181.842 26.5352 182.5C26.3138 183.151 26.2031 183.857 26.2031 184.619ZM28.0098 184.834V184.619C28.0098 184.105 28.0716 183.613 28.1953 183.145C28.319 182.669 28.5078 182.253 28.7617 181.895C29.0091 181.536 29.3184 181.253 29.6895 181.045C30.0605 180.83 30.4967 180.723 30.998 180.723C31.4993 180.723 31.9355 180.83 32.3066 181.045C32.6842 181.253 33 181.536 33.2539 181.895C33.5013 182.253 33.6868 182.669 33.8105 183.145C33.9408 183.613 34.0059 184.105 34.0059 184.619V184.834C34.0059 185.355 33.944 185.853 33.8203 186.328C33.6966 186.797 33.5111 187.21 33.2637 187.568C33.0098 187.926 32.694 188.21 32.3164 188.418C31.9453 188.626 31.5124 188.73 31.0176 188.73C30.5163 188.73 30.0768 188.626 29.6992 188.418C29.3216 188.21 29.0091 187.926 28.7617 187.568C28.5078 187.21 28.319 186.797 28.1953 186.328C28.0716 185.853 28.0098 185.355 28.0098 184.834ZM45.6465 179.238C44.8783 179.238 44.1914 179.408 43.5859 179.746C42.987 180.078 42.4727 180.534 42.043 181.113L42.0332 180.85L41.9551 179.434H40.2363V190H42.0527V183.223C42.1699 182.897 42.3164 182.604 42.4922 182.344C42.6745 182.077 42.8861 181.852 43.127 181.67C43.3939 181.462 43.7064 181.305 44.0645 181.201C44.4225 181.09 44.8229 181.035 45.2656 181.035C45.6107 181.035 45.9395 181.055 46.252 181.094C46.571 181.126 46.9062 181.182 47.2578 181.26L47.502 179.492C47.3197 179.414 47.0462 179.352 46.6816 179.307C46.3236 179.261 45.9785 179.238 45.6465 179.238ZM51.0176 175V176.572H54.6113V188.438H51.0176V190H59.8652V188.438H56.418V175H51.0176ZM62.4043 184.629V184.834C62.4043 185.589 62.5052 186.296 62.707 186.953C62.9089 187.604 63.1921 188.171 63.5566 188.652C63.9212 189.134 64.3607 189.512 64.875 189.785C65.3958 190.059 65.9753 190.195 66.6133 190.195C67.2643 190.195 67.834 190.085 68.3223 189.863C68.8105 189.642 69.2305 189.316 69.582 188.887L69.6602 190H71.3203V175H69.5137V180.479C69.1686 180.075 68.7585 179.769 68.2832 179.561C67.8145 179.346 67.2643 179.238 66.6328 179.238C65.9883 179.238 65.4056 179.372 64.8848 179.639C64.3639 179.906 63.9212 180.277 63.5566 180.752C63.1855 181.227 62.8991 181.797 62.6973 182.461C62.502 183.118 62.4043 183.841 62.4043 184.629ZM64.2109 184.834V184.629C64.2109 184.115 64.2663 183.626 64.377 183.164C64.4876 182.695 64.6602 182.282 64.8945 181.924C65.1224 181.572 65.4154 181.292 65.7734 181.084C66.138 180.876 66.5742 180.771 67.082 180.771C67.6745 180.771 68.1693 180.911 68.5664 181.191C68.9635 181.465 69.2793 181.816 69.5137 182.246V187.148C69.2793 187.611 68.9635 187.979 68.5664 188.252C68.1693 188.525 67.668 188.662 67.0625 188.662C66.5612 188.662 66.1315 188.561 65.7734 188.359C65.4154 188.151 65.1224 187.871 64.8945 187.52C64.6602 187.168 64.4876 186.761 64.377 186.299C64.2663 185.837 64.2109 185.348 64.2109 184.834ZM78.6836 176.221V174.785H76.916V176.25C76.916 176.81 76.8379 177.331 76.6816 177.812C76.5319 178.294 76.304 178.766 75.998 179.229L76.9844 179.932C77.2578 179.697 77.4987 179.43 77.707 179.131C77.9154 178.831 78.0944 178.516 78.2441 178.184C78.3874 177.858 78.4948 177.526 78.5664 177.188C78.6445 176.849 78.6836 176.527 78.6836 176.221ZM81.9258 176.221V174.785H80.1582V176.25C80.1582 176.81 80.0801 177.331 79.9238 177.812C79.7741 178.294 79.5462 178.766 79.2402 179.229L80.2266 179.932C80.5 179.697 80.7409 179.43 80.9492 179.131C81.1576 178.831 81.3366 178.516 81.4863 178.184C81.6296 177.858 81.737 177.526 81.8086 177.188C81.8867 176.849 81.9258 176.527 81.9258 176.221ZM89.9141 188.828C89.9141 189.206 90.0312 189.528 90.2656 189.795C90.5065 190.055 90.8613 190.186 91.3301 190.186C91.7923 190.186 92.1471 190.055 92.3945 189.795C92.6419 189.535 92.7656 189.212 92.7656 188.828C92.7656 188.438 92.6419 188.109 92.3945 187.842C92.1536 187.568 91.7988 187.432 91.3301 187.432C90.8548 187.432 90.5 187.568 90.2656 187.842C90.0312 188.115 89.9141 188.444 89.9141 188.828ZM101.926 188.828C101.926 189.206 102.043 189.528 102.277 189.795C102.518 190.055 102.873 190.186 103.342 190.186C103.804 190.186 104.159 190.055 104.406 189.795C104.654 189.535 104.777 189.212 104.777 188.828C104.777 188.438 104.654 188.109 104.406 187.842C104.165 187.568 103.811 187.432 103.342 187.432C102.867 187.432 102.512 187.568 102.277 187.842C102.043 188.115 101.926 188.444 101.926 188.828ZM113.938 188.828C113.938 189.206 114.055 189.528 114.289 189.795C114.53 190.055 114.885 190.186 115.354 190.186C115.816 190.186 116.171 190.055 116.418 189.795C116.665 189.535 116.789 189.212 116.789 188.828C116.789 188.438 116.665 188.109 116.418 187.842C116.177 187.568 115.822 187.432 115.354 187.432C114.878 187.432 114.523 187.568 114.289 187.842C114.055 188.115 113.938 188.444 113.938 188.828Z" fill="black"/>
<defs>
<linearGradient id="paint0_linear" x1="123.5" y1="0" x2="123.5" y2="328" gradientUnits="userSpaceOnUse">
<stop stop-color="#9D1A1A"/>
<stop offset="1" stop-color="white" stop-opacity="0"/>
</linearGradient>
<linearGradient id="paint1_linear" x1="123.5" y1="0" x2="123.5" y2="328" gradientUnits="userSpaceOnUse">
<stop stop-color="#CFCED6"/>
<stop offset="1" stop-color="#B7C0F2"/>
</linearGradient>
</defs>
</svg>
