<svg width="247" height="328" viewBox="0 0 247 328" fill="none" xmlns="http://www.w3.org/2000/svg">
<rect width="247" height="328" rx="8" fill="url(#paint0_linear)"/>
<rect width="247" height="328" rx="8" fill="url(#paint1_linear)"/>
<path d="M26.623 40.6685L26.5864 34.1499H20.8247V36.0542H24.438L24.4136 40.0459C24.2264 40.3145 23.9945 40.5342 23.7178 40.7051C23.4411 40.8678 23.144 40.998 22.8267 41.0957C22.5093 41.1934 22.1797 41.2585 21.8379 41.291C21.5042 41.3236 21.1828 41.3358 20.8735 41.3276C20.3364 41.3195 19.8563 41.2259 19.4331 41.0469C19.0099 40.8597 18.6396 40.6115 18.3223 40.3022C17.9967 39.993 17.7201 39.6349 17.4922 39.228C17.2643 38.8211 17.0771 38.3898 16.9307 37.9341C16.7842 37.4784 16.6743 37.0145 16.6011 36.5425C16.536 36.0623 16.4993 35.5985 16.4912 35.1509V33.0635C16.4912 32.624 16.5197 32.1683 16.5767 31.6963C16.6336 31.2243 16.7272 30.7604 16.8574 30.3047C16.9876 29.849 17.1545 29.4176 17.3579 29.0107C17.5614 28.5957 17.8177 28.2336 18.127 27.9243C18.4362 27.6151 18.7983 27.3709 19.2134 27.1919C19.6284 27.0047 20.1045 26.9111 20.6416 26.9111C21.2031 26.9111 21.6955 27.0007 22.1187 27.1797C22.5418 27.3506 22.908 27.5907 23.2173 27.8999C23.5184 28.2091 23.7625 28.5835 23.9497 29.0229C24.1369 29.4543 24.2752 29.9263 24.3647 30.439H26.5986C26.5254 29.6089 26.3301 28.8602 26.0127 28.1929C25.6953 27.5174 25.2762 26.9396 24.7554 26.4595C24.2345 25.9875 23.6242 25.6253 22.9243 25.373C22.2244 25.1126 21.4595 24.9824 20.6294 24.9824C19.8807 24.9824 19.2052 25.0923 18.603 25.312C18.0008 25.5317 17.4637 25.8288 16.9917 26.2031C16.5116 26.5856 16.1006 27.0373 15.7588 27.5581C15.417 28.0708 15.1322 28.6283 14.9043 29.2305C14.6764 29.8327 14.5055 30.4634 14.3916 31.1226C14.2858 31.7736 14.2288 32.4287 14.2207 33.0879V35.1509C14.2288 35.8182 14.2939 36.4814 14.416 37.1406C14.5462 37.7917 14.7375 38.4142 14.9897 39.0083C15.2339 39.6105 15.5391 40.168 15.9053 40.6807C16.2715 41.1934 16.6987 41.6369 17.187 42.0112C17.6753 42.3937 18.2246 42.6948 18.835 42.9146C19.4535 43.1261 20.1289 43.236 20.8613 43.2441C21.5856 43.2523 22.2773 43.1709 22.9365 43C23.5957 42.8372 24.2101 42.585 24.7798 42.2432C25.1134 42.0479 25.4349 41.82 25.7441 41.5596C26.0534 41.291 26.3464 40.994 26.623 40.6685ZM29.5039 36.2739V36.5425C29.5039 37.4946 29.6423 38.3776 29.9189 39.1914C30.1956 40.0052 30.5944 40.7132 31.1152 41.3154C31.6279 41.9176 32.2546 42.3896 32.9951 42.7314C33.7438 43.0732 34.5861 43.2441 35.522 43.2441C36.4497 43.2441 37.2839 43.0732 38.0244 42.7314C38.765 42.3896 39.3957 41.9176 39.9165 41.3154C40.4292 40.7132 40.8239 40.0052 41.1006 39.1914C41.3773 38.3776 41.5156 37.4946 41.5156 36.5425V36.2739C41.5156 35.3218 41.3773 34.4388 41.1006 33.625C40.8239 32.8031 40.4292 32.091 39.9165 31.4888C39.3957 30.8866 38.7609 30.4146 38.0122 30.0728C37.2716 29.7228 36.4334 29.5479 35.4976 29.5479C34.5698 29.5479 33.7357 29.7228 32.9951 30.0728C32.2546 30.4146 31.6279 30.8866 31.1152 31.4888C30.5944 32.091 30.1956 32.8031 29.9189 33.625C29.6423 34.4388 29.5039 35.3218 29.5039 36.2739ZM31.7622 36.5425V36.2739C31.7622 35.631 31.8395 35.0166 31.9941 34.4307C32.1488 33.8366 32.3848 33.3158 32.7021 32.8682C33.0114 32.4206 33.3979 32.0666 33.8618 31.8062C34.3257 31.5376 34.8709 31.4033 35.4976 31.4033C36.1242 31.4033 36.6694 31.5376 37.1333 31.8062C37.6053 32.0666 38 32.4206 38.3174 32.8682C38.6266 33.3158 38.8586 33.8366 39.0132 34.4307C39.1759 35.0166 39.2573 35.631 39.2573 36.2739V36.5425C39.2573 37.1935 39.18 37.8161 39.0254 38.4102C38.8708 38.9961 38.6388 39.5129 38.3296 39.9604C38.0122 40.408 37.6175 40.762 37.1455 41.0225C36.6816 41.2829 36.1405 41.4131 35.522 41.4131C34.8953 41.4131 34.346 41.2829 33.874 41.0225C33.402 40.762 33.0114 40.408 32.7021 39.9604C32.3848 39.5129 32.1488 38.9961 31.9941 38.4102C31.8395 37.8161 31.7622 37.1935 31.7622 36.5425ZM44.5186 36.2739V36.5425C44.5186 37.4946 44.6569 38.3776 44.9336 39.1914C45.2103 40.0052 45.609 40.7132 46.1299 41.3154C46.6426 41.9176 47.2692 42.3896 48.0098 42.7314C48.7585 43.0732 49.6007 43.2441 50.5366 43.2441C51.4644 43.2441 52.2985 43.0732 53.0391 42.7314C53.7796 42.3896 54.4103 41.9176 54.9312 41.3154C55.4438 40.7132 55.8385 40.0052 56.1152 39.1914C56.3919 38.3776 56.5303 37.4946 56.5303 36.5425V36.2739C56.5303 35.3218 56.3919 34.4388 56.1152 33.625C55.8385 32.8031 55.4438 32.091 54.9312 31.4888C54.4103 30.8866 53.7756 30.4146 53.0269 30.0728C52.2863 29.7228 51.4481 29.5479 50.5122 29.5479C49.5845 29.5479 48.7503 29.7228 48.0098 30.0728C47.2692 30.4146 46.6426 30.8866 46.1299 31.4888C45.609 32.091 45.2103 32.8031 44.9336 33.625C44.6569 34.4388 44.5186 35.3218 44.5186 36.2739ZM46.7769 36.5425V36.2739C46.7769 35.631 46.8542 35.0166 47.0088 34.4307C47.1634 33.8366 47.3994 33.3158 47.7168 32.8682C48.026 32.4206 48.4126 32.0666 48.8765 31.8062C49.3403 31.5376 49.8856 31.4033 50.5122 31.4033C51.1388 31.4033 51.6841 31.5376 52.1479 31.8062C52.62 32.0666 53.0146 32.4206 53.332 32.8682C53.6413 33.3158 53.8732 33.8366 54.0278 34.4307C54.1906 35.0166 54.272 35.631 54.272 36.2739V36.5425C54.272 37.1935 54.1947 37.8161 54.04 38.4102C53.8854 38.9961 53.6535 39.5129 53.3442 39.9604C53.0269 40.408 52.6322 40.762 52.1602 41.0225C51.6963 41.2829 51.1551 41.4131 50.5366 41.4131C49.91 41.4131 49.3607 41.2829 48.8887 41.0225C48.4167 40.762 48.026 40.408 47.7168 39.9604C47.3994 39.5129 47.1634 38.9961 47.0088 38.4102C46.8542 37.8161 46.7769 37.1935 46.7769 36.5425ZM59.7529 36.2861V36.5425C59.7529 37.4865 59.875 38.3695 60.1191 39.1914C60.3633 40.0052 60.7132 40.7132 61.1689 41.3154C61.6165 41.9176 62.1659 42.3896 62.8169 42.7314C63.4679 43.0732 64.1963 43.2441 65.002 43.2441C65.4821 43.2441 65.9297 43.1912 66.3447 43.0854C66.7598 42.9878 67.1382 42.8454 67.48 42.6582C67.6997 42.5361 67.9032 42.3937 68.0903 42.231C68.2856 42.0682 68.4688 41.8892 68.6396 41.6938V42.8291C68.6396 43.3988 68.5583 43.9033 68.3955 44.3428C68.2327 44.7822 68.0008 45.1484 67.6997 45.4414C67.3905 45.7425 67.0202 45.9704 66.5889 46.125C66.1576 46.2796 65.6733 46.3569 65.1362 46.3569C64.8351 46.3569 64.534 46.3244 64.2329 46.2593C63.9318 46.2023 63.6307 46.1047 63.3296 45.9663C63.0285 45.828 62.7314 45.6408 62.4385 45.4048C62.1455 45.1769 61.8607 44.8962 61.584 44.5625L60.4121 45.9175C60.7132 46.3488 61.0713 46.7109 61.4863 47.0039C61.9095 47.2969 62.349 47.5288 62.8047 47.6997C63.2523 47.8787 63.6958 48.0049 64.1353 48.0781C64.5747 48.1595 64.9653 48.2002 65.3071 48.2002C66.1372 48.2002 66.894 48.0781 67.5776 47.834C68.2612 47.5898 68.8512 47.2318 69.3477 46.7598C69.8359 46.2878 70.2144 45.714 70.4829 45.0386C70.7596 44.3631 70.8979 43.59 70.8979 42.7192V29.792H68.8472L68.7373 31.2324C68.5827 31.0371 68.4159 30.8581 68.2368 30.6953C68.0659 30.5326 67.8828 30.3901 67.6875 30.2681C67.3294 30.0321 66.9266 29.853 66.479 29.731C66.0396 29.6089 65.5553 29.5479 65.0264 29.5479C64.2044 29.5479 63.4679 29.7147 62.8169 30.0483C62.1659 30.382 61.6125 30.8459 61.1567 31.4399C60.701 32.034 60.3511 32.7461 60.1069 33.5762C59.8709 34.3981 59.7529 35.3014 59.7529 36.2861ZM62.0112 36.5425V36.2861C62.0112 35.6432 62.0763 35.0329 62.2065 34.4551C62.3449 33.8691 62.5605 33.3524 62.8535 32.9048C63.1383 32.4653 63.5046 32.1154 63.9521 31.855C64.4079 31.5946 64.9531 31.4644 65.5879 31.4644C65.9622 31.4644 66.304 31.5132 66.6133 31.6108C66.9225 31.7004 67.2033 31.8265 67.4556 31.9893C67.7078 32.1602 67.9316 32.3595 68.127 32.5874C68.3223 32.8153 68.4932 33.0675 68.6396 33.3442V39.3989C68.4932 39.6838 68.3223 39.9442 68.127 40.1802C67.9316 40.4162 67.7119 40.6196 67.4678 40.7905C67.2155 40.9614 66.9307 41.0957 66.6133 41.1934C66.304 41.2829 65.9541 41.3276 65.5635 41.3276C64.9368 41.3276 64.3997 41.2015 63.9521 40.9492C63.5046 40.6888 63.1383 40.3389 62.8535 39.8994C62.5605 39.46 62.3449 38.9513 62.2065 38.3735C62.0763 37.7957 62.0112 37.1854 62.0112 36.5425ZM75.5366 24.25V26.2153H80.0288V41.0469H75.5366V43H86.5962V41.0469H82.2871V24.25H75.5366ZM96.0322 43.2441C97.318 43.2441 98.3963 42.9878 99.2671 42.4751C100.146 41.9543 100.805 41.3602 101.245 40.6929L99.8652 39.6187C99.4502 40.1558 98.9294 40.5871 98.3027 40.9126C97.6761 41.2381 96.96 41.4009 96.1543 41.4009C95.5439 41.4009 94.9865 41.2869 94.4819 41.0591C93.9774 40.8312 93.5461 40.5179 93.188 40.1191C92.8381 39.7448 92.5614 39.3135 92.3579 38.8252C92.1626 38.3369 92.0365 37.7713 91.9795 37.1284V37.043H101.416V36.0298C101.416 35.1102 101.298 34.2557 101.062 33.4663C100.834 32.6769 100.484 31.9893 100.012 31.4033C99.5397 30.8255 98.9456 30.3739 98.2295 30.0483C97.5215 29.7147 96.6914 29.5479 95.7393 29.5479C94.9824 29.5479 94.2419 29.7025 93.5176 30.0117C92.8014 30.321 92.1626 30.7645 91.6011 31.3423C91.0314 31.9282 90.5757 32.6444 90.2339 33.4907C89.8921 34.3289 89.7212 35.2811 89.7212 36.3472V36.8599C89.7212 37.7795 89.8758 38.6299 90.1851 39.4111C90.4943 40.1924 90.9256 40.8678 91.479 41.4375C92.0324 42.0072 92.6956 42.4507 93.4688 42.7681C94.25 43.0854 95.1045 43.2441 96.0322 43.2441ZM95.7393 31.4033C96.3171 31.4033 96.8135 31.5091 97.2285 31.7207C97.6517 31.9323 98.0016 32.209 98.2783 32.5508C98.555 32.8926 98.7707 33.2995 98.9253 33.7715C99.0799 34.2354 99.1572 34.6707 99.1572 35.0776V35.1875H92.0527C92.1423 34.5771 92.2969 34.04 92.5166 33.5762C92.7445 33.1042 93.0212 32.7054 93.3467 32.3799C93.6722 32.0625 94.0384 31.8224 94.4453 31.6597C94.8522 31.4888 95.2835 31.4033 95.7393 31.4033ZM119.995 43H124.108C124.963 42.9919 125.756 42.8901 126.489 42.6948C127.229 42.4995 127.893 42.2188 128.479 41.8525C129.032 41.5026 129.532 41.0794 129.98 40.583C130.428 40.0866 130.798 39.5332 131.091 38.9229C131.376 38.3369 131.591 37.694 131.738 36.9941C131.892 36.2943 131.97 35.5537 131.97 34.7725V33.4663C131.962 32.6525 131.876 31.8875 131.713 31.1714C131.559 30.4552 131.331 29.7961 131.03 29.1938C130.696 28.4858 130.249 27.8633 129.687 27.3262C129.134 26.7809 128.495 26.3415 127.771 26.0078C127.25 25.7637 126.68 25.5765 126.062 25.4463C125.451 25.3079 124.8 25.2347 124.108 25.2266H119.995V43ZM122.29 27.082H124.108C124.67 27.0902 125.187 27.1553 125.659 27.2773C126.131 27.3913 126.558 27.554 126.94 27.7656C127.478 28.0505 127.929 28.4248 128.295 28.8887C128.67 29.3444 128.967 29.8571 129.187 30.4268C129.357 30.8662 129.484 31.3423 129.565 31.855C129.654 32.3595 129.703 32.8885 129.711 33.4419V34.7725C129.703 35.3177 129.659 35.8426 129.577 36.3472C129.496 36.8436 129.374 37.3075 129.211 37.7388C129.024 38.2677 128.767 38.7479 128.442 39.1792C128.125 39.6024 127.746 39.9604 127.307 40.2534C126.892 40.5382 126.416 40.758 125.878 40.9126C125.349 41.0672 124.759 41.1486 124.108 41.1567H122.29V27.082ZM134.606 36.2739V36.5425C134.606 37.4946 134.745 38.3776 135.021 39.1914C135.298 40.0052 135.697 40.7132 136.218 41.3154C136.73 41.9176 137.357 42.3896 138.098 42.7314C138.846 43.0732 139.689 43.2441 140.625 43.2441C141.552 43.2441 142.386 43.0732 143.127 42.7314C143.868 42.3896 144.498 41.9176 145.019 41.3154C145.532 40.7132 145.926 40.0052 146.203 39.1914C146.48 38.3776 146.618 37.4946 146.618 36.5425V36.2739C146.618 35.3218 146.48 34.4388 146.203 33.625C145.926 32.8031 145.532 32.091 145.019 31.4888C144.498 30.8866 143.863 30.4146 143.115 30.0728C142.374 29.7228 141.536 29.5479 140.6 29.5479C139.672 29.5479 138.838 29.7228 138.098 30.0728C137.357 30.4146 136.73 30.8866 136.218 31.4888C135.697 32.091 135.298 32.8031 135.021 33.625C134.745 34.4388 134.606 35.3218 134.606 36.2739ZM136.865 36.5425V36.2739C136.865 35.631 136.942 35.0166 137.097 34.4307C137.251 33.8366 137.487 33.3158 137.805 32.8682C138.114 32.4206 138.5 32.0666 138.964 31.8062C139.428 31.5376 139.973 31.4033 140.6 31.4033C141.227 31.4033 141.772 31.5376 142.236 31.8062C142.708 32.0666 143.103 32.4206 143.42 32.8682C143.729 33.3158 143.961 33.8366 144.116 34.4307C144.278 35.0166 144.36 35.631 144.36 36.2739V36.5425C144.36 37.1935 144.283 37.8161 144.128 38.4102C143.973 38.9961 143.741 39.5129 143.432 39.9604C143.115 40.408 142.72 40.762 142.248 41.0225C141.784 41.2829 141.243 41.4131 140.625 41.4131C139.998 41.4131 139.449 41.2829 138.977 41.0225C138.505 40.762 138.114 40.408 137.805 39.9604C137.487 39.5129 137.251 38.9961 137.097 38.4102C136.942 37.8161 136.865 37.1935 136.865 36.5425ZM155.883 41.4131C155.175 41.4131 154.581 41.2747 154.101 40.998C153.629 40.7132 153.251 40.3429 152.966 39.8872C152.673 39.4396 152.461 38.9351 152.331 38.3735C152.209 37.8039 152.148 37.2301 152.148 36.6523V36.1396C152.148 35.57 152.209 35.0044 152.331 34.4429C152.461 33.8813 152.673 33.3727 152.966 32.917C153.259 32.4694 153.641 32.1073 154.113 31.8306C154.593 31.5457 155.183 31.4033 155.883 31.4033C156.339 31.4033 156.762 31.4806 157.153 31.6353C157.552 31.7899 157.893 32.0015 158.178 32.27C158.463 32.5386 158.687 32.8519 158.85 33.21C159.021 33.5599 159.11 33.9342 159.118 34.333H161.254C161.254 33.6657 161.12 33.0391 160.852 32.4531C160.583 31.8672 160.213 31.3586 159.741 30.9272C159.261 30.5041 158.691 30.1704 158.032 29.9263C157.381 29.674 156.665 29.5479 155.883 29.5479C154.882 29.5479 154.007 29.7269 153.259 30.085C152.51 30.443 151.888 30.9232 151.391 31.5254C150.887 32.1357 150.508 32.8397 150.256 33.6372C150.004 34.4347 149.877 35.2689 149.877 36.1396V36.6523C149.877 37.5312 150.004 38.3695 150.256 39.167C150.508 39.9564 150.887 40.6522 151.391 41.2544C151.888 41.8647 152.51 42.349 153.259 42.707C154.007 43.0651 154.882 43.2441 155.883 43.2441C156.583 43.2441 157.255 43.1261 157.897 42.8901C158.54 42.646 159.11 42.3205 159.606 41.9136C160.103 41.5148 160.498 41.0509 160.791 40.522C161.092 39.9849 161.246 39.4233 161.254 38.8374H159.118C159.11 39.2036 159.012 39.5454 158.825 39.8628C158.646 40.172 158.406 40.4406 158.105 40.6685C157.804 40.9045 157.458 41.0876 157.067 41.2178C156.685 41.348 156.29 41.4131 155.883 41.4131Z" fill="#DF5013"/>
<path d="M22.1406 132.406C22.1406 132.797 22.056 133.135 21.8867 133.422C21.7174 133.702 21.4993 133.933 21.2324 134.115C20.9655 134.304 20.6595 134.444 20.3145 134.535C19.9759 134.62 19.6309 134.662 19.2793 134.662C18.8366 134.662 18.4264 134.604 18.0488 134.486C17.6777 134.363 17.349 134.18 17.0625 133.939C16.776 133.705 16.5417 133.419 16.3594 133.08C16.1771 132.735 16.0566 132.341 15.998 131.898H14.1523C14.1719 132.51 14.3053 133.067 14.5527 133.568C14.8066 134.063 15.1484 134.496 15.5781 134.867C16.0599 135.297 16.6263 135.626 17.2773 135.854C17.9349 136.081 18.6022 136.195 19.2793 136.195C19.8457 136.195 20.4121 136.117 20.9785 135.961C21.5449 135.798 22.0527 135.557 22.502 135.238C22.9512 134.926 23.3158 134.532 23.5957 134.057C23.8822 133.581 24.0254 133.025 24.0254 132.387C24.0254 131.755 23.8919 131.199 23.625 130.717C23.3646 130.235 23.0195 129.828 22.5898 129.496C22.1536 129.138 21.6719 128.845 21.1445 128.617C20.6172 128.383 20.0898 128.184 19.5625 128.021C19.2435 127.924 18.9017 127.81 18.5371 127.68C18.179 127.549 17.847 127.387 17.541 127.191C17.2285 126.996 16.9714 126.758 16.7695 126.479C16.5677 126.192 16.4635 125.844 16.457 125.434C16.457 125.056 16.5319 124.724 16.6816 124.438C16.8379 124.151 17.0462 123.91 17.3066 123.715C17.5605 123.52 17.8503 123.373 18.1758 123.275C18.5078 123.178 18.8464 123.129 19.1914 123.129C19.6211 123.129 20.0052 123.197 20.3438 123.334C20.6888 123.464 20.985 123.65 21.2324 123.891C21.4798 124.132 21.6784 124.421 21.8281 124.76C21.9779 125.092 22.0788 125.463 22.1309 125.873H23.9863C23.9733 125.222 23.8333 124.633 23.5664 124.105C23.2995 123.578 22.9447 123.129 22.502 122.758C22.0592 122.387 21.5514 122.1 20.9785 121.898C20.4056 121.69 19.8099 121.586 19.1914 121.586C18.6315 121.586 18.0749 121.674 17.5215 121.85C16.9681 122.019 16.4733 122.27 16.0371 122.602C15.6009 122.934 15.2461 123.34 14.9727 123.822C14.7057 124.304 14.5723 124.851 14.5723 125.463C14.5723 126.075 14.7057 126.609 14.9727 127.064C15.2461 127.514 15.5977 127.904 16.0273 128.236C16.4505 128.562 16.9193 128.842 17.4336 129.076C17.9544 129.304 18.4655 129.499 18.9668 129.662C19.3118 129.773 19.6699 129.896 20.041 130.033C20.4186 130.17 20.7637 130.339 21.0762 130.541C21.3887 130.749 21.6426 131.003 21.8379 131.303C22.0397 131.602 22.1406 131.97 22.1406 132.406ZM26.2031 130.619V130.834C26.2031 131.596 26.3138 132.302 26.5352 132.953C26.7565 133.604 27.0755 134.171 27.4922 134.652C27.9023 135.134 28.4036 135.512 28.9961 135.785C29.5951 136.059 30.2689 136.195 31.0176 136.195C31.7598 136.195 32.4271 136.059 33.0195 135.785C33.612 135.512 34.1165 135.134 34.5332 134.652C34.9434 134.171 35.2591 133.604 35.4805 132.953C35.7018 132.302 35.8125 131.596 35.8125 130.834V130.619C35.8125 129.857 35.7018 129.151 35.4805 128.5C35.2591 127.842 34.9434 127.273 34.5332 126.791C34.1165 126.309 33.6087 125.932 33.0098 125.658C32.4173 125.378 31.7467 125.238 30.998 125.238C30.2559 125.238 29.5885 125.378 28.9961 125.658C28.4036 125.932 27.9023 126.309 27.4922 126.791C27.0755 127.273 26.7565 127.842 26.5352 128.5C26.3138 129.151 26.2031 129.857 26.2031 130.619ZM28.0098 130.834V130.619C28.0098 130.105 28.0716 129.613 28.1953 129.145C28.319 128.669 28.5078 128.253 28.7617 127.895C29.0091 127.536 29.3184 127.253 29.6895 127.045C30.0605 126.83 30.4967 126.723 30.998 126.723C31.4993 126.723 31.9355 126.83 32.3066 127.045C32.6842 127.253 33 127.536 33.2539 127.895C33.5013 128.253 33.6868 128.669 33.8105 129.145C33.9408 129.613 34.0059 130.105 34.0059 130.619V130.834C34.0059 131.355 33.944 131.853 33.8203 132.328C33.6966 132.797 33.5111 133.21 33.2637 133.568C33.0098 133.926 32.694 134.21 32.3164 134.418C31.9453 134.626 31.5124 134.73 31.0176 134.73C30.5163 134.73 30.0768 134.626 29.6992 134.418C29.3216 134.21 29.0091 133.926 28.7617 133.568C28.5078 133.21 28.319 132.797 28.1953 132.328C28.0716 131.853 28.0098 131.355 28.0098 130.834ZM39.5527 125.434H37.9316V136H39.6504V127.592C39.6895 127.488 39.7383 127.39 39.7969 127.299C39.862 127.208 39.9368 127.126 40.0215 127.055C40.1322 126.964 40.2656 126.895 40.4219 126.85C40.5846 126.798 40.7734 126.771 40.9883 126.771C41.1836 126.771 41.3529 126.798 41.4961 126.85C41.6458 126.895 41.7695 126.97 41.8672 127.074C41.9714 127.185 42.0462 127.325 42.0918 127.494C42.1439 127.663 42.1699 127.859 42.1699 128.08V136H43.8887V128.09C43.8887 128.051 43.8887 128.018 43.8887 127.992C43.8887 127.96 43.8887 127.927 43.8887 127.895C43.9082 127.732 43.9473 127.585 44.0059 127.455C44.0645 127.318 44.1458 127.198 44.25 127.094C44.3542 126.996 44.4844 126.918 44.6406 126.859C44.7969 126.801 44.9824 126.771 45.1973 126.771C45.3991 126.771 45.5749 126.798 45.7246 126.85C45.8809 126.902 46.0111 126.98 46.1152 127.084C46.2129 127.195 46.2878 127.335 46.3398 127.504C46.3919 127.673 46.418 127.868 46.418 128.09V136H48.1367V128.109C48.1367 127.602 48.0781 127.162 47.9609 126.791C47.8438 126.413 47.6745 126.107 47.4531 125.873C47.2513 125.665 47.0039 125.508 46.7109 125.404C46.418 125.294 46.0892 125.238 45.7246 125.238C45.4577 125.245 45.2103 125.281 44.9824 125.346C44.7611 125.411 44.5592 125.499 44.377 125.609C44.2337 125.707 44.1003 125.821 43.9766 125.951C43.8529 126.081 43.7454 126.221 43.6543 126.371C43.5827 126.208 43.4948 126.062 43.3906 125.932C43.293 125.801 43.1823 125.691 43.0586 125.6C42.8893 125.482 42.6908 125.395 42.4629 125.336C42.2415 125.271 41.9909 125.238 41.7109 125.238C41.2161 125.245 40.793 125.352 40.4414 125.561C40.0964 125.769 39.8164 126.059 39.6016 126.43L39.5527 125.434ZM55.4023 136.195C56.431 136.195 57.2936 135.99 57.9902 135.58C58.6934 135.163 59.2207 134.688 59.5723 134.154L58.4688 133.295C58.1367 133.725 57.7201 134.07 57.2188 134.33C56.7174 134.59 56.1445 134.721 55.5 134.721C55.0117 134.721 54.5658 134.63 54.1621 134.447C53.7585 134.265 53.4134 134.014 53.127 133.695C52.847 133.396 52.6257 133.051 52.4629 132.66C52.3066 132.27 52.2057 131.817 52.1602 131.303V131.234H59.709V130.424C59.709 129.688 59.6146 129.005 59.4258 128.373C59.2435 127.742 58.9635 127.191 58.5859 126.723C58.2083 126.26 57.7331 125.899 57.1602 125.639C56.5938 125.372 55.9297 125.238 55.168 125.238C54.5625 125.238 53.9701 125.362 53.3906 125.609C52.8177 125.857 52.3066 126.212 51.8574 126.674C51.4017 127.143 51.0371 127.715 50.7637 128.393C50.4902 129.063 50.3535 129.825 50.3535 130.678V131.088C50.3535 131.824 50.4772 132.504 50.7246 133.129C50.972 133.754 51.3171 134.294 51.7598 134.75C52.2025 135.206 52.7331 135.561 53.3516 135.814C53.9766 136.068 54.6602 136.195 55.4023 136.195ZM55.168 126.723C55.6302 126.723 56.0273 126.807 56.3594 126.977C56.6979 127.146 56.9779 127.367 57.1992 127.641C57.4206 127.914 57.5931 128.24 57.7168 128.617C57.8405 128.988 57.9023 129.337 57.9023 129.662V129.75H52.2188C52.2904 129.262 52.4141 128.832 52.5898 128.461C52.7721 128.083 52.9935 127.764 53.2539 127.504C53.5143 127.25 53.8073 127.058 54.1328 126.928C54.4583 126.791 54.8034 126.723 55.168 126.723ZM79.0352 122.875H77.2188V125.434H74.4453V126.83H77.2188V132.572C77.2188 133.223 77.3034 133.78 77.4727 134.242C77.6484 134.698 77.8861 135.069 78.1855 135.355C78.485 135.648 78.8366 135.863 79.2402 136C79.6504 136.13 80.0898 136.195 80.5586 136.195C80.8385 136.195 81.1185 136.182 81.3984 136.156C81.6849 136.13 81.9551 136.091 82.209 136.039C82.4629 135.993 82.6973 135.938 82.9121 135.873C83.127 135.801 83.3092 135.72 83.459 135.629L83.2051 134.35C83.0944 134.376 82.9512 134.408 82.7754 134.447C82.6061 134.48 82.4238 134.512 82.2285 134.545C82.0267 134.577 81.8216 134.607 81.6133 134.633C81.4049 134.652 81.2031 134.662 81.0078 134.662C80.7409 134.662 80.487 134.63 80.2461 134.564C80.0117 134.499 79.8034 134.385 79.6211 134.223C79.4388 134.066 79.2956 133.855 79.1914 133.588C79.0872 133.321 79.0352 132.982 79.0352 132.572V126.83H83.0586V125.434H79.0352V122.875ZM88.5762 127.006V121H86.7695V136H88.5762V128.324C88.7064 128.116 88.8529 127.927 89.0156 127.758C89.1849 127.582 89.3672 127.429 89.5625 127.299C89.8099 127.13 90.0801 126.999 90.373 126.908C90.666 126.817 90.9753 126.771 91.3008 126.771C91.6979 126.765 92.0495 126.82 92.3555 126.938C92.6615 127.048 92.9154 127.217 93.1172 127.445C93.306 127.654 93.4492 127.917 93.5469 128.236C93.6445 128.549 93.6934 128.913 93.6934 129.33V136H95.5V129.35C95.5 128.64 95.4121 128.028 95.2363 127.514C95.0671 126.993 94.8229 126.563 94.5039 126.225C94.1849 125.886 93.7975 125.639 93.3418 125.482C92.8926 125.32 92.3913 125.238 91.8379 125.238C91.4147 125.245 91.0143 125.307 90.6367 125.424C90.2656 125.541 89.9238 125.714 89.6113 125.941C89.416 126.078 89.2305 126.238 89.0547 126.42C88.8789 126.596 88.7194 126.791 88.5762 127.006ZM98.2734 130.619V130.834C98.2734 131.596 98.3841 132.302 98.6055 132.953C98.8268 133.604 99.1458 134.171 99.5625 134.652C99.9727 135.134 100.474 135.512 101.066 135.785C101.665 136.059 102.339 136.195 103.088 136.195C103.83 136.195 104.497 136.059 105.09 135.785C105.682 135.512 106.187 135.134 106.604 134.652C107.014 134.171 107.329 133.604 107.551 132.953C107.772 132.302 107.883 131.596 107.883 130.834V130.619C107.883 129.857 107.772 129.151 107.551 128.5C107.329 127.842 107.014 127.273 106.604 126.791C106.187 126.309 105.679 125.932 105.08 125.658C104.488 125.378 103.817 125.238 103.068 125.238C102.326 125.238 101.659 125.378 101.066 125.658C100.474 125.932 99.9727 126.309 99.5625 126.791C99.1458 127.273 98.8268 127.842 98.6055 128.5C98.3841 129.151 98.2734 129.857 98.2734 130.619ZM100.08 130.834V130.619C100.08 130.105 100.142 129.613 100.266 129.145C100.389 128.669 100.578 128.253 100.832 127.895C101.079 127.536 101.389 127.253 101.76 127.045C102.131 126.83 102.567 126.723 103.068 126.723C103.57 126.723 104.006 126.83 104.377 127.045C104.755 127.253 105.07 127.536 105.324 127.895C105.572 128.253 105.757 128.669 105.881 129.145C106.011 129.613 106.076 130.105 106.076 130.619V130.834C106.076 131.355 106.014 131.853 105.891 132.328C105.767 132.797 105.581 133.21 105.334 133.568C105.08 133.926 104.764 134.21 104.387 134.418C104.016 134.626 103.583 134.73 103.088 134.73C102.587 134.73 102.147 134.626 101.77 134.418C101.392 134.21 101.079 133.926 100.832 133.568C100.578 133.21 100.389 132.797 100.266 132.328C100.142 131.853 100.08 131.355 100.08 130.834ZM117.756 136H119.396V125.434H117.58V133.012C117.482 133.24 117.359 133.451 117.209 133.646C117.066 133.835 116.896 133.998 116.701 134.135C116.467 134.304 116.19 134.438 115.871 134.535C115.552 134.626 115.191 134.672 114.787 134.672C114.442 134.672 114.136 134.626 113.869 134.535C113.609 134.444 113.387 134.285 113.205 134.057C113.023 133.835 112.886 133.536 112.795 133.158C112.704 132.781 112.658 132.305 112.658 131.732V125.434H110.852V131.713C110.852 132.501 110.936 133.178 111.105 133.744C111.281 134.304 111.529 134.766 111.848 135.131C112.167 135.495 112.551 135.766 113 135.941C113.449 136.111 113.951 136.195 114.504 136.195C115.194 136.195 115.803 136.052 116.33 135.766C116.857 135.473 117.297 135.066 117.648 134.545L117.756 136ZM122.473 130.629V130.834C122.473 131.589 122.57 132.296 122.766 132.953C122.961 133.604 123.241 134.171 123.605 134.652C123.964 135.134 124.403 135.512 124.924 135.785C125.445 136.059 126.027 136.195 126.672 136.195C127.056 136.195 127.414 136.153 127.746 136.068C128.078 135.99 128.381 135.876 128.654 135.727C128.83 135.629 128.993 135.515 129.143 135.385C129.299 135.255 129.445 135.111 129.582 134.955V135.863C129.582 136.319 129.517 136.723 129.387 137.074C129.257 137.426 129.071 137.719 128.83 137.953C128.583 138.194 128.286 138.376 127.941 138.5C127.596 138.624 127.209 138.686 126.779 138.686C126.538 138.686 126.298 138.66 126.057 138.607C125.816 138.562 125.575 138.484 125.334 138.373C125.093 138.262 124.855 138.113 124.621 137.924C124.387 137.742 124.159 137.517 123.938 137.25L123 138.334C123.241 138.679 123.527 138.969 123.859 139.203C124.198 139.438 124.549 139.623 124.914 139.76C125.272 139.903 125.627 140.004 125.979 140.062C126.33 140.128 126.643 140.16 126.916 140.16C127.58 140.16 128.186 140.062 128.732 139.867C129.279 139.672 129.751 139.385 130.148 139.008C130.539 138.63 130.842 138.171 131.057 137.631C131.278 137.09 131.389 136.472 131.389 135.775V125.434H129.748L129.66 126.586C129.536 126.43 129.403 126.286 129.26 126.156C129.123 126.026 128.977 125.912 128.82 125.814C128.534 125.626 128.212 125.482 127.854 125.385C127.502 125.287 127.115 125.238 126.691 125.238C126.034 125.238 125.445 125.372 124.924 125.639C124.403 125.906 123.96 126.277 123.596 126.752C123.231 127.227 122.951 127.797 122.756 128.461C122.567 129.118 122.473 129.841 122.473 130.629ZM124.279 130.834V130.629C124.279 130.115 124.331 129.626 124.436 129.164C124.546 128.695 124.719 128.282 124.953 127.924C125.181 127.572 125.474 127.292 125.832 127.084C126.197 126.876 126.633 126.771 127.141 126.771C127.44 126.771 127.714 126.811 127.961 126.889C128.208 126.96 128.433 127.061 128.635 127.191C128.837 127.328 129.016 127.488 129.172 127.67C129.328 127.852 129.465 128.054 129.582 128.275V133.119C129.465 133.347 129.328 133.555 129.172 133.744C129.016 133.933 128.84 134.096 128.645 134.232C128.443 134.369 128.215 134.477 127.961 134.555C127.714 134.626 127.434 134.662 127.121 134.662C126.62 134.662 126.19 134.561 125.832 134.359C125.474 134.151 125.181 133.871 124.953 133.52C124.719 133.168 124.546 132.761 124.436 132.299C124.331 131.837 124.279 131.348 124.279 130.834ZM136.623 127.006V121H134.816V136H136.623V128.324C136.753 128.116 136.9 127.927 137.062 127.758C137.232 127.582 137.414 127.429 137.609 127.299C137.857 127.13 138.127 126.999 138.42 126.908C138.713 126.817 139.022 126.771 139.348 126.771C139.745 126.765 140.096 126.82 140.402 126.938C140.708 127.048 140.962 127.217 141.164 127.445C141.353 127.654 141.496 127.917 141.594 128.236C141.691 128.549 141.74 128.913 141.74 129.33V136H143.547V129.35C143.547 128.64 143.459 128.028 143.283 127.514C143.114 126.993 142.87 126.563 142.551 126.225C142.232 125.886 141.844 125.639 141.389 125.482C140.939 125.32 140.438 125.238 139.885 125.238C139.462 125.245 139.061 125.307 138.684 125.424C138.312 125.541 137.971 125.714 137.658 125.941C137.463 126.078 137.277 126.238 137.102 126.42C136.926 126.596 136.766 126.791 136.623 127.006ZM151.105 122.875H149.289V125.434H146.516V126.83H149.289V132.572C149.289 133.223 149.374 133.78 149.543 134.242C149.719 134.698 149.956 135.069 150.256 135.355C150.555 135.648 150.907 135.863 151.311 136C151.721 136.13 152.16 136.195 152.629 136.195C152.909 136.195 153.189 136.182 153.469 136.156C153.755 136.13 154.025 136.091 154.279 136.039C154.533 135.993 154.768 135.938 154.982 135.873C155.197 135.801 155.38 135.72 155.529 135.629L155.275 134.35C155.165 134.376 155.021 134.408 154.846 134.447C154.676 134.48 154.494 134.512 154.299 134.545C154.097 134.577 153.892 134.607 153.684 134.633C153.475 134.652 153.273 134.662 153.078 134.662C152.811 134.662 152.557 134.63 152.316 134.564C152.082 134.499 151.874 134.385 151.691 134.223C151.509 134.066 151.366 133.855 151.262 133.588C151.158 133.321 151.105 132.982 151.105 132.572V126.83H155.129V125.434H151.105V122.875ZM165.861 133.197C165.861 133.367 165.829 133.526 165.764 133.676C165.699 133.826 165.604 133.962 165.48 134.086C165.279 134.288 164.999 134.447 164.641 134.564C164.283 134.675 163.863 134.73 163.381 134.73C163.075 134.73 162.766 134.698 162.453 134.633C162.141 134.568 161.857 134.457 161.604 134.301C161.343 134.145 161.125 133.939 160.949 133.686C160.78 133.432 160.682 133.119 160.656 132.748H158.85C158.85 133.197 158.951 133.63 159.152 134.047C159.361 134.464 159.66 134.828 160.051 135.141C160.435 135.46 160.907 135.717 161.467 135.912C162.027 136.101 162.665 136.195 163.381 136.195C164.006 136.195 164.582 136.12 165.109 135.971C165.637 135.821 166.089 135.609 166.467 135.336C166.844 135.062 167.137 134.734 167.346 134.35C167.561 133.965 167.668 133.539 167.668 133.07C167.668 132.634 167.574 132.25 167.385 131.918C167.202 131.586 166.936 131.293 166.584 131.039C166.232 130.792 165.799 130.58 165.285 130.404C164.771 130.222 164.188 130.062 163.537 129.926C163.042 129.828 162.632 129.727 162.307 129.623C161.988 129.519 161.734 129.402 161.545 129.271C161.35 129.141 161.213 128.995 161.135 128.832C161.057 128.669 161.018 128.484 161.018 128.275C161.018 128.074 161.066 127.878 161.164 127.689C161.262 127.501 161.408 127.335 161.604 127.191C161.792 127.048 162.03 126.934 162.316 126.85C162.609 126.765 162.948 126.723 163.332 126.723C163.703 126.723 164.035 126.775 164.328 126.879C164.628 126.983 164.882 127.12 165.09 127.289C165.298 127.458 165.461 127.654 165.578 127.875C165.695 128.09 165.754 128.311 165.754 128.539H167.561C167.561 128.077 167.46 127.647 167.258 127.25C167.062 126.846 166.783 126.495 166.418 126.195C166.053 125.896 165.611 125.661 165.09 125.492C164.569 125.323 163.983 125.238 163.332 125.238C162.727 125.238 162.17 125.32 161.662 125.482C161.161 125.645 160.728 125.867 160.363 126.146C159.999 126.426 159.715 126.755 159.514 127.133C159.312 127.504 159.211 127.904 159.211 128.334C159.211 128.77 159.309 129.154 159.504 129.486C159.699 129.812 159.976 130.095 160.334 130.336C160.686 130.583 161.109 130.795 161.604 130.971C162.105 131.146 162.658 131.296 163.264 131.42C163.758 131.518 164.172 131.628 164.504 131.752C164.836 131.869 165.103 131.999 165.305 132.143C165.507 132.286 165.65 132.445 165.734 132.621C165.819 132.79 165.861 132.982 165.861 133.197ZM182.355 130.619V130.834C182.355 131.596 182.466 132.302 182.688 132.953C182.909 133.604 183.228 134.171 183.645 134.652C184.055 135.134 184.556 135.512 185.148 135.785C185.747 136.059 186.421 136.195 187.17 136.195C187.912 136.195 188.579 136.059 189.172 135.785C189.764 135.512 190.269 135.134 190.686 134.652C191.096 134.171 191.411 133.604 191.633 132.953C191.854 132.302 191.965 131.596 191.965 130.834V130.619C191.965 129.857 191.854 129.151 191.633 128.5C191.411 127.842 191.096 127.273 190.686 126.791C190.269 126.309 189.761 125.932 189.162 125.658C188.57 125.378 187.899 125.238 187.15 125.238C186.408 125.238 185.741 125.378 185.148 125.658C184.556 125.932 184.055 126.309 183.645 126.791C183.228 127.273 182.909 127.842 182.688 128.5C182.466 129.151 182.355 129.857 182.355 130.619ZM184.162 130.834V130.619C184.162 130.105 184.224 129.613 184.348 129.145C184.471 128.669 184.66 128.253 184.914 127.895C185.161 127.536 185.471 127.253 185.842 127.045C186.213 126.83 186.649 126.723 187.15 126.723C187.652 126.723 188.088 126.83 188.459 127.045C188.837 127.253 189.152 127.536 189.406 127.895C189.654 128.253 189.839 128.669 189.963 129.145C190.093 129.613 190.158 130.105 190.158 130.619V130.834C190.158 131.355 190.096 131.853 189.973 132.328C189.849 132.797 189.663 133.21 189.416 133.568C189.162 133.926 188.846 134.21 188.469 134.418C188.098 134.626 187.665 134.73 187.17 134.73C186.669 134.73 186.229 134.626 185.852 134.418C185.474 134.21 185.161 133.926 184.914 133.568C184.66 133.21 184.471 132.797 184.348 132.328C184.224 131.853 184.162 131.355 184.162 130.834ZM194.875 136H196.682V128.422C196.805 128.194 196.949 127.986 197.111 127.797C197.281 127.608 197.463 127.442 197.658 127.299C197.899 127.136 198.163 127.009 198.449 126.918C198.736 126.82 199.045 126.771 199.377 126.771C199.761 126.771 200.1 126.817 200.393 126.908C200.692 126.999 200.946 127.146 201.154 127.348C201.356 127.549 201.509 127.813 201.613 128.139C201.717 128.464 201.77 128.861 201.77 129.33V136H203.576V129.291C203.576 128.588 203.488 127.982 203.312 127.475C203.143 126.96 202.899 126.537 202.58 126.205C202.261 125.873 201.874 125.629 201.418 125.473C200.969 125.316 200.467 125.238 199.914 125.238C199.504 125.245 199.113 125.307 198.742 125.424C198.378 125.535 198.039 125.694 197.727 125.902C197.518 126.039 197.32 126.202 197.131 126.391C196.949 126.573 196.779 126.775 196.623 126.996L196.496 125.434H194.875V136ZM18.9766 148.875H17.1602V151.434H14.3867V152.83H17.1602V158.572C17.1602 159.223 17.2448 159.78 17.4141 160.242C17.5898 160.698 17.8275 161.069 18.127 161.355C18.4264 161.648 18.778 161.863 19.1816 162C19.5918 162.13 20.0312 162.195 20.5 162.195C20.7799 162.195 21.0599 162.182 21.3398 162.156C21.6263 162.13 21.8965 162.091 22.1504 162.039C22.4043 161.993 22.6387 161.938 22.8535 161.873C23.0684 161.801 23.2507 161.72 23.4004 161.629L23.1465 160.35C23.0358 160.376 22.8926 160.408 22.7168 160.447C22.5475 160.48 22.3652 160.512 22.1699 160.545C21.9681 160.577 21.763 160.607 21.5547 160.633C21.3464 160.652 21.1445 160.662 20.9492 160.662C20.6823 160.662 20.4284 160.63 20.1875 160.564C19.9531 160.499 19.7448 160.385 19.5625 160.223C19.3802 160.066 19.237 159.855 19.1328 159.588C19.0286 159.321 18.9766 158.982 18.9766 158.572V152.83H23V151.434H18.9766V148.875ZM28.5176 153.006V147H26.7109V162H28.5176V154.324C28.6478 154.116 28.7943 153.927 28.957 153.758C29.1263 153.582 29.3086 153.429 29.5039 153.299C29.7513 153.13 30.0215 152.999 30.3145 152.908C30.6074 152.817 30.9167 152.771 31.2422 152.771C31.6393 152.765 31.9909 152.82 32.2969 152.938C32.6029 153.048 32.8568 153.217 33.0586 153.445C33.2474 153.654 33.3906 153.917 33.4883 154.236C33.5859 154.549 33.6348 154.913 33.6348 155.33V162H35.4414V155.35C35.4414 154.64 35.3535 154.028 35.1777 153.514C35.0085 152.993 34.7643 152.563 34.4453 152.225C34.1263 151.886 33.7389 151.639 33.2832 151.482C32.834 151.32 32.3327 151.238 31.7793 151.238C31.3561 151.245 30.9557 151.307 30.5781 151.424C30.207 151.541 29.8652 151.714 29.5527 151.941C29.3574 152.078 29.1719 152.238 28.9961 152.42C28.8203 152.596 28.6608 152.791 28.5176 153.006ZM43.3906 162.195C44.4193 162.195 45.2819 161.99 45.9785 161.58C46.6816 161.163 47.209 160.688 47.5605 160.154L46.457 159.295C46.125 159.725 45.7083 160.07 45.207 160.33C44.7057 160.59 44.1328 160.721 43.4883 160.721C43 160.721 42.554 160.63 42.1504 160.447C41.7467 160.265 41.4017 160.014 41.1152 159.695C40.8353 159.396 40.6139 159.051 40.4512 158.66C40.2949 158.27 40.194 157.817 40.1484 157.303V157.234H47.6973V156.424C47.6973 155.688 47.6029 155.005 47.4141 154.373C47.2318 153.742 46.9518 153.191 46.5742 152.723C46.1966 152.26 45.7214 151.899 45.1484 151.639C44.582 151.372 43.918 151.238 43.1562 151.238C42.5508 151.238 41.9583 151.362 41.3789 151.609C40.806 151.857 40.2949 152.212 39.8457 152.674C39.39 153.143 39.0254 153.715 38.752 154.393C38.4785 155.063 38.3418 155.825 38.3418 156.678V157.088C38.3418 157.824 38.4655 158.504 38.7129 159.129C38.9603 159.754 39.3053 160.294 39.748 160.75C40.1908 161.206 40.7214 161.561 41.3398 161.814C41.9648 162.068 42.6484 162.195 43.3906 162.195ZM43.1562 152.723C43.6185 152.723 44.0156 152.807 44.3477 152.977C44.6862 153.146 44.9661 153.367 45.1875 153.641C45.4089 153.914 45.5814 154.24 45.7051 154.617C45.8288 154.988 45.8906 155.337 45.8906 155.662V155.75H40.207C40.2786 155.262 40.4023 154.832 40.5781 154.461C40.7604 154.083 40.9818 153.764 41.2422 153.504C41.5026 153.25 41.7956 153.058 42.1211 152.928C42.4466 152.791 42.7917 152.723 43.1562 152.723ZM62.7461 162H64.5527V154.422C64.6764 154.194 64.8197 153.986 64.9824 153.797C65.1517 153.608 65.334 153.442 65.5293 153.299C65.7702 153.136 66.0339 153.009 66.3203 152.918C66.6068 152.82 66.916 152.771 67.248 152.771C67.6322 152.771 67.9707 152.817 68.2637 152.908C68.5632 152.999 68.8171 153.146 69.0254 153.348C69.2272 153.549 69.3802 153.813 69.4844 154.139C69.5885 154.464 69.6406 154.861 69.6406 155.33V162H71.4473V155.291C71.4473 154.588 71.3594 153.982 71.1836 153.475C71.0143 152.96 70.7702 152.537 70.4512 152.205C70.1322 151.873 69.7448 151.629 69.2891 151.473C68.8398 151.316 68.3385 151.238 67.7852 151.238C67.375 151.245 66.9844 151.307 66.6133 151.424C66.2487 151.535 65.9102 151.694 65.5977 151.902C65.3893 152.039 65.1908 152.202 65.002 152.391C64.8197 152.573 64.6504 152.775 64.4941 152.996L64.3672 151.434H62.7461V162ZM81.7012 162H83.5859V161.844C83.4688 161.551 83.3776 161.209 83.3125 160.818C83.2474 160.421 83.2148 160.047 83.2148 159.695V154.783C83.2148 154.191 83.1074 153.673 82.8926 153.23C82.6777 152.788 82.3848 152.417 82.0137 152.117C81.6361 151.824 81.1901 151.606 80.6758 151.463C80.1615 151.313 79.6048 151.238 79.0059 151.238C78.3483 151.238 77.7591 151.329 77.2383 151.512C76.724 151.694 76.2878 151.932 75.9297 152.225C75.5651 152.524 75.2852 152.859 75.0898 153.23C74.901 153.602 74.8034 153.979 74.7969 154.363H76.6133C76.6133 154.142 76.6654 153.93 76.7695 153.729C76.8802 153.52 77.0332 153.341 77.2285 153.191C77.4238 153.042 77.6615 152.921 77.9414 152.83C78.2279 152.739 78.5501 152.693 78.9082 152.693C79.2923 152.693 79.6374 152.742 79.9434 152.84C80.2559 152.938 80.5195 153.074 80.7344 153.25C80.9492 153.432 81.1152 153.65 81.2324 153.904C81.3496 154.158 81.4082 154.445 81.4082 154.764V155.594H79.4355C78.6999 155.594 78.0326 155.665 77.4336 155.809C76.8411 155.952 76.3333 156.167 75.9102 156.453C75.487 156.746 75.1582 157.111 74.9238 157.547C74.696 157.983 74.582 158.491 74.582 159.07C74.582 159.513 74.6667 159.926 74.8359 160.311C75.0117 160.688 75.2591 161.014 75.5781 161.287C75.8906 161.567 76.2715 161.788 76.7207 161.951C77.1764 162.114 77.6842 162.195 78.2441 162.195C78.5892 162.195 78.9147 162.16 79.2207 162.088C79.5267 162.016 79.8164 161.919 80.0898 161.795C80.3568 161.671 80.6009 161.528 80.8223 161.365C81.0501 161.202 81.2552 161.03 81.4375 160.848C81.457 161.069 81.4863 161.284 81.5254 161.492C81.571 161.694 81.6296 161.863 81.7012 162ZM78.5078 160.623C78.1562 160.623 77.847 160.577 77.5801 160.486C77.3132 160.395 77.0918 160.268 76.916 160.105C76.7402 159.949 76.6068 159.76 76.5156 159.539C76.431 159.318 76.3887 159.077 76.3887 158.816C76.3887 158.543 76.4375 158.299 76.5352 158.084C76.6393 157.869 76.7891 157.684 76.9844 157.527C77.2578 157.306 77.6257 157.143 78.0879 157.039C78.5566 156.928 79.1035 156.873 79.7285 156.873H81.4082V159.012C81.304 159.22 81.1608 159.422 80.9785 159.617C80.7962 159.806 80.5814 159.975 80.334 160.125C80.0801 160.275 79.8001 160.395 79.4941 160.486C79.1882 160.577 78.8594 160.623 78.5078 160.623ZM90.373 162H91.75L96.0566 151.434H94.2109L91.252 159.402L91.0762 160.057L90.9102 159.402L87.8828 151.434H86.0273L90.373 162ZM99.0645 151.434V153.006H102.658V160.438H99.0645V162H107.912V160.438H104.465V151.434H99.0645ZM102.424 148.66C102.424 148.953 102.512 149.197 102.688 149.393C102.87 149.588 103.143 149.686 103.508 149.686C103.866 149.686 104.136 149.588 104.318 149.393C104.501 149.197 104.592 148.953 104.592 148.66C104.592 148.497 104.566 148.348 104.514 148.211C104.462 148.074 104.383 147.96 104.279 147.869C104.195 147.785 104.087 147.719 103.957 147.674C103.827 147.622 103.677 147.596 103.508 147.596C103.339 147.596 103.186 147.622 103.049 147.674C102.919 147.719 102.811 147.785 102.727 147.869C102.622 147.967 102.544 148.084 102.492 148.221C102.447 148.357 102.424 148.504 102.424 148.66ZM110.461 156.629V156.834C110.461 157.589 110.559 158.296 110.754 158.953C110.949 159.604 111.229 160.171 111.594 160.652C111.952 161.134 112.391 161.512 112.912 161.785C113.433 162.059 114.016 162.195 114.66 162.195C115.044 162.195 115.402 162.153 115.734 162.068C116.066 161.99 116.369 161.876 116.643 161.727C116.818 161.629 116.981 161.515 117.131 161.385C117.287 161.255 117.434 161.111 117.57 160.955V161.863C117.57 162.319 117.505 162.723 117.375 163.074C117.245 163.426 117.059 163.719 116.818 163.953C116.571 164.194 116.275 164.376 115.93 164.5C115.585 164.624 115.197 164.686 114.768 164.686C114.527 164.686 114.286 164.66 114.045 164.607C113.804 164.562 113.563 164.484 113.322 164.373C113.081 164.262 112.844 164.113 112.609 163.924C112.375 163.742 112.147 163.517 111.926 163.25L110.988 164.334C111.229 164.679 111.516 164.969 111.848 165.203C112.186 165.438 112.538 165.623 112.902 165.76C113.26 165.903 113.615 166.004 113.967 166.062C114.318 166.128 114.631 166.16 114.904 166.16C115.568 166.16 116.174 166.062 116.721 165.867C117.268 165.672 117.74 165.385 118.137 165.008C118.527 164.63 118.83 164.171 119.045 163.631C119.266 163.09 119.377 162.472 119.377 161.775V151.434H117.736L117.648 152.586C117.525 152.43 117.391 152.286 117.248 152.156C117.111 152.026 116.965 151.912 116.809 151.814C116.522 151.626 116.2 151.482 115.842 151.385C115.49 151.287 115.103 151.238 114.68 151.238C114.022 151.238 113.433 151.372 112.912 151.639C112.391 151.906 111.949 152.277 111.584 152.752C111.219 153.227 110.939 153.797 110.744 154.461C110.555 155.118 110.461 155.841 110.461 156.629ZM112.268 156.834V156.629C112.268 156.115 112.32 155.626 112.424 155.164C112.535 154.695 112.707 154.282 112.941 153.924C113.169 153.572 113.462 153.292 113.82 153.084C114.185 152.876 114.621 152.771 115.129 152.771C115.428 152.771 115.702 152.811 115.949 152.889C116.197 152.96 116.421 153.061 116.623 153.191C116.825 153.328 117.004 153.488 117.16 153.67C117.316 153.852 117.453 154.054 117.57 154.275V159.119C117.453 159.347 117.316 159.555 117.16 159.744C117.004 159.933 116.828 160.096 116.633 160.232C116.431 160.369 116.203 160.477 115.949 160.555C115.702 160.626 115.422 160.662 115.109 160.662C114.608 160.662 114.178 160.561 113.82 160.359C113.462 160.151 113.169 159.871 112.941 159.52C112.707 159.168 112.535 158.761 112.424 158.299C112.32 157.837 112.268 157.348 112.268 156.834ZM129.748 162H131.633V161.844C131.516 161.551 131.424 161.209 131.359 160.818C131.294 160.421 131.262 160.047 131.262 159.695V154.783C131.262 154.191 131.154 153.673 130.939 153.23C130.725 152.788 130.432 152.417 130.061 152.117C129.683 151.824 129.237 151.606 128.723 151.463C128.208 151.313 127.652 151.238 127.053 151.238C126.395 151.238 125.806 151.329 125.285 151.512C124.771 151.694 124.335 151.932 123.977 152.225C123.612 152.524 123.332 152.859 123.137 153.23C122.948 153.602 122.85 153.979 122.844 154.363H124.66C124.66 154.142 124.712 153.93 124.816 153.729C124.927 153.52 125.08 153.341 125.275 153.191C125.471 153.042 125.708 152.921 125.988 152.83C126.275 152.739 126.597 152.693 126.955 152.693C127.339 152.693 127.684 152.742 127.99 152.84C128.303 152.938 128.566 153.074 128.781 153.25C128.996 153.432 129.162 153.65 129.279 153.904C129.396 154.158 129.455 154.445 129.455 154.764V155.594H127.482C126.747 155.594 126.079 155.665 125.48 155.809C124.888 155.952 124.38 156.167 123.957 156.453C123.534 156.746 123.205 157.111 122.971 157.547C122.743 157.983 122.629 158.491 122.629 159.07C122.629 159.513 122.714 159.926 122.883 160.311C123.059 160.688 123.306 161.014 123.625 161.287C123.938 161.567 124.318 161.788 124.768 161.951C125.223 162.114 125.731 162.195 126.291 162.195C126.636 162.195 126.962 162.16 127.268 162.088C127.574 162.016 127.863 161.919 128.137 161.795C128.404 161.671 128.648 161.528 128.869 161.365C129.097 161.202 129.302 161.03 129.484 160.848C129.504 161.069 129.533 161.284 129.572 161.492C129.618 161.694 129.676 161.863 129.748 162ZM126.555 160.623C126.203 160.623 125.894 160.577 125.627 160.486C125.36 160.395 125.139 160.268 124.963 160.105C124.787 159.949 124.654 159.76 124.562 159.539C124.478 159.318 124.436 159.077 124.436 158.816C124.436 158.543 124.484 158.299 124.582 158.084C124.686 157.869 124.836 157.684 125.031 157.527C125.305 157.306 125.673 157.143 126.135 157.039C126.604 156.928 127.15 156.873 127.775 156.873H129.455V159.012C129.351 159.22 129.208 159.422 129.025 159.617C128.843 159.806 128.628 159.975 128.381 160.125C128.127 160.275 127.847 160.395 127.541 160.486C127.235 160.577 126.906 160.623 126.555 160.623ZM139.094 148.875H137.277V151.434H134.504V152.83H137.277V158.572C137.277 159.223 137.362 159.78 137.531 160.242C137.707 160.698 137.945 161.069 138.244 161.355C138.544 161.648 138.895 161.863 139.299 162C139.709 162.13 140.148 162.195 140.617 162.195C140.897 162.195 141.177 162.182 141.457 162.156C141.743 162.13 142.014 162.091 142.268 162.039C142.521 161.993 142.756 161.938 142.971 161.873C143.186 161.801 143.368 161.72 143.518 161.629L143.264 160.35C143.153 160.376 143.01 160.408 142.834 160.447C142.665 160.48 142.482 160.512 142.287 160.545C142.085 160.577 141.88 160.607 141.672 160.633C141.464 160.652 141.262 160.662 141.066 160.662C140.799 160.662 140.546 160.63 140.305 160.564C140.07 160.499 139.862 160.385 139.68 160.223C139.497 160.066 139.354 159.855 139.25 159.588C139.146 159.321 139.094 158.982 139.094 158.572V152.83H143.117V151.434H139.094V148.875ZM147.111 151.434V153.006H150.705V160.438H147.111V162H155.959V160.438H152.512V151.434H147.111ZM150.471 148.66C150.471 148.953 150.559 149.197 150.734 149.393C150.917 149.588 151.19 149.686 151.555 149.686C151.913 149.686 152.183 149.588 152.365 149.393C152.548 149.197 152.639 148.953 152.639 148.66C152.639 148.497 152.613 148.348 152.561 148.211C152.508 148.074 152.43 147.96 152.326 147.869C152.242 147.785 152.134 147.719 152.004 147.674C151.874 147.622 151.724 147.596 151.555 147.596C151.385 147.596 151.232 147.622 151.096 147.674C150.965 147.719 150.858 147.785 150.773 147.869C150.669 147.967 150.591 148.084 150.539 148.221C150.493 148.357 150.471 148.504 150.471 148.66ZM158.332 156.619V156.834C158.332 157.596 158.443 158.302 158.664 158.953C158.885 159.604 159.204 160.171 159.621 160.652C160.031 161.134 160.533 161.512 161.125 161.785C161.724 162.059 162.398 162.195 163.146 162.195C163.889 162.195 164.556 162.059 165.148 161.785C165.741 161.512 166.245 161.134 166.662 160.652C167.072 160.171 167.388 159.604 167.609 158.953C167.831 158.302 167.941 157.596 167.941 156.834V156.619C167.941 155.857 167.831 155.151 167.609 154.5C167.388 153.842 167.072 153.273 166.662 152.791C166.245 152.309 165.738 151.932 165.139 151.658C164.546 151.378 163.876 151.238 163.127 151.238C162.385 151.238 161.717 151.378 161.125 151.658C160.533 151.932 160.031 152.309 159.621 152.791C159.204 153.273 158.885 153.842 158.664 154.5C158.443 155.151 158.332 155.857 158.332 156.619ZM160.139 156.834V156.619C160.139 156.105 160.201 155.613 160.324 155.145C160.448 154.669 160.637 154.253 160.891 153.895C161.138 153.536 161.447 153.253 161.818 153.045C162.189 152.83 162.626 152.723 163.127 152.723C163.628 152.723 164.064 152.83 164.436 153.045C164.813 153.253 165.129 153.536 165.383 153.895C165.63 154.253 165.816 154.669 165.939 155.145C166.07 155.613 166.135 156.105 166.135 156.619V156.834C166.135 157.355 166.073 157.853 165.949 158.328C165.826 158.797 165.64 159.21 165.393 159.568C165.139 159.926 164.823 160.21 164.445 160.418C164.074 160.626 163.641 160.73 163.146 160.73C162.645 160.73 162.206 160.626 161.828 160.418C161.451 160.21 161.138 159.926 160.891 159.568C160.637 159.21 160.448 158.797 160.324 158.328C160.201 157.853 160.139 157.355 160.139 156.834ZM170.852 162H172.658V154.422C172.782 154.194 172.925 153.986 173.088 153.797C173.257 153.608 173.439 153.442 173.635 153.299C173.876 153.136 174.139 153.009 174.426 152.918C174.712 152.82 175.021 152.771 175.354 152.771C175.738 152.771 176.076 152.817 176.369 152.908C176.669 152.999 176.923 153.146 177.131 153.348C177.333 153.549 177.486 153.813 177.59 154.139C177.694 154.464 177.746 154.861 177.746 155.33V162H179.553V155.291C179.553 154.588 179.465 153.982 179.289 153.475C179.12 152.96 178.876 152.537 178.557 152.205C178.238 151.873 177.85 151.629 177.395 151.473C176.945 151.316 176.444 151.238 175.891 151.238C175.48 151.245 175.09 151.307 174.719 151.424C174.354 151.535 174.016 151.694 173.703 151.902C173.495 152.039 173.296 152.202 173.107 152.391C172.925 152.573 172.756 152.775 172.6 152.996L172.473 151.434H170.852V162ZM194.367 156.619V156.834C194.367 157.596 194.478 158.302 194.699 158.953C194.921 159.604 195.24 160.171 195.656 160.652C196.066 161.134 196.568 161.512 197.16 161.785C197.759 162.059 198.433 162.195 199.182 162.195C199.924 162.195 200.591 162.059 201.184 161.785C201.776 161.512 202.281 161.134 202.697 160.652C203.107 160.171 203.423 159.604 203.645 158.953C203.866 158.302 203.977 157.596 203.977 156.834V156.619C203.977 155.857 203.866 155.151 203.645 154.5C203.423 153.842 203.107 153.273 202.697 152.791C202.281 152.309 201.773 151.932 201.174 151.658C200.581 151.378 199.911 151.238 199.162 151.238C198.42 151.238 197.753 151.378 197.16 151.658C196.568 151.932 196.066 152.309 195.656 152.791C195.24 153.273 194.921 153.842 194.699 154.5C194.478 155.151 194.367 155.857 194.367 156.619ZM196.174 156.834V156.619C196.174 156.105 196.236 155.613 196.359 155.145C196.483 154.669 196.672 154.253 196.926 153.895C197.173 153.536 197.482 153.253 197.854 153.045C198.225 152.83 198.661 152.723 199.162 152.723C199.663 152.723 200.1 152.83 200.471 153.045C200.848 153.253 201.164 153.536 201.418 153.895C201.665 154.253 201.851 154.669 201.975 155.145C202.105 155.613 202.17 156.105 202.17 156.619V156.834C202.17 157.355 202.108 157.853 201.984 158.328C201.861 158.797 201.675 159.21 201.428 159.568C201.174 159.926 200.858 160.21 200.48 160.418C200.109 160.626 199.676 160.73 199.182 160.73C198.68 160.73 198.241 160.626 197.863 160.418C197.486 160.21 197.173 159.926 196.926 159.568C196.672 159.21 196.483 158.797 196.359 158.328C196.236 157.853 196.174 157.355 196.174 156.834ZM209.582 162H211.398V152.83H215.471V151.434H211.398V150.691C211.398 150.249 211.454 149.861 211.564 149.529C211.682 149.197 211.851 148.927 212.072 148.719C212.281 148.517 212.541 148.367 212.854 148.27C213.173 148.165 213.537 148.113 213.947 148.113C214.351 148.113 214.729 148.149 215.08 148.221C215.438 148.286 215.751 148.364 216.018 148.455L216.232 146.961C216.063 146.915 215.897 146.876 215.734 146.844C215.572 146.805 215.409 146.769 215.246 146.736C214.999 146.691 214.748 146.655 214.494 146.629C214.24 146.596 213.983 146.58 213.723 146.58C213.098 146.58 212.531 146.668 212.023 146.844C211.516 147.02 211.083 147.28 210.725 147.625C210.36 147.97 210.077 148.4 209.875 148.914C209.68 149.422 209.582 150.014 209.582 150.691V151.434H206.672V152.83H209.582V162ZM18.9766 174.875H17.1602V177.434H14.3867V178.83H17.1602V184.572C17.1602 185.223 17.2448 185.78 17.4141 186.242C17.5898 186.698 17.8275 187.069 18.127 187.355C18.4264 187.648 18.778 187.863 19.1816 188C19.5918 188.13 20.0312 188.195 20.5 188.195C20.7799 188.195 21.0599 188.182 21.3398 188.156C21.6263 188.13 21.8965 188.091 22.1504 188.039C22.4043 187.993 22.6387 187.938 22.8535 187.873C23.0684 187.801 23.2507 187.72 23.4004 187.629L23.1465 186.35C23.0358 186.376 22.8926 186.408 22.7168 186.447C22.5475 186.48 22.3652 186.512 22.1699 186.545C21.9681 186.577 21.763 186.607 21.5547 186.633C21.3464 186.652 21.1445 186.662 20.9492 186.662C20.6823 186.662 20.4284 186.63 20.1875 186.564C19.9531 186.499 19.7448 186.385 19.5625 186.223C19.3802 186.066 19.237 185.855 19.1328 185.588C19.0286 185.321 18.9766 184.982 18.9766 184.572V178.83H23V177.434H18.9766V174.875ZM28.5176 179.006V173H26.7109V188H28.5176V180.324C28.6478 180.116 28.7943 179.927 28.957 179.758C29.1263 179.582 29.3086 179.429 29.5039 179.299C29.7513 179.13 30.0215 178.999 30.3145 178.908C30.6074 178.817 30.9167 178.771 31.2422 178.771C31.6393 178.765 31.9909 178.82 32.2969 178.938C32.6029 179.048 32.8568 179.217 33.0586 179.445C33.2474 179.654 33.3906 179.917 33.4883 180.236C33.5859 180.549 33.6348 180.913 33.6348 181.33V188H35.4414V181.35C35.4414 180.64 35.3535 180.028 35.1777 179.514C35.0085 178.993 34.7643 178.563 34.4453 178.225C34.1263 177.886 33.7389 177.639 33.2832 177.482C32.834 177.32 32.3327 177.238 31.7793 177.238C31.3561 177.245 30.9557 177.307 30.5781 177.424C30.207 177.541 29.8652 177.714 29.5527 177.941C29.3574 178.078 29.1719 178.238 28.9961 178.42C28.8203 178.596 28.6608 178.791 28.5176 179.006ZM45.6465 177.238C44.8783 177.238 44.1914 177.408 43.5859 177.746C42.987 178.078 42.4727 178.534 42.043 179.113L42.0332 178.85L41.9551 177.434H40.2363V188H42.0527V181.223C42.1699 180.897 42.3164 180.604 42.4922 180.344C42.6745 180.077 42.8861 179.852 43.127 179.67C43.3939 179.462 43.7064 179.305 44.0645 179.201C44.4225 179.09 44.8229 179.035 45.2656 179.035C45.6107 179.035 45.9395 179.055 46.252 179.094C46.571 179.126 46.9062 179.182 47.2578 179.26L47.502 177.492C47.3197 177.414 47.0462 177.352 46.6816 177.307C46.3236 177.261 45.9785 177.238 45.6465 177.238ZM55.4023 188.195C56.431 188.195 57.2936 187.99 57.9902 187.58C58.6934 187.163 59.2207 186.688 59.5723 186.154L58.4688 185.295C58.1367 185.725 57.7201 186.07 57.2188 186.33C56.7174 186.59 56.1445 186.721 55.5 186.721C55.0117 186.721 54.5658 186.63 54.1621 186.447C53.7585 186.265 53.4134 186.014 53.127 185.695C52.847 185.396 52.6257 185.051 52.4629 184.66C52.3066 184.27 52.2057 183.817 52.1602 183.303V183.234H59.709V182.424C59.709 181.688 59.6146 181.005 59.4258 180.373C59.2435 179.742 58.9635 179.191 58.5859 178.723C58.2083 178.26 57.7331 177.899 57.1602 177.639C56.5938 177.372 55.9297 177.238 55.168 177.238C54.5625 177.238 53.9701 177.362 53.3906 177.609C52.8177 177.857 52.3066 178.212 51.8574 178.674C51.4017 179.143 51.0371 179.715 50.7637 180.393C50.4902 181.063 50.3535 181.825 50.3535 182.678V183.088C50.3535 183.824 50.4772 184.504 50.7246 185.129C50.972 185.754 51.3171 186.294 51.7598 186.75C52.2025 187.206 52.7331 187.561 53.3516 187.814C53.9766 188.068 54.6602 188.195 55.4023 188.195ZM55.168 178.723C55.6302 178.723 56.0273 178.807 56.3594 178.977C56.6979 179.146 56.9779 179.367 57.1992 179.641C57.4206 179.914 57.5931 180.24 57.7168 180.617C57.8405 180.988 57.9023 181.337 57.9023 181.662V181.75H52.2188C52.2904 181.262 52.4141 180.832 52.5898 180.461C52.7721 180.083 52.9935 179.764 53.2539 179.504C53.5143 179.25 53.8073 179.058 54.1328 178.928C54.4583 178.791 54.8034 178.723 55.168 178.723ZM67.4141 188.195C68.4427 188.195 69.3053 187.99 70.002 187.58C70.7051 187.163 71.2324 186.688 71.584 186.154L70.4805 185.295C70.1484 185.725 69.7318 186.07 69.2305 186.33C68.7292 186.59 68.1562 186.721 67.5117 186.721C67.0234 186.721 66.5775 186.63 66.1738 186.447C65.7702 186.265 65.4251 186.014 65.1387 185.695C64.8587 185.396 64.6374 185.051 64.4746 184.66C64.3184 184.27 64.2174 183.817 64.1719 183.303V183.234H71.7207V182.424C71.7207 181.688 71.6263 181.005 71.4375 180.373C71.2552 179.742 70.9753 179.191 70.5977 178.723C70.2201 178.26 69.7448 177.899 69.1719 177.639C68.6055 177.372 67.9414 177.238 67.1797 177.238C66.5742 177.238 65.9818 177.362 65.4023 177.609C64.8294 177.857 64.3184 178.212 63.8691 178.674C63.4134 179.143 63.0488 179.715 62.7754 180.393C62.502 181.063 62.3652 181.825 62.3652 182.678V183.088C62.3652 183.824 62.4889 184.504 62.7363 185.129C62.9837 185.754 63.3288 186.294 63.7715 186.75C64.2142 187.206 64.7448 187.561 65.3633 187.814C65.9883 188.068 66.6719 188.195 67.4141 188.195ZM67.1797 178.723C67.6419 178.723 68.0391 178.807 68.3711 178.977C68.7096 179.146 68.9896 179.367 69.2109 179.641C69.4323 179.914 69.6048 180.24 69.7285 180.617C69.8522 180.988 69.9141 181.337 69.9141 181.662V181.75H64.2305C64.3021 181.262 64.4258 180.832 64.6016 180.461C64.7839 180.083 65.0052 179.764 65.2656 179.504C65.526 179.25 65.819 179.058 66.1445 178.928C66.4701 178.791 66.8151 178.723 67.1797 178.723ZM86.4277 182.629V182.834C86.4277 183.589 86.5286 184.296 86.7305 184.953C86.9323 185.604 87.2155 186.171 87.5801 186.652C87.9447 187.134 88.3841 187.512 88.8984 187.785C89.4193 188.059 89.9987 188.195 90.6367 188.195C91.2878 188.195 91.8574 188.085 92.3457 187.863C92.834 187.642 93.2539 187.316 93.6055 186.887L93.6836 188H95.3438V173H93.5371V178.479C93.1921 178.075 92.7819 177.769 92.3066 177.561C91.8379 177.346 91.2878 177.238 90.6562 177.238C90.0117 177.238 89.429 177.372 88.9082 177.639C88.3874 177.906 87.9447 178.277 87.5801 178.752C87.209 179.227 86.9225 179.797 86.7207 180.461C86.5254 181.118 86.4277 181.841 86.4277 182.629ZM88.2344 182.834V182.629C88.2344 182.115 88.2897 181.626 88.4004 181.164C88.5111 180.695 88.6836 180.282 88.918 179.924C89.1458 179.572 89.4388 179.292 89.7969 179.084C90.1615 178.876 90.5977 178.771 91.1055 178.771C91.6979 178.771 92.1927 178.911 92.5898 179.191C92.987 179.465 93.3027 179.816 93.5371 180.246V185.148C93.3027 185.611 92.987 185.979 92.5898 186.252C92.1927 186.525 91.6914 186.662 91.0859 186.662C90.5846 186.662 90.1549 186.561 89.7969 186.359C89.4388 186.151 89.1458 185.871 88.918 185.52C88.6836 185.168 88.5111 184.761 88.4004 184.299C88.2897 183.837 88.2344 183.348 88.2344 182.834ZM99.0645 177.434V179.006H102.658V186.438H99.0645V188H107.912V186.438H104.465V177.434H99.0645ZM102.424 174.66C102.424 174.953 102.512 175.197 102.688 175.393C102.87 175.588 103.143 175.686 103.508 175.686C103.866 175.686 104.136 175.588 104.318 175.393C104.501 175.197 104.592 174.953 104.592 174.66C104.592 174.497 104.566 174.348 104.514 174.211C104.462 174.074 104.383 173.96 104.279 173.869C104.195 173.785 104.087 173.719 103.957 173.674C103.827 173.622 103.677 173.596 103.508 173.596C103.339 173.596 103.186 173.622 103.049 173.674C102.919 173.719 102.811 173.785 102.727 173.869C102.622 173.967 102.544 174.084 102.492 174.221C102.447 174.357 102.424 174.504 102.424 174.66ZM113.488 188H115.305V178.83H119.377V177.434H115.305V176.691C115.305 176.249 115.36 175.861 115.471 175.529C115.588 175.197 115.757 174.927 115.979 174.719C116.187 174.517 116.447 174.367 116.76 174.27C117.079 174.165 117.443 174.113 117.854 174.113C118.257 174.113 118.635 174.149 118.986 174.221C119.344 174.286 119.657 174.364 119.924 174.455L120.139 172.961C119.969 172.915 119.803 172.876 119.641 172.844C119.478 172.805 119.315 172.769 119.152 172.736C118.905 172.691 118.654 172.655 118.4 172.629C118.146 172.596 117.889 172.58 117.629 172.58C117.004 172.58 116.438 172.668 115.93 172.844C115.422 173.02 114.989 173.28 114.631 173.625C114.266 173.97 113.983 174.4 113.781 174.914C113.586 175.422 113.488 176.014 113.488 176.691V177.434H110.578V178.83H113.488V188ZM125.5 188H127.316V178.83H131.389V177.434H127.316V176.691C127.316 176.249 127.372 175.861 127.482 175.529C127.6 175.197 127.769 174.927 127.99 174.719C128.199 174.517 128.459 174.367 128.771 174.27C129.09 174.165 129.455 174.113 129.865 174.113C130.269 174.113 130.646 174.149 130.998 174.221C131.356 174.286 131.669 174.364 131.936 174.455L132.15 172.961C131.981 172.915 131.815 172.876 131.652 172.844C131.49 172.805 131.327 172.769 131.164 172.736C130.917 172.691 130.666 172.655 130.412 172.629C130.158 172.596 129.901 172.58 129.641 172.58C129.016 172.58 128.449 172.668 127.941 172.844C127.434 173.02 127.001 173.28 126.643 173.625C126.278 173.97 125.995 174.4 125.793 174.914C125.598 175.422 125.5 176.014 125.5 176.691V177.434H122.59V178.83H125.5V188ZM139.484 188.195C140.513 188.195 141.376 187.99 142.072 187.58C142.775 187.163 143.303 186.688 143.654 186.154L142.551 185.295C142.219 185.725 141.802 186.07 141.301 186.33C140.799 186.59 140.227 186.721 139.582 186.721C139.094 186.721 138.648 186.63 138.244 186.447C137.84 186.265 137.495 186.014 137.209 185.695C136.929 185.396 136.708 185.051 136.545 184.66C136.389 184.27 136.288 183.817 136.242 183.303V183.234H143.791V182.424C143.791 181.688 143.697 181.005 143.508 180.373C143.326 179.742 143.046 179.191 142.668 178.723C142.29 178.26 141.815 177.899 141.242 177.639C140.676 177.372 140.012 177.238 139.25 177.238C138.645 177.238 138.052 177.362 137.473 177.609C136.9 177.857 136.389 178.212 135.939 178.674C135.484 179.143 135.119 179.715 134.846 180.393C134.572 181.063 134.436 181.825 134.436 182.678V183.088C134.436 183.824 134.559 184.504 134.807 185.129C135.054 185.754 135.399 186.294 135.842 186.75C136.285 187.206 136.815 187.561 137.434 187.814C138.059 188.068 138.742 188.195 139.484 188.195ZM139.25 178.723C139.712 178.723 140.109 178.807 140.441 178.977C140.78 179.146 141.06 179.367 141.281 179.641C141.503 179.914 141.675 180.24 141.799 180.617C141.923 180.988 141.984 181.337 141.984 181.662V181.75H136.301C136.372 181.262 136.496 180.832 136.672 180.461C136.854 180.083 137.076 179.764 137.336 179.504C137.596 179.25 137.889 179.058 138.215 178.928C138.54 178.791 138.885 178.723 139.25 178.723ZM153.752 177.238C152.984 177.238 152.297 177.408 151.691 177.746C151.092 178.078 150.578 178.534 150.148 179.113L150.139 178.85L150.061 177.434H148.342V188H150.158V181.223C150.275 180.897 150.422 180.604 150.598 180.344C150.78 180.077 150.992 179.852 151.232 179.67C151.499 179.462 151.812 179.305 152.17 179.201C152.528 179.09 152.928 179.035 153.371 179.035C153.716 179.035 154.045 179.055 154.357 179.094C154.676 179.126 155.012 179.182 155.363 179.26L155.607 177.492C155.425 177.414 155.152 177.352 154.787 177.307C154.429 177.261 154.084 177.238 153.752 177.238ZM163.508 188.195C164.536 188.195 165.399 187.99 166.096 187.58C166.799 187.163 167.326 186.688 167.678 186.154L166.574 185.295C166.242 185.725 165.826 186.07 165.324 186.33C164.823 186.59 164.25 186.721 163.605 186.721C163.117 186.721 162.671 186.63 162.268 186.447C161.864 186.265 161.519 186.014 161.232 185.695C160.952 185.396 160.731 185.051 160.568 184.66C160.412 184.27 160.311 183.817 160.266 183.303V183.234H167.814V182.424C167.814 181.688 167.72 181.005 167.531 180.373C167.349 179.742 167.069 179.191 166.691 178.723C166.314 178.26 165.839 177.899 165.266 177.639C164.699 177.372 164.035 177.238 163.273 177.238C162.668 177.238 162.076 177.362 161.496 177.609C160.923 177.857 160.412 178.212 159.963 178.674C159.507 179.143 159.143 179.715 158.869 180.393C158.596 181.063 158.459 181.825 158.459 182.678V183.088C158.459 183.824 158.583 184.504 158.83 185.129C159.077 185.754 159.423 186.294 159.865 186.75C160.308 187.206 160.839 187.561 161.457 187.814C162.082 188.068 162.766 188.195 163.508 188.195ZM163.273 178.723C163.736 178.723 164.133 178.807 164.465 178.977C164.803 179.146 165.083 179.367 165.305 179.641C165.526 179.914 165.699 180.24 165.822 180.617C165.946 180.988 166.008 181.337 166.008 181.662V181.75H160.324C160.396 181.262 160.52 180.832 160.695 180.461C160.878 180.083 161.099 179.764 161.359 179.504C161.62 179.25 161.913 179.058 162.238 178.928C162.564 178.791 162.909 178.723 163.273 178.723ZM170.852 188H172.658V180.422C172.782 180.194 172.925 179.986 173.088 179.797C173.257 179.608 173.439 179.442 173.635 179.299C173.876 179.136 174.139 179.009 174.426 178.918C174.712 178.82 175.021 178.771 175.354 178.771C175.738 178.771 176.076 178.817 176.369 178.908C176.669 178.999 176.923 179.146 177.131 179.348C177.333 179.549 177.486 179.813 177.59 180.139C177.694 180.464 177.746 180.861 177.746 181.33V188H179.553V181.291C179.553 180.588 179.465 179.982 179.289 179.475C179.12 178.96 178.876 178.537 178.557 178.205C178.238 177.873 177.85 177.629 177.395 177.473C176.945 177.316 176.444 177.238 175.891 177.238C175.48 177.245 175.09 177.307 174.719 177.424C174.354 177.535 174.016 177.694 173.703 177.902C173.495 178.039 173.296 178.202 173.107 178.391C172.925 178.573 172.756 178.775 172.6 178.996L172.473 177.434H170.852V188ZM187.141 174.875H185.324V177.434H182.551V178.83H185.324V184.572C185.324 185.223 185.409 185.78 185.578 186.242C185.754 186.698 185.992 187.069 186.291 187.355C186.59 187.648 186.942 187.863 187.346 188C187.756 188.13 188.195 188.195 188.664 188.195C188.944 188.195 189.224 188.182 189.504 188.156C189.79 188.13 190.061 188.091 190.314 188.039C190.568 187.993 190.803 187.938 191.018 187.873C191.232 187.801 191.415 187.72 191.564 187.629L191.311 186.35C191.2 186.376 191.057 186.408 190.881 186.447C190.712 186.48 190.529 186.512 190.334 186.545C190.132 186.577 189.927 186.607 189.719 186.633C189.51 186.652 189.309 186.662 189.113 186.662C188.846 186.662 188.592 186.63 188.352 186.564C188.117 186.499 187.909 186.385 187.727 186.223C187.544 186.066 187.401 185.855 187.297 185.588C187.193 185.321 187.141 184.982 187.141 184.572V178.83H191.164V177.434H187.141V174.875ZM15.7148 214H17.1406L18.7715 207.525L19.0352 205.885L19.3086 207.525L20.959 214H22.3848L24.6309 203.434H23.0293L21.8574 210.172L21.5938 211.832L21.3105 210.172L19.6309 203.434H18.4688L16.7793 210.172L16.5156 211.686L16.3008 210.172L15.0703 203.434H13.4688L15.7148 214ZM31.3789 214.195C32.4076 214.195 33.2702 213.99 33.9668 213.58C34.6699 213.163 35.1973 212.688 35.5488 212.154L34.4453 211.295C34.1133 211.725 33.6966 212.07 33.1953 212.33C32.694 212.59 32.1211 212.721 31.4766 212.721C30.9883 212.721 30.5423 212.63 30.1387 212.447C29.735 212.265 29.39 212.014 29.1035 211.695C28.8236 211.396 28.6022 211.051 28.4395 210.66C28.2832 210.27 28.1823 209.817 28.1367 209.303V209.234H35.6855V208.424C35.6855 207.688 35.5911 207.005 35.4023 206.373C35.2201 205.742 34.9401 205.191 34.5625 204.723C34.1849 204.26 33.7096 203.899 33.1367 203.639C32.5703 203.372 31.9062 203.238 31.1445 203.238C30.5391 203.238 29.9466 203.362 29.3672 203.609C28.7943 203.857 28.2832 204.212 27.834 204.674C27.3783 205.143 27.0137 205.715 26.7402 206.393C26.4668 207.063 26.3301 207.825 26.3301 208.678V209.088C26.3301 209.824 26.4538 210.504 26.7012 211.129C26.9486 211.754 27.2936 212.294 27.7363 212.75C28.179 213.206 28.7096 213.561 29.3281 213.814C29.9531 214.068 30.6367 214.195 31.3789 214.195ZM31.1445 204.723C31.6068 204.723 32.0039 204.807 32.3359 204.977C32.6745 205.146 32.9544 205.367 33.1758 205.641C33.3971 205.914 33.5697 206.24 33.6934 206.617C33.8171 206.988 33.8789 207.337 33.8789 207.662V207.75H28.1953C28.2669 207.262 28.3906 206.832 28.5664 206.461C28.7487 206.083 28.9701 205.764 29.2305 205.504C29.4909 205.25 29.7839 205.058 30.1094 204.928C30.4349 204.791 30.7799 204.723 31.1445 204.723ZM47.6777 208.834V208.629C47.6777 208.076 47.6322 207.551 47.541 207.057C47.4499 206.555 47.3164 206.1 47.1406 205.689C46.9714 205.325 46.776 204.996 46.5547 204.703C46.3333 204.404 46.0827 204.15 45.8027 203.941C45.4902 203.72 45.1419 203.548 44.7578 203.424C44.3737 203.3 43.9538 203.238 43.498 203.238C43.1335 203.238 42.7949 203.274 42.4824 203.346C42.1699 203.417 41.8835 203.521 41.623 203.658C41.4147 203.769 41.2194 203.902 41.0371 204.059C40.8548 204.208 40.6888 204.378 40.5391 204.566V199H38.7324V214H40.3926L40.4805 212.799C40.5977 212.949 40.7214 213.085 40.8516 213.209C40.9818 213.333 41.1185 213.447 41.2617 213.551C41.5612 213.759 41.8965 213.919 42.2676 214.029C42.6452 214.14 43.0618 214.195 43.5176 214.195C43.9147 214.195 44.2826 214.146 44.6211 214.049C44.9661 213.951 45.2819 213.814 45.5684 213.639C45.9655 213.385 46.304 213.066 46.584 212.682C46.8704 212.291 47.1016 211.852 47.2773 211.363C47.4076 210.992 47.5052 210.595 47.5703 210.172C47.6419 209.742 47.6777 209.296 47.6777 208.834ZM45.8711 208.629V208.834C45.8711 209.146 45.8516 209.452 45.8125 209.752C45.7734 210.051 45.7116 210.331 45.627 210.592C45.5228 210.937 45.3828 211.249 45.207 211.529C45.0312 211.809 44.8132 212.04 44.5527 212.223C44.3574 212.366 44.1361 212.477 43.8887 212.555C43.6413 212.626 43.3678 212.662 43.0684 212.662C42.7559 212.662 42.4694 212.623 42.209 212.545C41.9486 212.46 41.7142 212.343 41.5059 212.193C41.2975 212.044 41.112 211.871 40.9492 211.676C40.793 211.474 40.6562 211.256 40.5391 211.021V206.402C40.6497 206.168 40.7832 205.953 40.9395 205.758C41.1022 205.556 41.2878 205.38 41.4961 205.23C41.6979 205.087 41.929 204.977 42.1895 204.898C42.4499 204.814 42.7363 204.771 43.0488 204.771C43.3353 204.771 43.5957 204.804 43.8301 204.869C44.0645 204.934 44.276 205.025 44.4648 205.143C44.7383 205.305 44.9694 205.53 45.1582 205.816C45.347 206.103 45.5 206.419 45.6172 206.764C45.7018 207.044 45.7637 207.343 45.8027 207.662C45.8483 207.975 45.8711 208.297 45.8711 208.629ZM57.7559 211.197C57.7559 211.367 57.7233 211.526 57.6582 211.676C57.5931 211.826 57.4987 211.962 57.375 212.086C57.1732 212.288 56.8932 212.447 56.5352 212.564C56.1771 212.675 55.7572 212.73 55.2754 212.73C54.9694 212.73 54.6602 212.698 54.3477 212.633C54.0352 212.568 53.752 212.457 53.498 212.301C53.2376 212.145 53.0195 211.939 52.8438 211.686C52.6745 211.432 52.5768 211.119 52.5508 210.748H50.7441C50.7441 211.197 50.8451 211.63 51.0469 212.047C51.2552 212.464 51.5547 212.828 51.9453 213.141C52.3294 213.46 52.8014 213.717 53.3613 213.912C53.9212 214.101 54.5592 214.195 55.2754 214.195C55.9004 214.195 56.4766 214.12 57.0039 213.971C57.5312 213.821 57.9837 213.609 58.3613 213.336C58.7389 213.062 59.0319 212.734 59.2402 212.35C59.4551 211.965 59.5625 211.539 59.5625 211.07C59.5625 210.634 59.4681 210.25 59.2793 209.918C59.097 209.586 58.8301 209.293 58.4785 209.039C58.127 208.792 57.694 208.58 57.1797 208.404C56.6654 208.222 56.0827 208.062 55.4316 207.926C54.9368 207.828 54.5267 207.727 54.2012 207.623C53.8822 207.519 53.6283 207.402 53.4395 207.271C53.2441 207.141 53.1074 206.995 53.0293 206.832C52.9512 206.669 52.9121 206.484 52.9121 206.275C52.9121 206.074 52.9609 205.878 53.0586 205.689C53.1562 205.501 53.3027 205.335 53.498 205.191C53.6868 205.048 53.9245 204.934 54.2109 204.85C54.5039 204.765 54.8424 204.723 55.2266 204.723C55.5977 204.723 55.9297 204.775 56.2227 204.879C56.5221 204.983 56.776 205.12 56.9844 205.289C57.1927 205.458 57.3555 205.654 57.4727 205.875C57.5898 206.09 57.6484 206.311 57.6484 206.539H59.4551C59.4551 206.077 59.3542 205.647 59.1523 205.25C58.957 204.846 58.6771 204.495 58.3125 204.195C57.9479 203.896 57.5052 203.661 56.9844 203.492C56.4635 203.323 55.8776 203.238 55.2266 203.238C54.6211 203.238 54.0645 203.32 53.5566 203.482C53.0553 203.645 52.6224 203.867 52.2578 204.146C51.8932 204.426 51.61 204.755 51.4082 205.133C51.2064 205.504 51.1055 205.904 51.1055 206.334C51.1055 206.77 51.2031 207.154 51.3984 207.486C51.5938 207.812 51.8704 208.095 52.2285 208.336C52.5801 208.583 53.0033 208.795 53.498 208.971C53.9993 209.146 54.5527 209.296 55.1582 209.42C55.653 209.518 56.0664 209.628 56.3984 209.752C56.7305 209.869 56.9974 209.999 57.1992 210.143C57.401 210.286 57.5443 210.445 57.6289 210.621C57.7135 210.79 57.7559 210.982 57.7559 211.197ZM63.0293 203.434V205.006H66.623V212.438H63.0293V214H71.877V212.438H68.4297V203.434H63.0293ZM66.3887 200.66C66.3887 200.953 66.4766 201.197 66.6523 201.393C66.8346 201.588 67.1081 201.686 67.4727 201.686C67.8307 201.686 68.1009 201.588 68.2832 201.393C68.4655 201.197 68.5566 200.953 68.5566 200.66C68.5566 200.497 68.5306 200.348 68.4785 200.211C68.4264 200.074 68.3483 199.96 68.2441 199.869C68.1595 199.785 68.0521 199.719 67.9219 199.674C67.7917 199.622 67.6419 199.596 67.4727 199.596C67.3034 199.596 67.1504 199.622 67.0137 199.674C66.8835 199.719 66.776 199.785 66.6914 199.869C66.5872 199.967 66.5091 200.084 66.457 200.221C66.4115 200.357 66.3887 200.504 66.3887 200.66ZM79.0352 200.875H77.2188V203.434H74.4453V204.83H77.2188V210.572C77.2188 211.223 77.3034 211.78 77.4727 212.242C77.6484 212.698 77.8861 213.069 78.1855 213.355C78.485 213.648 78.8366 213.863 79.2402 214C79.6504 214.13 80.0898 214.195 80.5586 214.195C80.8385 214.195 81.1185 214.182 81.3984 214.156C81.6849 214.13 81.9551 214.091 82.209 214.039C82.4629 213.993 82.6973 213.938 82.9121 213.873C83.127 213.801 83.3092 213.72 83.459 213.629L83.2051 212.35C83.0944 212.376 82.9512 212.408 82.7754 212.447C82.6061 212.48 82.4238 212.512 82.2285 212.545C82.0267 212.577 81.8216 212.607 81.6133 212.633C81.4049 212.652 81.2031 212.662 81.0078 212.662C80.7409 212.662 80.487 212.63 80.2461 212.564C80.0117 212.499 79.8034 212.385 79.6211 212.223C79.4388 212.066 79.2956 211.855 79.1914 211.588C79.0872 211.321 79.0352 210.982 79.0352 210.572V204.83H83.0586V203.434H79.0352V200.875ZM91.4375 214.195C92.4661 214.195 93.3288 213.99 94.0254 213.58C94.7285 213.163 95.2559 212.688 95.6074 212.154L94.5039 211.295C94.1719 211.725 93.7552 212.07 93.2539 212.33C92.7526 212.59 92.1797 212.721 91.5352 212.721C91.0469 212.721 90.6009 212.63 90.1973 212.447C89.7936 212.265 89.4486 212.014 89.1621 211.695C88.8822 211.396 88.6608 211.051 88.498 210.66C88.3418 210.27 88.2409 209.817 88.1953 209.303V209.234H95.7441V208.424C95.7441 207.688 95.6497 207.005 95.4609 206.373C95.2786 205.742 94.9987 205.191 94.6211 204.723C94.2435 204.26 93.7682 203.899 93.1953 203.639C92.6289 203.372 91.9648 203.238 91.2031 203.238C90.5977 203.238 90.0052 203.362 89.4258 203.609C88.8529 203.857 88.3418 204.212 87.8926 204.674C87.4368 205.143 87.0723 205.715 86.7988 206.393C86.5254 207.063 86.3887 207.825 86.3887 208.678V209.088C86.3887 209.824 86.5124 210.504 86.7598 211.129C87.0072 211.754 87.3522 212.294 87.7949 212.75C88.2376 213.206 88.7682 213.561 89.3867 213.814C90.0117 214.068 90.6953 214.195 91.4375 214.195ZM91.2031 204.723C91.6654 204.723 92.0625 204.807 92.3945 204.977C92.7331 205.146 93.013 205.367 93.2344 205.641C93.4557 205.914 93.6283 206.24 93.752 206.617C93.8757 206.988 93.9375 207.337 93.9375 207.662V207.75H88.2539C88.3255 207.262 88.4492 206.832 88.625 206.461C88.8073 206.083 89.0286 205.764 89.2891 205.504C89.5495 205.25 89.8424 205.058 90.168 204.928C90.4935 204.791 90.8385 204.723 91.2031 204.723ZM105.803 211.197C105.803 211.367 105.77 211.526 105.705 211.676C105.64 211.826 105.546 211.962 105.422 212.086C105.22 212.288 104.94 212.447 104.582 212.564C104.224 212.675 103.804 212.73 103.322 212.73C103.016 212.73 102.707 212.698 102.395 212.633C102.082 212.568 101.799 212.457 101.545 212.301C101.285 212.145 101.066 211.939 100.891 211.686C100.721 211.432 100.624 211.119 100.598 210.748H98.791C98.791 211.197 98.8919 211.63 99.0938 212.047C99.3021 212.464 99.6016 212.828 99.9922 213.141C100.376 213.46 100.848 213.717 101.408 213.912C101.968 214.101 102.606 214.195 103.322 214.195C103.947 214.195 104.523 214.12 105.051 213.971C105.578 213.821 106.031 213.609 106.408 213.336C106.786 213.062 107.079 212.734 107.287 212.35C107.502 211.965 107.609 211.539 107.609 211.07C107.609 210.634 107.515 210.25 107.326 209.918C107.144 209.586 106.877 209.293 106.525 209.039C106.174 208.792 105.741 208.58 105.227 208.404C104.712 208.222 104.13 208.062 103.479 207.926C102.984 207.828 102.574 207.727 102.248 207.623C101.929 207.519 101.675 207.402 101.486 207.271C101.291 207.141 101.154 206.995 101.076 206.832C100.998 206.669 100.959 206.484 100.959 206.275C100.959 206.074 101.008 205.878 101.105 205.689C101.203 205.501 101.35 205.335 101.545 205.191C101.734 205.048 101.971 204.934 102.258 204.85C102.551 204.765 102.889 204.723 103.273 204.723C103.645 204.723 103.977 204.775 104.27 204.879C104.569 204.983 104.823 205.12 105.031 205.289C105.24 205.458 105.402 205.654 105.52 205.875C105.637 206.09 105.695 206.311 105.695 206.539H107.502C107.502 206.077 107.401 205.647 107.199 205.25C107.004 204.846 106.724 204.495 106.359 204.195C105.995 203.896 105.552 203.661 105.031 203.492C104.51 203.323 103.924 203.238 103.273 203.238C102.668 203.238 102.111 203.32 101.604 203.482C101.102 203.645 100.669 203.867 100.305 204.146C99.9401 204.426 99.6569 204.755 99.4551 205.133C99.2533 205.504 99.1523 205.904 99.1523 206.334C99.1523 206.77 99.25 207.154 99.4453 207.486C99.6406 207.812 99.9173 208.095 100.275 208.336C100.627 208.583 101.05 208.795 101.545 208.971C102.046 209.146 102.6 209.296 103.205 209.42C103.7 209.518 104.113 209.628 104.445 209.752C104.777 209.869 105.044 209.999 105.246 210.143C105.448 210.286 105.591 210.445 105.676 210.621C105.76 210.79 105.803 210.982 105.803 211.197ZM113.938 212.828C113.938 213.206 114.055 213.528 114.289 213.795C114.53 214.055 114.885 214.186 115.354 214.186C115.816 214.186 116.171 214.055 116.418 213.795C116.665 213.535 116.789 213.212 116.789 212.828C116.789 212.438 116.665 212.109 116.418 211.842C116.177 211.568 115.822 211.432 115.354 211.432C114.878 211.432 114.523 211.568 114.289 211.842C114.055 212.115 113.938 212.444 113.938 212.828ZM143.723 214V199.781H141.896L141.867 210.387L136.35 199.781H134.514V214H136.34L136.369 203.375L141.887 214H143.723ZM146.32 208.619V208.834C146.32 209.596 146.431 210.302 146.652 210.953C146.874 211.604 147.193 212.171 147.609 212.652C148.02 213.134 148.521 213.512 149.113 213.785C149.712 214.059 150.386 214.195 151.135 214.195C151.877 214.195 152.544 214.059 153.137 213.785C153.729 213.512 154.234 213.134 154.65 212.652C155.061 212.171 155.376 211.604 155.598 210.953C155.819 210.302 155.93 209.596 155.93 208.834V208.619C155.93 207.857 155.819 207.151 155.598 206.5C155.376 205.842 155.061 205.273 154.65 204.791C154.234 204.309 153.726 203.932 153.127 203.658C152.535 203.378 151.864 203.238 151.115 203.238C150.373 203.238 149.706 203.378 149.113 203.658C148.521 203.932 148.02 204.309 147.609 204.791C147.193 205.273 146.874 205.842 146.652 206.5C146.431 207.151 146.32 207.857 146.32 208.619ZM148.127 208.834V208.619C148.127 208.105 148.189 207.613 148.312 207.145C148.436 206.669 148.625 206.253 148.879 205.895C149.126 205.536 149.436 205.253 149.807 205.045C150.178 204.83 150.614 204.723 151.115 204.723C151.617 204.723 152.053 204.83 152.424 205.045C152.801 205.253 153.117 205.536 153.371 205.895C153.618 206.253 153.804 206.669 153.928 207.145C154.058 207.613 154.123 208.105 154.123 208.619V208.834C154.123 209.355 154.061 209.853 153.938 210.328C153.814 210.797 153.628 211.21 153.381 211.568C153.127 211.926 152.811 212.21 152.434 212.418C152.062 212.626 151.63 212.73 151.135 212.73C150.633 212.73 150.194 212.626 149.816 212.418C149.439 212.21 149.126 211.926 148.879 211.568C148.625 211.21 148.436 210.797 148.312 210.328C148.189 209.853 148.127 209.355 148.127 208.834ZM163.117 200.875H161.301V203.434H158.527V204.83H161.301V210.572C161.301 211.223 161.385 211.78 161.555 212.242C161.73 212.698 161.968 213.069 162.268 213.355C162.567 213.648 162.919 213.863 163.322 214C163.732 214.13 164.172 214.195 164.641 214.195C164.921 214.195 165.201 214.182 165.48 214.156C165.767 214.13 166.037 214.091 166.291 214.039C166.545 213.993 166.779 213.938 166.994 213.873C167.209 213.801 167.391 213.72 167.541 213.629L167.287 212.35C167.176 212.376 167.033 212.408 166.857 212.447C166.688 212.48 166.506 212.512 166.311 212.545C166.109 212.577 165.904 212.607 165.695 212.633C165.487 212.652 165.285 212.662 165.09 212.662C164.823 212.662 164.569 212.63 164.328 212.564C164.094 212.499 163.885 212.385 163.703 212.223C163.521 212.066 163.378 211.855 163.273 211.588C163.169 211.321 163.117 210.982 163.117 210.572V204.83H167.141V203.434H163.117V200.875ZM187.141 200.875H185.324V203.434H182.551V204.83H185.324V210.572C185.324 211.223 185.409 211.78 185.578 212.242C185.754 212.698 185.992 213.069 186.291 213.355C186.59 213.648 186.942 213.863 187.346 214C187.756 214.13 188.195 214.195 188.664 214.195C188.944 214.195 189.224 214.182 189.504 214.156C189.79 214.13 190.061 214.091 190.314 214.039C190.568 213.993 190.803 213.938 191.018 213.873C191.232 213.801 191.415 213.72 191.564 213.629L191.311 212.35C191.2 212.376 191.057 212.408 190.881 212.447C190.712 212.48 190.529 212.512 190.334 212.545C190.132 212.577 189.927 212.607 189.719 212.633C189.51 212.652 189.309 212.662 189.113 212.662C188.846 212.662 188.592 212.63 188.352 212.564C188.117 212.499 187.909 212.385 187.727 212.223C187.544 212.066 187.401 211.855 187.297 211.588C187.193 211.321 187.141 210.982 187.141 210.572V204.83H191.164V203.434H187.141V200.875ZM194.367 208.619V208.834C194.367 209.596 194.478 210.302 194.699 210.953C194.921 211.604 195.24 212.171 195.656 212.652C196.066 213.134 196.568 213.512 197.16 213.785C197.759 214.059 198.433 214.195 199.182 214.195C199.924 214.195 200.591 214.059 201.184 213.785C201.776 213.512 202.281 213.134 202.697 212.652C203.107 212.171 203.423 211.604 203.645 210.953C203.866 210.302 203.977 209.596 203.977 208.834V208.619C203.977 207.857 203.866 207.151 203.645 206.5C203.423 205.842 203.107 205.273 202.697 204.791C202.281 204.309 201.773 203.932 201.174 203.658C200.581 203.378 199.911 203.238 199.162 203.238C198.42 203.238 197.753 203.378 197.16 203.658C196.568 203.932 196.066 204.309 195.656 204.791C195.24 205.273 194.921 205.842 194.699 206.5C194.478 207.151 194.367 207.857 194.367 208.619ZM196.174 208.834V208.619C196.174 208.105 196.236 207.613 196.359 207.145C196.483 206.669 196.672 206.253 196.926 205.895C197.173 205.536 197.482 205.253 197.854 205.045C198.225 204.83 198.661 204.723 199.162 204.723C199.663 204.723 200.1 204.83 200.471 205.045C200.848 205.253 201.164 205.536 201.418 205.895C201.665 206.253 201.851 206.669 201.975 207.145C202.105 207.613 202.17 208.105 202.17 208.619V208.834C202.17 209.355 202.108 209.853 201.984 210.328C201.861 210.797 201.675 211.21 201.428 211.568C201.174 211.926 200.858 212.21 200.48 212.418C200.109 212.626 199.676 212.73 199.182 212.73C198.68 212.73 198.241 212.626 197.863 212.418C197.486 212.21 197.173 211.926 196.926 211.568C196.672 211.21 196.483 210.797 196.359 210.328C196.236 209.853 196.174 209.355 196.174 208.834ZM206.379 208.619V208.834C206.379 209.596 206.49 210.302 206.711 210.953C206.932 211.604 207.251 212.171 207.668 212.652C208.078 213.134 208.579 213.512 209.172 213.785C209.771 214.059 210.445 214.195 211.193 214.195C211.936 214.195 212.603 214.059 213.195 213.785C213.788 213.512 214.292 213.134 214.709 212.652C215.119 212.171 215.435 211.604 215.656 210.953C215.878 210.302 215.988 209.596 215.988 208.834V208.619C215.988 207.857 215.878 207.151 215.656 206.5C215.435 205.842 215.119 205.273 214.709 204.791C214.292 204.309 213.785 203.932 213.186 203.658C212.593 203.378 211.923 203.238 211.174 203.238C210.432 203.238 209.764 203.378 209.172 203.658C208.579 203.932 208.078 204.309 207.668 204.791C207.251 205.273 206.932 205.842 206.711 206.5C206.49 207.151 206.379 207.857 206.379 208.619ZM208.186 208.834V208.619C208.186 208.105 208.247 207.613 208.371 207.145C208.495 206.669 208.684 206.253 208.938 205.895C209.185 205.536 209.494 205.253 209.865 205.045C210.236 204.83 210.673 204.723 211.174 204.723C211.675 204.723 212.111 204.83 212.482 205.045C212.86 205.253 213.176 205.536 213.43 205.895C213.677 206.253 213.863 206.669 213.986 207.145C214.117 207.613 214.182 208.105 214.182 208.619V208.834C214.182 209.355 214.12 209.853 213.996 210.328C213.872 210.797 213.687 211.21 213.439 211.568C213.186 211.926 212.87 212.21 212.492 212.418C212.121 212.626 211.688 212.73 211.193 212.73C210.692 212.73 210.253 212.626 209.875 212.418C209.497 212.21 209.185 211.926 208.938 211.568C208.684 211.21 208.495 210.797 208.371 210.328C208.247 209.853 208.186 209.355 208.186 208.834ZM19.3672 240.195C20.3958 240.195 21.2585 239.99 21.9551 239.58C22.6582 239.163 23.1855 238.688 23.5371 238.154L22.4336 237.295C22.1016 237.725 21.6849 238.07 21.1836 238.33C20.6823 238.59 20.1094 238.721 19.4648 238.721C18.9766 238.721 18.5306 238.63 18.127 238.447C17.7233 238.265 17.3783 238.014 17.0918 237.695C16.8118 237.396 16.5905 237.051 16.4277 236.66C16.2715 236.27 16.1706 235.817 16.125 235.303V235.234H23.6738V234.424C23.6738 233.688 23.5794 233.005 23.3906 232.373C23.2083 231.742 22.9284 231.191 22.5508 230.723C22.1732 230.26 21.6979 229.899 21.125 229.639C20.5586 229.372 19.8945 229.238 19.1328 229.238C18.5273 229.238 17.9349 229.362 17.3555 229.609C16.7826 229.857 16.2715 230.212 15.8223 230.674C15.3665 231.143 15.002 231.715 14.7285 232.393C14.4551 233.063 14.3184 233.825 14.3184 234.678V235.088C14.3184 235.824 14.4421 236.504 14.6895 237.129C14.9368 237.754 15.2819 238.294 15.7246 238.75C16.1673 239.206 16.6979 239.561 17.3164 239.814C17.9414 240.068 18.625 240.195 19.3672 240.195ZM19.1328 230.723C19.5951 230.723 19.9922 230.807 20.3242 230.977C20.6628 231.146 20.9427 231.367 21.1641 231.641C21.3854 231.914 21.5579 232.24 21.6816 232.617C21.8053 232.988 21.8672 233.337 21.8672 233.662V233.75H16.1836C16.2552 233.262 16.3789 232.832 16.5547 232.461C16.737 232.083 16.9583 231.764 17.2188 231.504C17.4792 231.25 17.7721 231.058 18.0977 230.928C18.4232 230.791 18.7682 230.723 19.1328 230.723ZM31.0762 233.35L28.2832 229.434H26.1934L30.1289 234.658L26.0859 240H28.1953L31.1152 235.977L34.0352 240H36.125L32.082 234.658L36.0176 229.434H33.8984L31.0762 233.35ZM43.2246 238.73C42.6582 238.73 42.1829 238.62 41.7988 238.398C41.4212 238.171 41.1185 237.874 40.8906 237.51C40.6562 237.152 40.487 236.748 40.3828 236.299C40.2852 235.843 40.2363 235.384 40.2363 234.922V234.512C40.2363 234.056 40.2852 233.604 40.3828 233.154C40.487 232.705 40.6562 232.298 40.8906 231.934C41.125 231.576 41.431 231.286 41.8086 231.064C42.1927 230.837 42.6647 230.723 43.2246 230.723C43.5892 230.723 43.9277 230.785 44.2402 230.908C44.5592 231.032 44.8327 231.201 45.0605 231.416C45.2884 231.631 45.4674 231.882 45.5977 232.168C45.7344 232.448 45.806 232.747 45.8125 233.066H47.5215C47.5215 232.533 47.4141 232.031 47.1992 231.562C46.9844 231.094 46.6882 230.687 46.3105 230.342C45.9264 230.003 45.4707 229.736 44.9434 229.541C44.4225 229.339 43.8496 229.238 43.2246 229.238C42.4238 229.238 41.724 229.382 41.125 229.668C40.526 229.954 40.028 230.339 39.6309 230.82C39.2272 231.309 38.9245 231.872 38.7227 232.51C38.5208 233.148 38.4199 233.815 38.4199 234.512V234.922C38.4199 235.625 38.5208 236.296 38.7227 236.934C38.9245 237.565 39.2272 238.122 39.6309 238.604C40.028 239.092 40.526 239.479 41.125 239.766C41.724 240.052 42.4238 240.195 43.2246 240.195C43.7845 240.195 44.3216 240.101 44.8359 239.912C45.3503 239.717 45.806 239.456 46.2031 239.131C46.6003 238.812 46.916 238.441 47.1504 238.018C47.3913 237.588 47.515 237.139 47.5215 236.67H45.8125C45.806 236.963 45.7279 237.236 45.5781 237.49C45.4349 237.738 45.2428 237.952 45.002 238.135C44.7611 238.324 44.4844 238.47 44.1719 238.574C43.8659 238.678 43.5501 238.73 43.2246 238.73ZM51.0176 229.434V231.006H54.6113V238.438H51.0176V240H59.8652V238.438H56.418V229.434H51.0176ZM54.377 226.66C54.377 226.953 54.4648 227.197 54.6406 227.393C54.8229 227.588 55.0964 227.686 55.4609 227.686C55.819 227.686 56.0892 227.588 56.2715 227.393C56.4538 227.197 56.5449 226.953 56.5449 226.66C56.5449 226.497 56.5189 226.348 56.4668 226.211C56.4147 226.074 56.3366 225.96 56.2324 225.869C56.1478 225.785 56.0404 225.719 55.9102 225.674C55.7799 225.622 55.6302 225.596 55.4609 225.596C55.2917 225.596 55.1387 225.622 55.002 225.674C54.8717 225.719 54.7643 225.785 54.6797 225.869C54.5755 225.967 54.4974 226.084 54.4453 226.221C54.3997 226.357 54.377 226.504 54.377 226.66ZM67.0234 226.875H65.207V229.434H62.4336V230.83H65.207V236.572C65.207 237.223 65.2917 237.78 65.4609 238.242C65.6367 238.698 65.8743 239.069 66.1738 239.355C66.4733 239.648 66.8249 239.863 67.2285 240C67.6387 240.13 68.0781 240.195 68.5469 240.195C68.8268 240.195 69.1068 240.182 69.3867 240.156C69.6732 240.13 69.9434 240.091 70.1973 240.039C70.4512 239.993 70.6855 239.938 70.9004 239.873C71.1152 239.801 71.2975 239.72 71.4473 239.629L71.1934 238.35C71.0827 238.376 70.9395 238.408 70.7637 238.447C70.5944 238.48 70.4121 238.512 70.2168 238.545C70.015 238.577 69.8099 238.607 69.6016 238.633C69.3932 238.652 69.1914 238.662 68.9961 238.662C68.7292 238.662 68.4753 238.63 68.2344 238.564C68 238.499 67.7917 238.385 67.6094 238.223C67.4271 238.066 67.2839 237.855 67.1797 237.588C67.0755 237.321 67.0234 236.982 67.0234 236.572V230.83H71.0469V229.434H67.0234V226.875ZM75.041 229.434V231.006H78.6348V238.438H75.041V240H83.8887V238.438H80.4414V229.434H75.041ZM78.4004 226.66C78.4004 226.953 78.4883 227.197 78.6641 227.393C78.8464 227.588 79.1198 227.686 79.4844 227.686C79.8424 227.686 80.1126 227.588 80.2949 227.393C80.4772 227.197 80.5684 226.953 80.5684 226.66C80.5684 226.497 80.5423 226.348 80.4902 226.211C80.4382 226.074 80.36 225.96 80.2559 225.869C80.1712 225.785 80.0638 225.719 79.9336 225.674C79.8034 225.622 79.6536 225.596 79.4844 225.596C79.3151 225.596 79.1621 225.622 79.0254 225.674C78.8952 225.719 78.7878 225.785 78.7031 225.869C78.599 225.967 78.5208 226.084 78.4688 226.221C78.4232 226.357 78.4004 226.504 78.4004 226.66ZM86.7695 240H88.5762V232.422C88.6999 232.194 88.8431 231.986 89.0059 231.797C89.1751 231.608 89.3574 231.442 89.5527 231.299C89.7936 231.136 90.0573 231.009 90.3438 230.918C90.6302 230.82 90.9395 230.771 91.2715 230.771C91.6556 230.771 91.9941 230.817 92.2871 230.908C92.5866 230.999 92.8405 231.146 93.0488 231.348C93.2507 231.549 93.4036 231.813 93.5078 232.139C93.612 232.464 93.6641 232.861 93.6641 233.33V240H95.4707V233.291C95.4707 232.588 95.3828 231.982 95.207 231.475C95.0378 230.96 94.7936 230.537 94.4746 230.205C94.1556 229.873 93.7682 229.629 93.3125 229.473C92.8633 229.316 92.362 229.238 91.8086 229.238C91.3984 229.245 91.0078 229.307 90.6367 229.424C90.2721 229.535 89.9336 229.694 89.6211 229.902C89.4128 230.039 89.2142 230.202 89.0254 230.391C88.8431 230.573 88.6738 230.775 88.5176 230.996L88.3906 229.434H86.7695V240ZM98.4492 234.629V234.834C98.4492 235.589 98.5469 236.296 98.7422 236.953C98.9375 237.604 99.2174 238.171 99.582 238.652C99.9401 239.134 100.38 239.512 100.9 239.785C101.421 240.059 102.004 240.195 102.648 240.195C103.033 240.195 103.391 240.153 103.723 240.068C104.055 239.99 104.357 239.876 104.631 239.727C104.807 239.629 104.969 239.515 105.119 239.385C105.275 239.255 105.422 239.111 105.559 238.955V239.863C105.559 240.319 105.493 240.723 105.363 241.074C105.233 241.426 105.048 241.719 104.807 241.953C104.559 242.194 104.263 242.376 103.918 242.5C103.573 242.624 103.186 242.686 102.756 242.686C102.515 242.686 102.274 242.66 102.033 242.607C101.792 242.562 101.551 242.484 101.311 242.373C101.07 242.262 100.832 242.113 100.598 241.924C100.363 241.742 100.135 241.517 99.9141 241.25L98.9766 242.334C99.2174 242.679 99.5039 242.969 99.8359 243.203C100.174 243.438 100.526 243.623 100.891 243.76C101.249 243.903 101.604 244.004 101.955 244.062C102.307 244.128 102.619 244.16 102.893 244.16C103.557 244.16 104.162 244.062 104.709 243.867C105.256 243.672 105.728 243.385 106.125 243.008C106.516 242.63 106.818 242.171 107.033 241.631C107.255 241.09 107.365 240.472 107.365 239.775V229.434H105.725L105.637 230.586C105.513 230.43 105.38 230.286 105.236 230.156C105.1 230.026 104.953 229.912 104.797 229.814C104.51 229.626 104.188 229.482 103.83 229.385C103.479 229.287 103.091 229.238 102.668 229.238C102.01 229.238 101.421 229.372 100.9 229.639C100.38 229.906 99.9368 230.277 99.5723 230.752C99.2077 231.227 98.9277 231.797 98.7324 232.461C98.5436 233.118 98.4492 233.841 98.4492 234.629ZM100.256 234.834V234.629C100.256 234.115 100.308 233.626 100.412 233.164C100.523 232.695 100.695 232.282 100.93 231.924C101.158 231.572 101.451 231.292 101.809 231.084C102.173 230.876 102.609 230.771 103.117 230.771C103.417 230.771 103.69 230.811 103.938 230.889C104.185 230.96 104.41 231.061 104.611 231.191C104.813 231.328 104.992 231.488 105.148 231.67C105.305 231.852 105.441 232.054 105.559 232.275V237.119C105.441 237.347 105.305 237.555 105.148 237.744C104.992 237.933 104.816 238.096 104.621 238.232C104.419 238.369 104.191 238.477 103.938 238.555C103.69 238.626 103.41 238.662 103.098 238.662C102.596 238.662 102.167 238.561 101.809 238.359C101.451 238.151 101.158 237.871 100.93 237.52C100.695 237.168 100.523 236.761 100.412 236.299C100.308 235.837 100.256 235.348 100.256 234.834ZM127.082 226.875H125.266V229.434H122.492V230.83H125.266V236.572C125.266 237.223 125.35 237.78 125.52 238.242C125.695 238.698 125.933 239.069 126.232 239.355C126.532 239.648 126.883 239.863 127.287 240C127.697 240.13 128.137 240.195 128.605 240.195C128.885 240.195 129.165 240.182 129.445 240.156C129.732 240.13 130.002 240.091 130.256 240.039C130.51 239.993 130.744 239.938 130.959 239.873C131.174 239.801 131.356 239.72 131.506 239.629L131.252 238.35C131.141 238.376 130.998 238.408 130.822 238.447C130.653 238.48 130.471 238.512 130.275 238.545C130.074 238.577 129.868 238.607 129.66 238.633C129.452 238.652 129.25 238.662 129.055 238.662C128.788 238.662 128.534 238.63 128.293 238.564C128.059 238.499 127.85 238.385 127.668 238.223C127.486 238.066 127.342 237.855 127.238 237.588C127.134 237.321 127.082 236.982 127.082 236.572V230.83H131.105V229.434H127.082V226.875ZM143.771 234.834V234.629C143.771 234.076 143.726 233.551 143.635 233.057C143.544 232.555 143.41 232.1 143.234 231.689C143.065 231.325 142.87 230.996 142.648 230.703C142.427 230.404 142.176 230.15 141.896 229.941C141.584 229.72 141.236 229.548 140.852 229.424C140.467 229.3 140.048 229.238 139.592 229.238C139.227 229.238 138.889 229.274 138.576 229.346C138.264 229.417 137.977 229.521 137.717 229.658C137.508 229.769 137.313 229.902 137.131 230.059C136.949 230.208 136.783 230.378 136.633 230.566V225H134.826V240H136.486L136.574 238.799C136.691 238.949 136.815 239.085 136.945 239.209C137.076 239.333 137.212 239.447 137.355 239.551C137.655 239.759 137.99 239.919 138.361 240.029C138.739 240.14 139.156 240.195 139.611 240.195C140.008 240.195 140.376 240.146 140.715 240.049C141.06 239.951 141.376 239.814 141.662 239.639C142.059 239.385 142.398 239.066 142.678 238.682C142.964 238.291 143.195 237.852 143.371 237.363C143.501 236.992 143.599 236.595 143.664 236.172C143.736 235.742 143.771 235.296 143.771 234.834ZM141.965 234.629V234.834C141.965 235.146 141.945 235.452 141.906 235.752C141.867 236.051 141.805 236.331 141.721 236.592C141.617 236.937 141.477 237.249 141.301 237.529C141.125 237.809 140.907 238.04 140.646 238.223C140.451 238.366 140.23 238.477 139.982 238.555C139.735 238.626 139.462 238.662 139.162 238.662C138.85 238.662 138.563 238.623 138.303 238.545C138.042 238.46 137.808 238.343 137.6 238.193C137.391 238.044 137.206 237.871 137.043 237.676C136.887 237.474 136.75 237.256 136.633 237.021V232.402C136.743 232.168 136.877 231.953 137.033 231.758C137.196 231.556 137.382 231.38 137.59 231.23C137.792 231.087 138.023 230.977 138.283 230.898C138.544 230.814 138.83 230.771 139.143 230.771C139.429 230.771 139.689 230.804 139.924 230.869C140.158 230.934 140.37 231.025 140.559 231.143C140.832 231.305 141.063 231.53 141.252 231.816C141.441 232.103 141.594 232.419 141.711 232.764C141.796 233.044 141.857 233.343 141.896 233.662C141.942 233.975 141.965 234.297 141.965 234.629ZM148.635 231.006V225H146.828V240H148.635V232.324C148.765 232.116 148.911 231.927 149.074 231.758C149.243 231.582 149.426 231.429 149.621 231.299C149.868 231.13 150.139 230.999 150.432 230.908C150.725 230.817 151.034 230.771 151.359 230.771C151.757 230.765 152.108 230.82 152.414 230.938C152.72 231.048 152.974 231.217 153.176 231.445C153.365 231.654 153.508 231.917 153.605 232.236C153.703 232.549 153.752 232.913 153.752 233.33V240H155.559V233.35C155.559 232.64 155.471 232.028 155.295 231.514C155.126 230.993 154.882 230.563 154.562 230.225C154.243 229.886 153.856 229.639 153.4 229.482C152.951 229.32 152.45 229.238 151.896 229.238C151.473 229.245 151.073 229.307 150.695 229.424C150.324 229.541 149.982 229.714 149.67 229.941C149.475 230.078 149.289 230.238 149.113 230.42C148.938 230.596 148.778 230.791 148.635 231.006ZM161.984 238.828C161.984 239.206 162.102 239.528 162.336 239.795C162.577 240.055 162.932 240.186 163.4 240.186C163.863 240.186 164.217 240.055 164.465 239.795C164.712 239.535 164.836 239.212 164.836 238.828C164.836 238.438 164.712 238.109 164.465 237.842C164.224 237.568 163.869 237.432 163.4 237.432C162.925 237.432 162.57 237.568 162.336 237.842C162.102 238.115 161.984 238.444 161.984 238.828ZM173.996 238.828C173.996 239.206 174.113 239.528 174.348 239.795C174.589 240.055 174.943 240.186 175.412 240.186C175.874 240.186 176.229 240.055 176.477 239.795C176.724 239.535 176.848 239.212 176.848 238.828C176.848 238.438 176.724 238.109 176.477 237.842C176.236 237.568 175.881 237.432 175.412 237.432C174.937 237.432 174.582 237.568 174.348 237.842C174.113 238.115 173.996 238.444 173.996 238.828ZM186.008 238.828C186.008 239.206 186.125 239.528 186.359 239.795C186.6 240.055 186.955 240.186 187.424 240.186C187.886 240.186 188.241 240.055 188.488 239.795C188.736 239.535 188.859 239.212 188.859 238.828C188.859 238.438 188.736 238.109 188.488 237.842C188.247 237.568 187.893 237.432 187.424 237.432C186.949 237.432 186.594 237.568 186.359 237.842C186.125 238.115 186.008 238.444 186.008 238.828Z" fill="black"/>
<defs>
<linearGradient id="paint0_linear" x1="123.5" y1="0" x2="123.5" y2="328" gradientUnits="userSpaceOnUse">
<stop stop-color="#9D1A1A"/>
<stop offset="1" stop-color="white" stop-opacity="0"/>
</linearGradient>
<linearGradient id="paint1_linear" x1="123.5" y1="0" x2="123.5" y2="328" gradientUnits="userSpaceOnUse">
<stop stop-color="#CFCED6"/>
<stop offset="1" stop-color="#B7C0F2"/>
</linearGradient>
</defs>
</svg>
